/* XPM */
static char *result[] = {
/* columns rows colors chars-per-pixel */
"32 32 170 2 ",
"   c #181818",
".  c #1D1A19",
"X  c #1D1B1B",
"o  c #1E1C1B",
"O  c #1D1C1C",
"+  c #1E1D1C",
"@  c #1F1D1D",
"#  c #1F1E1D",
"$  c #201F1F",
"%  c #202021",
"&  c #222222",
"*  c #232222",
"=  c #222323",
"-  c #232323",
";  c #252322",
":  c #232324",
">  c #232424",
",  c #242425",
"<  c #252525",
"1  c #252626",
"2  c #242627",
"3  c #252627",
"4  c #282625",
"5  c #2E2A27",
"6  c #26282A",
"7  c #26292A",
"8  c #27292B",
"9  c #282A2B",
"0  c #292B2C",
"q  c #282B2D",
"w  c #292C2D",
"e  c #292D2E",
"r  c #302B28",
"t  c #3C322B",
"y  c #3C332C",
"u  c #3D332C",
"i  c #3C332D",
"p  c #3D342E",
"a  c #3D352E",
"s  c #2A2E30",
"d  c #2B2F31",
"f  c #2B2F32",
"g  c #2B3031",
"h  c #2C3131",
"j  c #2C3032",
"k  c #2D3232",
"l  c #2E3232",
"z  c #2E3336",
"x  c #2E3437",
"c  c #2F3537",
"v  c #2F3539",
"b  c gray20",
"n  c #31393F",
"m  c #343C3F",
"M  c #443931",
"N  c #493C33",
"B  c #4A3D33",
"V  c #353D40",
"C  c #353D41",
"Z  c #343C43",
"A  c #353E42",
"S  c #343D44",
"D  c #343E46",
"F  c #353F47",
"G  c #374044",
"H  c #374045",
"J  c #384246",
"K  c #364148",
"L  c #374148",
"P  c #364149",
"I  c #37424A",
"U  c #37424B",
"Y  c #394349",
"T  c #38434B",
"R  c #3A454A",
"E  c #3C474D",
"W  c #3D4A52",
"Q  c #3F4C52",
"!  c #3E4B55",
"~  c gray30",
"^  c #534B45",
"/  c #544C45",
"(  c #43504D",
")  c #58524E",
"_  c #404E54",
"`  c #404E59",
"'  c #404F5A",
"]  c #40505B",
"[  c #44535B",
"{  c #41515C",
"}  c #41515D",
"|  c #43535D",
" . c #42525E",
".. c #48585E",
"X. c #4B5D5E",
"o. c #505050",
"O. c #445562",
"+. c #465763",
"@. c #475862",
"#. c #465863",
"$. c #485960",
"%. c #495A62",
"&. c #4B5F6B",
"*. c #4C606E",
"=. c #4E626F",
"-. c #50646D",
";. c #4B6070",
":. c #526771",
">. c #536973",
",. c #556C72",
"<. c #536974",
"1. c #526977",
"2. c #576F77",
"3. c #576F7A",
"4. c #556E7F",
"5. c #577079",
"6. c #56707F",
"7. c #5A747F",
"8. c #5B747F",
"9. c #686868",
"0. c #6D6D6D",
"q. c #7E7E7D",
"w. c #577080",
"e. c #577181",
"r. c #587181",
"t. c #597485",
"y. c #5B7684",
"u. c #5E7885",
"i. c #5C7788",
"p. c #5D7989",
"a. c #607B88",
"s. c #617D8A",
"d. c #668380",
"f. c #6A8883",
"g. c #64818F",
"h. c #67848D",
"j. c #658393",
"k. c #668492",
"l. c #668595",
"z. c #688795",
"x. c #688797",
"c. c #6C8C90",
"v. c #698997",
"b. c #698998",
"n. c #698999",
"m. c #6A8A99",
"M. c #6B8B9A",
"N. c #6C8C9C",
"B. c #6C8D9D",
"V. c #6C8E9D",
"C. c #6E8F9E",
"Z. c #6E8F9F",
"A. c #739696",
"S. c #779B96",
"D. c #789C97",
"F. c #73969F",
"G. c #7599A4",
"H. c #799EA4",
"J. c #7EA6AA",
"K. c #9A9A9A",
"L. c #A4A4A4",
"P. c #A5A5A5",
"I. c #A9A9A9",
"U. c #B6B5B5",
"Y. c #B6B6B6",
"T. c gray73",
"R. c #BBBBBB",
"E. c #E9E9E9",
"W. c #FBFBFB",
"Q. c None",
/* pixels */
"Q.Q.Q.Q.Q.Q.Q.Q.Q.Q.Q.Q.Q.Q.Q.Q.Q.Q.Q.Q.Q.Q.Q.Q.Q.Q.Q.Q.Q.Q.Q.Q.",
"Q.Q.Q.Q.Q.Q.Q.Q.Q.Q.Q.Q.Q.Q.Q.Q.Q.Q.Q.Q.Q.Q.Q.Q.Q.Q.Q.Q.Q.Q.Q.Q.",
"Q.Q.Q.Q.Q.Q.Q.Q.Q.Q.Q.Q.Q.Q.Q.Q.Q.Q.Q.Q.Q.Q.Q.Q.Q.Q.Q.Q.Q.Q.Q.Q.",
"Q.Q.Q.Q.Q.Q.Q.Q.Q.Q.Q.Q.Q.Q.Q.Q.Q.Q.Q.Q.Q.Q.Q.Q.Q.Q.Q.Q.Q.Q.Q.Q.",
"Q.Q.Q.Q.Q.Q.Q.Q.Q.Q.Q.Q.Q.Q.Q.Q.Q.Q.Q.Q.Q.Q.Q.Q.Q.Q.Q.Q.Q.Q.Q.Q.",
"Q.Q.Q.Q.Q.Q.Q.Q.Q.Q.Q.Q.Q.Q.Q.Q.Q.Q.Q.Q.Q.Q.Q.Q.Q.Q.Q.Q.Q.Q.Q.Q.",
"Q.Q.Q.Q.Q.Q.Q.Q.Q.Q.Q.Q.Q.Q.Q.Q.Q.Q.Q.Q.Q.Q.Q.Q.Q.Q.Q.Q.Q.Q.Q.Q.",
"Q.Q.Q.Q.Q.Q.Q.Q.Q.Q.Q.Q.Q.$ $ $ $ $ $ $ $ Q.Q.Q.Q.Q.Q.Q.Q.Q.Q.Q.",
"Q.Q.Q.Q.Q.Q.Q.Q.Q.Q.Q.Q.Z I K K K K K P D 6 Q.Q.Q.Q.Q.Q.Q.Q.Q.Q.",
"Q.Q.Q.Q.Q.Q.Q.Q.Q.Q.Q.- { 4.r.e.e.e.e.y.5.w Q.Q.Q.Q.Q.Q.Q.Q.Q.Q.",
"Q.Q.Q.Q.Q.Q.Q.Q.Q.Q.Q.- ' p.M.m.m.m.b.F.S.l Q.Q.Q.Q.Q.Q.Q.Q.Q.Q.",
"Q.Q.Q.Q.Q.Q.Q.Q.Q.Q.Q.- ' p.m.b.b.b.x.F.D.l Q.Q.Q.Q.Q.Q.Q.Q.Q.Q.",
"Q.Q.Q.Q.Q.Q.Q.Q.Q.Q.Q.- } | V G G H m ..h.g Q.Q.Q.Q.Q.Q.Q.Q.Q.Q.",
"Q.Q.Q.Q.Q.Q.Q.  Q.Q.Q.- ] &.J o # . x ,.c.h Q.Q.Q.Q.Q.Q.Q.Q.Q.Q.",
"Q.Q.Q.Q.Q.Q.- ~ o.Q.Q.- #.l.u.A 1 c :.G.A.k O Q.Q.Q.Q.Q.Q.Q.Q.Q.",
"Q.Q.Q.Q.Q.Q.< Y.K.b Q.: -.z.N.s.d >.V.v.8.e ; 4 Q.Q.Q.Q.Q.Q.Q.Q.",
"Q.Q.Q.Q.Q.Q.< P.E.I.< Q.9 %.B.s.j <.Z.3.s , M i % Q.Q.Q.Q.Q.Q.Q.",
"Q.Q.Q.Q.Q.Q.< L.W.T.< @ + d G H ` Y C z 3 ! / u % Q.Q.Q.Q.Q.Q.Q.",
"Q.Q.Q.Q.Q.Q.Q.9.R.U.0 _ W f 2 U ;.@.X.( q *.) t % Q.Q.Q.Q.Q.Q.Q.",
"Q.Q.Q.Q.Q.Q.Q.Q.0.q.j g.i.F v 6.w.j.J.f.8 ! ^ y % Q.Q.Q.Q.Q.Q.Q.",
"Q.Q.Q.Q.Q.Q.Q.Q.Q.* s 7.1.L E v.m.n.H.d.> - B a % Q.Q.Q.Q.Q.Q.Q.",
"Q.Q.Q.Q.Q.Q.Q.Q.Q.Q.Q.s 7 [ k.v.b.b.C.2.: & N p % Q.Q.Q.Q.Q.Q.Q.",
"Q.Q.Q.Q.Q.Q.Q.Q.Q.Q.Q.Q.o $.a.G G =.t.+.- Q.r 5 Q.Q.Q.Q.Q.Q.Q.Q.",
"Q.Q.Q.Q.Q.Q.Q.Q.Q.Q.Q.Q.Q.R Q o X n O. .- Q.Q.Q.Q.Q.Q.Q.Q.Q.Q.Q.",
"Q.Q.Q.Q.Q.Q.Q.Q.Q.Q.Q.Q.Q.Q.# Q.Q.Q.S T = Q.Q.Q.Q.Q.Q.Q.Q.Q.Q.Q.",
"Q.Q.Q.Q.Q.Q.Q.Q.Q.Q.Q.Q.Q.Q.Q.Q.Q.Q.Q.= & Q.Q.Q.Q.Q.Q.Q.Q.Q.Q.Q.",
"Q.Q.Q.Q.Q.Q.Q.Q.Q.Q.Q.Q.Q.Q.Q.Q.Q.Q.Q.Q.Q.Q.Q.Q.Q.Q.Q.Q.Q.Q.Q.Q.",
"Q.Q.Q.Q.Q.Q.Q.Q.Q.Q.Q.Q.Q.Q.Q.Q.Q.Q.Q.Q.Q.Q.Q.Q.Q.Q.Q.Q.Q.Q.Q.Q.",
"Q.Q.Q.Q.Q.Q.Q.Q.Q.Q.Q.Q.Q.Q.Q.Q.Q.Q.Q.Q.Q.Q.Q.Q.Q.Q.Q.Q.Q.Q.Q.Q.",
"Q.Q.Q.Q.Q.Q.Q.Q.Q.Q.Q.Q.Q.Q.Q.Q.Q.Q.Q.Q.Q.Q.Q.Q.Q.Q.Q.Q.Q.Q.Q.Q.",
"Q.Q.Q.Q.Q.Q.Q.Q.Q.Q.Q.Q.Q.Q.Q.Q.Q.Q.Q.Q.Q.Q.Q.Q.Q.Q.Q.Q.Q.Q.Q.Q.",
"Q.Q.Q.Q.Q.Q.Q.Q.Q.Q.Q.Q.Q.Q.Q.Q.Q.Q.Q.Q.Q.Q.Q.Q.Q.Q.Q.Q.Q.Q.Q.Q."
};
