/* XPM */
static char *result[] = {
/* columns rows colors chars-per-pixel */
"32 32 166 2 ",
"   c #181818",
".  c #1D1A19",
"X  c #1D1B1B",
"o  c #1E1C1B",
"O  c #1F1D1C",
"+  c #1F1D1D",
"@  c #1F1E1D",
"#  c #1F1E1E",
"$  c #201F1F",
"%  c #20201F",
"&  c #212020",
"*  c #202021",
"=  c gray13",
"-  c #222222",
";  c #232222",
":  c #222323",
">  c #232323",
",  c #232324",
"<  c gray14",
"1  c #252525",
"2  c #262524",
"3  c #252626",
"4  c #292826",
"5  c #2A2827",
"6  c #26282A",
"7  c #282A2B",
"8  c #292B2C",
"9  c #292C2D",
"0  c #302B28",
"q  c #342E2A",
"w  c #37312B",
"e  c #38312C",
"r  c #39322C",
"t  c #3C332D",
"y  c #3D342E",
"u  c #3D352E",
"i  c #2A2E30",
"p  c #2B2E30",
"a  c #2B2F31",
"s  c #2B2F32",
"d  c #2B3031",
"f  c #2C3131",
"g  c #2D3131",
"h  c #2C3032",
"j  c #2D3132",
"k  c #2C3133",
"l  c #2E3232",
"z  c #2E3437",
"x  c #2F3537",
"c  c gray20",
"v  c #31393F",
"b  c #343C3F",
"n  c #40362F",
"m  c #4F4035",
"M  c #504136",
"N  c #514236",
"B  c #524237",
"V  c #524337",
"C  c #59483A",
"Z  c #5A483A",
"A  c #343C40",
"S  c #353D40",
"D  c #353D41",
"F  c #343C43",
"G  c #353E42",
"H  c #363F43",
"J  c #343D44",
"K  c #343E46",
"L  c #353F47",
"P  c #374044",
"I  c #374045",
"U  c #384246",
"Y  c #364148",
"T  c #374148",
"R  c #364149",
"E  c #37424A",
"W  c #394349",
"Q  c #38434B",
"!  c #3F4D53",
"~  c gray30",
"^  c #43514E",
"/  c #404D54",
"(  c #404E59",
")  c #404F5A",
"_  c #40505B",
"`  c #44535B",
"'  c #41515C",
"]  c #41515D",
"[  c #43535D",
"{  c #42525E",
"}  c #48585E",
"|  c #4B5D5E",
" . c #505050",
".. c #445562",
"X. c #475862",
"o. c #465863",
"O. c #465864",
"+. c #485961",
"@. c #495A62",
"#. c #4B5F6B",
"$. c #4E626F",
"%. c #50646D",
"&. c #4B6070",
"*. c #526771",
"=. c #536973",
"-. c #556C72",
";. c #536974",
":. c #566E77",
">. c #566D78",
",. c #536B7C",
"<. c #556E7F",
"1. c #577079",
"2. c #57707F",
"3. c #5A737E",
"4. c #686868",
"5. c #6D6D6D",
"6. c #7E7E7D",
"7. c #65827F",
"8. c #577181",
"9. c #587181",
"0. c #5B7580",
"q. c #597485",
"w. c #5A7484",
"e. c #5B7684",
"r. c #5E7885",
"t. c #5F7A86",
"y. c #5D7989",
"u. c #617D8A",
"i. c #6A8983",
"p. c #63808E",
"a. c #67848D",
"s. c #658393",
"d. c #668595",
"f. c #688795",
"g. c #688797",
"h. c #6C8C90",
"j. c #698897",
"k. c #698997",
"l. c #698998",
"z. c #698999",
"x. c #6A8998",
"c. c #6A8A99",
"v. c #6B8B9A",
"b. c #6C8C9C",
"n. c #6C8D9D",
"m. c #6C8E9D",
"M. c #6E8F9E",
"N. c #6E8F9F",
"B. c #739696",
"V. c #779B96",
"C. c #789C97",
"Z. c #73969F",
"A. c #7599A4",
"S. c #799EA4",
"D. c #7EA6AA",
"F. c #9A9A9A",
"G. c #A4A4A4",
"H. c #A5A5A5",
"J. c #A9A9A9",
"K. c #B6B5B5",
"L. c #B6B6B6",
"P. c gray73",
"I. c #BBBBBB",
"U. c #E9E9E9",
"Y. c #FBFBFB",
"T. c None",
/* pixels */
"T.T.T.T.T.T.T.T.T.T.T.T.T.T.T.T.T.T.T.T.T.T.T.T.T.T.T.T.T.T.T.T.",
"T.T.T.T.T.T.T.T.T.T.T.T.T.T.T.T.T.T.T.T.T.T.T.T.T.T.T.T.T.T.T.T.",
"T.T.T.T.T.T.T.T.T.T.T.T.T.T.T.T.T.T.T.T.T.T.T.T.T.T.T.T.T.T.T.T.",
"T.T.T.T.T.T.T.T.T.T.T.T.T.T.T.T.T.T.T.T.T.T.T.T.T.T.T.T.T.T.T.T.",
"T.T.T.T.T.T.T.T.T.T.T.T.T.T.T.T.T.T.T.T.T.T.T.T.T.T.T.T.T.T.T.T.",
"T.T.T.T.T.T.T.T.T.T.T.T.T.T.T.T.T.T.T.T.T.T.T.T.T.T.T.T.T.T.T.T.",
"T.T.T.T.T.T.T.T.T.T.T.T.T.T.T.T.T.T.T.T.T.T.T.T.T.T.T.T.T.T.T.T.",
"T.T.T.T.T.T.T.T.T.T.T.T.T.$ $ $ $ $ $ $ $ T.T.T.T.T.T.T.T.T.T.T.",
"T.T.T.T.T.T.T.T.T.T.T.T.F E Y Y Y Y Y R K 6 T.T.T.T.T.T.T.T.T.T.",
"T.T.T.T.T.T.T.T.T.T.T.> ' <.9.8.8.8.8.e.1.9 T.T.T.T.T.T.T.T.T.T.",
"T.T.T.T.T.T.T.T.T.T.T.> ) y.v.c.c.c.l.Z.V.l T.T.T.T.T.T.T.T.T.T.",
"T.T.T.T.T.T.T.T.T.T.T.> ) y.c.l.l.l.g.Z.C.l T.T.T.T.T.T.T.T.T.T.",
"T.T.T.T.T.T.T.T.T.T.T.> ] [ S P P I b } a.d T.T.T.T.T.T.T.T.T.T.",
"T.T.T.T.T.T.T.  T.T.T.> _ #.U o @ . z -.h.f T.T.T.T.T.T.T.T.T.T.",
"T.T.T.T.T.T.> ~  .T.T.> o.d.r.G 3 x *.A.B.g T.T.T.T.T.T.T.T.T.T.",
"T.T.T.T.T.T.1 L.F.c T., %.f.b.u.a =.m.j.0.i T.T.T.T.T.T.T.T.T.T.",
"T.T.T.T.T.T.1 H.U.J.1 T.7 @.n.u.h ;.N.>.a T.; T.T.T.T.T.T.T.T.T.",
"T.T.T.T.T.T.1 G.Y.P.1 + # a H I ( W D z & = n e T.T.T.T.T.T.T.T.",
"T.T.T.T.T.T.T.4.I.K.8 / k s L Q &.X.| ^ 2 r V y * T.T.T.T.T.T.T.",
"T.T.T.T.T.T.T.T.5.6.j p.U L ,.8.2.s.D.i.5 B Z t * T.T.T.T.T.T.T.",
"T.T.T.T.T.T.T.T.T.; p 3.A T w.x.c.z.S.7.4 N Z t * T.T.T.T.T.T.T.",
"T.T.T.T.T.T.T.T.T.T.T.i > ` z.k.l.l.M.:.4 M C t * T.T.T.T.T.T.T.",
"T.T.T.T.T.T.T.T.T.T.T.T.O +.t.P P $.q.O.< 0 m u * T.T.T.T.T.T.T.",
"T.T.T.T.T.T.T.T.T.T.T.T.& b ! o X v ..{ : * w q T.T.T.T.T.T.T.T.",
"T.T.T.T.T.T.T.T.T.T.T.T.- % T.T.T.T.J Q : T.T.T.T.T.T.T.T.T.T.T.",
"T.T.T.T.T.T.T.T.T.T.T.T.T.T.T.T.T.T.T.: - T.T.T.T.T.T.T.T.T.T.T.",
"T.T.T.T.T.T.T.T.T.T.T.T.T.T.T.T.T.T.T.T.T.T.T.T.T.T.T.T.T.T.T.T.",
"T.T.T.T.T.T.T.T.T.T.T.T.T.T.T.T.T.T.T.T.T.T.T.T.T.T.T.T.T.T.T.T.",
"T.T.T.T.T.T.T.T.T.T.T.T.T.T.T.T.T.T.T.T.T.T.T.T.T.T.T.T.T.T.T.T.",
"T.T.T.T.T.T.T.T.T.T.T.T.T.T.T.T.T.T.T.T.T.T.T.T.T.T.T.T.T.T.T.T.",
"T.T.T.T.T.T.T.T.T.T.T.T.T.T.T.T.T.T.T.T.T.T.T.T.T.T.T.T.T.T.T.T.",
"T.T.T.T.T.T.T.T.T.T.T.T.T.T.T.T.T.T.T.T.T.T.T.T.T.T.T.T.T.T.T.T."
};
