/* XPM */
static char *result[] = {
/* columns rows colors chars-per-pixel */
"32 32 173 2 ",
"   c #1C1A18",
".  c #1D1B1A",
"X  c gray11",
"o  c #1D1D1D",
"O  c #1E1D1C",
"+  c #1F1D1C",
"@  c #1F1E1D",
"#  c #201E1D",
"$  c #201F1E",
"%  c #201F1F",
"&  c #212020",
"*  c #202021",
"=  c #222121",
"-  c #222222",
";  c #222323",
":  c #232323",
">  c #232324",
",  c #232424",
"<  c #232425",
"1  c gray14",
"2  c #252525",
"3  c #252626",
"4  c #262828",
"5  c #272829",
"6  c #27292A",
"7  c #26292B",
"8  c #272A2B",
"9  c #282B2C",
"0  c #282B2D",
"q  c #342E2A",
"w  c #30302F",
"e  c #3C322B",
"r  c #3C332B",
"t  c #38312C",
"y  c #39312C",
"u  c #3C332C",
"i  c #3D342D",
"p  c #3D342E",
"a  c #3E352E",
"s  c #2A2E30",
"d  c #2B2E30",
"f  c #2B2F30",
"g  c #2C3031",
"h  c #2D3131",
"j  c #2D3032",
"k  c #2D3232",
"l  c #2E3332",
"z  c #2D3335",
"x  c #2D3337",
"c  c #2E3438",
"v  c #2E3439",
"b  c #343434",
"n  c gray21",
"m  c #30373B",
"M  c #343C39",
"N  c #32393C",
"B  c #32393E",
"V  c #32393F",
"C  c #333B3F",
"Z  c #343B3F",
"A  c #393939",
"S  c #4A3D33",
"D  c #4B3F36",
"F  c #343D41",
"G  c #353E41",
"H  c #353E42",
"J  c #363F43",
"K  c #343E45",
"L  c #353F45",
"P  c #353E46",
"I  c #384242",
"U  c #384247",
"Y  c #364048",
"T  c #394348",
"R  c #38434A",
"E  c #38434C",
"W  c #39444C",
"Q  c #3F4D55",
"!  c #524840",
"~  c #554F49",
"^  c #58524E",
"/  c #404D55",
"(  c #404E54",
")  c #414F57",
"_  c #404F5A",
"`  c #425058",
"'  c #435259",
"]  c #44535A",
"[  c #41515C",
"{  c #42525D",
"}  c #42525E",
"|  c #43545E",
" . c #45545C",
".. c #46565D",
"X. c #46565E",
"o. c #47575F",
"O. c #48595F",
"+. c #445561",
"@. c #445663",
"#. c #475864",
"$. c #485960",
"%. c #495B64",
"&. c #4A5B64",
"*. c #4A5D69",
"=. c #4B5F6D",
"-. c #4E616A",
";. c #4E636F",
":. c #516670",
">. c #516771",
",. c #516777",
"<. c #546970",
"1. c #516877",
"2. c #576F77",
"3. c #516878",
"4. c #526A79",
"5. c #536A79",
"6. c #566D78",
"7. c #58707B",
"8. c #5A737F",
"9. c gray49",
"0. c #65807D",
"q. c #577181",
"w. c #587282",
"e. c #587283",
"r. c #5A7484",
"t. c #5D7784",
"y. c #5C7787",
"u. c #5D7884",
"i. c #5F7B8B",
"p. c #607C89",
"a. c #617C8A",
"s. c #617E8F",
"d. c #63808B",
"f. c #67858D",
"g. c #648290",
"h. c #658391",
"j. c #668595",
"k. c #678695",
"l. c #688796",
"z. c #6B8B90",
"x. c #698897",
"c. c #698997",
"v. c #698998",
"b. c #698999",
"n. c #6A8A99",
"m. c #6B8B9B",
"M. c #6C8D9C",
"N. c #6C8D9D",
"B. c #6D8E9D",
"V. c #6E8F9F",
"C. c #6F919B",
"Z. c #6E909E",
"A. c #739592",
"S. c #759896",
"D. c #7A9E98",
"F. c #7092A2",
"G. c #7497A1",
"H. c #7195A5",
"J. c #769AA3",
"K. c #789DA2",
"L. c gray51",
"P. c gray54",
"I. c #929292",
"U. c #989897",
"Y. c #A4A4A4",
"T. c gray66",
"R. c #ACACAC",
"E. c #B7B7B7",
"W. c #BBBBBC",
"Q. c LightGray",
"!. c #D7D7D7",
"~. c #FDFDFD",
"^. c None",
/* pixels */
"^.^.^.^.^.^.^.^.^.^.^.^.^.^.^.^.^.^.^.^.^.^.^.^.^.^.^.^.^.^.^.^.",
"^.^.^.^.^.^.^.^.^.^.^.^.^.^.^.^.^.^.^.^.^.^.^.^.^.^.^.^.^.^.^.^.",
"^.^.^.^.^.^.^.^.^.^.^.^.^.^.^.^.^.^.^.^.^.^.^.^.^.^.^.^.^.^.^.^.",
"^.^.^.^.^.^.^.^.^.^.^.^.^.^.^.^.^.^.^.^.^.^.^.^.^.^.^.^.^.^.^.^.",
"^.^.^.^.^.^.^.^.^.^.^.^.^.^.^.^.^.^.^.^.^.^.^.^.^.^.^.^.^.^.^.^.",
"^.^.^.^.^.^.^.^.^.^.^.^.^.^.^.^.^.^.^.^.^.^.^.^.^.^.^.^.^.^.^.^.",
"^.^.^.^.^.^.^.^.^.^.^.^.^.^.^.^.^.^.^.^.^.^.^.^.^.^.^.^.^.^.^.^.",
"^.^.^.^.^.^.^.^.^.^.^.^.^.^.^.^.^.^.^.^.^.^.^.^.^.^.^.^.^.^.^.^.",
"^.^.^.^.^.^.^.^.^.^.^.^.^.+ + + + + + + ^.^.^.^.^.^.^.^.^.^.^.^.",
"^.^.^.^.^.^.^.^.^.^.^.^.x v c c c c c c x ^.^.^.^.^.^.^.^.^.^.^.",
"^.^.^.^.^.^.^.^.^.^.^.: _ 3.1.1.1.1.,.4.;.9 ^.^.^.^.^.^.^.^.^.^.",
"^.^.^.^.^.^.^.^.^.^.^.: _ y.l.k.k.k.j.C.A.h ^.^.^.^.^.^.^.^.^.^.",
"^.^.^.^.^.^.^.^.^.^.^.: _ i.V.B.B.B.N.J.D.l ^.^.^.^.^.^.^.^.^.^.",
"^.^.^.^.^.^.^.^.^.^.^.: [ *.] ..X.X.' <.z.g ^.^.^.^.^.^.^.^.^.^.",
"^.^.^.^.^.^.^.^.^.^.^.: [ | z @ $ O 8 O.f.g ^.^.^.^.^.^.^.^.^.^.",
"^.^.^.^.^.^.- b A ^.^.: { s.7.s : 4 %.G.S.k ^.^.^.^.^.^.^.^.^.^.",
"^.^.^.^.^.^.2 T.P.X ^., >.m.c.8.s -.l.M.d.d & ^.^.^.^.^.^.^.^.^.",
"^.^.^.^.^.^.2 R.!.I.2 ^.Z :.F.g.d 6.H.t.F 1 u y ^.^.^.^.^.^.^.^.",
"^.^.^.^.^.^.2 Y.~.W.2 .   N o.` W /  .U > L ! i * ^.^.^.^.^.^.^.",
"^.^.^.^.^.^.2 L.Q.E.5 C B 7 3 T 5.Q I M 0 =.^ e * ^.^.^.^.^.^.^.",
"^.^.^.^.^.^.^.o 9.U.j p.w.K G l.n.x.K.0.9 +.~ r * ^.^.^.^.^.^.^.",
"^.^.^.^.^.^.^.^.n w f a.w.P J v.n.n.Z.2.< 6 D p * ^.^.^.^.^.^.^.",
"^.^.^.^.^.^.^.^.^.^.^.H m ) u.b.r.q.e.#.; = S a * ^.^.^.^.^.^.^.",
"^.^.^.^.^.^.^.^.^.^.^.^.. $.h.] R Y @.} : - t q ^.^.^.^.^.^.^.^.",
"^.^.^.^.^.^.^.^.^.^.^.^.^.( &.% $ # V E ; ^.^.^.^.^.^.^.^.^.^.^.",
"^.^.^.^.^.^.^.^.^.^.^.^.^.^., ^.^.- ; ; - ^.^.^.^.^.^.^.^.^.^.^.",
"^.^.^.^.^.^.^.^.^.^.^.^.^.^.^.^.^.^.^.^.^.^.^.^.^.^.^.^.^.^.^.^.",
"^.^.^.^.^.^.^.^.^.^.^.^.^.^.^.^.^.^.^.^.^.^.^.^.^.^.^.^.^.^.^.^.",
"^.^.^.^.^.^.^.^.^.^.^.^.^.^.^.^.^.^.^.^.^.^.^.^.^.^.^.^.^.^.^.^.",
"^.^.^.^.^.^.^.^.^.^.^.^.^.^.^.^.^.^.^.^.^.^.^.^.^.^.^.^.^.^.^.^.",
"^.^.^.^.^.^.^.^.^.^.^.^.^.^.^.^.^.^.^.^.^.^.^.^.^.^.^.^.^.^.^.^.",
"^.^.^.^.^.^.^.^.^.^.^.^.^.^.^.^.^.^.^.^.^.^.^.^.^.^.^.^.^.^.^.^."
};
