/* XPM */
static char *result[] = {
/* columns rows colors chars-per-pixel */
"32 32 172 2 ",
"   c #181818",
".  c #1D1A19",
"X  c #1E1C1B",
"o  c #1F1D1D",
"O  c #1F1E1D",
"+  c #201E1E",
"@  c #201F1E",
"#  c #201F1F",
"$  c #21201F",
"%  c #212020",
"&  c #202021",
"*  c #222121",
"=  c #222222",
"-  c #232222",
";  c #222323",
":  c #232323",
">  c #222324",
",  c #232324",
"<  c #232425",
"1  c #252525",
"2  c #252626",
"3  c #252627",
"4  c #26282A",
"5  c #27292A",
"6  c #272A2C",
"7  c #282A2B",
"8  c #292B2C",
"9  c #282B2D",
"0  c #292C2D",
"q  c #342E2A",
"w  c #3C322B",
"e  c #3C332B",
"r  c #38312C",
"t  c #3D342D",
"y  c #3D342E",
"u  c #3E352E",
"i  c #2A2E30",
"p  c #2B2E30",
"a  c #2B2F31",
"s  c #2B3031",
"d  c #2C3131",
"f  c #2D3131",
"g  c #2C3032",
"h  c #2D3132",
"j  c #2E3232",
"k  c #2E3437",
"l  c #2F3537",
"z  c #2F3538",
"x  c #2F363B",
"c  c gray20",
"v  c #333A3E",
"b  c #323A3F",
"n  c #343C3F",
"m  c #40362E",
"M  c #4A3D33",
"N  c #4B3F36",
"B  c #38423F",
"V  c #343C40",
"C  c #353D40",
"Z  c #343D41",
"A  c #343C43",
"S  c #353E42",
"D  c #363F42",
"F  c #353E45",
"G  c #363F44",
"H  c #343E46",
"J  c #353E46",
"K  c #353F46",
"L  c #374044",
"P  c #374045",
"I  c #384246",
"U  c #364148",
"Y  c #364149",
"T  c #37424A",
"R  c #394449",
"E  c #39444A",
"W  c #3A454A",
"Q  c #38444C",
"!  c #3B464C",
"~  c #3A464F",
"^  c #3B474F",
"/  c #3C4A54",
"(  c gray30",
")  c #514740",
"_  c #554F49",
"`  c #58524E",
"'  c #404D54",
"]  c #404E59",
"[  c #404F5A",
"{  c #40505B",
"}  c #41505B",
"|  c #41515C",
" . c #41515D",
".. c #42525D",
"X. c #43535D",
"o. c #45555D",
"O. c #47575E",
"+. c #48585E",
"@. c #505050",
"#. c #445561",
"$. c #465863",
"%. c #495A62",
"&. c #495C6B",
"*. c #4B5F6B",
"=. c #4B5F6D",
"-. c #4E6060",
";. c #506361",
":. c #536763",
">. c #50646D",
",. c #4D6272",
"<. c #526771",
"1. c #536873",
"2. c #536973",
"3. c #556C72",
"4. c #536974",
"5. c #546A74",
"6. c #536B7A",
"7. c #566D78",
"8. c #556E7E",
"9. c #556E7F",
"0. c #577079",
"q. c #59717C",
"w. c #5A737E",
"e. c #686868",
"r. c #6D6D6D",
"t. c #7E7E7D",
"y. c #577080",
"u. c #577181",
"i. c #587181",
"p. c #597282",
"a. c #587283",
"s. c #5B7580",
"d. c #5B7684",
"f. c #5E7885",
"g. c #5D7989",
"h. c #5F7C8C",
"j. c #617D8A",
"k. c #63808E",
"l. c #67848D",
"z. c #668595",
"x. c #688795",
"c. c #688797",
"v. c #6C8C90",
"b. c #698897",
"n. c #698998",
"m. c #6A8998",
"M. c #6A8A99",
"N. c #6A8B9A",
"B. c #6B8B9A",
"V. c #6C8C9C",
"C. c #6C8D9D",
"Z. c #6C8E9D",
"A. c #6E8F9F",
"S. c #6E909D",
"D. c #739696",
"F. c #779B96",
"G. c #789C97",
"H. c #73969F",
"J. c #7599A4",
"K. c #7DA4A6",
"L. c #9A9A9A",
"P. c #83ACAC",
"I. c #A4A4A4",
"U. c #A5A5A5",
"Y. c #A9A9A9",
"T. c #B6B5B5",
"R. c #B6B6B6",
"E. c gray73",
"W. c #BBBBBB",
"Q. c #E9E9E9",
"!. c #FBFBFB",
"~. c None",
/* pixels */
"~.~.~.~.~.~.~.~.~.~.~.~.~.~.~.~.~.~.~.~.~.~.~.~.~.~.~.~.~.~.~.~.",
"~.~.~.~.~.~.~.~.~.~.~.~.~.~.~.~.~.~.~.~.~.~.~.~.~.~.~.~.~.~.~.~.",
"~.~.~.~.~.~.~.~.~.~.~.~.~.~.~.~.~.~.~.~.~.~.~.~.~.~.~.~.~.~.~.~.",
"~.~.~.~.~.~.~.~.~.~.~.~.~.~.~.~.~.~.~.~.~.~.~.~.~.~.~.~.~.~.~.~.",
"~.~.~.~.~.~.~.~.~.~.~.~.~.~.~.~.~.~.~.~.~.~.~.~.~.~.~.~.~.~.~.~.",
"~.~.~.~.~.~.~.~.~.~.~.~.~.~.~.~.~.~.~.~.~.~.~.~.~.~.~.~.~.~.~.~.",
"~.~.~.~.~.~.~.~.~.~.~.~.~.~.~.~.~.~.~.~.~.~.~.~.~.~.~.~.~.~.~.~.",
"~.~.~.~.~.~.~.~.~.~.~.~.~.# # # # # # # # ~.~.~.~.~.~.~.~.~.~.~.",
"~.~.~.~.~.~.~.~.~.~.~.~.A T U U U U U Y H 4 ~.~.~.~.~.~.~.~.~.~.",
"~.~.~.~.~.~.~.~.~.~.~.: | 9.i.u.u.u.u.d.0.0 ~.~.~.~.~.~.~.~.~.~.",
"~.~.~.~.~.~.~.~.~.~.~.: [ g.B.M.M.M.n.H.F.j ~.~.~.~.~.~.~.~.~.~.",
"~.~.~.~.~.~.~.~.~.~.~.: [ g.M.n.n.n.c.H.G.j ~.~.~.~.~.~.~.~.~.~.",
"~.~.~.~.~.~.~.~.~.~.~.:  .X.C L L P n +.l.s ~.~.~.~.~.~.~.~.~.~.",
"~.~.~.~.~.~.~.  ~.~.~.: { *.I X O . k 3.v.d ~.~.~.~.~.~.~.~.~.~.",
"~.~.~.~.~.~.: ( @.~.~.: $.z.f.S 2 l <.J.D.f ~.~.~.~.~.~.~.~.~.~.",
"~.~.~.~.~.~.1 R.L.c ~., >.x.V.j.a 2.Z.b.s.i ~.~.~.~.~.~.~.~.~.~.",
"~.~.~.~.~.~.1 U.Q.Y.1 ~.7 %.C.j.g 4.A.7.a ~.- ~.~.~.~.~.~.~.~.~.",
"~.~.~.~.~.~.1 I.!.E.1 o + i Z G ] E D z % $ m r ~.~.~.~.~.~.~.~.",
"~.~.~.~.~.~.~.e.W.T.8 ' g B -.o.,./ J x 3 F ) t & ~.~.~.~.~.~.~.",
"~.~.~.~.~.~.~.~.r.t.h k.G :.P.M.p.y.8.} 9 =.` w & ~.~.~.~.~.~.~.",
"~.~.~.~.~.~.~.~.~.- p w.v ;.K.M.M.B.h...6 #._ e & ~.~.~.~.~.~.~.",
"~.~.~.~.~.~.~.~.~.~.~.i ; O.S.m.n.n.N.1.< 5 N y & ~.~.~.~.~.~.~.",
"~.~.~.~.~.~.~.~.~.~.~.~.+ ^ a.6.W V 5.q.: * M u & ~.~.~.~.~.~.~.",
"~.~.~.~.~.~.~.~.~.~.~.~.@ Q &.K > ~.R ! ; = r q ~.~.~.~.~.~.~.~.",
"~.~.~.~.~.~.~.~.~.~.~.~.% b ~ % ~.~.~.@ = ~.& ~.~.~.~.~.~.~.~.~.",
"~.~.~.~.~.~.~.~.~.~.~.~.= ; : ~.~.~.~.~.~.~.~.~.~.~.~.~.~.~.~.~.",
"~.~.~.~.~.~.~.~.~.~.~.~.~.~.~.~.~.~.~.~.~.~.~.~.~.~.~.~.~.~.~.~.",
"~.~.~.~.~.~.~.~.~.~.~.~.~.~.~.~.~.~.~.~.~.~.~.~.~.~.~.~.~.~.~.~.",
"~.~.~.~.~.~.~.~.~.~.~.~.~.~.~.~.~.~.~.~.~.~.~.~.~.~.~.~.~.~.~.~.",
"~.~.~.~.~.~.~.~.~.~.~.~.~.~.~.~.~.~.~.~.~.~.~.~.~.~.~.~.~.~.~.~.",
"~.~.~.~.~.~.~.~.~.~.~.~.~.~.~.~.~.~.~.~.~.~.~.~.~.~.~.~.~.~.~.~.",
"~.~.~.~.~.~.~.~.~.~.~.~.~.~.~.~.~.~.~.~.~.~.~.~.~.~.~.~.~.~.~.~."
};
