/* XPM */
static char *result[] = {
/* columns rows colors chars-per-pixel */
"32 32 167 2 ",
"   c #181818",
".  c #1D1B19",
"X  c #1E1D1C",
"o  c #1F1D1C",
"O  c #1F1E1D",
"+  c #1D1E1F",
"@  c #1F1E1E",
"#  c #201F1E",
"$  c #201F1F",
"%  c #1D1E20",
"&  c #1D1F20",
"*  c #1E1F20",
"=  c #212020",
"-  c #212120",
";  c #222222",
":  c #232222",
">  c #232322",
",  c #222323",
"<  c #232323",
"1  c #232424",
"2  c #232425",
"3  c #252424",
"4  c #252525",
"5  c #272625",
"6  c #242627",
"7  c #2E2722",
"8  c #2F2925",
"9  c #2D2A27",
"0  c #262828",
"q  c #272A2B",
"w  c #272B2D",
"e  c #282B2C",
"r  c #292B2C",
"t  c #302B28",
"y  c #322D29",
"u  c #342E2A",
"i  c #36302C",
"p  c #37322C",
"a  c #3A312A",
"s  c #38332D",
"d  c #3B332C",
"f  c #2A2E30",
"g  c #2B2E30",
"h  c #2B2F30",
"j  c #2C3031",
"k  c #2D3131",
"l  c #2D3132",
"z  c #2D3232",
"x  c #2E3332",
"c  c #2C3135",
"v  c #2D3335",
"b  c #2D3337",
"n  c #2F3537",
"m  c #2E3438",
"M  c #2E3439",
"N  c gray20",
"B  c #31373A",
"V  c #30373D",
"C  c #413830",
"Z  c #423830",
"A  c #574639",
"S  c #59483A",
"D  c #59483B",
"F  c #5A493B",
"G  c #604D3E",
"H  c #323A40",
"J  c #333C41",
"K  c #343C40",
"L  c #374149",
"P  c #374249",
"I  c #37424A",
"U  c #394348",
"Y  c #38434B",
"T  c #38444C",
"R  c #3A454D",
"E  c #3C4850",
"W  c #3E4B52",
"Q  c #434B4E",
"!  c gray30",
"~  c #444E52",
"^  c #404D55",
"/  c #414F55",
"(  c #404E56",
")  c #414F56",
"_  c #404F5A",
"`  c #435259",
"'  c #44535A",
"]  c #44535B",
"[  c #41515C",
"{  c #42525E",
"}  c #43545E",
"|  c #44555D",
" . c #45565D",
".. c #46565D",
"X. c #46565E",
"o. c #48595F",
"O. c #505050",
"+. c #615040",
"@. c #685544",
"#. c #6C5846",
"$. c #485961",
"%. c #495B64",
"&. c #4B5E67",
"*. c #4A5D69",
"=. c #495D6B",
"-. c #4A5F6E",
";. c #4E616A",
":. c #4E636F",
">. c #526772",
",. c #516777",
"<. c #536872",
"1. c #546970",
"2. c #516877",
"3. c #516878",
"4. c #526979",
"5. c #526A79",
"6. c #526A7A",
"7. c #566D78",
"8. c #58707B",
"9. c #5A737E",
"0. c #5A737F",
"q. c #686868",
"w. c #6D6D6D",
"e. c #7E7E7D",
"r. c #587282",
"t. c #597383",
"y. c #5C7783",
"u. c #5C7787",
"i. c #5F7B8B",
"p. c #617E8F",
"a. c #63808B",
"s. c #63808E",
"d. c #67858D",
"f. c #648290",
"g. c #648292",
"h. c #668594",
"j. c #668595",
"k. c #678695",
"l. c #688796",
"z. c #6B8B90",
"x. c #698997",
"c. c #698898",
"v. c #698899",
"b. c #6B8B9B",
"n. c #6B8C9B",
"m. c #6C8D9C",
"M. c #6C8D9D",
"N. c #6D8E9D",
"B. c #6E8F9F",
"V. c #6F919B",
"C. c #739592",
"Z. c #759896",
"A. c #7A9E98",
"S. c #7092A2",
"D. c #7497A1",
"F. c #7195A5",
"G. c #769AA3",
"H. c #9A9A9A",
"J. c #A4A4A4",
"K. c #A5A5A5",
"L. c gray67",
"P. c #B6B5B5",
"I. c #B6B6B6",
"U. c #BBBBBB",
"Y. c #E9E9E9",
"T. c #FBFBFB",
"R. c None",
/* pixels */
"R.R.R.R.R.R.R.R.R.R.R.R.R.R.R.R.R.R.R.R.R.R.R.R.R.R.R.R.R.R.R.R.",
"R.R.R.R.R.R.R.R.R.R.R.R.R.R.R.R.R.R.R.R.R.R.R.R.R.R.R.R.R.R.R.R.",
"R.R.R.R.R.R.R.R.R.R.R.R.R.R.R.R.R.R.R.R.R.R.R.R.R.R.R.R.R.R.R.R.",
"R.R.R.R.R.R.R.R.R.R.R.R.R.R.R.R.R.R.R.R.R.R.R.R.R.R.R.R.R.R.R.R.",
"R.R.R.R.R.R.R.R.R.R.R.R.R.R.R.R.R.R.R.R.R.R.R.R.R.R.R.R.R.R.R.R.",
"R.R.R.R.R.R.R.R.R.R.R.R.R.R.R.R.R.R.R.R.R.R.R.R.R.R.R.R.R.R.R.R.",
"R.R.R.R.R.R.R.R.R.R.R.R.R.R.R.R.R.R.R.R.R.R.R.R.R.R.R.R.R.R.R.R.",
"R.R.R.R.R.R.R.R.R.R.R.R.R.R.R.R.R.R.R.R.R.R.R.R.R.R.R.R.R.R.R.R.",
"R.R.R.R.R.R.R.R.R.R.R.R.R.o o o o o o o R.R.R.R.R.R.R.R.R.R.R.R.",
"R.R.R.R.R.R.R.R.R.R.R.R.b M m m m m m m b R.R.R.R.R.R.R.R.R.R.R.",
"R.R.R.R.R.R.R.R.R.R.R.< _ 3.2.2.2.2.,.5.:.e R.R.R.R.R.R.R.R.R.R.",
"R.R.R.R.R.R.R.R.R.R.R.< _ u.l.k.k.k.j.V.C.k R.R.R.R.R.R.R.R.R.R.",
"R.R.R.R.R.R.R.R.R.R.R.< _ i.B.N.N.N.M.G.A.x R.R.R.R.R.R.R.R.R.R.",
"R.R.R.R.R.R.R.  R.R.R.< [ *.' ..X.X.` 1.z.j R.R.R.R.R.R.R.R.R.R.",
"R.R.R.R.R.R.< ! O.R.R.< [ } v O # X q o.d.j R.R.R.R.R.R.R.R.R.R.",
"R.R.R.R.R.R.4 I.H.N R.< { p.8.f < 0 %.D.Z.z R.R.R.R.R.R.R.R.R.R.",
"R.R.R.R.R.R.4 K.Y.L.3 , >.b.x.0.f ;.l.m.a.h R.R.R.R.R.R.R.R.R.R.",
"R.R.R.R.R.R.4 J.T.U.3 $ n <.S.f.g 7.F.y.J 2 R.R.R.R.R.R.R.R.R.R.",
"R.R.R.R.R.R.R.q.U.P.r / f B ..` R ^ X.Q a d 9 R.R.R.R.R.R.R.R.R.",
"R.R.R.R.R.R.R.R.w.e.l s.U 6 c V -.W w 8 S G u * R.R.R.R.R.R.R.R.",
"R.R.R.R.R.R.R.R.R.: g 9.K P 6.2.4.g.| 8 D #.s + R.R.R.R.R.R.R.R.",
"R.R.R.R.R.R.R.R.R.R.R.f < ] c.h.h.n.| 8 A F y * R.R.R.R.R.R.R.R.",
"R.R.R.R.R.R.R.R.R.R.R.R.@ E t.r.r.v. .7 F @.p % R.R.R.R.R.R.R.R.",
"R.R.R.R.R.R.R.R.R.R.R.R.# T =.I L ( $.~ C +.i & R.R.R.R.R.R.R.R.",
"R.R.R.R.R.R.R.R.R.R.R.R.= H Y - # . ) &.5 Z t R.R.R.R.R.R.R.R.R.",
"R.R.R.R.R.R.R.R.R.R.R.R.; , , ; R.R.R.1 R.> R.R.R.R.R.R.R.R.R.R.",
"R.R.R.R.R.R.R.R.R.R.R.R.R.R.R.R.R.R.R.R.R.R.R.R.R.R.R.R.R.R.R.R.",
"R.R.R.R.R.R.R.R.R.R.R.R.R.R.R.R.R.R.R.R.R.R.R.R.R.R.R.R.R.R.R.R.",
"R.R.R.R.R.R.R.R.R.R.R.R.R.R.R.R.R.R.R.R.R.R.R.R.R.R.R.R.R.R.R.R.",
"R.R.R.R.R.R.R.R.R.R.R.R.R.R.R.R.R.R.R.R.R.R.R.R.R.R.R.R.R.R.R.R.",
"R.R.R.R.R.R.R.R.R.R.R.R.R.R.R.R.R.R.R.R.R.R.R.R.R.R.R.R.R.R.R.R.",
"R.R.R.R.R.R.R.R.R.R.R.R.R.R.R.R.R.R.R.R.R.R.R.R.R.R.R.R.R.R.R.R."
};
