/* XPM */
static char *result[] = {
/* columns rows colors chars-per-pixel */
"32 32 169 2 ",
"   c #1D1B1A",
".  c #1E1C1B",
"X  c gray11",
"o  c #1D1D1D",
"O  c #1E1D1C",
"+  c #1F1D1C",
"@  c #1F1E1D",
"#  c #201E1E",
"$  c #201F1E",
"%  c #201F1F",
"&  c #1F1F20",
"*  c #1F2020",
"=  c #212020",
"-  c #202021",
";  c gray13",
":  c #222222",
">  c #232322",
",  c #222323",
"<  c #232323",
"1  c #242423",
"2  c #232424",
"3  c #252525",
"4  c #262525",
"5  c #292826",
"6  c #262828",
"7  c #272829",
"8  c #27292A",
"9  c #26292B",
"0  c #272A2B",
"q  c #282B2C",
"w  c #302B28",
"e  c #342E2A",
"r  c #30302F",
"t  c #38312C",
"y  c #39312C",
"u  c #3C332D",
"i  c #3D342E",
"p  c #3D352E",
"a  c #3F362F",
"s  c #2A2E30",
"d  c #2B2E30",
"f  c #2B2F30",
"g  c #2B2F31",
"h  c #2C3031",
"j  c #2D3131",
"k  c #2D3032",
"l  c #2D3232",
"z  c #2E3332",
"x  c #2C3135",
"c  c #2D3335",
"v  c #2D3337",
"b  c #2E3438",
"n  c #2E3439",
"m  c #343434",
"M  c gray21",
"N  c #30373D",
"B  c #353D3B",
"V  c #32393C",
"C  c #323A3F",
"Z  c #333B3F",
"A  c #343B3F",
"S  c #393939",
"D  c #4F4035",
"F  c #504136",
"G  c #514236",
"H  c #524237",
"J  c #524337",
"K  c #59483A",
"L  c #5A483A",
"P  c #353E42",
"I  c #363F43",
"U  c #364044",
"Y  c #374044",
"T  c #394242",
"R  c #384247",
"E  c #364149",
"W  c #374149",
"Q  c #39444D",
"!  c #3A454D",
"~  c #3C484F",
"^  c #3A4750",
"/  c #3D4951",
"(  c #3F4D54",
")  c #404E54",
"_  c #404E55",
"`  c #404F5A",
"'  c #425057",
"]  c #435259",
"[  c #44535A",
"{  c #41515C",
"}  c #42525D",
"|  c #43545E",
" . c #45545C",
".. c #46565D",
"X. c #46565E",
"o. c #47575F",
"O. c #48595F",
"+. c #495B64",
"@. c #4A5D69",
"#. c #495C6B",
"$. c #4A5F6E",
"%. c #4E616A",
"&. c #4E636F",
"*. c #516670",
"=. c #516771",
"-. c #516777",
";. c #546970",
":. c #516877",
">. c #546B76",
",. c #516878",
"<. c #526979",
"1. c #526A79",
"2. c #526A7A",
"3. c #566D78",
"4. c #576E78",
"5. c #58707B",
"6. c #5A737F",
"7. c gray49",
"8. c #64817E",
"9. c #587282",
"0. c #597383",
"q. c #5B7581",
"w. c #5C7682",
"e. c #5C7787",
"r. c #5F7B88",
"t. c #5F7B8B",
"y. c #607C89",
"u. c #617E8F",
"i. c #627E8E",
"p. c #63808B",
"a. c #67858D",
"s. c #648290",
"d. c #668594",
"f. c #668595",
"g. c #678695",
"h. c #688796",
"j. c #6B8B90",
"k. c #698997",
"l. c #698898",
"z. c #698998",
"x. c #6B8B9B",
"c. c #6C8D9C",
"v. c #6C8D9D",
"b. c #6D8E9D",
"n. c #6E8F9F",
"m. c #6F919B",
"M. c #6F909F",
"N. c #739592",
"B. c #759896",
"V. c #7A9E98",
"C. c #6E90A0",
"Z. c #7092A2",
"A. c #7497A1",
"S. c #7195A5",
"D. c #769AA3",
"F. c #789EA3",
"G. c gray51",
"H. c gray54",
"J. c #929292",
"K. c #989897",
"L. c #A4A4A4",
"P. c gray66",
"I. c #ACACAC",
"U. c #B7B7B7",
"Y. c #BBBBBC",
"T. c LightGray",
"R. c #D7D7D7",
"E. c #FDFDFD",
"W. c None",
/* pixels */
"W.W.W.W.W.W.W.W.W.W.W.W.W.W.W.W.W.W.W.W.W.W.W.W.W.W.W.W.W.W.W.W.",
"W.W.W.W.W.W.W.W.W.W.W.W.W.W.W.W.W.W.W.W.W.W.W.W.W.W.W.W.W.W.W.W.",
"W.W.W.W.W.W.W.W.W.W.W.W.W.W.W.W.W.W.W.W.W.W.W.W.W.W.W.W.W.W.W.W.",
"W.W.W.W.W.W.W.W.W.W.W.W.W.W.W.W.W.W.W.W.W.W.W.W.W.W.W.W.W.W.W.W.",
"W.W.W.W.W.W.W.W.W.W.W.W.W.W.W.W.W.W.W.W.W.W.W.W.W.W.W.W.W.W.W.W.",
"W.W.W.W.W.W.W.W.W.W.W.W.W.W.W.W.W.W.W.W.W.W.W.W.W.W.W.W.W.W.W.W.",
"W.W.W.W.W.W.W.W.W.W.W.W.W.W.W.W.W.W.W.W.W.W.W.W.W.W.W.W.W.W.W.W.",
"W.W.W.W.W.W.W.W.W.W.W.W.W.W.W.W.W.W.W.W.W.W.W.W.W.W.W.W.W.W.W.W.",
"W.W.W.W.W.W.W.W.W.W.W.W.W.+ + + + + + + W.W.W.W.W.W.W.W.W.W.W.W.",
"W.W.W.W.W.W.W.W.W.W.W.W.v n b b b b b b v W.W.W.W.W.W.W.W.W.W.W.",
"W.W.W.W.W.W.W.W.W.W.W.< ` ,.:.:.:.:.-.1.&.q W.W.W.W.W.W.W.W.W.W.",
"W.W.W.W.W.W.W.W.W.W.W.< ` e.h.g.g.g.f.m.N.j W.W.W.W.W.W.W.W.W.W.",
"W.W.W.W.W.W.W.W.W.W.W.< ` t.n.b.b.b.v.D.V.z W.W.W.W.W.W.W.W.W.W.",
"W.W.W.W.W.W.W.W.W.W.W.< { @.[ ..X.X.] ;.j.h W.W.W.W.W.W.W.W.W.W.",
"W.W.W.W.W.W.W.W.W.W.W.< { | c @ $ O 0 O.a.h W.W.W.W.W.W.W.W.W.W.",
"W.W.W.W.W.W.: m S W.W.< } u.5.s < 6 +.A.B.l W.W.W.W.W.W.W.W.W.W.",
"W.W.W.W.W.W.3 P.H.X W.2 =.x.k.6.s %.h.c.p.f W.W.W.W.W.W.W.W.W.W.",
"W.W.W.W.W.W.3 I.R.J.3 W.A *.Z.s.d 3.S.w.U W.* W.W.W.W.W.W.W.W.W.",
"W.W.W.W.W.W.3 L.E.Y.3   . V ..] ! _  .R % & t e W.W.W.W.W.W.W.W.",
"W.W.W.W.W.W.3 G.T.U.7 Z q 9 x N $./ T B 1 w D p - W.W.W.W.W.W.W.",
"W.W.W.W.W.W.W.o 7.K.k r.Y W 2.:.<.i.F.8.5 F K u - W.W.W.W.W.W.W.",
"W.W.W.W.W.W.W.W.M r g y.I ' l.d.d.z.M.4.5 G L u - W.W.W.W.W.W.W.",
"W.W.W.W.W.W.W.W.W.W.W.P 8 ~ 0.9.9.f.C.>.5 H L u - W.W.W.W.W.W.W.",
"W.W.W.W.W.W.W.W.W.W.W.W.# Q #.W E ( q.5.4 y J i - W.W.W.W.W.W.W.",
"W.W.W.W.W.W.W.W.W.W.W.W.= C ^ = $   ) o., ; a t W.W.W.W.W.W.W.W.",
"W.W.W.W.W.W.W.W.W.W.W.W.: , < W.W.W.W.< : W.> W.W.W.W.W.W.W.W.W.",
"W.W.W.W.W.W.W.W.W.W.W.W.W.W.W.W.W.W.W.W.W.W.W.W.W.W.W.W.W.W.W.W.",
"W.W.W.W.W.W.W.W.W.W.W.W.W.W.W.W.W.W.W.W.W.W.W.W.W.W.W.W.W.W.W.W.",
"W.W.W.W.W.W.W.W.W.W.W.W.W.W.W.W.W.W.W.W.W.W.W.W.W.W.W.W.W.W.W.W.",
"W.W.W.W.W.W.W.W.W.W.W.W.W.W.W.W.W.W.W.W.W.W.W.W.W.W.W.W.W.W.W.W.",
"W.W.W.W.W.W.W.W.W.W.W.W.W.W.W.W.W.W.W.W.W.W.W.W.W.W.W.W.W.W.W.W.",
"W.W.W.W.W.W.W.W.W.W.W.W.W.W.W.W.W.W.W.W.W.W.W.W.W.W.W.W.W.W.W.W."
};
