/* XPM */
static char *_3d89d109436482a9035bbef61f678e4gJ4mMW4pMBmEHOLp[] = {
/* columns rows colors chars-per-pixel */
"35 35 8 1 ",
"  c None",
". c #222222",
"X c #574639",
"o c #4E6474",
"O c #6A8A99",
"+ c #84ADA7",
"@ c #DADADA",
"# c gray96",
/* pixels */
"                                   ",
"                                   ",
"                                   ",
"                                   ",
"                                   ",
"                                   ",
"                                   ",
"                                   ",
"                                   ",
"                                   ",
"                                   ",
"             .......               ",
"            .ooooooo.              ",
"            .oOOOOO+.              ",
"            .oOOOOO+.              ",
"            .oOOOOOO.              ",
"            .oOOOOO+.  ..          ",
"            .OOOOOOO. .#.          ",
"           . .OOOOO. .#@.          ",
"          .X..........#@.          ",
"          .XO.+Oooo.O.@.           ",
"          .XO.+OOOo.O..            ",
"          .X..OOOOO..              ",
"          .X..oo..O.               ",
"           . .o.  ..               ",
"             ..                    ",
"                                   ",
"                                   ",
"                                   ",
"                                   ",
"                                   ",
"                                   ",
"                                   ",
"                                   ",
"                                   "
};
