/* XPM */
static char *ad6b7e9066b84d79b54647ad774d81dfOQAdOW8ZhKKknjCd[] = {
/* columns rows colors chars-per-pixel */
"35 35 8 1 ",
"  c None",
". c #222222",
"X c #574639",
"o c #4E6474",
"O c #6A8A99",
"+ c #84ADA7",
"@ c #DADADA",
"# c gray96",
/* pixels */
"                                   ",
"                                   ",
"                                   ",
"                                   ",
"                                   ",
"                                   ",
"                                   ",
"                                   ",
"                                   ",
"                                   ",
"                                   ",
"                                   ",
"             .......               ",
"            .ooooooo.              ",
"            .oOOOOO+.              ",
"            .oOOOOO+.              ",
"            .o.....O.              ",
"        ..  .oO...O+.              ",
"        .#. .OOO.OOO.              ",
"        .@#. .OO.OO. .             ",
"        .@#.....o....X.            ",
"         .@.O.+Oooo.oX.            ",
"          ..O.+OOOo.oX.            ",
"            ..OOOOO..X.            ",
"             .oo..O..X.            ",
"             .o.  .. .             ",
"             ..                    ",
"                                   ",
"                                   ",
"                                   ",
"                                   ",
"                                   ",
"                                   ",
"                                   ",
"                                   "
};
