/* XPM */
static char *_5d5950833ba4366f39feb1d62b6ffd5Mb4duO7UmnvogD32[] = {
/* columns rows colors chars-per-pixel */
"35 35 8 1 ",
"  c None",
". c #222222",
"X c #574639",
"o c #4E6474",
"O c #6A8A99",
"+ c #84ADA7",
"@ c #DADADA",
"# c gray96",
/* pixels */
"                                   ",
"                                   ",
"                                   ",
"                                   ",
"                                   ",
"                                   ",
"                                   ",
"                                   ",
"                                   ",
"             .......               ",
"            .ooooooo.              ",
"           .oOOOOOO+.              ",
"           .oOOOOOO+.              ",
"           .oO.......              ",
"           .OOOO...+.              ",
"           .OOOOo.OO.              ",
"            ..OOo......            ",
"             .....####..           ",
"           ....###@@@.X.           ",
"          .O.##@@@....X.           ",
"          .O.@@...O.o.X.           ",
"           ......oo..X.            ",
"            .o. .o....             ",
"            ..  ..                 ",
"                                   ",
"                                   ",
"                                   ",
"                                   ",
"                                   ",
"                                   ",
"                                   ",
"                                   ",
"                                   ",
"                                   ",
"                                   "
};
