/* XPM */
static char *b9804ad4c6f64dcda3b6765a01d3a708BP1UAYr3Yp43Rzw4[] = {
/* columns rows colors chars-per-pixel */
"35 35 9 1 ",
"  c None",
". c #222222",
"X c #574639",
"o c #735F4B",
"O c #4E6474",
"+ c #6A8A99",
"@ c #84ADA7",
"# c #DADADA",
"$ c gray96",
/* pixels */
"                                   ",
"                                   ",
"                                   ",
"                                   ",
"                                   ",
"                                   ",
"                                   ",
"                                   ",
"                                   ",
"            .......                ",
"           .OOOOOOO.               ",
"           .O++++++@.              ",
"           .O++++++@.              ",
"           .......++.              ",
"           .O...+++@.              ",
"           .++.+++++.              ",
"           .O+......               ",
"     .....  ..XXXXX.               ",
"     .$$$$....XXoXX.               ",
"      .###$$..XXXoX.               ",
"       ...##..XXoXX.               ",
"          ...O.XXX.                ",
"             .O....                ",
"              .. ..                ",
"                                   ",
"                                   ",
"                                   ",
"                                   ",
"                                   ",
"                                   ",
"                                   ",
"                                   ",
"                                   ",
"                                   ",
"                                   "
};
