/* XPM */
static char *result[] = {
/* columns rows colors chars-per-pixel */
"32 32 153 2 ",
"   c #191818",
".  c #191919",
"X  c gray10",
"o  c #1F1D1C",
"O  c #1E1D1D",
"+  c #1F1E1D",
"@  c #1F1E1E",
"#  c #212120",
"$  c #202021",
"%  c gray13",
"&  c #222222",
"*  c #232322",
"=  c #232323",
"-  c #232324",
";  c #232425",
":  c #252525",
">  c #242626",
",  c #252626",
"<  c #2C2724",
"1  c #2D2724",
"2  c #232628",
"3  c #26292B",
"4  c #272A2C",
"5  c #282828",
"6  c #282A2C",
"7  c #2F2F2F",
"8  c #342E2A",
"9  c #393029",
"0  c #3A3029",
"q  c #3B312A",
"w  c #3B322A",
"e  c #3B332D",
"r  c #3C322C",
"t  c #3C332C",
"y  c #3C342D",
"u  c #2A2E30",
"i  c #2B2F30",
"p  c #2B2F31",
"a  c #2C3031",
"s  c #2D3231",
"d  c #2D3232",
"f  c #2E3332",
"g  c #2E3333",
"h  c #2B3034",
"j  c #2C3135",
"k  c #2E3438",
"l  c #2E3439",
"z  c #373431",
"x  c #353535",
"c  c #363535",
"v  c gray21",
"b  c #32393C",
"n  c #32393D",
"m  c #343B3F",
"M  c gray22",
"N  c #3A3A39",
"B  c #3A3A3A",
"V  c #43372F",
"C  c #44382E",
"Z  c #44382F",
"A  c #463B32",
"S  c #473B32",
"D  c #483C32",
"F  c #483C33",
"G  c #4B3E34",
"H  c #584639",
"J  c #584739",
"K  c #59473A",
"L  c #59483A",
"P  c #5A483A",
"I  c #5B493B",
"U  c #5C4A3C",
"Y  c #5D4B3D",
"T  c #5E4C3D",
"R  c #5E4D3E",
"E  c #604E3E",
"W  c #614F3F",
"Q  c #353E42",
"!  c #343D44",
"~  c #353F44",
"^  c #364044",
"/  c #374044",
"(  c #364045",
")  c #374147",
"_  c #3D494F",
"`  c #3F4C52",
"'  c #424749",
"]  c #414A51",
"[  c #425157",
"{  c #415058",
"}  c #425058",
"|  c #42525A",
" . c #44535A",
".. c #46565D",
"X. c #46565E",
"o. c #47575E",
"O. c #665342",
"+. c #6A5745",
"@. c #6D5947",
"#. c #465862",
"$. c #485860",
"%. c #485C69",
"&. c #495D6B",
"*. c #4B5F6C",
"=. c #4A5E6D",
"-. c #4F636D",
";. c #506775",
":. c #516877",
">. c #516878",
",. c #52697A",
"<. c #566E79",
"1. c #5E7987",
"2. c #617D8A",
"3. c #617D8D",
"4. c #627E8C",
"5. c #63808B",
"6. c #68868E",
"7. c #6F8F8B",
"8. c #668492",
"9. c #658494",
"0. c #668595",
"q. c #678695",
"w. c #688796",
"e. c #6C8C90",
"r. c #688896",
"t. c #698998",
"y. c #6A8B9A",
"u. c #6B8B9B",
"i. c #6B8C9A",
"p. c #6D8E98",
"a. c #6D8E9D",
"s. c #6E8F9F",
"d. c #6F919F",
"f. c #759896",
"g. c #70939F",
"h. c #73969F",
"j. c #7A9F99",
"k. c #7598A1",
"l. c gray51",
"z. c #828485",
"x. c #898989",
"c. c #8C8B8B",
"v. c #8D8D8D",
"b. c #989898",
"n. c #AFAFAF",
"m. c #B1B1B2",
"M. c #C8C8C8",
"N. c gray79",
"B. c gray87",
"V. c #E7E7E7",
"C. c #F9F9F9",
"Z. c #FBFBFB",
"A. c None",
/* pixels */
"A.A.A.A.A.A.A.A.A.A.A.A.A.A.A.A.A.A.A.A.A.A.A.A.A.A.A.A.A.A.A.A.",
"A.A.A.A.A.A.A.A.A.A.A.A.A.A.A.A.A.A.A.A.A.A.A.A.A.A.A.A.A.A.A.A.",
"A.A.A.A.A.A.A.A.A.A.A.A.A.A.A.A.A.A.A.A.A.A.A.A.A.A.A.A.A.A.A.A.",
"A.A.A.A.A.A.A.A.A.A.A.A.A.A.A.A.A.A.A.A.A.A.A.A.A.A.A.A.A.A.A.A.",
"A.A.A.A.A.A.A.A.A.A.A.A.A.A.A.A.A.A.A.A.A.A.A.A.A.A.A.A.A.A.A.A.",
"A.A.A.A.A.A.A.A.A.A.A.A.A.A.A.A.A.A.A.A.A.A.A.A.A.A.A.A.A.A.A.A.",
"A.A.A.A.A.A.A.A.A.A.A.A.A.A.A.A.A.A.A.A.A.A.A.A.A.A.A.A.A.A.A.A.",
"A.A.A.A.A.A.A.A.A.A.A.A.A.A.A.A.A.A.A.A.A.A.A.A.A.A.A.A.A.A.A.A.",
"A.A.A.A.A.A.A.A.A.A.A.A.A.A.A.A.o o o o o o o A.A.A.A.A.A.A.A.A.",
"A.A.A.A.A.A.A.A.A.A.A.A.A.A.A.k l k k k k k l j A.A.A.A.A.A.A.A.",
"A.A.A.A.A.A.A.A.A.A.A.A.A.A.4 %.>.:.:.:.:.:.,.#.g A.A.A.A.A.A.A.",
"A.A.A.A.A.A.A.A.A.A.A.A.A.A.4 &.3.w.q.q.q.q.0.p.7.s A.A.A.A.A.A.",
"A.A.A.A.A.A.A.A.A.A.A.A.A.A.4 =.9.s.a.a.a.a.u.k.j.f A.A.A.A.A.A.",
"A.A.A.A.A.A.A.A.A.A.A.A.A.A.> ! } o.X... .[ <.g.e.a A.A.A.A.A.A.",
"A.A.A.A.A.A.A.A.A.A.A.A.A.A.; h - o + # n m -.d.6.p A.A.A.A.A.A.",
"A.A.A.A.A.A.A.A.A.A.A.A.A.A.6 *.) , - b 4.y.t.h.f.d A.A.A.A.A.A.",
"A.A.A.A.A.A.A.A.A.A.A.A.A.A.u 1.8.` n 2.r.t.t.i.5.i A.A.A.A.A.A.",
"A.A.A.A.A.A.A.A.A.% X . .   2 ;.| u 3 ( ~ ~ ^ / Q A.A.A.A.A.A.A.",
"A.A.A.A.A.A.A.A.A.7 l.v.x.c.z.] z w t 9 0 q 1 O A.A.A.A.A.A.A.A.",
"A.A.A.A.A.A.A.A.A.B n.V.C.Z.B.N C P I E L P y $ A.A.A.A.A.A.A.A.",
"A.A.A.A.A.A.A.A.A.A.5 b.N.M.m.c Z H R @.Y L e $ A.A.A.A.A.A.A.A.",
"A.A.A.A.A.A.A.A.A.A.A.v M M x : S K J Y @.E e $ A.A.A.A.A.A.A.A.",
"A.A.A.A.A.A.A.A.A.A.A.A.A.A.A.& F K Y +.W U r @ & A.A.A.A.A.A.A.",
"A.A.A.A.A.A.A.A.A.A.A.A.A.A.A.& 8 G T O.L V ' _ = A.A.A.A.A.A.A.",
"A.A.A.A.A.A.A.A.A.A.A.A.A.A.A.& $ 8 D A A < { $.= A.A.A.A.A.A.A.",
"A.A.A.A.A.A.A.A.A.A.A.A.A.A.A.& & & * * * A.A.= & A.A.A.A.A.A.A.",
"A.A.A.A.A.A.A.A.A.A.A.A.A.A.A.A.A.A.A.A.A.A.A.A.A.A.A.A.A.A.A.A.",
"A.A.A.A.A.A.A.A.A.A.A.A.A.A.A.A.A.A.A.A.A.A.A.A.A.A.A.A.A.A.A.A.",
"A.A.A.A.A.A.A.A.A.A.A.A.A.A.A.A.A.A.A.A.A.A.A.A.A.A.A.A.A.A.A.A.",
"A.A.A.A.A.A.A.A.A.A.A.A.A.A.A.A.A.A.A.A.A.A.A.A.A.A.A.A.A.A.A.A.",
"A.A.A.A.A.A.A.A.A.A.A.A.A.A.A.A.A.A.A.A.A.A.A.A.A.A.A.A.A.A.A.A.",
"A.A.A.A.A.A.A.A.A.A.A.A.A.A.A.A.A.A.A.A.A.A.A.A.A.A.A.A.A.A.A.A."
};
