/* XPM */
static char *result[] = {
/* columns rows colors chars-per-pixel */
"32 32 198 2 ",
"   c #131313",
".  c #151515",
"X  c #191919",
"o  c gray10",
"O  c #1B1B1B",
"+  c #1E1C1A",
"@  c #1F1D1C",
"#  c #1F1E1D",
"$  c #1E2020",
"%  c #212020",
"&  c #212120",
"*  c gray13",
"=  c #222222",
"-  c #232222",
";  c #232322",
":  c #222223",
">  c #222323",
",  c #232323",
"<  c #272523",
"1  c #232324",
"2  c #232425",
"3  c gray14",
"4  c #252525",
"5  c #262524",
"6  c #242626",
"7  c #252626",
"8  c #282624",
"9  c #292826",
"0  c #2D2927",
"q  c #2E2A27",
"w  c #252729",
"e  c #26292A",
"r  c #272A2C",
"t  c #282828",
"y  c #282A2C",
"u  c #282B2D",
"i  c #2D2D2D",
"p  c #2F2F2F",
"a  c #302C28",
"s  c #312C28",
"d  c #312C29",
"f  c #393029",
"g  c #3A3028",
"h  c #3A312A",
"j  c #3B332C",
"k  c #3C332D",
"l  c #3B352F",
"z  c #3F352E",
"x  c #2A2E30",
"c  c #2B2F30",
"v  c #2B2F31",
"b  c #2C3031",
"n  c #2D3231",
"m  c #2D3232",
"M  c #2E3332",
"N  c #2E3333",
"B  c #2B3034",
"V  c #2C3135",
"C  c #2D3236",
"Z  c #2E3438",
"A  c #2E3439",
"S  c #343434",
"D  c gray21",
"F  c #3D3631",
"G  c #32393C",
"H  c #32393D",
"J  c #323A3D",
"K  c #31383E",
"L  c #323B3F",
"P  c #343B3F",
"I  c gray22",
"U  c #3A3A3A",
"Y  c #443931",
"T  c #473B32",
"R  c #483C32",
"E  c #504135",
"W  c #514236",
"Q  c #524236",
"!  c #554438",
"~  c #574639",
"^  c #584639",
"/  c #584739",
"(  c #58473A",
")  c #59473A",
"_  c #59483A",
"`  c #59483B",
"'  c #5A493B",
"]  c #5D4B3D",
"[  c #5F4D3E",
"{  c #624F3F",
"}  c #343D42",
"|  c #363E42",
" . c #343D44",
".. c #353F44",
"X. c #363F44",
"o. c #374047",
"O. c #364048",
"+. c #3A434A",
"@. c #3C494F",
"#. c #3B4850",
"$. c #3E4B52",
"%. c #3F4C53",
"&. c #3F4D54",
"*. c #3E4C56",
"=. c gray28",
"-. c #4B4B4B",
";. c #414F56",
":. c #404F5A",
">. c #425157",
",. c #445157",
"<. c #425058",
"1. c #425159",
"2. c #41505B",
"3. c #44535A",
"4. c #41515D",
"5. c #45555C",
"6. c #46565D",
"7. c #46565E",
"8. c #47575E",
"9. c #535353",
"0. c #565656",
"q. c gray34",
"w. c gray35",
"e. c #5B5B5B",
"r. c gray37",
"t. c #614F40",
"y. c #645141",
"u. c #695644",
"i. c #6A5745",
"p. c #6C5947",
"a. c #445560",
"s. c #465862",
"d. c #485A66",
"f. c #485C69",
"g. c #495D6B",
"h. c #4B5F6C",
"j. c #4A5E6D",
"k. c #4F636D",
"l. c #516877",
"z. c #526877",
"x. c #556C77",
"c. c #516878",
"v. c #52697A",
"b. c #566E79",
"n. c #6F6F6F",
"m. c #5E7987",
"M. c #627E8B",
"N. c #607C8D",
"B. c #617D8D",
"V. c #627E8C",
"C. c #607D8E",
"Z. c #63808B",
"A. c #68868E",
"S. c #6F8F8B",
"D. c #628091",
"F. c #668493",
"G. c #668593",
"H. c #658494",
"J. c #668595",
"K. c #678695",
"L. c #688796",
"P. c #6C8C90",
"I. c #698897",
"U. c #698998",
"Y. c #6A8B9A",
"T. c #6B8B9B",
"R. c #6B8C9A",
"E. c #6D8E98",
"W. c #6B8C9C",
"Q. c #6D8E9D",
"!. c #6E8F9F",
"~. c #6F919F",
"^. c #759896",
"/. c #70939F",
"(. c #73969F",
"). c #7A9F99",
"_. c #7598A1",
"`. c gray51",
"'. c #898989",
"]. c gray54",
"[. c #8D8D8D",
"{. c #989898",
"}. c gray65",
"|. c #AFAFAF",
" X c gray71",
".X c gray77",
"XX c #C8C8C8",
"oX c gray79",
"OX c gray87",
"+X c #E2E2E2",
"@X c gray90",
"#X c #E7E7E7",
"$X c gray92",
"%X c gray94",
"&X c gray97",
"*X c #F9F9F9",
"=X c gray98",
"-X c None",
/* pixels */
"-X-X-X-X-X-X-X-X-X-X-X-X-X-X-X-X-X-X-X-X-X-X-X-X-X-X-X-X-X-X-X-X",
"-X-X-X-X-X-X-X-X-X-X-X-X-X-X-X-X-X-X-X-X-X-X-X-X-X-X-X-X-X-X-X-X",
"-X-X-X-X-X-X-X-X-X-X-X-X-X-X-X-X-X-X-X-X-X-X-X-X-X-X-X-X-X-X-X-X",
"-X-X-X-X-X-X-X-X-X-X-X-X-X-X-X-X-X-X-X-X-X-X-X-X-X-X-X-X-X-X-X-X",
"-X-X-X-X-X-X-X-X-X-X-X-X-X-X-X-X-X-X-X-X-X-X-X-X-X-X-X-X-X-X-X-X",
"-X-X-X-X-X-X-X-X-X-X-X-X-X-X-X-X-X-X-X-X-X-X-X-X-X-X-X-X-X-X-X-X",
"-X-X-X-X-X-X-X-X-X-X-X-X-X-X-X-X-X-X-X-X-X-X-X-X-X-X-X-X-X-X-X-X",
"-X-X-X-X-X-X-X-X-X-X-X-X-X-X-X-X-X-X-X-X-X-X-X-X-X-X-X-X-X-X-X-X",
"-X-X-X-X-X-X-X-X-X-X-X-X-X-X-X-X@ @ @ @ @ @ @ -X-X-X-X-X-X-X-X-X",
"-X-X-X-X-X-X-X-X-X-X-X-X-X-X-XZ A Z Z Z Z Z A V -X-X-X-X-X-X-X-X",
"-X-X-X-X-X-X-X-X-X-X-X-X-X-Xr f.c.l.l.l.l.l.v.s.N -X-X-X-X-X-X-X",
"-X-X-X-X-X-X-X-X-X-X-X-X-X-Xr g.B.L.K.K.K.K.J.E.S.n -X-X-X-X-X-X",
"-X-X-X-X-X-X-X-X-X-X-X-X-X-Xr j.H.!.Q.Q.Q.Q.T._.).M -X-X-X-X-X-X",
"-X-X-X-X-X-X-X-X-X-X-X-X-X-X6  .<.8.7.6.3.>.b./.P.b -X-X-X-X-X-X",
"-X-X-X-X-X-X-X-X-X-X-X-X-X-X2 B 1 @ # & H P k.~.A.v -X-X-X-X-X-X",
"-X-X-X-X-X-X-X-X-X-X-X-X-X-Xy h.o.7 1 G V.Y.U.(.^.m -X-X-X-X-X-X",
"-X-X-X-X-X-X-X-X-X-X-X-X-X-Xx m.G.%.J M.I.U.U.R.Z.c -X-X-X-X-X-X",
"-X-X-X-X* o X X X X -X-X-X-Xu z.W.5.| F.@.} ..X.L 2 -X-X-X-X-X-X",
"-X-X-X-Xp `.[.'.].`.i -X  -Xe O.;.$.#.,.l g f f h k q -X-X-X-X-X",
"-X-X-X-XU |.#X*X=X@Xn.e.r.w.-X% u a.d.< Q _ ] [ ( ^ d $ -X-X-X-X",
"-X-X-X-X-Xt {.oX.XoX$X%X&X X4 = :.N.x.9 W ~ y.i.' ~ s $ -X-X-X-X",
"-X-X-X-X-X-XD I S -.XXOX+X}.3 : 2.C.x.9 W / ( t.p.` a $ -X-X-X-X",
"-X-X-X-X-X-X-X-X-X-X9.0.q.=.; > 4.D.b.8 Q / t.u.[ ) s $ -X-X-X-X",
"-X-X-X-X-X-X-X-X-X-X-X. -XO = : K &.1.+.F E { y.! z 0 -X-X-X-X-X",
"-X-X-X-X-X-X-X-X-X-X-X-X-X-X= = % + C *.w j R T Y 5 -X-X-X-X-X-X",
"-X-X-X-X-X-X-X-X-X-X-X-X-X-X-X-X-X-X-X, = - ; ; ; -X-X-X-X-X-X-X",
"-X-X-X-X-X-X-X-X-X-X-X-X-X-X-X-X-X-X-X-X-X-X-X-X-X-X-X-X-X-X-X-X",
"-X-X-X-X-X-X-X-X-X-X-X-X-X-X-X-X-X-X-X-X-X-X-X-X-X-X-X-X-X-X-X-X",
"-X-X-X-X-X-X-X-X-X-X-X-X-X-X-X-X-X-X-X-X-X-X-X-X-X-X-X-X-X-X-X-X",
"-X-X-X-X-X-X-X-X-X-X-X-X-X-X-X-X-X-X-X-X-X-X-X-X-X-X-X-X-X-X-X-X",
"-X-X-X-X-X-X-X-X-X-X-X-X-X-X-X-X-X-X-X-X-X-X-X-X-X-X-X-X-X-X-X-X",
"-X-X-X-X-X-X-X-X-X-X-X-X-X-X-X-X-X-X-X-X-X-X-X-X-X-X-X-X-X-X-X-X"
};
