/* XPM */
static char *result[] = {
/* columns rows colors chars-per-pixel */
"32 32 202 2 ",
"   c #181818",
".  c #191919",
"X  c #1D1B1A",
"o  c #1E1B1A",
"O  c gray11",
"+  c #1E1C1C",
"@  c #1E1E1E",
"#  c gray12",
"$  c #201F1F",
"%  c #1E2020",
"&  c #212020",
"*  c #202021",
"=  c gray13",
"-  c #222121",
";  c #232221",
":  c #222222",
">  c #232222",
",  c #232322",
"<  c #222223",
"1  c #222323",
"2  c #232323",
"3  c #272523",
"4  c #232324",
"5  c #232424",
"6  c gray14",
"7  c #252525",
"8  c #262524",
"9  c #242626",
"0  c #242627",
"q  c #292826",
"w  c #2D2927",
"e  c #2D2A27",
"r  c #262829",
"t  c #27292B",
"y  c #272A2B",
"u  c #272A2C",
"i  c #282A2C",
"p  c #292B2D",
"a  c #282C2E",
"s  c #2A2E2F",
"d  c #2F2F2F",
"f  c #302C28",
"g  c #312C28",
"h  c #312C29",
"j  c #372E28",
"k  c #3A3129",
"l  c #3B322B",
"z  c #3B322C",
"x  c #3C332D",
"c  c #3C342D",
"v  c #3F352E",
"b  c #2A2E30",
"n  c #2B2E30",
"m  c #2B2F30",
"M  c #2A2F31",
"N  c #2C3031",
"B  c #2D3131",
"V  c #2E3232",
"C  c #2C3135",
"Z  c #2E3438",
"A  c #2E3439",
"S  c gray20",
"D  c #3E3934",
"F  c #333B3E",
"G  c #333B3F",
"H  c gray22",
"J  c #443931",
"K  c #473B32",
"L  c #483C32",
"P  c #504135",
"I  c #514236",
"U  c #524236",
"Y  c #524237",
"T  c #554438",
"R  c #574639",
"E  c #584639",
"W  c #584739",
"Q  c #58473A",
"!  c #59473A",
"~  c #59483A",
"^  c #59483B",
"/  c #5A493B",
"(  c #5D4B3D",
")  c #5F4D3E",
"_  c #624F3F",
"`  c #323A40",
"'  c #333B42",
"]  c #343D40",
"[  c #343D41",
"{  c #353D41",
"}  c #343D43",
"|  c #353E42",
" . c #353F44",
".. c #374044",
"X. c #364045",
"o. c #374045",
"O. c #374145",
"+. c #364047",
"@. c #3D4847",
"#. c #364148",
"$. c #374149",
"%. c #3D494E",
"&. c #3C4850",
"*. c #3F4C52",
"=. c #3E4C55",
"-. c gray28",
";. c #484848",
":. c gray29",
">. c #4C4C4C",
",. c #425159",
"<. c #435259",
"1. c #40505B",
"2. c #44545B",
"3. c #47555B",
"4. c #41515D",
"5. c #42525D",
"6. c #505050",
"7. c gray34",
"8. c #614F40",
"9. c #645141",
"0. c #695644",
"q. c #6A5745",
"w. c #6C5947",
"e. c #465964",
"r. c #4A5B64",
"t. c #495C6A",
"y. c #495D6B",
"u. c #4A5E6C",
"i. c #4C606C",
"p. c #4C616D",
"a. c #4F636D",
"s. c #4C606E",
"d. c #4F646D",
"f. c #506570",
"g. c #516876",
"h. c #556C77",
"j. c #566D78",
"k. c #566E79",
"l. c #626262",
"z. c #566F80",
"x. c #577181",
"c. c #577182",
"v. c #587182",
"b. c #587283",
"n. c #5B7580",
"m. c #5E7987",
"M. c #607D8D",
"N. c #637F8D",
"B. c #607D8E",
"V. c #617F8F",
"C. c #627F8E",
"Z. c #67868E",
"A. c #638090",
"S. c #658493",
"D. c #668492",
"F. c #688796",
"G. c #6D8D91",
"H. c #688896",
"J. c #698997",
"K. c #698898",
"L. c #698998",
"P. c #6A8A99",
"I. c #6A8A9A",
"U. c #6A8B9A",
"Y. c #6B8B9A",
"T. c #6B8C9C",
"R. c #6C8D9D",
"E. c #6D8F9E",
"W. c #6F919F",
"Q. c #739696",
"!. c #779B96",
"~. c #789C97",
"^. c #71939F",
"/. c #73969F",
"(. c #7396A1",
"). c #7497A0",
"_. c #898989",
"`. c gray54",
"'. c #8B8B8B",
"]. c #909090",
"[. c #939393",
"{. c gray59",
"}. c #9A9A9A",
"|. c #9F9F9F",
" X c gray64",
".X c #AAAAAA",
"XX c gray67",
"oX c gray71",
"OX c #B6B6B6",
"+X c #B7B7B7",
"@X c gray72",
"#X c gray73",
"$X c #C3C3C3",
"%X c #C5C5C5",
"&X c #D5D5D5",
"*X c #E1E1E1",
"=X c #E9E9E9",
"-X c #F6F6F6",
";X c gray97",
":X c #F9F9F9",
">X c gray99",
",X c None",
/* pixels */
",X,X,X,X,X,X,X,X,X,X,X,X,X,X,X,X,X,X,X,X,X,X,X,X,X,X,X,X,X,X,X,X",
",X,X,X,X,X,X,X,X,X,X,X,X,X,X,X,X,X,X,X,X,X,X,X,X,X,X,X,X,X,X,X,X",
",X,X,X,X,X,X,X,X,X,X,X,X,X,X,X,X,X,X,X,X,X,X,X,X,X,X,X,X,X,X,X,X",
",X,X,X,X,X,X,X,X,X,X,X,X,X,X,X,X,X,X,X,X,X,X,X,X,X,X,X,X,X,X,X,X",
",X,X,X,X,X,X,X,X,X,X,X,X,X,X,X,X,X,X,X,X,X,X,X,X,X,X,X,X,X,X,X,X",
",X,X,X,X,X,X,X,X,X,X,X,X,X,X,X,X,X,X,X,X,X,X,X,X,X,X,X,X,X,X,X,X",
",X,X,X,X,X,X,X,X,X,X,X,X,X,X,X,X,X,X,X,X,X,X,X,X,X,X,X,X,X,X,X,X",
",X,X,X,X,X,X,X,X,X,X,X,X,X,X,X$ $ $ $ $ $ $ $ ,X,X,X,X,X,X,X,X,X",
",X,X,X,X,X,X,X,X,X,X,X,X,X,Xt +.$.#.#.#.#.#.$.` ,X,X,X,X,X,X,X,X",
",X,X,X,X,X,X,X,X,X,X,X,X,X,Xu u.z.v.x.x.x.x.b.f.@.,X,X,X,X,X,X,X",
",X,X,X,X,X,X,X,X,X,X,X,X,X,Xu y.A.Y.P.P.P.P.K./.!.V ,X,X,X,X,X,X",
",X,X,X,X,X,X,X,X,X,X,X,X,X,Xy t.C.P.L.L.L.J.K.).~.V ,X,X,X,X,X,X",
",X,X,X,X,X,X,X,X,X,X,X,X,X,X5 C [ O.o...{ F a.W.Z.m ,X,X,X,X,X,X",
",X,X,X,X,X,X,X,X,X,X,X,X,X,X9 ' 0 X + - *.<.k.^.G.N ,X,X,X,X,X,X",
",X,X,X,X,X,X,X,X,X,X,X,X,X,Xa g.,.n r %.D.E.T.(.Q.B ,X,X,X,X,X,X",
",X,X,X,X,X,X,X,X,X,X,X,X,X,Xs m.R.<.] H.I.U.D.N.n.b ,X,X,X,X,X,X",
",X,X,X2 7 7 7 7 7 ,X,X,X,X,Xi s.S.2.{ F.L.Y.r.p b ,X,X,X,X,X,X,X",
",X,X  >.@X+XOX#X[.O   . ,X,X,XZ G &.=.o. .X.M @ # * ,X,X,X,X,X,X",
",X,X,X6.}.=X;X:X&X`._.'.l.,X= & A p.i.; j k l x c x e ,X,X,X,X,X",
",X,X,X,Xd {. X|.#X-X;X>XXX;.2 1 4.V.j.q Y ~ ( ) Q E h % ,X,X,X,X",
",X,X,X,X,X7 7 @ 7.$X%X$X*XoX7 < 1.B.h.q I R 9.q./ R g % ,X,X,X,X",
",X,X,X,X,X,X,X,X,XH H S ]..X6 < 1.M.h.q I W Q 8.w.^ f % ,X,X,X,X",
",X,X,X,X,X,X,X,X,X,X,X,X:.-.> 1 5.c.e.3 U W 8.0.) ! g % ,X,X,X,X",
",X,X,X,X,X,X,X,X,X,X,X,X,X. ,X2 } $.&.3.D P _ 9.T v w ,X,X,X,X,X",
",X,X,X,X,X,X,X,X,X,X,X,X,X,X,X,X,Xo | d.u z L K J 8 ,X,X,X,X,X,X",
",X,X,X,X,X,X,X,X,X,X,X,X,X,X,X,X,X,X,X4 : > , , , ,X,X,X,X,X,X,X",
",X,X,X,X,X,X,X,X,X,X,X,X,X,X,X,X,X,X,X,X,X,X,X,X,X,X,X,X,X,X,X,X",
",X,X,X,X,X,X,X,X,X,X,X,X,X,X,X,X,X,X,X,X,X,X,X,X,X,X,X,X,X,X,X,X",
",X,X,X,X,X,X,X,X,X,X,X,X,X,X,X,X,X,X,X,X,X,X,X,X,X,X,X,X,X,X,X,X",
",X,X,X,X,X,X,X,X,X,X,X,X,X,X,X,X,X,X,X,X,X,X,X,X,X,X,X,X,X,X,X,X",
",X,X,X,X,X,X,X,X,X,X,X,X,X,X,X,X,X,X,X,X,X,X,X,X,X,X,X,X,X,X,X,X",
",X,X,X,X,X,X,X,X,X,X,X,X,X,X,X,X,X,X,X,X,X,X,X,X,X,X,X,X,X,X,X,X"
};
