/* XPM */
static char *result[] = {
/* columns rows colors chars-per-pixel */
"32 32 166 2 ",
"   c #151515",
".  c #191919",
"X  c #1D1B1A",
"o  c #1C1D1D",
"O  c #1E1C1C",
"+  c #1D1E1F",
"@  c #1E1E1E",
"#  c #201F1E",
"$  c #201F1F",
"%  c #1F2020",
"&  c #1F2021",
"*  c #212020",
"=  c #202021",
"-  c #202121",
";  c #222121",
":  c #212122",
">  c #212222",
",  c #222222",
"<  c #232322",
"1  c #222323",
"2  c #232323",
"3  c #232424",
"4  c #242626",
"5  c #242627",
"6  c #2E2A27",
"7  c #27292A",
"8  c #27292B",
"9  c #272A2B",
"0  c #272A2C",
"q  c #282929",
"w  c gray16",
"e  c #282A2C",
"r  c #282C2E",
"t  c #2A2E2F",
"y  c #3B312A",
"u  c #3B322B",
"i  c #3B332D",
"p  c #3C332C",
"a  c #3D342D",
"s  c #3C342E",
"d  c #3D342E",
"f  c #2A2E30",
"g  c #2B2E30",
"h  c #2B2F30",
"j  c #2C3031",
"k  c #2D3131",
"l  c #2E3232",
"z  c #2C3135",
"x  c #2E3438",
"c  c gray20",
"v  c #32393C",
"b  c #333B3E",
"n  c gray22",
"m  c #3A3A3A",
"M  c #443931",
"N  c #463930",
"B  c #463B32",
"V  c #473B32",
"C  c #483A31",
"Z  c #483B31",
"A  c #483C33",
"S  c #403E3C",
"D  c #574639",
"F  c #584639",
"G  c #584739",
"H  c #59473A",
"J  c #59483A",
"K  c #59483B",
"L  c #5A483A",
"P  c #5A493B",
"I  c #5B493B",
"U  c #5C4A3C",
"Y  c #5D4B3C",
"T  c #604E3F",
"R  c #614F3F",
"E  c #323A40",
"W  c #333B42",
"Q  c #343D41",
"!  c #353D41",
"~  c #343D42",
"^  c #353E45",
"/  c #353F46",
"(  c #393F44",
")  c #374044",
"_  c #374045",
"`  c #374145",
"'  c #364047",
"]  c #3D4847",
"[  c #364148",
"{  c #374149",
"}  c #38454D",
"|  c #39454D",
" . c #38454E",
".. c #3E4B51",
"X. c #3F4C52",
"o. c gray28",
"O. c gray31",
"+. c #425159",
"@. c #435259",
"#. c #47565E",
"$. c #565656",
"%. c gray34",
"&. c #5B5B5B",
"*. c #645141",
"=. c #665342",
"-. c #695644",
";. c #6A5745",
":. c #6C5947",
">. c #495C6A",
",. c #495D6B",
"<. c #4A5E6C",
"1. c #4F636D",
"2. c #4C606E",
"3. c #506570",
"4. c #516876",
"5. c #566E79",
"6. c #626262",
"7. c gray47",
"8. c #566F80",
"9. c #577181",
"0. c #587182",
"q. c #587283",
"w. c #5B7580",
"e. c #5E7987",
"r. c #607B88",
"t. c #617E8B",
"y. c #627E8B",
"u. c #627F8E",
"i. c #63808D",
"p. c #67868E",
"a. c #638090",
"s. c #658494",
"d. c #678695",
"f. c #6D8D91",
"g. c #698997",
"h. c #698898",
"j. c #698998",
"k. c #6A8A99",
"l. c #6B8B9A",
"z. c #6C8D9D",
"x. c #6F919F",
"c. c #739696",
"v. c #779B96",
"b. c #789C97",
"n. c #71939F",
"m. c #73969F",
"M. c #6F91A1",
"N. c #7396A1",
"B. c #7497A0",
"V. c #898989",
"C. c gray54",
"Z. c #8B8B8B",
"A. c gray57",
"S. c #A9A9A9",
"D. c #C3C3C3",
"F. c #C5C5C5",
"G. c #C6C6C6",
"H. c gray81",
"J. c #D8D8D8",
"K. c #DADADA",
"L. c #E4E4E4",
"P. c gray96",
"I. c #F6F6F6",
"U. c gray97",
"Y. c gray99",
"T. c None",
/* pixels */
"T.T.T.T.T.T.T.T.T.T.T.T.T.T.T.T.T.T.T.T.T.T.T.T.T.T.T.T.T.T.T.T.",
"T.T.T.T.T.T.T.T.T.T.T.T.T.T.T.T.T.T.T.T.T.T.T.T.T.T.T.T.T.T.T.T.",
"T.T.T.T.T.T.T.T.T.T.T.T.T.T.T.T.T.T.T.T.T.T.T.T.T.T.T.T.T.T.T.T.",
"T.T.T.T.T.T.T.T.T.T.T.T.T.T.T.T.T.T.T.T.T.T.T.T.T.T.T.T.T.T.T.T.",
"T.T.T.T.T.T.T.T.T.T.T.T.T.T.T.T.T.T.T.T.T.T.T.T.T.T.T.T.T.T.T.T.",
"T.T.T.T.T.T.T.T.T.T.T.T.T.T.T.T.T.T.T.T.T.T.T.T.T.T.T.T.T.T.T.T.",
"T.T.T.T.T.T.T.T.T.T.T.T.T.T.T.T.T.T.T.T.T.T.T.T.T.T.T.T.T.T.T.T.",
"T.T.T.T.T.T.T.T.T.T.T.T.T.T.T.$ $ $ $ $ $ $ $ T.T.T.T.T.T.T.T.T.",
"T.T.T.T.T.T.T.T.T.T.T.T.T.T.8 ' { [ [ [ [ [ { E T.T.T.T.T.T.T.T.",
"T.T.T.T.T.T.T.T.T.T.T.T.T.T.0 <.8.0.9.9.9.9.q.3.] T.T.T.T.T.T.T.",
"T.T.T.T.T.T.T.T.T.T.T.T.T.T.0 ,.a.l.k.k.k.k.h.m.v.l T.T.T.T.T.T.",
"T.T.T.T.T.T.T.T.T.T.T.T.T.T.9 >.u.k.j.j.j.g.h.B.b.l T.T.T.T.T.T.",
"T.T.T.T.T.T.T.T.T.T.T.T.T.T.3 z Q ` _ ) ! b 1.x.p.h T.T.T.T.T.T.",
"T.T.T.T.T.T.T.T.T.T.T.T.T.T.4 W 5 X O ; X.@.5.n.f.j T.T.T.T.T.T.",
"T.T.T.T.T.T.T.T.T.T.T.T.T.T.r 4.+.g 7 ..d.M.z.N.c.k T.T.T.T.T.T.",
"T.T.T.T.T.T.T.T.T.T.T.T.T.T.t e.z.@.v r.y.t.t.i.w.f T.T.T.T.T.T.",
"T.T.T.T.T.T.T.T.T.T.T.T.T.T.e 2.s.#.2 h h h h g f T.T.T.T.T.T.T.",
"T.T.T.T.T.T., @ . . . . T.T.T.x ~ S Z N N N C u * T.T.T.T.T.T.T.",
"T.T.T.T.T.T.@ $.A.V.V.Z.6.T.  # @ p L I =.Y L A < T.T.T.T.T.T.T.",
"T.T.T.T.T.T.T.7.H.I.U.Y.S.&.%.w % d G K -.*.Y V < T.T.T.T.T.T.T.",
"T.T.T.T.T.T.T.T.$.D.F.D.K.P.J.m o a H D I ;.=.B < T.T.T.T.T.T.T.",
"T.T.T.T.T.T.T.T.T.n n c C.L.G.n + s F P :.R J B < T.T.T.T.T.T.T.",
"T.T.T.T.T.T.T.T.T.T.T.T.o.%.O.q } ( y J T U M 6 T.T.T.T.T.T.T.T.",
"T.T.T.T.T.T.T.T.T.T.T.T.T.  T.: /  .( s i d 6 & T.T.T.T.T.T.T.T.",
"T.T.T.T.T.T.T.T.T.T.T.T.T.T.T.T.T.^ | > = - : , T.T.T.T.T.T.T.T.",
"T.T.T.T.T.T.T.T.T.T.T.T.T.T.T.T.T.T.1 , T., , , T.T.T.T.T.T.T.T.",
"T.T.T.T.T.T.T.T.T.T.T.T.T.T.T.T.T.T.T.T.T.T.T.T.T.T.T.T.T.T.T.T.",
"T.T.T.T.T.T.T.T.T.T.T.T.T.T.T.T.T.T.T.T.T.T.T.T.T.T.T.T.T.T.T.T.",
"T.T.T.T.T.T.T.T.T.T.T.T.T.T.T.T.T.T.T.T.T.T.T.T.T.T.T.T.T.T.T.T.",
"T.T.T.T.T.T.T.T.T.T.T.T.T.T.T.T.T.T.T.T.T.T.T.T.T.T.T.T.T.T.T.T.",
"T.T.T.T.T.T.T.T.T.T.T.T.T.T.T.T.T.T.T.T.T.T.T.T.T.T.T.T.T.T.T.T.",
"T.T.T.T.T.T.T.T.T.T.T.T.T.T.T.T.T.T.T.T.T.T.T.T.T.T.T.T.T.T.T.T."
};
