/* XPM */
static char *result[] = {
/* columns rows colors chars-per-pixel */
"32 32 204 2 ",
"   c gray8",
".  c #161616",
"X  c gray10",
"o  c #1D1B1A",
"O  c #1E1C1B",
"+  c #1E1C1C",
"@  c gray12",
"#  c #201F1F",
"$  c #20201F",
"%  c #202021",
"&  c gray13",
"*  c #222121",
"=  c #222222",
"-  c #232222",
";  c #222223",
":  c #232223",
">  c #232323",
",  c #232424",
"<  c gray14",
"1  c #242425",
"2  c #252525",
"3  c #242626",
"4  c #242627",
"5  c #272727",
"6  c #2C2724",
"7  c #2B2826",
"8  c #262829",
"9  c #26292A",
"0  c #26292B",
"q  c #27292B",
"w  c #272A2B",
"e  c #272A2C",
"r  c #282B2D",
"t  c #292B2D",
"y  c #292C2D",
"u  c #282C2E",
"i  c #292D2E",
"p  c #2A2D2F",
"a  c #2A2E2F",
"s  c #2D2D2D",
"d  c gray18",
"f  c #37302B",
"g  c #3B332D",
"h  c #3C332D",
"j  c #3C342D",
"k  c #2B2E30",
"l  c #2B2F30",
"z  c #292F33",
"x  c #2A2E32",
"c  c #2C3031",
"v  c #2C3032",
"b  c #2D3232",
"n  c #2E3232",
"m  c #2A3136",
"M  c #2C3135",
"N  c #2D3236",
"B  c #2E3439",
"V  c #373737",
"C  c #333B3E",
"Z  c #333B3F",
"A  c gray22",
"S  c gray23",
"D  c #3A3E3E",
"F  c #3C3C3C",
"G  c #43372E",
"H  c #47392F",
"J  c #463930",
"K  c #463A30",
"L  c #473A30",
"P  c #473B32",
"I  c #423B36",
"U  c #483B31",
"Y  c #483C33",
"T  c #584639",
"R  c #584739",
"E  c #59473A",
"W  c #5A483A",
"Q  c #5B493B",
"!  c #5C4A3C",
"~  c #5D4B3D",
"^  c #5E4D3E",
"/  c #604E3F",
"(  c #614F3F",
")  c #323A40",
"_  c #323B40",
"`  c #323B42",
"'  c #333B42",
"]  c #343D40",
"[  c #343D41",
"{  c #353D41",
"}  c #363F43",
"|  c #353E45",
" . c #374044",
".. c #374045",
"X. c #374145",
"o. c #364047",
"O. c #3D4847",
"+. c #364148",
"@. c #374149",
"#. c #3D494E",
"$. c #3C4850",
"%. c #3D4A51",
"&. c #3F4C52",
"*. c #3E4B55",
"=. c #414141",
"-. c #4C4C4C",
";. c #404F5A",
":. c #425159",
">. c #435259",
",. c #41505A",
"<. c #40505B",
"1. c #44545B",
"2. c #42515C",
"3. c #515150",
"4. c #535353",
"5. c #665342",
"6. c #6A5745",
"7. c #6D5947",
"8. c #445461",
"9. c #495C6A",
"0. c #495D6B",
"q. c #4A5E6C",
"w. c #4A5E6D",
"e. c #4C5F6C",
"r. c #4F636D",
"t. c #4C606E",
"y. c #506570",
"u. c #526772",
"i. c #516876",
"p. c #536A78",
"a. c #566D78",
"s. c #566E79",
"d. c #58707B",
"f. c #5A737F",
"g. c #6A6A6A",
"h. c #767676",
"j. c #777676",
"k. c #797979",
"l. c gray48",
"z. c #7B7B7B",
"x. c #566F80",
"c. c #577181",
"v. c #587182",
"b. c #587283",
"n. c #5E7987",
"m. c #5D7888",
"M. c #5E798A",
"N. c #5F7C8C",
"B. c #617D8B",
"V. c #627E8B",
"C. c #617E8E",
"Z. c #627F8E",
"A. c #63808D",
"S. c #64818F",
"D. c #67868E",
"F. c #638090",
"G. c #648293",
"H. c #668492",
"J. c #658494",
"K. c #678695",
"L. c #678696",
"P. c #6D8D91",
"I. c #688896",
"U. c #698997",
"Y. c #698898",
"T. c #698998",
"R. c #6A8A99",
"E. c #6B8B9A",
"W. c #6B8C9B",
"Q. c #6C8D9C",
"!. c #6C8D9D",
"~. c #6F919F",
"^. c #739696",
"/. c #779B96",
"(. c #789C97",
"). c #71939F",
"_. c #73969F",
"`. c #6E90A0",
"'. c #7396A1",
"]. c #7497A0",
"[. c #868686",
"{. c #888888",
"}. c #8E8D8D",
"|. c #9F9F9F",
" X c gray63",
".X c gray64",
"XX c #A4A4A4",
"oX c gray67",
"OX c #B4B4B4",
"+X c #B6B6B6",
"@X c #B7B7B7",
"#X c #D0D0D0",
"$X c gray86",
"%X c gainsboro",
"&X c #DFDFDF",
"*X c gray88",
"=X c #E4E4E4",
"-X c #EAEAEA",
";X c #ECECEC",
":X c gray93",
">X c #F4F4F4",
",X c #F6F6F6",
"<X c #F9F9F9",
"1X c None",
/* pixels */
"1X1X1X1X1X1X1X1X1X1X1X1X1X1X1X1X1X1X1X1X1X1X1X1X1X1X1X1X1X1X1X1X",
"1X1X1X1X1X1X1X1X1X1X1X1X1X1X1X1X1X1X1X1X1X1X1X1X1X1X1X1X1X1X1X1X",
"1X1X1X1X1X1X1X1X1X1X1X1X1X1X1X1X1X1X1X1X1X1X1X1X1X1X1X1X1X1X1X1X",
"1X1X1X1X1X1X1X1X1X1X1X1X1X1X1X1X1X1X1X1X1X1X1X1X1X1X1X1X1X1X1X1X",
"1X1X1X1X1X1X1X1X1X1X1X1X1X1X1X1X1X1X1X1X1X1X1X1X1X1X1X1X1X1X1X1X",
"1X1X1X1X1X1X1X1X1X1X1X1X1X1X1X1X1X1X1X1X1X1X1X1X1X1X1X1X1X1X1X1X",
"1X1X1X1X1X1X1X1X1X1X1X1X1X1X1X1X1X1X1X1X1X1X1X1X1X1X1X1X1X1X1X1X",
"1X1X1X1X1X1X1X1X1X1X1X1X1X1X1X# # # # # # # # 1X1X1X1X1X1X1X1X1X",
"1X1X1X1X1X1X1X1X1X1X1X1X1X1Xq o.@.+.+.+.+.+.@.) 1X1X1X1X1X1X1X1X",
"1X1X1X1X1X1X1X1X1X1X1X1X1X1Xe q.x.v.c.c.c.c.b.y.O.1X1X1X1X1X1X1X",
"1X1X1X1X1X1X1X1X1X1X1X1X1X1Xe 0.F.E.R.R.R.R.Y._./.n 1X1X1X1X1X1X",
"1X1X1X1X1X1X1X1X1X1X1X1X1X1Xw 9.Z.R.T.T.T.U.Y.].(.n 1X1X1X1X1X1X",
"1X1X1X1X1X1X1X1X1X1X1X1X1X1X, M [ X... .{ C r.~.D.l 1X1X1X1X1X1X",
"1X1X1X1X1X1X1X1X1X1X1X1X1X1X3 ' 4 o + * &.>.s.).P.c 1X1X1X1X1X1X",
"1X1X1X1X1X1X1X1X1X1X1X1X1X1Xu i.:.k 8 #.H.`.!.'.^.b 1X1X1X1X1X1X",
"1X& d F S S S A 1X1X1X1X1X1Xa n.!.>.] I.R.S.B.A.f.i 1X1X1X1X1X1X",
"1XX z.&X$X%X*X[.@ 2 2 1X1X1Xe t.J.1.{ I.I.#.t l p < - 1X1X1X1X1X",
"1X1X-.{.-X;X:X#XOX+XOX4.. & ; N Z $.*.}  .I H J J P Y f 1X1X1X1X",
"1X1X1X=.k.l.h.@X<X,X>XoX3.0 | 1 B e.p.` : U W ~ 5.W W j % 1X1X1X",
"1X1X1X1XX X   g.XX X.X=X}.m w.r <.N.L.i.y L R ~ 6.( Q g % 1X1X1X",
"1X1X1X1X1X1X1X1X2 < 5 |.j.z 8.e ;.M.Q.B.k K E R ~ 7./ g % 1X1X1X",
"1X1X1X1X1X1X1X1X1X1X1XV s , 9 , ;.m.Q.V.v K T ^ 7.~ E g % 1X1X1X",
"1X1X1X1X1X1X1X1X1X1X1X1X1X1X1X1XM ,.m.K.d.D G ! / E h 7 1X1X1X1X",
"1X1X1X1X1X1X1X1X1X1X1X1X1X1X1X1XO %.G.W.C._ 6 j g g 7 1X1X1X1X1X",
"1X1X1X1X1X1X1X1X1X1X1X1X1X1X1X1X1X&.a.u.2.x $ % % % 1X1X1X1X1X1X",
"1X1X1X1X1X1X1X1X1X1X1X1X1X1X1X1X1X1X, , > = 1X1X1X1X1X1X1X1X1X1X",
"1X1X1X1X1X1X1X1X1X1X1X1X1X1X1X1X1X1X1X1X1X1X1X1X1X1X1X1X1X1X1X1X",
"1X1X1X1X1X1X1X1X1X1X1X1X1X1X1X1X1X1X1X1X1X1X1X1X1X1X1X1X1X1X1X1X",
"1X1X1X1X1X1X1X1X1X1X1X1X1X1X1X1X1X1X1X1X1X1X1X1X1X1X1X1X1X1X1X1X",
"1X1X1X1X1X1X1X1X1X1X1X1X1X1X1X1X1X1X1X1X1X1X1X1X1X1X1X1X1X1X1X1X",
"1X1X1X1X1X1X1X1X1X1X1X1X1X1X1X1X1X1X1X1X1X1X1X1X1X1X1X1X1X1X1X1X",
"1X1X1X1X1X1X1X1X1X1X1X1X1X1X1X1X1X1X1X1X1X1X1X1X1X1X1X1X1X1X1X1X"
};
