/* XPM */
static char *result[] = {
/* columns rows colors chars-per-pixel */
"32 32 163 2 ",
"   c #131313",
".  c gray8",
"X  c #151515",
"o  c #1B1B1B",
"O  c #1B1B1C",
"+  c #1F1D1C",
"@  c #1F1E1D",
"#  c #1D1D1E",
"$  c #1E1E1E",
"%  c #201F1E",
"&  c #201F1F",
"*  c #212120",
"=  c #202021",
"-  c #222222",
";  c #232322",
":  c #222323",
">  c #232323",
",  c #232324",
"<  c #232425",
"1  c gray14",
"2  c #242626",
"3  c #252626",
"4  c #2B2724",
"5  c #252728",
"6  c #26292A",
"7  c #272A2C",
"8  c #282A2C",
"9  c #282B2D",
"0  c #2D2D2D",
"q  c #322B26",
"w  c #342E2A",
"e  c #393029",
"r  c #3A3029",
"t  c #3B312A",
"y  c #3C322B",
"u  c #3C332C",
"i  c #3D342D",
"p  c #3D342E",
"a  c #2A2E30",
"s  c #2B2F30",
"d  c #2B2F31",
"f  c #2C3031",
"g  c #2D3231",
"h  c #2D3232",
"j  c #2E3332",
"k  c #2E3333",
"l  c #2B3034",
"z  c #2C3135",
"x  c #2E3438",
"c  c #2E3439",
"v  c #343434",
"b  c #32393C",
"n  c #32393D",
"m  c #343B3F",
"M  c gray22",
"N  c #3A3A3A",
"B  c gray23",
"V  c #3B3D3F",
"C  c #453930",
"Z  c #463A32",
"A  c #463B32",
"S  c #473B32",
"D  c #483C32",
"F  c #483C33",
"G  c #4B3D33",
"H  c #574639",
"J  c #584739",
"K  c #59473A",
"L  c #59483A",
"P  c #59483B",
"I  c #5A483A",
"U  c #5A493B",
"Y  c #5B493B",
"T  c #5E4B3D",
"R  c #604E3F",
"E  c #614F3F",
"W  c #313A40",
"Q  c #313A41",
"!  c #363E43",
"~  c #343D44",
"^  c #353F44",
"/  c #363F44",
"(  c #364045",
")  c #374047",
"_  c #364048",
"`  c #3C4952",
"'  c #3F4D53",
"]  c #424646",
"[  c #464646",
"{  c gray31",
"}  c #425157",
"|  c #425058",
" . c #425159",
".. c #44535A",
"X. c #46565D",
"o. c #46565E",
"O. c #47575E",
"+. c #505050",
"@. c #535353",
"#. c #565656",
"$. c #585858",
"%. c #5A5A5A",
"&. c gray37",
"*. c #645141",
"=. c #665342",
"-. c #695644",
";. c #6A5745",
":. c #6C5947",
">. c #475860",
",. c #465862",
"<. c #485C69",
"1. c #495D6B",
"2. c #4B5F6C",
"3. c #4A5E6D",
"4. c #4F636D",
"5. c #516877",
"6. c #526877",
"7. c #516878",
"8. c #52697A",
"9. c #566E79",
"0. c #606060",
"q. c #6F6F6F",
"w. c #5E7987",
"e. c #617D8A",
"r. c #617D8D",
"t. c #627E8C",
"y. c #63808B",
"u. c #68868E",
"i. c #6F8F8B",
"p. c #668593",
"a. c #658494",
"s. c #668595",
"d. c #678695",
"f. c #688796",
"g. c #6C8C90",
"h. c #688896",
"j. c #698998",
"k. c #6A8B9A",
"l. c #6B8B9B",
"z. c #6B8C9A",
"x. c #6D8E98",
"c. c #6B8C9C",
"v. c #6D8E9D",
"b. c #6E8F9F",
"n. c #6F919F",
"m. c #759896",
"M. c #70939F",
"N. c #73969F",
"B. c #7A9F99",
"V. c #7598A1",
"C. c #848484",
"Z. c #BCBCBC",
"A. c #C6C6C6",
"S. c gray79",
"D. c #D2D2D2",
"F. c gray85",
"G. c gray86",
"H. c gray87",
"J. c #DFDFDF",
"K. c gray93",
"L. c gray94",
"P. c #F6F6F6",
"I. c None",
/* pixels */
"I.I.I.I.I.I.I.I.I.I.I.I.I.I.I.I.I.I.I.I.I.I.I.I.I.I.I.I.I.I.I.I.",
"I.I.I.I.I.I.I.I.I.I.I.I.I.I.I.I.I.I.I.I.I.I.I.I.I.I.I.I.I.I.I.I.",
"I.I.I.I.I.I.I.I.I.I.I.I.I.I.I.I.I.I.I.I.I.I.I.I.I.I.I.I.I.I.I.I.",
"I.I.I.I.I.I.I.I.I.I.I.I.I.I.I.I.I.I.I.I.I.I.I.I.I.I.I.I.I.I.I.I.",
"I.I.I.I.I.I.I.I.I.I.I.I.I.I.I.I.I.I.I.I.I.I.I.I.I.I.I.I.I.I.I.I.",
"I.I.I.I.I.I.I.I.I.I.I.I.I.I.I.I.I.I.I.I.I.I.I.I.I.I.I.I.I.I.I.I.",
"I.I.I.I.I.I.I.I.I.I.I.I.I.I.I.I.I.I.I.I.I.I.I.I.I.I.I.I.I.I.I.I.",
"I.I.I.I.I.I.I.I.I.I.I.I.I.I.I.I.I.I.I.I.I.I.I.I.I.I.I.I.I.I.I.I.",
"I.I.I.I.I.I.I.I.I.I.I.I.I.I.I.I.+ + + + + + + I.I.I.I.I.I.I.I.I.",
"I.I.I.I.I.I.I.I.I.I.I.I.I.I.I.x c x x x x x c z I.I.I.I.I.I.I.I.",
"I.I.I.I.I.I.I.I.I.I.I.I.I.I.7 <.7.5.5.5.5.5.8.,.k I.I.I.I.I.I.I.",
"I.I.I.I.I.I.I.I.I.I.I.I.I.I.7 1.r.f.d.d.d.d.s.x.i.g I.I.I.I.I.I.",
"I.I.I.I.I.I.I.I.I.I.I.I.I.I.7 3.a.b.v.v.v.v.l.V.B.j I.I.I.I.I.I.",
"I.I.I.I.I.I.I.I.I.I.I.I.I.I.2 ~ | O.o.X...} 9.M.g.f I.I.I.I.I.I.",
"I.I.I.I.I.I.I.I.I.I.I.I.I.I.< l , + @ * n m 4.n.u.d I.I.I.I.I.I.",
"I.I.I.I.I.I.I.I.I.I.I.I.I.I.8 2.) 3 , b t.k.j.N.m.h I.I.I.I.I.I.",
"I.I.I.I.I.I.I.I.I.I.I.I.I.I.a w.p.' n e.h.j.j.z.y.s I.I.I.I.I.I.",
"I.I.I.I.I.I.I.I.I.I.I.I.I.I.9 6.c.>.5 ( ^ ^ ^ / ! I.I.I.I.I.I.I.",
"I.I.I.I.I.I.I.I.$ .       I.6 _  .] y r e r t q % I.I.I.I.I.I.I.",
"I.I.I.I.I.I.I.$ v 0.&.&.&.$.I.& $ u I I R Y I F ; I.I.I.I.I.I.I.",
"I.I.I.I.I.I.I.I.%.F.K.L.P.Z.B 1 = p J U :.E I S ; I.I.I.I.I.I.I.",
"I.I.I.I.I.I.I.I.I.{ S.H.G.J.A.M # p K H Y ;.=.Z ; I.I.I.I.I.I.I.",
"I.I.I.I.I.I.I.I.I.I.@.#.+.C.D.N O i L P -.*.T D ; I.I.I.I.I.I.I.",
"I.I.I.I.I.I.I.I.I.I.I.X I.[ q.0 W V C U =.T G w - I.I.I.I.I.I.I.",
"I.I.I.I.I.I.I.I.I.I.I.I.I.I.o - ` Q 4 A A D w = - I.I.I.I.I.I.I.",
"I.I.I.I.I.I.I.I.I.I.I.I.I.I.I.I.> : - ; ; ; - - - I.I.I.I.I.I.I.",
"I.I.I.I.I.I.I.I.I.I.I.I.I.I.I.I.I.I.I.I.I.I.I.I.I.I.I.I.I.I.I.I.",
"I.I.I.I.I.I.I.I.I.I.I.I.I.I.I.I.I.I.I.I.I.I.I.I.I.I.I.I.I.I.I.I.",
"I.I.I.I.I.I.I.I.I.I.I.I.I.I.I.I.I.I.I.I.I.I.I.I.I.I.I.I.I.I.I.I.",
"I.I.I.I.I.I.I.I.I.I.I.I.I.I.I.I.I.I.I.I.I.I.I.I.I.I.I.I.I.I.I.I.",
"I.I.I.I.I.I.I.I.I.I.I.I.I.I.I.I.I.I.I.I.I.I.I.I.I.I.I.I.I.I.I.I.",
"I.I.I.I.I.I.I.I.I.I.I.I.I.I.I.I.I.I.I.I.I.I.I.I.I.I.I.I.I.I.I.I."
};
