/* XPM */
static char *result[] = {
/* columns rows colors chars-per-pixel */
"32 32 201 2 ",
"   c gray7",
".  c #191919",
"X  c gray11",
"o  c #1F1D1C",
"O  c #1F1E1D",
"+  c #1E1E1F",
"@  c gray12",
"#  c #202020",
"$  c #212020",
"%  c #212120",
"&  c #202021",
"*  c gray13",
"=  c #222222",
"-  c #232322",
";  c #232323",
":  c #232324",
">  c #232424",
",  c #232425",
"<  c gray14",
"1  c #252525",
"2  c #242526",
"3  c #242626",
"4  c #252626",
"5  c #242627",
"6  c #2E2A27",
"7  c #242628",
"8  c #272A2C",
"9  c #282A2C",
"0  c #282B2C",
"q  c #282A2D",
"w  c #282B2D",
"e  c #322C27",
"r  c #322D29",
"t  c #332D29",
"y  c #3A2F28",
"u  c #37302B",
"i  c #393029",
"p  c #3A3029",
"a  c #3B332D",
"s  c #3C332D",
"d  c #3C342D",
"f  c #2A2E30",
"g  c #2B2E30",
"h  c #2B2F30",
"j  c #2B2F31",
"k  c #2C3031",
"l  c #2D3231",
"z  c #2D3232",
"x  c #2E3332",
"c  c #2E3333",
"v  c #293035",
"b  c #2B3034",
"n  c #2A3136",
"m  c #2C3135",
"M  c #2D3236",
"N  c #2E3438",
"B  c #2E3439",
"V  c #353535",
"C  c #373737",
"Z  c #32383C",
"A  c #32393D",
"S  c #323A3D",
"D  c #333A3E",
"F  c #323B3F",
"G  c #343B3F",
"H  c gray22",
"J  c #3A3A3A",
"K  c #3E3B39",
"L  c #3C3C3C",
"P  c #443930",
"I  c #463A30",
"U  c #473A31",
"Y  c #463B32",
"T  c #473B32",
"R  c #483B31",
"E  c #4A3D33",
"W  c #584639",
"Q  c #584739",
"!  c #59473A",
"~  c #59483A",
"^  c #5A483A",
"/  c #5B493B",
"(  c #5C4A3C",
")  c #5D4B3D",
"_  c #5E4C3D",
"`  c #5E4D3E",
"'  c #604E3E",
"]  c #614F3F",
"[  c #323A40",
"{  c #333C41",
"}  c #333C42",
"|  c #353D41",
" . c #343D44",
".. c #353E45",
"X. c #363F44",
"o. c #374047",
"O. c #3A464E",
"+. c #3E4B52",
"@. c #3F4C53",
"#. c #3F4E59",
"$. c #494949",
"%. c gray29",
"&. c #404F5A",
"*. c #415057",
"=. c #425157",
"-. c #425058",
";. c #44535A",
":. c #41515D",
">. c #42525E",
",. c #45555C",
"<. c #46555C",
"1. c #45565D",
"2. c #46565D",
"3. c #44545F",
"4. c #46565E",
"5. c #47575E",
"6. c #515151",
"7. c #665342",
"8. c #6A5745",
"9. c #6D5947",
"0. c #465862",
"q. c #485A65",
"w. c #485B68",
"e. c #485C69",
"r. c #495D6B",
"t. c #4B5F6C",
"y. c #4A5E6D",
"u. c #4E626B",
"i. c #4F636D",
"p. c #4F6471",
"a. c #516877",
"s. c #526977",
"d. c #516878",
"f. c #52697A",
"g. c #566E79",
"h. c #546C7D",
"j. c #656565",
"k. c gray42",
"l. c gray46",
"z. c gray48",
"x. c #597485",
"c. c #5E7987",
"v. c #5D7989",
"b. c #617D8A",
"n. c #617D8B",
"m. c #627E8B",
"M. c #617D8D",
"N. c #63808B",
"B. c #63808E",
"V. c #68868E",
"C. c #6F8F8B",
"Z. c #668593",
"A. c #658494",
"S. c #668595",
"D. c #678695",
"F. c #688796",
"G. c #6C8C90",
"H. c #698997",
"J. c #698998",
"K. c #6A8A98",
"L. c #6A8B9A",
"P. c #6B8B9B",
"I. c #6B8C9A",
"U. c #6D8E98",
"Y. c #6B8C9C",
"T. c #6C8C9C",
"R. c #6C8D9C",
"E. c #6D8E9D",
"W. c #6E8F9F",
"Q. c #6F919F",
"!. c #759896",
"~. c #70939F",
"^. c #73969F",
"/. c #7A9F99",
"(. c #7598A1",
"). c #838281",
"_. c #868686",
"`. c #898887",
"'. c #888888",
"]. c #898989",
"[. c #8B8B8B",
"{. c #9F9F9F",
"}. c #A0A0A0",
"|. c #A2A2A2",
" X c gray68",
".X c #B2B2B2",
"XX c #B6B6B6",
"oX c #B9B9B9",
"OX c gray",
"+X c gray77",
"@X c #C5C5C5",
"#X c gray79",
"$X c gray80",
"%X c #E9E9E9",
"&X c #F4F4F4",
"*X c gray96",
"=X c #F6F6F6",
"-X c #F8F8F8",
";X c #F9F9F9",
":X c gray98",
">X c None",
/* pixels */
">X>X>X>X>X>X>X>X>X>X>X>X>X>X>X>X>X>X>X>X>X>X>X>X>X>X>X>X>X>X>X>X",
">X>X>X>X>X>X>X>X>X>X>X>X>X>X>X>X>X>X>X>X>X>X>X>X>X>X>X>X>X>X>X>X",
">X>X>X>X>X>X>X>X>X>X>X>X>X>X>X>X>X>X>X>X>X>X>X>X>X>X>X>X>X>X>X>X",
">X>X>X>X>X>X>X>X>X>X>X>X>X>X>X>X>X>X>X>X>X>X>X>X>X>X>X>X>X>X>X>X",
">X>X>X>X>X>X>X>X>X>X>X>X>X>X>X>X>X>X>X>X>X>X>X>X>X>X>X>X>X>X>X>X",
">X>X>X>X>X>X>X>X>X>X>X>X>X>X>X>X>X>X>X>X>X>X>X>X>X>X>X>X>X>X>X>X",
">X>X>X>X>X>X>X>X>X>X>X>X>X>X>X>X>X>X>X>X>X>X>X>X>X>X>X>X>X>X>X>X",
">X>X>X>X>X>X>X>X>X>X>X>X>X>X>X>X>X>X>X>X>X>X>X>X>X>X>X>X>X>X>X>X",
">X>X>X>X>X>X>X>X>X>X>X>X>X>X>X>Xo o o o o o o >X>X>X>X>X>X>X>X>X",
">X>X>X>X>X>X>X>X>X>X>X>X>X>X>XN B N N N N N B m >X>X>X>X>X>X>X>X",
">X>X>X>X>X>X>X>X>X>X>X>X>X>X8 e.d.a.a.a.a.a.f.0.c >X>X>X>X>X>X>X",
">X>X>X>X>X>X>X>X>X>X>X>X>X>X8 r.M.F.D.D.D.D.S.U.C.l >X>X>X>X>X>X",
">X>X>X>X>X>X>X>X>X>X>X>X>X>X8 y.A.W.E.E.E.E.P.(./.x >X>X>X>X>X>X",
">X>X>X>X>X>X>X>X>X>X>X>X>X>X3  .-.5.4.2.;.=.g.~.G.k >X>X>X>X>X>X",
">X>X>X>X>X>X>X>X>X>X>X>X>X>X, b : o O % A G i.Q.V.j >X>X>X>X>X>X",
">X>X>X>X>X>X>X>X>X>X>X>X>X>X9 t.o.4 : Z m.L.J.^.!.z >X>X>X>X>X>X",
">X= < 1 1 1 1 >X>X>X>X>X>X>Xf c.Z.@.S m.J.K.H.I.N.h >X>X>X>X>X>X",
">XX k.OXXXXXoXl.  . . >X>X>Xw s.Y.,.| E.R.1.{ X.F , # >X>X>X>X>X",
">X>Xj. X&X=X;XOX_.].'.$.>X$ > ..*.+.O.;.<.K y p i s d t >X>X>X>X",
">X>X>X%.}.|.{.$X:X-X*X[.J 5 M ; q 3.p.D ; R ^ / ' ~ ^ d & >X>X>X",
">X>X>X>X1 1 @ z.#X+X@X%X`.v w.w #.v.T.b.g I W ` 9.) ~ a & >X>X>X",
">X>X>X>X>X>X>XV H C J .X).n w.w &.v.R.m.h I ! Q ) 9.' a & >X>X>X",
">X>X>X>X>X>X>X>X>X>X>X6.L 7 M 2 :.h.v.n.h U ! ) 8.] ( s & >X>X>X",
">X>X>X>X>X>X>X>X>X>X>X>XX * >X= } >.x.B.j e E _ 7.~ P r >X>X>X>X",
">X>X>X>X>X>X>X>X>X>X>X>X>X>X>X>X>X[ q.u.0 + u T Y Y 6 >X>X>X>X>X",
">X>X>X>X>X>X>X>X>X>X>X>X>X>X>X>X>X>X; : = >X>X- - - >X>X>X>X>X>X",
">X>X>X>X>X>X>X>X>X>X>X>X>X>X>X>X>X>X>X>X>X>X>X>X>X>X>X>X>X>X>X>X",
">X>X>X>X>X>X>X>X>X>X>X>X>X>X>X>X>X>X>X>X>X>X>X>X>X>X>X>X>X>X>X>X",
">X>X>X>X>X>X>X>X>X>X>X>X>X>X>X>X>X>X>X>X>X>X>X>X>X>X>X>X>X>X>X>X",
">X>X>X>X>X>X>X>X>X>X>X>X>X>X>X>X>X>X>X>X>X>X>X>X>X>X>X>X>X>X>X>X",
">X>X>X>X>X>X>X>X>X>X>X>X>X>X>X>X>X>X>X>X>X>X>X>X>X>X>X>X>X>X>X>X",
">X>X>X>X>X>X>X>X>X>X>X>X>X>X>X>X>X>X>X>X>X>X>X>X>X>X>X>X>X>X>X>X"
};
