/* XPM */
static char *result[] = {
/* columns rows colors chars-per-pixel */
"32 32 136 2 ",
"   c #1D1B1A",
".  c #1E1C1C",
"X  c #1F1E1E",
"o  c #201F1F",
"O  c #202021",
"+  c #202121",
"@  c #222121",
"#  c #212122",
"$  c #222222",
"%  c #232222",
"&  c #232323",
"*  c #242423",
"=  c #272523",
"-  c #232424",
";  c gray14",
":  c #252525",
">  c #242626",
",  c #252626",
"<  c #242627",
"1  c #2B2826",
"2  c #2E2A27",
"3  c #27292A",
"4  c #27292B",
"5  c #272A2B",
"6  c #272A2C",
"7  c #282C2D",
"8  c #2A2D2F",
"9  c #332C28",
"0  c #3B332D",
"q  c #3C332D",
"w  c #3C342D",
"e  c #3D342E",
"r  c #2A2E30",
"t  c #2B2E30",
"y  c #2B2F30",
"u  c #2B2F31",
"i  c #2C3031",
"p  c #2D3131",
"a  c #2E3232",
"s  c #2C3135",
"d  c #323231",
"f  c #3D3530",
"g  c #32393D",
"h  c #333B3E",
"j  c #3A3938",
"k  c #44382E",
"l  c #453930",
"z  c #463930",
"x  c #453A31",
"c  c #473A31",
"v  c #473B32",
"b  c #483B31",
"n  c #483C32",
"m  c #584639",
"M  c #584739",
"N  c #59473A",
"B  c #5A483A",
"V  c #5B493B",
"C  c #5C4A3C",
"Z  c #5D4B3D",
"A  c #5E4D3E",
"S  c #604E3F",
"D  c #614F3F",
"F  c #323A40",
"G  c #333B42",
"H  c #343D41",
"J  c #353D41",
"K  c #343D42",
"L  c #374044",
"P  c #374045",
"I  c #374145",
"U  c #364047",
"Y  c #374147",
"T  c #3D4847",
"R  c #364148",
"E  c #374149",
"W  c #3F4448",
"Q  c #3E4B51",
"!  c #3F4C52",
"~  c #435259",
"^  c #43525B",
"/  c #665342",
"(  c #6A5745",
")  c #6D5947",
"_  c #475860",
"`  c #495C6A",
"'  c #495D6B",
"]  c #4A5E6C",
"[  c #4B5F6D",
"{  c #4F636D",
"}  c #506570",
"|  c #516876",
" . c #566E79",
".. c #676767",
"X. c #797979",
"o. c #566F80",
"O. c #577181",
"+. c #587182",
"@. c #587283",
"#. c #5B7480",
"$. c #5E7987",
"%. c #607B88",
"&. c #617E8B",
"*. c #627E8B",
"=. c #627F8E",
"-. c #63808D",
";. c #67868E",
":. c #638090",
">. c #658492",
",. c #678695",
"<. c #6D8D91",
"1. c #698997",
"2. c #698898",
"3. c #698998",
"4. c #6A8A99",
"5. c #6B8B9A",
"6. c #6C8D9D",
"7. c #6F919F",
"8. c #739696",
"9. c #779B96",
"0. c #789C97",
"q. c #71939F",
"w. c #73969F",
"e. c #6F91A1",
"r. c #7396A1",
"t. c #7497A0",
"y. c gray55",
"u. c #939393",
"i. c #A7A7A7",
"p. c #A8A9AA",
"a. c #B9B9B9",
"s. c gray",
"d. c gray76",
"f. c gainsboro",
"g. c #FDFDFD",
"h. c None",
/* pixels */
"h.h.h.h.h.h.h.h.h.h.h.h.h.h.h.h.h.h.h.h.h.h.h.h.h.h.h.h.h.h.h.h.",
"h.h.h.h.h.h.h.h.h.h.h.h.h.h.h.h.h.h.h.h.h.h.h.h.h.h.h.h.h.h.h.h.",
"h.h.h.h.h.h.h.h.h.h.h.h.h.h.h.h.h.h.h.h.h.h.h.h.h.h.h.h.h.h.h.h.",
"h.h.h.h.h.h.h.h.h.h.h.h.h.h.h.h.h.h.h.h.h.h.h.h.h.h.h.h.h.h.h.h.",
"h.h.h.h.h.h.h.h.h.h.h.h.h.h.h.h.h.h.h.h.h.h.h.h.h.h.h.h.h.h.h.h.",
"h.h.h.h.h.h.h.h.h.h.h.h.h.h.h.h.h.h.h.h.h.h.h.h.h.h.h.h.h.h.h.h.",
"h.h.h.h.h.h.h.h.h.h.h.h.h.h.h.h.h.h.h.h.h.h.h.h.h.h.h.h.h.h.h.h.",
"h.h.h.h.h.h.h.h.h.h.h.h.h.h.h.o o o o o o o o h.h.h.h.h.h.h.h.h.",
"h.h.h.h.h.h.h.h.h.h.h.h.h.h.4 U E R R R R R E F h.h.h.h.h.h.h.h.",
"h.h.h.h.h.h.h.h.h.h.h.h.h.h.6 ] o.+.O.O.O.O.@.} T h.h.h.h.h.h.h.",
"h.h.h.h.h.h.h.h.h.h.h.h.h.h.6 ' :.5.4.4.4.4.2.w.9.a h.h.h.h.h.h.",
"h.h.h.h.h.h.h.h.h.h.h.h.h.h.5 ` =.4.3.3.3.1.2.t.0.a h.h.h.h.h.h.",
"h.h.h.h.h.h.h.h.h.h.h.h.h.h.- s H I P L J h { 7.;.y h.h.h.h.h.h.",
"h.h.h.h.h.h.h.h.h.h.h.h.h.h.> G <   . @ ! ~  .q.<.i h.h.h.h.h.h.",
"h.h.h.h.h.h.h.h.h.h.h.h.h.h.7 | ^ u 3 Q ,.e.6.r.8.p h.h.h.h.h.h.",
"h.h.h.h.h.h.h.h.h.h.h.h.h.h.8 $.>.! g %.*.&.*.-.#.r h.h.h.h.h.h.",
"h.h.h.h.h.h.h.h.h.h.$ ; : * 8 [ Y , , y y y t r r h.h.h.h.h.h.h.",
"h.h.h.h.h.h.h.h.h.h.; y.s.a.p.W f b v z z c 9 X h.h.h.h.h.h.h.h.",
"h.h.h.h.h.h.h.h.h.h.h.X.d.g.f.j k B Z / B B e + h.h.h.h.h.h.h.h.",
"h.h.h.h.h.h.h.h.h.h.h.h...i.u.d l M Z ( D V w + $ h.h.h.h.h.h.h.",
"h.h.h.h.h.h.h.h.h.h.h.h.h.: ; & n N M Z ) S q + $ h.h.h.h.h.h.h.",
"h.h.h.h.h.h.h.h.h.h.h.h.h.h.h.% v m A ) Z N 0 + h.h.h.h.h.h.h.h.",
"h.h.h.h.h.h.h.h.h.h.h.h.h.h.h.$ 1 x C S N e = X h.h.h.h.h.h.h.h.",
"h.h.h.h.h.h.h.h.h.h.h.h.h.h.h.h.O 2 e 0 0 = K ~ h.h.h.h.h.h.h.h.",
"h.h.h.h.h.h.h.h.h.h.h.h.h.h.h.h.$ # + O + X ~ _ & h.h.h.h.h.h.h.",
"h.h.h.h.h.h.h.h.h.h.h.h.h.h.h.h.$ $ $ h.h.h.h.& $ h.h.h.h.h.h.h.",
"h.h.h.h.h.h.h.h.h.h.h.h.h.h.h.h.h.h.h.h.h.h.h.h.h.h.h.h.h.h.h.h.",
"h.h.h.h.h.h.h.h.h.h.h.h.h.h.h.h.h.h.h.h.h.h.h.h.h.h.h.h.h.h.h.h.",
"h.h.h.h.h.h.h.h.h.h.h.h.h.h.h.h.h.h.h.h.h.h.h.h.h.h.h.h.h.h.h.h.",
"h.h.h.h.h.h.h.h.h.h.h.h.h.h.h.h.h.h.h.h.h.h.h.h.h.h.h.h.h.h.h.h.",
"h.h.h.h.h.h.h.h.h.h.h.h.h.h.h.h.h.h.h.h.h.h.h.h.h.h.h.h.h.h.h.h.",
"h.h.h.h.h.h.h.h.h.h.h.h.h.h.h.h.h.h.h.h.h.h.h.h.h.h.h.h.h.h.h.h."
};
