/* XPM */
static char *result[] = {
/* columns rows colors chars-per-pixel */
"32 32 9 1 ",
"  c #222222",
". c #574639",
"X c #735F4B",
"o c #4E6474",
"O c #6A8A99",
"+ c #84ADA7",
"@ c #DADADA",
"# c gray96",
"$ c None",
/* pixels */
"$$$$$$$$$$$$$$$$$$$$$$$$$$$$$$$$",
"$$$$$$$$$$$$$$$$$$$$$$$$$$$$$$$$",
"$$$$$$$$$$$$$$$$$$$$$$$$$$$$$$$$",
"$$$$$$$$$$$$$$$$$$$$$$$$$$$$$$$$",
"$$$$$$$$$$$$$$$$$$$$$$$$$$$$$$$$",
"$$$$$$$$$$$$$$$$$$$$$$$$$$$$$$$$",
"$$$$$$$$$$$$$$$$$$$$$$$$$$$$$$$$",
"$$$$$$$$$$$$$$$$$$$$$$$$$$$$$$$$",
"$$$$$$$$$$$$$$$$$$$$$$$$$$$$$$$$",
"$$$$$$$$$$$$       $$$$$$$$$$$$$",
"$$$$$$$$$$$ ooooooo $$$$$$$$$$$$",
"$$$$$$$$$$$ oOOOOOO+ $$$$$$$$$$$",
"$$$$$$$$$$$ oOOOOOO+ $$$$$$$$$$$",
"$$$$$$$$$$$       OO $$$$$$$$$$$",
"$$$$$$$$$$$ o   OOO+ $$$$$$$$$$$",
"$     $$$$$ OO OOOOO $$$$$$$$$$$",
"$ ####   $$ oO OO     $$$$$$$$$$",
"$$ @@@###     o  ..... $$$$$$$$$",
"$$$   @@@# o oOo ..X.. $$$$$$$$$",
"$$$$$$   @ o oOO ...X. $$$$$$$$$",
"$$$$$$$$$    oOO ..X.. $$$$$$$$$",
"$$$$$$$$$$$$$ oOO ... $$$$$$$$$$",
"$$$$$$$$$$$$$ OOo    $$$$$$$$$$$",
"$$$$$$$$$$$$$$    $$$$$$$$$$$$$$",
"$$$$$$$$$$$$$$$$$$$$$$$$$$$$$$$$",
"$$$$$$$$$$$$$$$$$$$$$$$$$$$$$$$$",
"$$$$$$$$$$$$$$$$$$$$$$$$$$$$$$$$",
"$$$$$$$$$$$$$$$$$$$$$$$$$$$$$$$$",
"$$$$$$$$$$$$$$$$$$$$$$$$$$$$$$$$",
"$$$$$$$$$$$$$$$$$$$$$$$$$$$$$$$$",
"$$$$$$$$$$$$$$$$$$$$$$$$$$$$$$$$",
"$$$$$$$$$$$$$$$$$$$$$$$$$$$$$$$$"
};
