/* XPM */
static char *result[] = {
/* columns rows colors chars-per-pixel */
"32 32 23 1 ",
"  c #532C14",
". c #532C15",
"X c #542C15",
"o c #542D15",
"O c #59331B",
"+ c #58331C",
"@ c #58341C",
"# c #59351D",
"$ c #59351E",
"% c #5A351E",
"& c #5A361F",
"* c #5D3721",
"= c #5D3922",
"- c #5E3923",
"; c #5E3B23",
": c #5E3C25",
"> c #786553",
", c #796653",
"< c #796754",
"1 c #7A6855",
"2 c #7F6F5E",
"3 c #806F5F",
"4 c None",
/* pixels */
"44444444444444444444444444444444",
"44444444444444444444444444444444",
"44444444444444444444444444444444",
"44444444444444444444444444444444",
"44444444444444444444444444444444",
"44444444444444444444444444444444",
"44444444444444444444444444444444",
"44444444444444444444444444444444",
"44444444444444444444444444444444",
"44444444444444444444444444444444",
"44444444444444444444444444444444",
"44444444444444444444444444444444",
"44444444444444444444444444444444",
"44444444444444444444444444444444",
"44444444444444444444444444444444",
"44444444444444444444444444444444",
"44444444444444444444444444444444",
"44444444444444444444444444444444",
"44444444444444444444444444444444",
"44444444444444444444444444444444",
"44444444444444444444444444444444",
"44444444444444444444444444444444",
"44444444444444444444444444444444",
"44444444444444444444444444444444",
"44444444444444444444444444444444",
"44444444444444444444444444444444",
"44444444444444444444444444444444",
"44444444444444444444444444444444",
"44444444444444444444444444444444",
"44444444444444444444444444444444",
"4-&%%4444444444444444444444;#$=4",
"*31,@ooooXO4X.      4      :><2+"
};
