/* XPM */
static char *result[] = {
/* columns rows colors chars-per-pixel */
"32 32 72 1 ",
"  c #4E2713",
". c #4E2913",
"X c #532C14",
"o c #542E19",
"O c #57321C",
"+ c #59341D",
"@ c #5D381E",
"# c #5B3721",
"$ c #5E3B24",
"% c #613D25",
"& c #613E29",
"* c #624127",
"= c #64442C",
"- c #674B2F",
"; c #694A2F",
": c #674731",
"> c #654A35",
", c #6A4D31",
"< c #634C38",
"1 c #6C4E39",
"2 c #6E5134",
"3 c #66513D",
"4 c #68523F",
"5 c #705335",
"6 c #735539",
"7 c #75593B",
"8 c #785A3E",
"9 c #675341",
"0 c #695542",
"q c #6C5843",
"w c #6F5F4D",
"e c #7A5E43",
"r c #6F604E",
"t c #7D6144",
"y c #73624E",
"u c #7F6548",
"i c #746552",
"p c #796653",
"a c #7A6A56",
"s c #7C6D5C",
"d c #7E705E",
"f c #806649",
"g c #836A4D",
"h c #876E52",
"j c #886F52",
"k c #806F5E",
"l c #877053",
"z c #8A7256",
"x c #81715F",
"c c #8C765A",
"v c #8E795C",
"b c #907A5D",
"n c #827564",
"m c #857866",
"M c #867968",
"N c #897C6B",
"B c #947F63",
"V c #8E816F",
"C c #968165",
"Z c #988267",
"A c #9A8569",
"S c #8F8271",
"D c #928576",
"F c #948778",
"G c #968B7B",
"H c #988C7E",
"J c #998F81",
"K c #9C9283",
"L c #9F9588",
"P c #A0978A",
"I c #A2988C",
"U c None",
/* pixels */
"UUUUUUUUUUUUUUUUUUUUUUUUUUUUUUUU",
"UUUUUUUUUUUUUUUUUUUUUUUUUUUUUUUU",
"U$+++UUUUUUUUUUUUUUUUUUUUUU$++$U",
"#kap+XooXX+UXXXXXXXXUXXXoXX$pasO",
"=mkk@55,52g+g2256558@f52555&skm%",
",FNN%tggggj=bgggggfz=jfffgf=NNG&",
"1JFF%fghghb;bggggggb;cggggp=DDJ:",
"1PFF&fcbbbB8bccbbcbb;cccvvc:DDL:",
"1PJK=gbbbbZ7BbbbvvcB;bcvvvv:GJL:",
"1PPP%gBBBBA6ABBBBBBC,CBBBBB:PPI:",
"1IPP=gCZZZA6BBBBBCCC,ZBBBBB:LLI1",
"1IPP%fBZBBA6ABBBBBBZ;ZBBBBB:LPP:",
"=PHH%ubbbbA6ZbbbvBcC;Bbcbcb:GHP:",
"*PGG%tbbbbB5BbbbvvvZ;Cbbbbb=GGP:",
"%PBD+tbbbbB2BbbbvvvB;Bbbcbb&DNJ1",
"%PNSO8ggggz2cggghggv%cfgggh:NNJ:",
"%GNNX7hgggh*cuuuufhz@zugggg$NMG&",
"%DmCO7ggguh@ltueeeejOzgugug$MMD$",
"+XXXX8e787uX5*$$###eO776622#XXX#",
"+GGGXXXXXXXoX.VVSSOXo.XXoXoOFGG$",
"%NssX=*****X$XsXXaX$o,===:=ossN#",
"%mssX=65767X2XidXrX$X722222XsaM#",
"*dppX=22227X-XrrXrX$X62,,,,.iid#",
"$dryX*2,,27X-Xq3a9X$X6,2,,,orrso",
"OiywX*,,-,7X-*XXX.*2.7,2,2,.rriX",
"Xyqq $----7X--****--.7,----.r4rX",
" yqq.%----7X22-----2X7-----.qqy.",
".yqq.*,---6X---2-,--X5-,--,.qqy.",
".$@@O$$**$7X$$$$**$*X6$$$$$OO#+.",
".Mdxn...XXX.XX..XX..X.X....mddm.",
".rrrp.asddddVVVVVVVxMmmdds.iwrr.",
".<<<i.3<39q933333r44999999.y<<<."
};
