/* XPM */
static char *result[] = {
/* columns rows colors chars-per-pixel */
"32 32 56 1 ",
"  c #4F2713",
". c #4F2913",
"X c #502713",
"o c #522A14",
"O c #552F19",
"+ c #56321B",
"@ c #59351D",
"# c #5B3721",
"$ c #5C3B23",
"% c #603D26",
"& c #613D28",
"* c #624226",
"= c #64452A",
"- c #66492B",
"; c #694E2F",
": c #6B502F",
"> c #674630",
", c #684731",
"< c #6A4E30",
"1 c #634C39",
"2 c #6E5334",
"3 c #66513E",
"4 c #705536",
"5 c #715837",
"6 c #715639",
"7 c #755B3B",
"8 c #785F3F",
"9 c #79603F",
"0 c #695543",
"q c #6C5944",
"w c #795F40",
"e c #6F604E",
"r c #7C6242",
"t c #73624E",
"y c #756552",
"u c #786753",
"i c #776854",
"p c #796955",
"a c #7D6E5C",
"s c #7F705F",
"d c #846B4A",
"f c #81715E",
"g c #837563",
"h c #857966",
"j c #897A66",
"k c #877B6A",
"l c #8A7D6C",
"z c #8E806E",
"x c #8F8270",
"c c #928574",
"v c #948877",
"b c #968979",
"n c #998E7D",
"m c #9D9283",
"M c #A09687",
"N c None",
/* pixels */
"#xcjO##$*****===-===******$XxxxX",
"+q0q  ........oo.oooo.oooooXqq6%",
"O###@24457759999rr999959744o$%%$",
"Ogpuo-------==-=-----------ouugO",
"+jppo-==*-*-*---==---*--=--oppjO",
"@zffO===---**-**==*-*---===offl#",
"#cgg+*$$$$$$$$@$$*$*$$$$%$$Oggc#",
"&cjk+$*$$$$$$$$$@$$@$$$$$$$@jjc$",
"=vll#%%%$$$$$$$$$$$$$$$$$$$@llv=",
"=bll#%%%$$$$$$$$@$$@$@$@@$*@zzb&",
">ncc#@@@@@+@@@++++++++++@++@cln=",
">nxc%@@@++@+@++++++++++++++@lcn>",
">ncc%@@@@++@+++++++++O+O++O%ccn>",
">nvc%@##@++@+++O++++++OOOOO%vvm&",
",mvv%oooooo@oo...o..#.XXXXX%vbM>",
">Mmm%7dddddodddddddpodddddd%mmM&",
"olsso295979Or557995ror95959+afj*",
"OhaaO;79799or7775599Or59597Oaal@",
"Xhpio-97779o97775999or77777Oiig@",
"oatt+-55427o7222:2:9or22425Oyts@",
"Ouyqo-22257o72224229.922252otyiO",
"Xyqy.*222:7o52222229o922222.qqyX",
"Xuqq.*::;;5o5;;<:::5.5::::2.qqtX",
"Xuqq.*:;;-9o1;;<:--5o5:::::oqqyX",
"X$##O$=&==7o<=-=---<X2=====++## ",
"ohhhh...oo.oX.o..o..oo.o...hshs ",
" eeey.aaaagkllxlllkkkhhsaa ieee.",
" 111y.011000000000q0000000.t111.",
"    .           ...         .   ",
"NNNNNNNNNNNNNNNNNNNNNNNNNNNNNNNN",
"NNNNNNNNNNNNNNNNNNNNNNNNNNNNNNNN",
"NNNNNNNNNNNNNNNNNNNNNNNNNNNNNNNN"
};
