/* XPM */
static char *result[] = {
/* columns rows colors chars-per-pixel */
"32 32 62 1 ",
"  c #4F2713",
". c #502713",
"X c #532A15",
"o c #55301C",
"O c #5C391F",
"+ c #5C3720",
"@ c #5E3C22",
"# c #603E25",
"$ c #643F28",
"% c #5F4024",
"& c #5F4531",
"* c #614126",
"= c #644229",
"- c #68442B",
"; c #66492C",
": c #694B2E",
"> c #604733",
", c #6C4D32",
"< c #654E3A",
"1 c #6D4E39",
"2 c #6E5233",
"3 c #66513D",
"4 c #68533F",
"5 c #725536",
"6 c #735837",
"7 c #755739",
"8 c #745A3A",
"9 c #795F3F",
"0 c #79603F",
"q c #6A5641",
"w c #6E5A45",
"e c #715E49",
"r c #795F4C",
"t c #7B6141",
"y c #74624D",
"u c #776551",
"i c #796652",
"p c #7B6956",
"a c #7D6B58",
"s c #816647",
"d c #846B4B",
"f c #886F4F",
"g c #88704F",
"h c #886F50",
"j c #826F5C",
"k c #8B7454",
"l c #82705D",
"z c #8D7758",
"x c #8F7959",
"c c #927D5E",
"v c #8D7D6C",
"b c #937F60",
"n c #8F816F",
"m c #928675",
"M c #958876",
"N c #958978",
"B c #9A8E7F",
"V c #9A8F80",
"C c #9E9383",
"Z c #A09686",
"A c #A49989",
"S c None",
/* pixels */
"SSSSSSSSSSSSSSSSSSSSSSSSSSSSSSSS",
"SSSSSSSSSSSSSSSSSSSSSSSSSSSSSSSS",
"SSSSSSSSSSSSSSSSSSSSSSSSSSSSSSSS",
"SSSSSSSSSSSSSSSSSSSSSSSSSSSSSSSS",
"SSSSSSSSSSSSSSSSSSSSSSSSSSSSSSSS",
"SSSSSSSSSSSSSSSSSSSSSSSSSSSSSSSS",
"SSSSSSSSSSSSSSSSSSSSSSSSSSSSSSSS",
"SSSSSSSSSSSSSSSSSSSSSSSSSSSSSSSS",
"SSSSSSSSSSSSSSSSSSSSSSSSSSSSSSSS",
"SSSSSSSSSSSSSSSSSSSSSSSSSSSSSSSS",
"SSSSSSSSSSSSSSSSSSSSSSSSSSSSSSSS",
"SSSSSSSSSSSSSSSSSSSSSSSSSSSSSSSS",
"S----SSSSSSSSSSSSSSSSSSSSSS$=-=S",
",CMM---===$$$==$=$$==#=$-$--MMC,",
"1ZMM-ssfkkzcxxxzzzkhgkgddis-MMZ,",
"1AAA-sfzxcccb+##@@+xzcczfds$AAA,",
"XliiX,,557787XnyvvX788775,,$iijX",
"XhyuXXXXXXXXXXMN1mXXXXXXXXXXrujX",
"XauyX$@@#@@@*XBBBCX#@+@@#OOXuej.",
"Xat0X##@#@@@@XyiuiX+@@+@OOOXeed.",
"XpweX@%*===*=*XXXX%=%%%@%@@XeeiX",
" uwwX%**==*****=*%=%=%%%@@+Xewi.",
" yww.@%%****%*%*@%=@@%@@@@+ wwy.",
" ywqX**;-;;-;;;;;;;;;;;;;%* qqy.",
" yqq %=;;;;;;;::;;;;;;;;=%= qqe ",
" eqq @%;;;;;::::;,;;;;,;:%% qqe ",
" eqq %;:::::::::,,;,,;,;:%& 3qe ",
" w3< :26666866862866666222: 33e ",
" q<< :888888888886868886222 <3q ",
" q<< :868888889889888668622 <<q ",
" <&& :688888888888988886622 &&< ",
"@=@@o3888000000000wtttt0996     "
};
