/* XPM */
static char *result[] = {
/* columns rows colors chars-per-pixel */
"32 32 73 1 ",
"  c #4F2A15",
". c #512B17",
"X c #512B18",
"o c #563017",
"O c #56321B",
"+ c #5A351D",
"@ c #5C381F",
"# c #5A3722",
"$ c #5C3A22",
"% c #5C3D29",
"& c #603E24",
"* c #5E402B",
"= c #624026",
"- c #64442C",
"; c #674A2E",
": c #684B2F",
"> c #644631",
", c #664A35",
"< c #6B4C31",
"1 c #654D39",
"2 c #6B4E39",
"3 c #704F34",
"4 c #6D5234",
"5 c #6B523D",
"6 c #715436",
"7 c #72543A",
"8 c #76593E",
"9 c #785B3E",
"0 c #6D5541",
"q c #6D5945",
"w c #6F5C4A",
"e c #725541",
"r c #735944",
"t c #795D42",
"y c #735D4A",
"u c #785E4B",
"i c #7D6146",
"p c #72624F",
"a c #7B614C",
"s c #766553",
"d c #7C6451",
"f c #776857",
"g c #7D6854",
"h c #7B6C5A",
"j c #7E705E",
"k c #81664A",
"l c #836A4D",
"z c #866E51",
"x c #886F53",
"c c #826E5C",
"v c #8A7256",
"b c #8B7559",
"n c #8F795C",
"m c #917B5E",
"M c #847664",
"N c #867867",
"B c #887967",
"V c #867968",
"C c #8B7D6C",
"Z c #947E62",
"A c #8D7F70",
"S c #958065",
"D c #988368",
"F c #8F8172",
"G c #928576",
"H c #938779",
"J c #968B7C",
"K c #998D7F",
"L c #9B8E81",
"P c #9D9385",
"I c #A0968A",
"U c #A2988B",
"Y c None",
/* pixels */
"YYYYYYYYYYYYYYYYYYYYYYYYYYYYYYYY",
"YYYYYYYYYYYYYYYYYYYYYYYYYYYYYYYY",
"YYYYYYYYYYYYYYYYYYYYYYYYYYYYYYYY",
"YYYYYYYYYYYYYYYYYYYYYYYYYYYYYYYY",
"YYYYYY+YYYYYYYYYYYYYYYYYY+YYYYYY",
"YYYY,ye#ooo@Y+oooooYoooo%ey>YYYY",
"YYYY7Bh-66793966766:9677<hN2YYYY",
"YYYYuHB2klzx9xkzzlx7xllk7BGrYYYY",
"YYYYkLA2zbbnkbvvbbv8bvvveALyYYYY",
"YYYYuIJ7xZZZlmmmnnntmmmmrHPuYYYY",
"YYYYdIL7bDZZkZZZSZZtZSZZuKIkYYYY",
"YYYYdIK3bZZDkZZZZSmtSZZZuJIuYYYY",
"YYYYuPH3xmmmkmnnBmm9mmnnrGLdYYYY",
"YYYYrKA<xmmmkmnnmmm9Znnn8AKuYYYY",
"YYYYeHB-kzzx9xxzzzx7xxzz5BGuYYYY",
"YYYYeGM&kllz3zkkkkl<zlkl2MFrYYYY",
"YYYY-85$9ktk-74<2<9-iiit;15-YYYY",
"YYYY-cg@@@@&OO2gd2+O@@++@gc,YYYY",
"YYYY5Nf$--=-+@15,,O@;---$hN5YYYY",
"YYYY2js@:668@&>p%-@@4444$ph,YYYY",
"YYYY<fw@-:36&=*55*+@644:#wf-YYYY",
"YYYY*pwO;3:6@;@++$;$4::4#qp%YYYY",
"YYYY$w5O=::4@;:--:;@4;::O0y#YYYY",
"YYYY@q1O-:;4$;:<:<;@4;;:O1q#YYYY",
"YYYYO1,%++@=O+++++#O&+$$*1,OYYYY",
"YYYY%hhy$1125000e052511#wfh%YYYY",
"YYYYO111%q0qqyyyyywwwwq*111OYYYY",
"YYYY XXX.XXXXX..XXXX XX  X  YYYY",
"YYYYYYYYYYYYYYYYYYYYYYYYYYYYYYYY",
"YYYYYYYYYYYYYYYYYYYYYYYYYYYYYYYY",
"YYYYYYYYYYYYYYYYYYYYYYYYYYYYYYYY",
"YYYYYYYYYYYYYYYYYYYYYYYYYYYYYYYY"
};
