/* XPM */
static char *result[] = {
/* columns rows colors chars-per-pixel */
"32 32 163 2 ",
"   c #1A1A19",
".  c #1B1A1A",
"X  c #1D1C1C",
"o  c #1D1D1D",
"O  c #1F1D1C",
"+  c #1E1D1D",
"@  c #1D1E1F",
"#  c #1E1E1E",
"$  c #201E1D",
"%  c #201F1E",
"&  c #201F1F",
"*  c #21201F",
"=  c #1E1F20",
"-  c #1E2020",
";  c #202021",
":  c #222222",
">  c #232322",
",  c #222223",
"<  c #222323",
"1  c #232323",
"2  c #272321",
"3  c #252423",
"4  c #232424",
"5  c #242525",
"6  c #252525",
"7  c #262524",
"8  c #252626",
"9  c #2E2A27",
"0  c #262828",
"q  c #272C2E",
"w  c gray16",
"e  c #282B2C",
"r  c #292C2E",
"t  c gray18",
"y  c #302A26",
"u  c #302C28",
"i  c #312C28",
"p  c #312C29",
"a  c #322D29",
"s  c #332E2A",
"d  c #352F2A",
"f  c #38332D",
"g  c #3A322C",
"h  c #3F352E",
"j  c #2B2E30",
"k  c #2B2F30",
"l  c #2B2F31",
"z  c #2B3031",
"x  c #2C3031",
"c  c #2D3131",
"v  c #2D3232",
"b  c #2E3332",
"n  c #2D3337",
"m  c #2E3438",
"M  c #2E3439",
"N  c #353535",
"B  c #343B39",
"V  c #333A3D",
"C  c #32393F",
"Z  c #343B3F",
"A  c gray22",
"S  c gray23",
"D  c #433930",
"F  c #534337",
"G  c #544437",
"H  c #564639",
"J  c #59473A",
"K  c #59483B",
"L  c #5E4C3E",
"P  c #343D40",
"I  c #343D41",
"U  c #353D41",
"Y  c #353F44",
"T  c #363F44",
"R  c #374145",
"E  c #384146",
"W  c #384147",
"Q  c #3A4444",
"!  c #364048",
"~  c #38434A",
"^  c #39454A",
"/  c #38434C",
"(  c #3F4E5A",
")  c #414141",
"_  c #414F55",
"`  c #414F56",
"'  c #404F5A",
"]  c #435259",
"[  c #445259",
"{  c #44535A",
"}  c #44545B",
"|  c #42525D",
" . c #46575E",
".. c #565656",
"X. c #6C5946",
"o. c #445663",
"O. c #465763",
"+. c #485A63",
"@. c #4A5B64",
"#. c #4E636F",
"$. c #516670",
"%. c #516771",
"&. c #516777",
"*. c #516877",
"=. c #576F77",
"-. c #516878",
";. c #526A79",
":. c #59717D",
">. c #636261",
",. c #727272",
"<. c #777777",
"1. c #64807C",
"2. c #577181",
"3. c #587283",
"4. c #5A7484",
"5. c #5D7784",
"6. c #5C7787",
"7. c #5E7885",
"8. c #5D7989",
"9. c #5E7989",
"0. c #5E7A8A",
"q. c #5F7C8C",
"w. c #63808B",
"e. c #64818F",
"r. c #68868E",
"t. c #658391",
"y. c #668595",
"u. c #678695",
"i. c #688796",
"p. c #6C8C90",
"a. c #688897",
"s. c #698998",
"d. c #698999",
"f. c #6A8999",
"g. c #6A8A99",
"h. c #6A8A9A",
"j. c #6B8B9A",
"k. c #6B8C9B",
"l. c #6C8D9B",
"z. c #6C8D9D",
"x. c #6E8F9D",
"c. c #6E8F9F",
"v. c #6F919B",
"b. c #6F919D",
"n. c #6E909E",
"m. c #739592",
"M. c #759896",
"N. c #72969F",
"B. c #7A9E98",
"V. c #6E90A0",
"C. c #7498A1",
"Z. c #789DA2",
"A. c gray52",
"S. c #868686",
"D. c #8B8A8A",
"F. c #8E8E8E",
"G. c gray78",
"H. c #C8C8C8",
"J. c #D2D2D2",
"K. c gray83",
"L. c gray90",
"P. c #FDFDFD",
"I. c None",
/* pixels */
"I.I.I.I.I.I.I.I.I.I.I.I.I.I.I.I.I.I.I.I.I.I.I.I.I.I.I.I.I.I.I.I.",
"I.I.I.I.I.I.I.I.I.I.I.I.I.I.I.I.I.I.I.I.I.I.I.I.I.I.I.I.I.I.I.I.",
"I.I.I.I.I.I.I.I.I.I.I.I.I.I.I.I.I.I.I.I.I.I.I.I.I.I.I.I.I.I.I.I.",
"I.I.I.I.I.I.I.I.I.I.I.I.I.I.I.I.I.I.I.I.I.I.I.I.I.I.I.I.I.I.I.I.",
"I.I.I.I.I.I.I.I.I.I.I.I.I.I.I.I.I.I.I.I.I.I.I.I.I.I.I.I.I.I.I.I.",
"I.I.I.I.I.I.I.I.I.I.I.I.I.I.I.I.I.I.I.I.I.I.I.I.I.I.I.I.I.I.I.I.",
"I.I.I.I.I.I.I.I.I.I.I.I.I.I.I.I.I.I.I.I.I.I.I.I.I.I.I.I.I.I.I.I.",
"I.I.I.I.I.I.I.I.I.I.I.I.I.I.I.I.I.I.I.I.I.I.I.I.I.I.I.I.I.I.I.I.",
"I.I.I.I.I.I.I.I.I.I.I.I.I.O O O O O O O I.I.I.I.I.I.I.I.I.I.I.I.",
"I.I.I.I.I.I.I.I.I.I.I.I.n M m m m m m m n I.I.I.I.I.I.I.I.I.I.I.",
"I.I.I.I.I.I.I.I.I.I.I.1 ' -.*.*.*.*.&.;.#.e I.I.I.I.I.I.I.I.I.I.",
"I.I.I.I.I.I.I.I.I.I.I.1 ' 6.i.u.u.u.y.v.m.c I.I.I.I.I.I.I.I.I.I.",
"I.I.I.I.I.I.I.I.I.I.I.1 ' 0.k.j.j.j.f.C.B.b I.I.I.I.I.I.I.I.I.I.",
"I.I.I.I.I.I.I.I.I.I.I.1 ' 9.j.g.g.g.f.b.p.x I.I.I.I.I.I.I.I.I.I.",
"I.I.I.I.I.I.I.I.I.I.I.1 ( 8.j.g.g.g.g.x.r.l I.I.) ..w I.I.I.I.I.",
"I.I.I.I.I.I.I.I.I.I.I.1 | q.j.g.g.g.d.N.M.v I.t ,.K.S I.I.I.I.I.",
"I.I.I.I.I.I.I.I.I.I.I.4 %.h.g.g.g.g.g.l.w.j   A.L.G.A I.I.I.I.I.",
"I.I.I.I.I.I.I.I.I.I.; I.Z $.c.z.z.z.V.5.I , . F.P.H.A I.I.I.I.I.",
"I.I.I.I.I.I.I.I.I.9 g 3 X V  .[ ] [ } W 8 _ q D.J.<.N I.I.I.I.I.",
"I.I.I.I.I.I.I.I.- a F d 7 & 0 P U I Q B z e.Y >.S.o I.I.I.I.I.I.",
"I.I.I.I.I.I.I.I.= a K H p + T i.s.a.Z.1.k :.R * 6 I.I.I.I.I.I.I.",
"I.I.I.I.I.I.I.I.@ f X.K i # E s.g.g.n.=.5 r I.I.I.I.I.I.I.I.I.I.",
"I.I.I.I.I.I.I.I.= s L J y ^ 7.d.4.2.3.O.1 I.I.I.I.I.I.I.I.I.I.I.",
"I.I.I.I.I.I.I.I.- p G h 2 +.t.{ ~ ! o.| 1 I.I.I.I.I.I.I.I.I.I.I.",
"I.I.I.I.I.I.I.I.I.u D 7 # ` @.& % $ C / < I.I.I.I.I.I.I.I.I.I.I.",
"I.I.I.I.I.I.I.I.I.I.> I.I.I.4 I.I.: < < : I.I.I.I.I.I.I.I.I.I.I.",
"I.I.I.I.I.I.I.I.I.I.I.I.I.I.I.I.I.I.I.I.I.I.I.I.I.I.I.I.I.I.I.I.",
"I.I.I.I.I.I.I.I.I.I.I.I.I.I.I.I.I.I.I.I.I.I.I.I.I.I.I.I.I.I.I.I.",
"I.I.I.I.I.I.I.I.I.I.I.I.I.I.I.I.I.I.I.I.I.I.I.I.I.I.I.I.I.I.I.I.",
"I.I.I.I.I.I.I.I.I.I.I.I.I.I.I.I.I.I.I.I.I.I.I.I.I.I.I.I.I.I.I.I.",
"I.I.I.I.I.I.I.I.I.I.I.I.I.I.I.I.I.I.I.I.I.I.I.I.I.I.I.I.I.I.I.I.",
"I.I.I.I.I.I.I.I.I.I.I.I.I.I.I.I.I.I.I.I.I.I.I.I.I.I.I.I.I.I.I.I."
};
