/* XPM */
static char *result[] = {
/* columns rows colors chars-per-pixel */
"32 32 161 2 ",
"   c #191919",
".  c #1A1A19",
"X  c #1D1B1A",
"o  c #1F1D1C",
"O  c #1F1E1D",
"+  c #1F1E1E",
"@  c #201F1E",
"#  c #201F1F",
"$  c #1E2020",
"%  c #212020",
"&  c #202021",
"*  c #202223",
"=  c #222222",
"-  c #222323",
";  c #232323",
":  c #252321",
">  c #272523",
",  c #232324",
"<  c #242525",
"1  c #252525",
"2  c #242626",
"3  c #242627",
"4  c #282624",
"5  c #2E2A27",
"6  c #282828",
"7  c #2C2B2A",
"8  c #282B2C",
"9  c #282B2D",
"0  c #282C2D",
"q  c #292D2F",
"w  c #302B27",
"e  c #312B27",
"r  c #302C28",
"t  c #312C28",
"y  c #322D29",
"u  c #3A322C",
"i  c #2B2F30",
"p  c #2A2E31",
"a  c #2B2F31",
"s  c #2C3031",
"d  c #2D3131",
"f  c #2D3232",
"g  c #2E3332",
"h  c #2B3136",
"j  c #2C3135",
"k  c #2C3136",
"l  c #2C3236",
"z  c #2D3236",
"x  c #2D3337",
"c  c #2E3437",
"v  c #2E3438",
"b  c #2E3439",
"n  c #2F363B",
"m  c #303131",
"M  c gray21",
"N  c #373737",
"B  c #31373A",
"V  c #353D3B",
"C  c #32393D",
"Z  c #323A3F",
"A  c #333C3F",
"S  c gray22",
"D  c #393939",
"F  c #423830",
"G  c #514236",
"H  c #514338",
"J  c #56493E",
"K  c #364044",
"L  c #384247",
"P  c #3A4445",
"I  c #364149",
"U  c #374149",
"Y  c #374249",
"T  c #384348",
"R  c #39444D",
"E  c #3A4750",
"W  c #3C4951",
"Q  c #3F4D54",
"!  c #3F4E5A",
"~  c #584C43",
"^  c #594E45",
"/  c #404E54",
"(  c #404F5A",
")  c #44535A",
"_  c #44535B",
"`  c #44545B",
"'  c #42525E",
"]  c #46555C",
"[  c #46565E",
"{  c #485459",
"}  c #485A68",
"|  c #485B68",
" . c #495C6B",
".. c #4E636F",
"X. c #526772",
"o. c #516777",
"O. c #536872",
"+. c #516877",
"@. c #546B76",
"#. c #576E76",
"$. c #516878",
"%. c #526A79",
"&. c #526A7A",
"*. c #586F7B",
"=. c gray38",
"-. c gray46",
";. c #777676",
":. c #64807D",
">. c #587282",
",. c #597383",
"<. c #5B7581",
"1. c #5C7682",
"2. c #5C7787",
"3. c #5D7989",
"4. c #5E7989",
"5. c #5E7A8A",
"6. c #5F7C8C",
"7. c #607680",
"8. c #617E8E",
"9. c #63808B",
"0. c #68868E",
"q. c #668594",
"w. c #678594",
"e. c #668595",
"r. c #678695",
"t. c #6A8591",
"y. c #688796",
"u. c #6C8C90",
"i. c #698898",
"p. c #698998",
"a. c #698999",
"s. c #6A8999",
"d. c #6A8A99",
"f. c #6A8A9A",
"g. c #6B8B9A",
"h. c #6B8C9B",
"j. c #6C8D9B",
"k. c #6C8D9D",
"l. c #6E8F9D",
"z. c #6E8F9F",
"x. c #6F919B",
"c. c #6F919D",
"v. c #6F909F",
"b. c #739592",
"n. c #759896",
"m. c #72969F",
"M. c #7A9E98",
"N. c #6E90A0",
"B. c #7498A1",
"V. c #789EA3",
"C. c #8C8C8B",
"Z. c #8D8D8D",
"A. c #989898",
"S. c #9D9D9D",
"D. c #C3C3C3",
"F. c gray79",
"G. c #CACACA",
"H. c #CECECE",
"J. c #E1E1E1",
"K. c white",
"L. c None",
/* pixels */
"L.L.L.L.L.L.L.L.L.L.L.L.L.L.L.L.L.L.L.L.L.L.L.L.L.L.L.L.L.L.L.L.",
"L.L.L.L.L.L.L.L.L.L.L.L.L.L.L.L.L.L.L.L.L.L.L.L.L.L.L.L.L.L.L.L.",
"L.L.L.L.L.L.L.L.L.L.L.L.L.L.L.L.L.L.L.L.L.L.L.L.L.L.L.L.L.L.L.L.",
"L.L.L.L.L.L.L.L.L.L.L.L.L.L.L.L.L.L.L.L.L.L.L.L.L.L.L.L.L.L.L.L.",
"L.L.L.L.L.L.L.L.L.L.L.L.L.L.L.L.L.L.L.L.L.L.L.L.L.L.L.L.L.L.L.L.",
"L.L.L.L.L.L.L.L.L.L.L.L.L.L.L.L.L.L.L.L.L.L.L.L.L.L.L.L.L.L.L.L.",
"L.L.L.L.L.L.L.L.L.L.L.L.L.L.L.L.L.L.L.L.L.L.L.L.L.L.L.L.L.L.L.L.",
"L.L.L.L.L.L.L.L.L.L.L.L.L.L.L.L.L.L.L.L.L.L.L.L.L.L.L.L.L.L.L.L.",
"L.L.L.L.L.L.L.L.L.L.L.L.L.o o o o o o o L.L.L.L.L.L.L.L.L.L.L.L.",
"L.L.L.L.L.L.L.L.L.L.L.L.x b v v v v v v x L.L.L.L.L.L.L.L.L.L.L.",
"L.L.L.L.L.L.L.L.L.L.L.; ( $.+.+.+.+.o.%...8 L.L.L.L.L.L.L.L.L.L.",
"L.L.L.L.L.L.L.L.L.L.L.; ( 2.y.r.r.r.e.x.b.d L.L.L.L.L.L.L.L.L.L.",
"L.L.L.L.L.L.L.L.L.L.L.; ( 5.h.g.g.g.s.B.M.g L.L.L.L.L.L.L.L.L.L.",
"L.L.L.L.L.L.L.L.L.L.L.; ( 4.g.d.d.d.s.c.u.s L.L.L.L.L.L.L.L.L.L.",
"L.L.L.L.L.L.L.L.L.L.L.; ! 3.g.d.d.d.d.l.0.a L.L.L.L.L.L.L.L.L.L.",
"L.L.L.L.L.L.L.L.L.L.L.; ' 6.g.d.d.d.a.m.n.f L.L.L.S 1 L.L.L.L.L.",
"L.L.L.L.L.L.L.L.L.L.= , X.f.d.d.d.d.d.j.9.i L.L.=.D.S L.L.L.L.L.",
"L.L.L.L.L.L.L.L.L.r F : c O.z.k.k.k.N.1.K L.  -.G.H.D L.L.L.L.L.",
"L.L.L.L.L.L.L.L.$ t J { q B ] ` ` ) _ L # o . Z.K.F.S L.L.L.L.L.",
"L.L.L.L.L.L.L.L.$ w ^ t.T 3 l j k C P V < z * C.J.A.M L.L.L.L.L.",
"L.L.L.L.L.L.L.L.$ e ~ 7.A Y &.+.$.8.V.:.0 } h ;.S.6 L.L.L.L.L.L.",
"L.L.L.L.L.L.L.L.$ y H m = _ i.q.w.p.v.#.9 | n 7 N L.L.L.L.L.L.L.",
"L.L.L.L.L.L.L.L.$ y G > + W ,.>.>.e.N.@.2 z p L.L.L.L.L.L.L.L.L.",
"L.L.L.L.L.L.L.L.L.5 u 4 # R  .U I Q <.*.; O L.L.L.L.L.L.L.L.L.L.",
"L.L.L.L.L.L.L.L.L.L.& L.% Z E % @ X / [ ; L.L.L.L.L.L.L.L.L.L.L.",
"L.L.L.L.L.L.L.L.L.L.L.L.= - ; L.L.L.L.; = L.L.L.L.L.L.L.L.L.L.L.",
"L.L.L.L.L.L.L.L.L.L.L.L.L.L.L.L.L.L.L.L.L.L.L.L.L.L.L.L.L.L.L.L.",
"L.L.L.L.L.L.L.L.L.L.L.L.L.L.L.L.L.L.L.L.L.L.L.L.L.L.L.L.L.L.L.L.",
"L.L.L.L.L.L.L.L.L.L.L.L.L.L.L.L.L.L.L.L.L.L.L.L.L.L.L.L.L.L.L.L.",
"L.L.L.L.L.L.L.L.L.L.L.L.L.L.L.L.L.L.L.L.L.L.L.L.L.L.L.L.L.L.L.L.",
"L.L.L.L.L.L.L.L.L.L.L.L.L.L.L.L.L.L.L.L.L.L.L.L.L.L.L.L.L.L.L.L.",
"L.L.L.L.L.L.L.L.L.L.L.L.L.L.L.L.L.L.L.L.L.L.L.L.L.L.L.L.L.L.L.L."
};
