/* XPM */
static char *result[] = {
/* columns rows colors chars-per-pixel */
"32 32 167 2 ",
"   c #191919",
".  c #1B1A1A",
"X  c #1D1D1D",
"o  c #1F1E1D",
"O  c #1F1E1E",
"+  c #201F1E",
"@  c #201F1F",
"#  c #20201F",
"$  c #212020",
"%  c #202021",
"&  c #202121",
"*  c gray13",
"=  c #222121",
"-  c #222221",
";  c #212222",
":  c #222222",
">  c #222323",
",  c #232323",
"<  c #242323",
"1  c #252423",
"2  c #222324",
"3  c #222527",
"4  c #252525",
"5  c #272524",
"6  c #282624",
"7  c #2A2725",
"8  c #282726",
"9  c #292726",
"0  c #262829",
"q  c #26282A",
"w  c #272A2C",
"e  c gray16",
"r  c #292C2D",
"t  c #292C2E",
"y  c #2A2D2F",
"u  c #2D2D2D",
"i  c #302C28",
"p  c #312C28",
"a  c #352F2A",
"s  c #36302B",
"d  c #3A322C",
"f  c #3D342E",
"g  c #3E352E",
"h  c #292D30",
"j  c #292E30",
"k  c #2A2E30",
"l  c #2B2F30",
"z  c #2B2F31",
"x  c #2C3031",
"c  c #2D3131",
"v  c #2E3232",
"b  c #2B3136",
"n  c #2E3438",
"m  c #363432",
"M  c #373533",
"N  c #353535",
"B  c #303639",
"V  c #303739",
"C  c #31373A",
"Z  c #323A3F",
"A  c gray22",
"S  c gray23",
"D  c #42372F",
"F  c #483B31",
"G  c #4A3D34",
"H  c #4E3F34",
"J  c #504136",
"K  c #504236",
"L  c #554438",
"P  c #343C40",
"I  c #353D41",
"U  c #343C43",
"Y  c #353E42",
"T  c #363E42",
"R  c #363F43",
"E  c #343E46",
"W  c #353E46",
"Q  c #353F46",
"!  c #374044",
"~  c #364048",
"^  c #364148",
"/  c #364149",
"(  c #37424A",
")  c #394348",
"_  c #394448",
"`  c #3A454A",
"'  c #38444C",
"]  c #39444C",
"[  c #3A464F",
"{  c #3C4850",
"}  c #3F4D53",
"|  c #3F4E59",
" . c #414141",
".. c #404E55",
"X. c #404F5A",
"o. c #44535A",
"O. c #44535B",
"+. c #44545B",
"@. c #41515C",
"#. c #565656",
"$. c #475964",
"%. c #485961",
"&. c #4A5C64",
"*. c #495C6B",
"=. c #4B606D",
"-. c #4E626C",
";. c #50636C",
":. c #50646C",
">. c #516770",
",. c #546A75",
"<. c #536B7A",
"1. c #566D78",
"2. c #536B7C",
"3. c #556E7F",
"4. c #577079",
"5. c #58707B",
"6. c #646363",
"7. c #727272",
"8. c #777777",
"9. c #577181",
"0. c #587181",
"q. c #587182",
"w. c #5B7580",
"e. c #597384",
"r. c #5A7484",
"t. c #5B7684",
"y. c #5E7986",
"u. c #5D7989",
"i. c #5E7989",
"p. c #67868E",
"a. c #638090",
"s. c #648290",
"d. c #678694",
"f. c #688796",
"g. c #6D8D91",
"h. c #698897",
"j. c #698997",
"k. c #688898",
"l. c #698898",
"z. c #698998",
"x. c #698999",
"c. c #6A8998",
"v. c #6A8999",
"b. c #6A8A99",
"n. c #6A8B9A",
"m. c #6B8B9A",
"M. c #6B8C9B",
"N. c #6C8D9C",
"B. c #6D8F9C",
"V. c #6F919D",
"C. c #739696",
"Z. c #779B96",
"A. c #789C97",
"S. c #72959F",
"D. c #73969F",
"F. c #7397A0",
"G. c gray51",
"H. c #868686",
"J. c #8B8B8B",
"K. c #8D8D8D",
"L. c gray78",
"P. c #C8C8C8",
"I. c #D2D2D2",
"U. c gray83",
"Y. c gray90",
"T. c #FDFDFD",
"R. c None",
/* pixels */
"R.R.R.R.R.R.R.R.R.R.R.R.R.R.R.R.R.R.R.R.R.R.R.R.R.R.R.R.R.R.R.R.",
"R.R.R.R.R.R.R.R.R.R.R.R.R.R.R.R.R.R.R.R.R.R.R.R.R.R.R.R.R.R.R.R.",
"R.R.R.R.R.R.R.R.R.R.R.R.R.R.R.R.R.R.R.R.R.R.R.R.R.R.R.R.R.R.R.R.",
"R.R.R.R.R.R.R.R.R.R.R.R.R.R.R.R.R.R.R.R.R.R.R.R.R.R.R.R.R.R.R.R.",
"R.R.R.R.R.R.R.R.R.R.R.R.R.R.R.R.R.R.R.R.R.R.R.R.R.R.R.R.R.R.R.R.",
"R.R.R.R.R.R.R.R.R.R.R.R.R.R.R.R.R.R.R.R.R.R.R.R.R.R.R.R.R.R.R.R.",
"R.R.R.R.R.R.R.R.R.R.R.R.R.R.R.R.R.R.R.R.R.R.R.R.R.R.R.R.R.R.R.R.",
"R.R.R.R.R.R.R.R.R.R.R.R.R.@ @ @ @ @ @ @ @ R.R.R.R.R.R.R.R.R.R.R.",
"R.R.R.R.R.R.R.R.R.R.R.R.U ( ^ ^ ^ ^ ^ / E q R.R.R.R.R.R.R.R.R.R.",
"R.R.R.R.R.R.R.R.R.R.R., @.3.0.9.9.9.9.t.4.r R.R.R.R.R.R.R.R.R.R.",
"R.R.R.R.R.R.R.R.R.R.R., X.u.n.v.v.v.l.D.Z.v R.R.R.R.R.R.R.R.R.R.",
"R.R.R.R.R.R.R.R.R.R.R., X.i.m.b.b.b.x.F.A.v R.R.R.R.R.R.R.R.R.R.",
"R.R.R.R.R.R.R.R.R.R.R., X.i.m.b.b.b.b.B.p.l R.R.R.R.R.R.R.R.R.R.",
"R.R.R.R.R.R.R.R.R.R.R., | u.m.b.b.b.v.V.g.x R.R.R.R.R.R.R.R.R.R.",
"R.R.R.R.R.R.R.R.R.R.R., $.a.m.b.b.b.x.S.C.c R.R. .#.e R.R.R.R.R.",
"R.R.R.R.R.R.R.R.; < 5 , -.f.n.b.b.b.n.h.w.k R.u 7.U.S R.R.R.R.R.",
"R.R.R.R.R.R.R.: * p G 8 0 &.m.j.j.j.M.1.z R.  G.Y.L.A R.R.R.R.R.",
"R.R.R.R.R.R.R.& a D M :.B t R T T I ! B o + . K.T.P.A R.R.R.R.R.",
"R.R.R.R.R.R.R.% g F j s._ h ~ E W ..C y o.] 3 J.I.8.N R.R.R.R.R.",
"R.R.R.R.R.R.R.% f H m ;.V / 2.9.q.k.+.Y x.2.b 6.H.X R.R.R.R.R.R.",
"R.R.R.R.R.R.R.% d L K 9 # ] r.z.b.N.%.) y.=.n = 4 R.R.R.R.R.R.R.",
"R.R.R.R.R.R.R.R.1 s J 6 O O.x.c.z.z.d.>.z w R.R.R.R.R.R.R.R.R.R.",
"R.R.R.R.R.R.R.R.R.7 i R.+ { e.<.` P ,.5.- R.R.R.R.R.R.R.R.R.R.R.",
"R.R.R.R.R.R.R.R.R.R.R.R.+ ' *.Q 2 R.) } R.R.R.R.R.R.R.R.R.R.R.R.",
"R.R.R.R.R.R.R.R.R.R.R.R.$ Z [ $ R.R.R.o R.R.R.R.R.R.R.R.R.R.R.R.",
"R.R.R.R.R.R.R.R.R.R.R.R.: > , R.R.R.R.R.R.R.R.R.R.R.R.R.R.R.R.R.",
"R.R.R.R.R.R.R.R.R.R.R.R.R.R.R.R.R.R.R.R.R.R.R.R.R.R.R.R.R.R.R.R.",
"R.R.R.R.R.R.R.R.R.R.R.R.R.R.R.R.R.R.R.R.R.R.R.R.R.R.R.R.R.R.R.R.",
"R.R.R.R.R.R.R.R.R.R.R.R.R.R.R.R.R.R.R.R.R.R.R.R.R.R.R.R.R.R.R.R.",
"R.R.R.R.R.R.R.R.R.R.R.R.R.R.R.R.R.R.R.R.R.R.R.R.R.R.R.R.R.R.R.R.",
"R.R.R.R.R.R.R.R.R.R.R.R.R.R.R.R.R.R.R.R.R.R.R.R.R.R.R.R.R.R.R.R.",
"R.R.R.R.R.R.R.R.R.R.R.R.R.R.R.R.R.R.R.R.R.R.R.R.R.R.R.R.R.R.R.R."
};
