/* XPM */
static char *result[] = {
/* columns rows colors chars-per-pixel */
"32 32 166 2 ",
"   c #191919",
".  c gray10",
"X  c #1D1B1A",
"o  c #1E1C1B",
"O  c #1F1D1C",
"+  c #1F1E1E",
"@  c #201F1E",
"#  c #201F1F",
"$  c #1F2122",
"%  c #212020",
"&  c #212120",
"*  c #202021",
"=  c #212122",
"-  c #222222",
";  c #222323",
":  c #232323",
">  c #252321",
",  c #272523",
"<  c #232324",
"1  c #232424",
"2  c #252525",
"3  c #242627",
"4  c #282624",
"5  c #2B2826",
"6  c #2C2926",
"7  c #2D2927",
"8  c #2F2B27",
"9  c #262829",
"0  c #282828",
"q  c #2C2B2A",
"w  c #282B2C",
"e  c #292D2F",
"r  c #2A2D2F",
"t  c #2A2E2F",
"y  c #3A322C",
"u  c #3C332D",
"i  c #3E342D",
"p  c #3D342E",
"a  c #3D352E",
"s  c #3E352E",
"d  c #292E30",
"f  c #2B2F30",
"g  c #2B2F31",
"h  c #292F34",
"j  c #2C3031",
"k  c #2D3131",
"l  c #2F3030",
"z  c #2D3232",
"x  c #2E3332",
"c  c #2C3135",
"v  c #2C3136",
"b  c #2C3236",
"n  c #2D3337",
"m  c #2E3437",
"M  c #2E3438",
"N  c #2E3439",
"B  c #2F363A",
"V  c #303131",
"C  c gray21",
"Z  c #373737",
"A  c #3F3934",
"S  c #31373A",
"D  c #333B3F",
"F  c gray22",
"G  c #393939",
"H  c #433830",
"J  c #483B31",
"K  c #4A3C32",
"L  c #4C4036",
"P  c #524337",
"I  c #574639",
"U  c #323A40",
"Y  c #343C40",
"T  c #353D41",
"R  c #363E42",
"E  c #363E43",
"W  c #363F44",
"Q  c #364044",
"!  c #374149",
"~  c #374249",
"^  c #37424A",
"/  c #394348",
"(  c #38434B",
")  c #3A4549",
"_  c #39444D",
"`  c #3C4951",
"'  c #3F4D54",
"]  c #3F4E5A",
"[  c #404D54",
"{  c #404F5A",
"}  c #455157",
"|  c #44535A",
" . c #44535B",
".. c #44545B",
"X. c #42525E",
"o. c #46555C",
"O. c #46565E",
"+. c #4A5B64",
"@. c #4C5E67",
"#. c #495D6B",
"$. c #4E636F",
"%. c #526772",
"&. c #506777",
"*. c #516777",
"=. c #536872",
"-. c #516877",
";. c #516878",
":. c #526A79",
">. c #526A7A",
",. c #58707B",
"<. c #5A727E",
"1. c gray38",
"2. c gray46",
"3. c #777676",
"4. c #587282",
"5. c #597383",
"6. c #5C7682",
"7. c #5D7783",
"8. c #5C7787",
"9. c #5D7989",
"0. c #5E7989",
"q. c #5E7A8A",
"w. c #5F7C8C",
"e. c #627F8C",
"r. c #63808B",
"t. c #63818E",
"y. c #68868E",
"u. c #648292",
"i. c #658392",
"p. c #668594",
"a. c #678594",
"s. c #668595",
"d. c #678695",
"f. c #678696",
"g. c #688796",
"h. c #6C8C90",
"j. c #698898",
"k. c #698999",
"l. c #6A8999",
"z. c #6A8A99",
"x. c #6A8A9A",
"c. c #6B8B9A",
"v. c #6B8C9B",
"b. c #6C8D9B",
"n. c #6C8D9D",
"m. c #6E8F9D",
"M. c #6E8F9F",
"N. c #6F919B",
"B. c #6F919D",
"V. c #739592",
"C. c #759896",
"Z. c #72969F",
"A. c #7A9E98",
"S. c #6E90A0",
"D. c #7498A1",
"F. c #8C8C8B",
"G. c #8D8D8D",
"H. c #989898",
"J. c #9D9D9D",
"K. c #C3C3C3",
"L. c gray79",
"P. c #CACACA",
"I. c #CECECE",
"U. c #E1E1E1",
"Y. c white",
"T. c None",
/* pixels */
"T.T.T.T.T.T.T.T.T.T.T.T.T.T.T.T.T.T.T.T.T.T.T.T.T.T.T.T.T.T.T.T.",
"T.T.T.T.T.T.T.T.T.T.T.T.T.T.T.T.T.T.T.T.T.T.T.T.T.T.T.T.T.T.T.T.",
"T.T.T.T.T.T.T.T.T.T.T.T.T.T.T.T.T.T.T.T.T.T.T.T.T.T.T.T.T.T.T.T.",
"T.T.T.T.T.T.T.T.T.T.T.T.T.T.T.T.T.T.T.T.T.T.T.T.T.T.T.T.T.T.T.T.",
"T.T.T.T.T.T.T.T.T.T.T.T.T.T.T.T.T.T.T.T.T.T.T.T.T.T.T.T.T.T.T.T.",
"T.T.T.T.T.T.T.T.T.T.T.T.T.T.T.T.T.T.T.T.T.T.T.T.T.T.T.T.T.T.T.T.",
"T.T.T.T.T.T.T.T.T.T.T.T.T.T.T.T.T.T.T.T.T.T.T.T.T.T.T.T.T.T.T.T.",
"T.T.T.T.T.T.T.T.T.T.T.T.T.T.T.T.T.T.T.T.T.T.T.T.T.T.T.T.T.T.T.T.",
"T.T.T.T.T.T.T.T.T.T.T.T.T.O O O O O O O T.T.T.T.T.T.T.T.T.T.T.T.",
"T.T.T.T.T.T.T.T.T.T.T.T.n N M M M M M M n T.T.T.T.T.T.T.T.T.T.T.",
"T.T.T.T.T.T.T.T.T.T.T.: { ;.-.-.-.-.*.:.$.w T.T.T.T.T.T.T.T.T.T.",
"T.T.T.T.T.T.T.T.T.T.T.: { 8.g.d.d.d.s.N.V.k T.T.T.T.T.T.T.T.T.T.",
"T.T.T.T.T.T.T.T.T.T.T.: { q.v.c.c.c.l.D.A.x T.T.T.T.T.T.T.T.T.T.",
"T.T.T.T.T.T.T.T.T.T.T.: { 0.c.z.z.z.l.B.h.j T.T.T.T.T.T.T.T.T.T.",
"T.T.T.T.T.T.T.T.T.T.T.: ] 9.c.z.z.z.z.m.y.g T.T.T.T.T.T.T.T.T.T.",
"T.T.T.T.T.T.T.T.T.T.T.: X.w.c.z.z.z.k.Z.C.z T.T.T.F 2 T.T.T.T.T.",
"T.T.T.T.T.T.T.T.T.- - < %.x.z.z.z.z.z.b.r.f T.T.1.K.F T.T.T.T.T.",
"T.T.T.T.T.T.T.T.* 7 H > m =.M.n.n.n.S.6.Q T.  2.P.I.G T.T.T.T.T.",
"T.T.T.T.T.T.T.= 8 i A } t S o.....| O.) o o . G.Y.L.F T.T.T.T.T.",
"T.T.T.T.T.T.T.* s J d t./ 3 b c v D r 9 E B $ F.U.H.C T.T.T.T.T.",
"T.T.T.T.T.T.T.* p K V <.Y ~ >.-.;.u.| T i.&.h 3.J.0 T.T.T.T.T.T.",
"T.T.T.T.T.T.T.* u I L l -  .j.p.a.v...R i.&.M q Z T.T.T.T.T.T.T.",
"T.T.T.T.T.T.T.T.5 a P , + ` 5.4.4.f.e.@.W B e T.T.T.T.T.T.T.T.T.",
"T.T.T.T.T.T.T.T.T.6 y 4 # _ #.^ ! ' 7.,.% O T.T.T.T.T.T.T.T.T.T.",
"T.T.T.T.T.T.T.T.T.T.* T.% U ( & @ X [ +.1 T.T.T.T.T.T.T.T.T.T.T.",
"T.T.T.T.T.T.T.T.T.T.T.T.- ; ; - T.T.T.1 T.T.T.T.T.T.T.T.T.T.T.T.",
"T.T.T.T.T.T.T.T.T.T.T.T.T.T.T.T.T.T.T.T.T.T.T.T.T.T.T.T.T.T.T.T.",
"T.T.T.T.T.T.T.T.T.T.T.T.T.T.T.T.T.T.T.T.T.T.T.T.T.T.T.T.T.T.T.T.",
"T.T.T.T.T.T.T.T.T.T.T.T.T.T.T.T.T.T.T.T.T.T.T.T.T.T.T.T.T.T.T.T.",
"T.T.T.T.T.T.T.T.T.T.T.T.T.T.T.T.T.T.T.T.T.T.T.T.T.T.T.T.T.T.T.T.",
"T.T.T.T.T.T.T.T.T.T.T.T.T.T.T.T.T.T.T.T.T.T.T.T.T.T.T.T.T.T.T.T.",
"T.T.T.T.T.T.T.T.T.T.T.T.T.T.T.T.T.T.T.T.T.T.T.T.T.T.T.T.T.T.T.T."
};
