/* XPM */
static char *result[] = {
/* columns rows colors chars-per-pixel */
"32 32 164 2 ",
"   c #191919",
".  c gray10",
"X  c #1D1B1B",
"o  c #1E1C1B",
"O  c #1D1D1D",
"+  c #1E1D1D",
"@  c #1F1E1D",
"#  c #201F1F",
"$  c #20201F",
"%  c #21201F",
"&  c #1E2020",
"*  c #202020",
"=  c #212020",
"-  c #202021",
";  c #212222",
":  c #222222",
">  c #232222",
",  c #222323",
"<  c #232323",
"1  c #262220",
"2  c #272523",
"3  c #232424",
"4  c #242525",
"5  c #252525",
"6  c #282624",
"7  c #2E2A27",
"8  c #26282A",
"9  c #27292A",
"0  c #272C2E",
"q  c gray16",
"w  c #282A2B",
"e  c #292C2D",
"r  c #292C2E",
"t  c #2D2D2D",
"y  c #302B27",
"u  c #312B27",
"i  c #302C28",
"p  c #312C28",
"a  c #322D29",
"s  c #3A322C",
"d  c #2A2E30",
"f  c #2B2F30",
"g  c #2B2F31",
"h  c #2B2F32",
"j  c #2B3033",
"k  c #2C3031",
"l  c #2D3131",
"z  c #2C3133",
"x  c #2E3232",
"c  c #2E3437",
"v  c #303131",
"b  c #353535",
"n  c #31393F",
"m  c #333C3F",
"M  c gray22",
"N  c gray23",
"B  c #433830",
"V  c #514236",
"C  c #514338",
"Z  c #56483E",
"A  c #343C40",
"S  c #353D41",
"D  c #353D42",
"F  c #343C43",
"G  c #363E42",
"H  c #363F43",
"J  c #343D44",
"K  c #353F44",
"L  c #343E46",
"P  c #353E46",
"I  c #353F47",
"U  c #374044",
"Y  c #374145",
"T  c #374146",
"R  c #364048",
"E  c #364148",
"W  c #374148",
"Q  c #364149",
"!  c #37424A",
"~  c #38434B",
"^  c #3F4C53",
"/  c #3F4D53",
"(  c #3F4E59",
")  c #414141",
"_  c #584C43",
"`  c #594E45",
"'  c #43504D",
"]  c #404E54",
"[  c #404F5A",
"{  c #475257",
"}  c #44535B",
"|  c #41515C",
" . c #42525E",
".. c #565656",
"X. c #445562",
"o. c #465763",
"O. c #475863",
"+. c #495A62",
"@. c #495B63",
"#. c #4C5E60",
"$. c #4E626F",
"%. c #50646D",
"&. c #576E77",
"*. c #566D78",
"=. c #536B7C",
"-. c #556E7F",
";. c #577079",
":. c #59717D",
">. c #636261",
",. c #727272",
"<. c #777777",
"1. c #65817E",
"2. c #577181",
"3. c #587181",
"4. c #587182",
"5. c #5B7580",
"6. c #597485",
"7. c #5A7484",
"8. c #5B7684",
"9. c #5F7A86",
"0. c #5D7989",
"q. c #5E7989",
"w. c #607680",
"e. c #698782",
"r. c #63818E",
"t. c #67868E",
"y. c #638090",
"u. c #658494",
"i. c #6A8591",
"p. c #688795",
"a. c #6D8D91",
"s. c #698897",
"d. c #698997",
"f. c #698898",
"g. c #698998",
"h. c #698999",
"j. c #6A8998",
"k. c #6A8999",
"l. c #6A8A99",
"z. c #6A8B9A",
"x. c #6B8B9A",
"c. c #6B8C9B",
"v. c #6D8F9C",
"b. c #6E8F9E",
"n. c #6F919D",
"m. c #739696",
"M. c #779B96",
"N. c #789C97",
"B. c #72959F",
"V. c #73969F",
"C. c #7397A0",
"Z. c #799EA4",
"A. c #7EA5AA",
"S. c gray51",
"D. c #868686",
"F. c #8B8A8A",
"G. c #8D8D8D",
"H. c gray78",
"J. c #C8C8C8",
"K. c #D2D2D2",
"L. c gray83",
"P. c gray90",
"I. c #FDFDFD",
"U. c None",
/* pixels */
"U.U.U.U.U.U.U.U.U.U.U.U.U.U.U.U.U.U.U.U.U.U.U.U.U.U.U.U.U.U.U.U.",
"U.U.U.U.U.U.U.U.U.U.U.U.U.U.U.U.U.U.U.U.U.U.U.U.U.U.U.U.U.U.U.U.",
"U.U.U.U.U.U.U.U.U.U.U.U.U.U.U.U.U.U.U.U.U.U.U.U.U.U.U.U.U.U.U.U.",
"U.U.U.U.U.U.U.U.U.U.U.U.U.U.U.U.U.U.U.U.U.U.U.U.U.U.U.U.U.U.U.U.",
"U.U.U.U.U.U.U.U.U.U.U.U.U.U.U.U.U.U.U.U.U.U.U.U.U.U.U.U.U.U.U.U.",
"U.U.U.U.U.U.U.U.U.U.U.U.U.U.U.U.U.U.U.U.U.U.U.U.U.U.U.U.U.U.U.U.",
"U.U.U.U.U.U.U.U.U.U.U.U.U.U.U.U.U.U.U.U.U.U.U.U.U.U.U.U.U.U.U.U.",
"U.U.U.U.U.U.U.U.U.U.U.U.U.# # # # # # # # U.U.U.U.U.U.U.U.U.U.U.",
"U.U.U.U.U.U.U.U.U.U.U.U.F ! E E E E E Q L 8 U.U.U.U.U.U.U.U.U.U.",
"U.U.U.U.U.U.U.U.U.U.U.< | -.3.2.2.2.2.8.;.e U.U.U.U.U.U.U.U.U.U.",
"U.U.U.U.U.U.U.U.U.U.U.< [ 0.z.k.k.k.f.V.M.x U.U.U.U.U.U.U.U.U.U.",
"U.U.U.U.U.U.U.U.U.U.U.< [ q.x.l.l.l.h.C.N.x U.U.U.U.U.U.U.U.U.U.",
"U.U.U.U.U.U.U.U.U.U.U.< [ q.x.l.l.l.l.v.t.f U.U.U.U.U.U.U.U.U.U.",
"U.U.U.U.U.U.U.U.U.U.U.< ( 0.x.l.l.l.k.n.a.k U.U.U.U.U.U.U.U.U.U.",
"U.U.U.U.U.U.U.U.U.U.U.< O.y.x.l.l.l.h.B.m.l U.U.) ..q U.U.U.U.U.",
"U.U.U.U.U.U.U.U.U.U.U.3 %.p.z.l.l.l.z.s.5.d U.t ,.L.N U.U.U.U.U.",
"U.U.U.U.U.U.U.U.U.U.> U.w +.x.d.d.d.c.*.g U.  S.P.H.M U.U.U.U.U.",
"U.U.U.U.U.U.U.U.U.i B 1 @ g H G G S D c = @ . G.I.J.M U.U.U.U.U.",
"U.U.U.U.U.U.U.U.& p Z { j h R L P ^ #.' 9 ] 0 F.K.<.b U.U.U.U.U.",
"U.U.U.U.U.U.U.U.& y ` i.T I =.2.4.u.A.e.z r.K >.D.O U.U.U.U.U.U.",
"U.U.U.U.U.U.U.U.& u _ w.m W 7.j.l.h.Z.1.f :.Y % 5 U.U.U.U.U.U.U.",
"U.U.U.U.U.U.U.U.& a C v ; } h.d.g.g.b.&.4 r U.U.U.U.U.U.U.U.U.U.",
"U.U.U.U.U.U.U.U.& a V 2 + @.9.U U $.6.o.< U.U.U.U.U.U.U.U.U.U.U.",
"U.U.U.U.U.U.U.U.U.7 s 6 * A / o X n X. .< U.U.U.U.U.U.U.U.U.U.U.",
"U.U.U.U.U.U.U.U.U.U.- U.U.$ U.U.U.U.J ~ , U.U.U.U.U.U.U.U.U.U.U.",
"U.U.U.U.U.U.U.U.U.U.U.U.U.U.U.U.U.U.U., : U.U.U.U.U.U.U.U.U.U.U.",
"U.U.U.U.U.U.U.U.U.U.U.U.U.U.U.U.U.U.U.U.U.U.U.U.U.U.U.U.U.U.U.U.",
"U.U.U.U.U.U.U.U.U.U.U.U.U.U.U.U.U.U.U.U.U.U.U.U.U.U.U.U.U.U.U.U.",
"U.U.U.U.U.U.U.U.U.U.U.U.U.U.U.U.U.U.U.U.U.U.U.U.U.U.U.U.U.U.U.U.",
"U.U.U.U.U.U.U.U.U.U.U.U.U.U.U.U.U.U.U.U.U.U.U.U.U.U.U.U.U.U.U.U.",
"U.U.U.U.U.U.U.U.U.U.U.U.U.U.U.U.U.U.U.U.U.U.U.U.U.U.U.U.U.U.U.U.",
"U.U.U.U.U.U.U.U.U.U.U.U.U.U.U.U.U.U.U.U.U.U.U.U.U.U.U.U.U.U.U.U."
};
