/* XPM */
static char *result[] = {
/* columns rows colors chars-per-pixel */
"32 32 158 2 ",
"   c gray10",
".  c #1B1A1A",
"X  c #1D1B1B",
"o  c #1E1C1B",
"O  c gray11",
"+  c #1D1D1D",
"@  c #1F1E1D",
"#  c #1D1E1F",
"$  c #1F1E1E",
"%  c #201F1F",
"&  c #1E1F20",
"*  c #1E2020",
"=  c #202021",
"-  c gray13",
";  c #232120",
":  c #222222",
">  c #232222",
",  c #222323",
"<  c #232323",
"1  c #252423",
"2  c #222424",
"3  c #232424",
"4  c #242425",
"5  c #262524",
"6  c #292725",
"7  c #2F2925",
"8  c #2E2A27",
"9  c #262729",
"0  c #26282A",
"q  c #27292A",
"w  c #282A2B",
"e  c #292C2D",
"r  c #292C2E",
"t  c #292D2E",
"y  c gray18",
"u  c #302C28",
"i  c #312C28",
"p  c #312C29",
"a  c #322D29",
"s  c #332E2A",
"d  c #352F2A",
"f  c #38332D",
"g  c #3A322C",
"h  c #3F352E",
"j  c #2A2E30",
"k  c #2B2F30",
"l  c #2C3031",
"z  c #2C3032",
"x  c #2D3232",
"c  c #2E3232",
"v  c #2D3235",
"b  c #2C3336",
"n  c #30373C",
"m  c #31393F",
"M  c gray22",
"N  c gray23",
"B  c #433930",
"V  c #534337",
"C  c #544437",
"Z  c #564639",
"A  c #59473A",
"S  c #59483B",
"D  c #5E4C3E",
"F  c #353D41",
"G  c #353D42",
"H  c #343C43",
"J  c #363E42",
"K  c #363F43",
"L  c #343D44",
"P  c #343E45",
"I  c #343E46",
"U  c #353E46",
"Y  c #374044",
"T  c #374145",
"R  c #374146",
"E  c #364148",
"W  c #364149",
"Q  c #37424A",
"!  c #38434B",
"~  c #3B464B",
"^  c #3D494F",
"/  c #3F4C52",
"(  c #3F4C53",
")  c #3F4E59",
"_  c #424F4C",
"`  c gray29",
"'  c #4B4B4B",
"]  c #4E4D4C",
"[  c #404E55",
"{  c #404F5A",
"}  c #41515C",
"|  c #42525E",
" . c #565656",
".. c #6C5946",
"X. c #445562",
"o. c #465762",
"O. c #475863",
"+. c #495A62",
"@. c #4C5E60",
"#. c #4E616A",
"$. c #4E626B",
"%. c #4E626F",
"&. c #50646D",
"*. c #566D76",
"=. c #576F7A",
"-. c #556E7F",
";. c #577079",
":. c #5B747F",
">. c #6C6C6C",
",. c #7C7C7C",
"<. c #577080",
"1. c #577181",
"2. c #587181",
"3. c #587282",
"4. c #597485",
"5. c #5B7684",
"6. c #5D7989",
"7. c #5E7989",
"8. c #607B88",
"9. c #668380",
"0. c #6A8882",
"q. c #67868E",
"w. c #638090",
"e. c #658390",
"r. c #668492",
"t. c #658494",
"y. c #688795",
"u. c #6D8D91",
"i. c #698997",
"p. c #698898",
"a. c #698998",
"s. c #698999",
"d. c #6A8999",
"f. c #6A8A99",
"g. c #6A8B9A",
"h. c #6B8B9A",
"j. c #6B8C9B",
"k. c #6D8F9C",
"l. c #6E8F9E",
"z. c #6F919D",
"x. c #739696",
"c. c #779B96",
"v. c #789C97",
"b. c #72959F",
"n. c #73969F",
"m. c #7397A0",
"M. c #799EA4",
"N. c #7EA5AA",
"B. c #888787",
"V. c #8B8B8B",
"C. c gray55",
"Z. c #C1C1C1",
"A. c gray76",
"S. c #C5C5C5",
"D. c #D8D8D8",
"F. c gray96",
"G. c #F6F6F6",
"H. c None",
/* pixels */
"H.H.H.H.H.H.H.H.H.H.H.H.H.H.H.H.H.H.H.H.H.H.H.H.H.H.H.H.H.H.H.H.",
"H.H.H.H.H.H.H.H.H.H.H.H.H.H.H.H.H.H.H.H.H.H.H.H.H.H.H.H.H.H.H.H.",
"H.H.H.H.H.H.H.H.H.H.H.H.H.H.H.H.H.H.H.H.H.H.H.H.H.H.H.H.H.H.H.H.",
"H.H.H.H.H.H.H.H.H.H.H.H.H.H.H.H.H.H.H.H.H.H.H.H.H.H.H.H.H.H.H.H.",
"H.H.H.H.H.H.H.H.H.H.H.H.H.H.H.H.H.H.H.H.H.H.H.H.H.H.H.H.H.H.H.H.",
"H.H.H.H.H.H.H.H.H.H.H.H.H.H.H.H.H.H.H.H.H.H.H.H.H.H.H.H.H.H.H.H.",
"H.H.H.H.H.H.H.H.H.H.H.H.H.H.H.H.H.H.H.H.H.H.H.H.H.H.H.H.H.H.H.H.",
"H.H.H.H.H.H.H.H.H.H.H.H.H.% % % % % % % % H.H.H.H.H.H.H.H.H.H.H.",
"H.H.H.H.H.H.H.H.H.H.H.H.H Q E E E E E W I 0 H.H.H.H.H.H.H.H.H.H.",
"H.H.H.H.H.H.H.H.H.H.H.< } -.2.1.1.1.1.5.;.e H.H.H.H.H.H.H.H.H.H.",
"H.H.H.H.H.H.H.H.H.H.H.< { 6.g.d.d.d.p.n.c.c H.H.H.H.H.H.H.H.H.H.",
"H.H.H.H.H.H.H.H.H.H.H.< { 7.h.f.f.f.s.m.v.c H.H.H.H.H.H.H.H.H.H.",
"H.H.H.H.H.H.H.H.H.H.H.< { 7.h.f.f.f.f.k.q.k H.H.H.  - H.H.H.H.H.",
"H.H.H.H.H.H.H.H.H.H.H.< ) 6.h.f.f.f.d.z.u.l H.H.' ,.y H.H.H.H.H.",
"H.H.H.H.H.H.H.H.H.H.H.< O.w.h.f.f.f.s.b.x.x H.` V.D.N H.H.H.H.H.",
"H.H.H.H.H.H.H.H.H.H.H.3 &.y.g.f.f.f.g.i.:.r   C.F.S.M H.H.H.H.H.",
"H.H.H.H.H.H.H.H.H.H.> H.w +.h.i.i.i.j.=.j 4 O C.G.A.M H.H.H.H.H.",
"H.H.H.H.H.H.H.H.H.u B 5 $ z T J J F G v q $.b B.Z. .H.H.H.H.H.H.",
"H.H.H.H.H.H.H.H.* p C h 6 $ 9 P U ( @._ z e.R ] >.H.H.H.H.H.H.H.",
"H.H.H.H.H.H.H.H.& s D A a + n <.3.t.N.0.t #.K . H.H.H.H.H.H.H.H.",
"H.H.H.H.H.H.H.H.# f ..S i 2 ^ i.f.s.M.9.3 < H.H.H.H.H.H.H.H.H.H.",
"H.H.H.H.H.H.H.H.& a S Z 7 [ r.i.a.a.l.*.3 H.H.H.H.H.H.H.H.H.H.H.",
"H.H.H.H.H.H.H.H.* a V d ; +.8.Y Y %.4.o.< H.H.H.H.H.H.H.H.H.H.H.",
"H.H.H.H.H.H.H.H.H.8 g 1 H.~ / o X m X.| < H.H.H.H.H.H.H.H.H.H.H.",
"H.H.H.H.H.H.H.H.H.H.= H.H.H.@ H.H.H.L ! , H.H.H.H.H.H.H.H.H.H.H.",
"H.H.H.H.H.H.H.H.H.H.H.H.H.H.H.H.H.H.H., : H.H.H.H.H.H.H.H.H.H.H.",
"H.H.H.H.H.H.H.H.H.H.H.H.H.H.H.H.H.H.H.H.H.H.H.H.H.H.H.H.H.H.H.H.",
"H.H.H.H.H.H.H.H.H.H.H.H.H.H.H.H.H.H.H.H.H.H.H.H.H.H.H.H.H.H.H.H.",
"H.H.H.H.H.H.H.H.H.H.H.H.H.H.H.H.H.H.H.H.H.H.H.H.H.H.H.H.H.H.H.H.",
"H.H.H.H.H.H.H.H.H.H.H.H.H.H.H.H.H.H.H.H.H.H.H.H.H.H.H.H.H.H.H.H.",
"H.H.H.H.H.H.H.H.H.H.H.H.H.H.H.H.H.H.H.H.H.H.H.H.H.H.H.H.H.H.H.H.",
"H.H.H.H.H.H.H.H.H.H.H.H.H.H.H.H.H.H.H.H.H.H.H.H.H.H.H.H.H.H.H.H."
};
