/* XPM */
static char *result[] = {
/* columns rows colors chars-per-pixel */
"32 32 164 2 ",
"   c #191919",
".  c gray10",
"X  c #1D1D1D",
"o  c #1F1E1D",
"O  c #1F1E1E",
"+  c #201F1E",
"@  c #201F1F",
"#  c #21201F",
"$  c #1E2020",
"%  c #212020",
"&  c #202021",
"*  c #212222",
"=  c #222222",
"-  c #232222",
";  c #222323",
":  c #232323",
">  c #262220",
",  c #272523",
"<  c #222324",
"1  c #232324",
"2  c #232424",
"3  c #242525",
"4  c #252525",
"5  c #282624",
"6  c #2E2A27",
"7  c #26282A",
"8  c #27292A",
"9  c #272C2E",
"0  c gray16",
"q  c #282A2B",
"w  c #292C2D",
"e  c #292C2E",
"r  c #2D2D2D",
"t  c #302B27",
"y  c #312B27",
"u  c #302C28",
"i  c #312C28",
"p  c #322D29",
"a  c #3A322C",
"s  c #2A2E30",
"d  c #2B2F30",
"f  c #2B2F31",
"g  c #2B2F32",
"h  c #2C3031",
"j  c #2D3131",
"k  c #2C3032",
"l  c #2E3232",
"z  c #2F3538",
"x  c #2F363B",
"c  c #303131",
"v  c #353535",
"b  c #323A3E",
"n  c #323A3F",
"m  c gray22",
"M  c gray23",
"N  c #433830",
"B  c #38423F",
"V  c #514236",
"C  c #514338",
"Z  c #56483E",
"A  c #343C40",
"S  c #353D41",
"D  c #353D42",
"F  c #343C43",
"G  c #353E42",
"H  c #363E42",
"J  c #363F43",
"K  c #353F44",
"L  c #343E45",
"P  c #343E46",
"I  c #353F46",
"U  c #374145",
"Y  c #364048",
"T  c #364148",
"R  c #364149",
"E  c #37424A",
"W  c #394449",
"Q  c #3A454A",
"!  c #3B464B",
"~  c #39444D",
"^  c #3A464F",
"/  c #3C4850",
"(  c #3F4E59",
")  c #414141",
"_  c #584C43",
"`  c #594E45",
"'  c #404E54",
"]  c #404F5A",
"[  c #404F5B",
"{  c #425057",
"}  c #475257",
"|  c #41515C",
" . c #42515C",
".. c #47585E",
"X. c #565656",
"o. c #475863",
"O. c #495A62",
"+. c #495C6B",
"@. c #4E6161",
"#. c #506361",
"$. c #536763",
"%. c #50646D",
"&. c #536873",
"*. c #546A74",
"=. c #536B7A",
"-. c #566D78",
";. c #556D7E",
":. c #556E7F",
">. c #577079",
",. c #58707B",
"<. c #59727D",
"1. c #636261",
"2. c #727272",
"3. c #777777",
"4. c #577181",
"5. c #587181",
"6. c #587283",
"7. c #5B7580",
"8. c #5A7484",
"9. c #5B7684",
"0. c #5D7989",
"q. c #5E7989",
"w. c #5F7C8C",
"e. c #607680",
"r. c #64818E",
"t. c #67868E",
"y. c #638090",
"u. c #6A8591",
"i. c #688795",
"p. c #6D8D91",
"a. c #698897",
"s. c #698997",
"d. c #698898",
"f. c #698998",
"g. c #698999",
"h. c #6A8998",
"j. c #6A8999",
"k. c #6A8A99",
"l. c #6A8A9A",
"z. c #6A8B9A",
"x. c #6B8B9A",
"c. c #6B8C9B",
"v. c #6D8F9C",
"b. c #6E909D",
"n. c #6F919D",
"m. c #739696",
"M. c #779B96",
"N. c #789C97",
"B. c #72959F",
"V. c #73969F",
"C. c #7397A0",
"Z. c #7DA4A6",
"A. c gray51",
"S. c #868686",
"D. c #8B8A8A",
"F. c #8D8D8D",
"G. c #83ACAC",
"H. c gray78",
"J. c #C8C8C8",
"K. c #D2D2D2",
"L. c gray83",
"P. c gray90",
"I. c #FDFDFD",
"U. c None",
/* pixels */
"U.U.U.U.U.U.U.U.U.U.U.U.U.U.U.U.U.U.U.U.U.U.U.U.U.U.U.U.U.U.U.U.",
"U.U.U.U.U.U.U.U.U.U.U.U.U.U.U.U.U.U.U.U.U.U.U.U.U.U.U.U.U.U.U.U.",
"U.U.U.U.U.U.U.U.U.U.U.U.U.U.U.U.U.U.U.U.U.U.U.U.U.U.U.U.U.U.U.U.",
"U.U.U.U.U.U.U.U.U.U.U.U.U.U.U.U.U.U.U.U.U.U.U.U.U.U.U.U.U.U.U.U.",
"U.U.U.U.U.U.U.U.U.U.U.U.U.U.U.U.U.U.U.U.U.U.U.U.U.U.U.U.U.U.U.U.",
"U.U.U.U.U.U.U.U.U.U.U.U.U.U.U.U.U.U.U.U.U.U.U.U.U.U.U.U.U.U.U.U.",
"U.U.U.U.U.U.U.U.U.U.U.U.U.U.U.U.U.U.U.U.U.U.U.U.U.U.U.U.U.U.U.U.",
"U.U.U.U.U.U.U.U.U.U.U.U.U.@ @ @ @ @ @ @ @ U.U.U.U.U.U.U.U.U.U.U.",
"U.U.U.U.U.U.U.U.U.U.U.U.F E T T T T T R P 7 U.U.U.U.U.U.U.U.U.U.",
"U.U.U.U.U.U.U.U.U.U.U.: | :.5.4.4.4.4.9.>.w U.U.U.U.U.U.U.U.U.U.",
"U.U.U.U.U.U.U.U.U.U.U.: ] 0.z.j.j.j.d.V.M.l U.U.U.U.U.U.U.U.U.U.",
"U.U.U.U.U.U.U.U.U.U.U.: ] q.x.k.k.k.g.C.N.l U.U.U.U.U.U.U.U.U.U.",
"U.U.U.U.U.U.U.U.U.U.U.: ] q.x.k.k.k.k.v.t.d U.U.U.U.U.U.U.U.U.U.",
"U.U.U.U.U.U.U.U.U.U.U.: ( 0.x.k.k.k.j.n.p.h U.U.U.U.U.U.U.U.U.U.",
"U.U.U.U.U.U.U.U.U.U.U.: o.y.x.k.k.k.g.B.m.j U.U.) X.0 U.U.U.U.U.",
"U.U.U.U.U.U.U.U.U.U.U.2 %.i.z.k.k.k.z.a.7.s U.r 2.L.M U.U.U.U.U.",
"U.U.U.U.U.U.U.U.U.U.- U.q O.x.s.s.s.c.-.f U.  A.P.H.m U.U.U.U.U.",
"U.U.U.U.U.U.U.U.U.u N > O s D S G H J z % o . F.I.J.m U.U.U.U.U.",
"U.U.U.U.U.U.U.U.$ i Z } g B @.{ Y L Y x 8 ' 9 D.K.3.v U.U.U.U.U.",
"U.U.U.U.U.U.U.U.$ t ` u.K $.G.l.8.4.;.[ k r.K 1.S.X U.U.U.U.U.U.",
"U.U.U.U.U.U.U.U.$ y _ e.b #.Z.k.k.x.w. .s <.U # 4 U.U.U.U.U.U.U.",
"U.U.U.U.U.U.U.U.$ p C c * ..b.h.f.f.z.&.3 e U.U.U.U.U.U.U.U.U.U.",
"U.U.U.U.U.U.U.U.$ p V , O / 6.=.Q A *.,.1 U.U.U.U.U.U.U.U.U.U.U.",
"U.U.U.U.U.U.U.U.U.6 a 5 @ ~ +.I < U.W ! : U.U.U.U.U.U.U.U.U.U.U.",
"U.U.U.U.U.U.U.U.U.U.& U.% n ^ % U.U.U.+ = U.U.U.U.U.U.U.U.U.U.U.",
"U.U.U.U.U.U.U.U.U.U.U.U.= ; : U.U.U.U.U.U.U.U.U.U.U.U.U.U.U.U.U.",
"U.U.U.U.U.U.U.U.U.U.U.U.U.U.U.U.U.U.U.U.U.U.U.U.U.U.U.U.U.U.U.U.",
"U.U.U.U.U.U.U.U.U.U.U.U.U.U.U.U.U.U.U.U.U.U.U.U.U.U.U.U.U.U.U.U.",
"U.U.U.U.U.U.U.U.U.U.U.U.U.U.U.U.U.U.U.U.U.U.U.U.U.U.U.U.U.U.U.U.",
"U.U.U.U.U.U.U.U.U.U.U.U.U.U.U.U.U.U.U.U.U.U.U.U.U.U.U.U.U.U.U.U.",
"U.U.U.U.U.U.U.U.U.U.U.U.U.U.U.U.U.U.U.U.U.U.U.U.U.U.U.U.U.U.U.U.",
"U.U.U.U.U.U.U.U.U.U.U.U.U.U.U.U.U.U.U.U.U.U.U.U.U.U.U.U.U.U.U.U."
};
