/* XPM */
static char *result[] = {
/* columns rows colors chars-per-pixel */
"32 32 167 2 ",
"   c #151414",
".  c #1D1B1A",
"X  c #1E1C1B",
"o  c #1E1C1C",
"O  c #1F1D1C",
"+  c #1F1E1D",
"@  c #25211E",
"#  c #212020",
"$  c #212120",
"%  c #202121",
"&  c #202223",
"*  c #222222",
"=  c #232322",
"-  c #232323",
";  c #232324",
":  c #232425",
">  c gray14",
",  c #252525",
"<  c #242526",
"1  c #242627",
"2  c #252727",
"3  c #262726",
"4  c #2E2A27",
"5  c #212629",
"6  c #272828",
"7  c #272A29",
"8  c #25292B",
"9  c #26292A",
"0  c #27292B",
"q  c #272A2B",
"w  c #272A2C",
"e  c #282A29",
"r  c #282B2C",
"t  c #282B2D",
"y  c #292B2D",
"u  c #342E2A",
"i  c #362F2A",
"p  c #2C302F",
"a  c #3D332C",
"s  c #3E342D",
"d  c #3F362F",
"f  c #2A2E30",
"g  c #2B2F30",
"h  c #2D3131",
"j  c #2E3332",
"k  c #2C3135",
"l  c #2C3237",
"z  c #2D3337",
"x  c #2E3438",
"c  c #2E3439",
"v  c #2F373A",
"b  c #313130",
"n  c #303434",
"m  c #353535",
"M  c #32393C",
"N  c #32393D",
"B  c #31393F",
"V  c #343B3F",
"C  c #393939",
"Z  c #3B3B3A",
"A  c #3F3E3E",
"S  c #433C36",
"D  c #483C32",
"F  c #483C33",
"G  c #323B41",
"H  c #323C40",
"J  c #323C41",
"K  c #353E42",
"L  c #363F43",
"P  c #3A4442",
"I  c #36424A",
"U  c #38454B",
"Y  c #3E4F57",
"T  c #3F4F5B",
"R  c #4B4C4C",
"E  c #414F55",
"W  c #435050",
"Q  c #425157",
"!  c #44535A",
"~  c #43535F",
"^  c #47555C",
"/  c #46565D",
"(  c #46565E",
")  c #4A5B58",
"_  c #4A5B5F",
"`  c gray34",
"'  c #56595A",
"]  c #5C5B5B",
"[  c #435561",
"{  c #445561",
"}  c #445663",
"|  c #455763",
" . c #485A65",
".. c #485C6A",
"X. c #4A5E6C",
"o. c #4E616B",
"O. c #4E636F",
"+. c #596064",
"@. c #50646E",
"#. c #52666F",
"$. c #526771",
"%. c #506674",
"&. c #516777",
"*. c #516877",
"=. c #556B74",
"-. c #526A79",
";. c #526A7A",
":. c #58707B",
">. c #686563",
",. c #6C6D6D",
"<. c #6F6F6E",
"1. c #7C7B7B",
"2. c #5C7889",
"3. c #5F7B8A",
"4. c #607B88",
"5. c #617D8A",
"6. c #617D8B",
"7. c #627E8B",
"8. c #6B8B86",
"9. c #638191",
"0. c #648291",
"q. c #658391",
"w. c #658492",
"e. c #668595",
"r. c #678695",
"t. c #678696",
"y. c #688796",
"u. c #698998",
"i. c #6A8998",
"p. c #6A8A99",
"a. c #6A8B9A",
"s. c #6C8C9C",
"d. c #6C8D9D",
"f. c #6D8E9D",
"g. c #6F919B",
"h. c #739592",
"j. c #7BA19B",
"k. c #6F91A1",
"l. c #779BA4",
"z. c #818283",
"x. c #868585",
"c. c #888787",
"v. c #8D8D8C",
"b. c #8D8D8D",
"n. c gray59",
"m. c #A3A3A2",
"M. c #A5A5A5",
"N. c #A7A7A7",
"B. c #A9A8A8",
"V. c gray71",
"C. c #B7B7B7",
"Z. c #B9B9B9",
"A. c gray",
"S. c gray77",
"D. c #C7C7C8",
"F. c #C8C8C8",
"G. c #CACACA",
"H. c #DFDFDF",
"J. c #E4E4E4",
"K. c gray90",
"L. c gray92",
"P. c #F4F4F4",
"I. c #F6F6F6",
"U. c gray97",
"Y. c #F8F8F8",
"T. c gray98",
"R. c None",
/* pixels */
"R.R.R.R.R.R.R.R.R.R.R.R.R.R.R.R.R.R.R.R.R.R.R.R.R.R.R.R.R.R.R.R.",
"R.R.R.R.R.R.R.R.R.R.R.R.R.R.R.R.R.R.R.R.R.R.R.R.R.R.R.R.R.R.R.R.",
"R.R.R.R.R.R.R.R.R.R.R.R.R.R.R.R.R.R.R.R.R.R.R.R.R.R.R.R.R.R.R.R.",
"R.R.R.R.R.R.R.R.R.R.R.R.R.R.R.R.R.R.R.R.R.R.R.R.R.R.R.R.R.R.R.R.",
"R.R.R.R.R.R.R.R.R.R.R.R.R.R.R.R.R.R.R.R.R.R.R.R.R.R.R.R.R.R.R.R.",
"R.R.R.R.R.R.R.R.R.R.R.R.R.R.R.R.R.R.R.R.R.R.R.R.R.R.R.R.R.R.R.R.",
"R.R.R.R.R.R.R.R.R.R.R.R.R.R.R.R.R.R.R.R.R.R.R.R.R.R.R.R.R.R.R.R.",
"R.R.R.R.R.R.R.R.R.R.R.R.R.R.R.R.R.R.R.R.R.R.R.R.R.R.R.R.R.R.R.R.",
"R.R.R.R.R.R.R.R.R.R.R.R.R.O O O O O O O R.R.R.R.R.R.R.R.R.R.R.R.",
"R.R.R.R.R.R.R.R.R.R.R.R.k c x x x x x x z R.R.R.R.R.R.R.R.R.R.R.",
"R.R.R.R.R.R.R.R.R.R.R.t { ;.*.*.*.*.&.-.O.r R.R.R.R.R.R.R.R.R.R.",
"R.R.R.R.R.R.R.R.R.R.q | 3.y.r.r.r.r.e.g.h.h R.R.R.R.R.R.R.R.R.R.",
"R.R.R.R.R.R.R.R.R.R.w X.9.f.f.f.f.f.d.l.j.j R.R.R.R.R.R.R.R.R.R.",
"R.R.R.R.R.R.R.R.R.R.q ..0.:.Q ! / ( / _ ) 7 R.R.R.R.R.R.R.R.R.R.",
"R.R.R.R.R.R.R.R.R.R.t %.t.@.V N $ + o e P 2 R.R.R.R.R.R.R.R.R.R.",
"R.R.R.R.R.R.R.R.R.R.f 6.s.i.p.7.M ; : W 8.p R.R.R.R.R.R.R.R.R.R.",
"R.R.R.R.R.R.R.R.R.R.f 5.a.i.a.u.5.N E =.n 3 , , > * R.R.R.R.R.R.",
"R.R.R.R.R.R.R.R.R.R.R.L K $.k.w.U & 5 +.V.Z.C.A.b.> R.R.R.R.R.R.",
"R.R.R.R.R.R.R.R.R.R.R.. X v Y ^ z.v.c.B.P.I.Y.D.,.> R.R.R.R.R.R.",
"R.R.R.R.R.R.R.R.R.R.R.L 0 A ] <.K.T.T.H.M.m.N.>.@ * R.R.R.R.R.R.",
"R.R.R.R.R.R.R.R.R.R.g 4.H x.U.L.G.S.G.n.6 y 1 d D = R.R.R.R.R.R.",
"R.R.R.R.R.R.R.R.R.R.g 4.J 1.J.F.R m C b 9 ~ l a F = R.R.R.R.R.R.",
"R.R.R.R.R.R.R.R.R.R.R.K 0 Z ` ' #.[ T I < x S s 4 R.R.R.R.R.R.R.",
"R.R.R.R.R.R.R.R.R.R.R.R.# R.  8 q.2.} B * # i u R.R.R.R.R.R.R.R.",
"R.R.R.R.R.R.R.R.R.R.R.R.R.R.R.r o. .G + * * % R.R.R.R.R.R.R.R.R.",
"R.R.R.R.R.R.R.R.R.R.R.R.R.R.R.* ; - R.R.R.R.R.R.R.R.R.R.R.R.R.R.",
"R.R.R.R.R.R.R.R.R.R.R.R.R.R.R.R.R.R.R.R.R.R.R.R.R.R.R.R.R.R.R.R.",
"R.R.R.R.R.R.R.R.R.R.R.R.R.R.R.R.R.R.R.R.R.R.R.R.R.R.R.R.R.R.R.R.",
"R.R.R.R.R.R.R.R.R.R.R.R.R.R.R.R.R.R.R.R.R.R.R.R.R.R.R.R.R.R.R.R.",
"R.R.R.R.R.R.R.R.R.R.R.R.R.R.R.R.R.R.R.R.R.R.R.R.R.R.R.R.R.R.R.R.",
"R.R.R.R.R.R.R.R.R.R.R.R.R.R.R.R.R.R.R.R.R.R.R.R.R.R.R.R.R.R.R.R.",
"R.R.R.R.R.R.R.R.R.R.R.R.R.R.R.R.R.R.R.R.R.R.R.R.R.R.R.R.R.R.R.R."
};
