/* XPM */
static char *result[] = {
/* columns rows colors chars-per-pixel */
"32 32 163 2 ",
"   c #131313",
".  c #1E1C1B",
"X  c gray11",
"o  c #1D1D1C",
"O  c #1E1C1C",
"+  c #1E1D1C",
"@  c #1F1D1C",
"#  c #1F1E1D",
"$  c #1F1E1E",
"%  c #1E1F1F",
"&  c gray12",
"*  c #201F1F",
"=  c #20201F",
"-  c #21201F",
";  c #212020",
":  c #212120",
">  c #222121",
",  c #222222",
"<  c #222223",
"1  c #222323",
"2  c #232323",
"3  c #232324",
"4  c #232424",
"5  c gray14",
"6  c #252525",
"7  c #252626",
"8  c #252627",
"9  c #262829",
"0  c #272A29",
"q  c #272A2B",
"w  c #262A2C",
"e  c #272A2C",
"r  c #282B2C",
"t  c #282B2D",
"y  c #2A2E30",
"u  c #2B2F30",
"i  c #282E32",
"p  c #2D3131",
"a  c #2D3133",
"s  c #2D3232",
"d  c #2E3332",
"f  c #293134",
"g  c #2C3135",
"h  c #2D3337",
"j  c #2E3438",
"k  c #2E3439",
"l  c #2E373B",
"z  c #2F373D",
"x  c #353535",
"c  c #373737",
"v  c #32383C",
"b  c #32393C",
"n  c #32393D",
"m  c #323A3D",
"M  c #333A3E",
"N  c #343B3F",
"B  c gray22",
"V  c #3A3A3A",
"C  c #353D41",
"Z  c #353E42",
"A  c #363E42",
"S  c #363F43",
"D  c #384240",
"F  c #384246",
"G  c #364048",
"H  c #394348",
"J  c #3B454B",
"K  c #39454D",
"L  c #3F4C52",
"P  c #454444",
"I  c gray28",
"U  c gray29",
"Y  c #4D4C4C",
"T  c #404E54",
"R  c #425157",
"E  c #455454",
"W  c #44535A",
"Q  c #45555C",
"!  c #46555D",
"~  c #46565D",
"^  c #46565E",
"/  c #46575E",
"(  c #47585F",
")  c #4A5B58",
"_  c #4A5B5F",
"`  c #5A5959",
"'  c #5B5B5B",
"]  c #445561",
"[  c #455763",
"{  c #485C6A",
"}  c #4A5E6C",
"|  c #4E626B",
" . c #4E636F",
".. c #556166",
"X. c #50646E",
"o. c #526771",
"O. c #506674",
"+. c #516777",
"@. c #516877",
"#. c #526A79",
"$. c #526A7A",
"%. c #58707B",
"&. c #59717D",
"*. c #59727D",
"=. c #656565",
"-. c gray42",
";. c #767676",
":. c gray48",
">. c #5F7A86",
",. c #5E7A87",
"<. c #5F7B88",
"1. c #5F7B8A",
"2. c #617D8A",
"3. c #617D8B",
"4. c #627E8B",
"5. c #63808B",
"6. c #638191",
"7. c #648291",
"8. c #668595",
"9. c #678695",
"0. c #678696",
"q. c #688795",
"w. c #688796",
"e. c #698998",
"r. c #6A8998",
"t. c #6A8A99",
"y. c #6A8B9A",
"u. c #6C8C9C",
"i. c #6C8D9D",
"p. c #6D8E9D",
"a. c #6E8F9F",
"s. c #6F919B",
"d. c #739592",
"f. c #749693",
"g. c #7BA19B",
"h. c #779BA4",
"j. c gray53",
"k. c #898888",
"l. c #8A8989",
"z. c gray55",
"x. c #9F9F9F",
"c. c #A0A0A0",
"v. c #A2A2A2",
"b. c #A4A4A3",
"n. c #ACACAC",
"m. c gray68",
"M. c #B3B2B2",
"N. c #B6B6B6",
"B. c #B9B9B9",
"V. c gray",
"C. c gray77",
"Z. c #C5C5C5",
"A. c gray79",
"S. c gray80",
"D. c gray89",
"F. c #E7E7E7",
"G. c #F4F4F4",
"H. c gray96",
"J. c #F6F6F6",
"K. c #F8F8F8",
"L. c #F9F9F9",
"P. c gray98",
"I. c None",
/* pixels */
"I.I.I.I.I.I.I.I.I.I.I.I.I.I.I.I.I.I.I.I.I.I.I.I.I.I.I.I.I.I.I.I.",
"I.I.I.I.I.I.I.I.I.I.I.I.I.I.I.I.I.I.I.I.I.I.I.I.I.I.I.I.I.I.I.I.",
"I.I.I.I.I.I.I.I.I.I.I.I.I.I.I.I.I.I.I.I.I.I.I.I.I.I.I.I.I.I.I.I.",
"I.I.I.I.I.I.I.I.I.I.I.I.I.I.I.I.I.I.I.I.I.I.I.I.I.I.I.I.I.I.I.I.",
"I.I.I.I.I.I.I.I.I.I.I.I.I.I.I.I.I.I.I.I.I.I.I.I.I.I.I.I.I.I.I.I.",
"I.I.I.I.I.I.I.I.I.I.I.I.I.I.I.I.I.I.I.I.I.I.I.I.I.I.I.I.I.I.I.I.",
"I.I.I.I.I.I.I.I.I.I.I.I.I.I.I.I.I.I.I.I.I.I.I.I.I.I.I.I.I.I.I.I.",
"I.I.I.I.I.I.I.I.I.I.I.I.I.I.I.I.I.I.I.I.I.I.I.I.I.I.I.I.I.I.I.I.",
"I.I.I.I.I.I.I.I.I.I.I.I.I.@ @ @ @ @ @ @ I.I.I.I.I.I.I.I.I.I.I.I.",
"I.I.I.I.I.I.I.I.I.I.I.I.g k j j j j j j h I.I.I.I.I.I.I.I.I.I.I.",
"I.I.I.I.I.I.I.I.I.I.I.t ] $.@.@.@.@.+.#. .r I.I.I.I.I.I.I.I.I.I.",
"I.I.I.I.I.I.I.I.I.I.q [ 1.w.9.9.9.9.8.s.d.p I.I.I.I.I.I.I.I.I.I.",
"I.I.I.I.I.I.I.I.I.I.e } 6.p.p.p.p.p.i.h.g.d I.I.I.I.I.I.I.I.I.I.",
"I.I.I.I.I.I.I.I.I.I.q { 7.%.R W ~ ^ ~ _ ) 0 I.I.I.I.I.I.I.I.I.I.",
"I.I.I.I.I.I.I.I.I.I.t O.0.X.N n : # O 0 D 7 I.I.I.I.I.I.I.I.I.I.",
"I.I.I.I.I.I.I.I.I.I.y 3.u.r.t.4.v 3 3 E f.s I.I.I.I.I.I.I.I.I.I.",
"I.I.I.I.I.I.I.I.I.I.y 2.y.r.y.e.4.m L q.5.u I.I.6 6 6 6 5 , I.I.",
"I.I.I.I.I.I.I.I.I.I.I.S Z o.a.p.i.A ( ,.l %   ;.B.N.N.V.-.X I.I.",
"I.I.I.I.I.I.I.I.I.I.I.$ + M / W Q w f ..k.z.j.V.L.J.G.m.=.I.I.I.",
"I.I.I.I.I.I.I.I.I.I.I., , * 9 b 2 Y ' l.H.K.P.S.x.v.c.U I.I.I.I.",
"I.I.I.I.I.I.I.I.I.I.I., , $ F <.a M.K.D.Z.C.A.:.& 6 6 I.I.I.I.I.",
"I.I.I.I.I.I.I.I.I.I.I., 2 ; H <.a b.F.n.V c B x I.I.I.I.I.I.I.I.",
"I.I.I.I.I.I.I.I.I.I.I.2 ! *.| C 8 I ` P & I.I.I.I.I.I.I.I.I.I.I.",
"I.I.I.I.I.I.I.I.I.I.I.4 &.>.J = > o i z < I.I.I.I.I.I.I.I.I.I.I.",
"I.I.I.I.I.I.I.I.I.I.I.2 ^ T . , , - G K 1 I.I.I.I.I.I.I.I.I.I.I.",
"I.I.I.I.I.I.I.I.I.I.I., 2 I.I.I.I.I.I.1 , I.I.I.I.I.I.I.I.I.I.I.",
"I.I.I.I.I.I.I.I.I.I.I.I.I.I.I.I.I.I.I.I.I.I.I.I.I.I.I.I.I.I.I.I.",
"I.I.I.I.I.I.I.I.I.I.I.I.I.I.I.I.I.I.I.I.I.I.I.I.I.I.I.I.I.I.I.I.",
"I.I.I.I.I.I.I.I.I.I.I.I.I.I.I.I.I.I.I.I.I.I.I.I.I.I.I.I.I.I.I.I.",
"I.I.I.I.I.I.I.I.I.I.I.I.I.I.I.I.I.I.I.I.I.I.I.I.I.I.I.I.I.I.I.I.",
"I.I.I.I.I.I.I.I.I.I.I.I.I.I.I.I.I.I.I.I.I.I.I.I.I.I.I.I.I.I.I.I.",
"I.I.I.I.I.I.I.I.I.I.I.I.I.I.I.I.I.I.I.I.I.I.I.I.I.I.I.I.I.I.I.I."
};
