/* XPM */
static char *result[] = {
/* columns rows colors chars-per-pixel */
"32 32 161 2 ",
"   c #171818",
".  c #191818",
"X  c #191919",
"o  c gray10",
"O  c #1C1B1A",
"+  c #1D1C1B",
"@  c #1E1C1B",
"#  c #1D1D1D",
"$  c #1E1C1C",
"%  c #1F1D1C",
"&  c #1F1E1D",
"*  c #1D1D1E",
"=  c #20201F",
"-  c #24211F",
";  c #202020",
":  c #212020",
">  c #212120",
",  c gray13",
"<  c #212122",
"1  c #222222",
"2  c #232322",
"3  c #232324",
"4  c #232424",
"5  c #232527",
"6  c #242425",
"7  c #252626",
"8  c #2D2A27",
"9  c #2E2A27",
"0  c #262728",
"q  c #272A29",
"w  c #272A2B",
"e  c #262A2C",
"r  c #272A2C",
"t  c #282828",
"y  c gray16",
"u  c #282B2C",
"i  c #282B2D",
"p  c #2F2F2F",
"a  c #322C27",
"s  c #342E2A",
"d  c #382F28",
"f  c #3A312A",
"g  c #3E352E",
"h  c #2A2E30",
"j  c #2B2F30",
"k  c #2D3131",
"l  c #2D3232",
"z  c #2E3332",
"x  c #2C3135",
"c  c #2C3337",
"v  c #2D3337",
"b  c #2E3438",
"n  c #2E3439",
"m  c #353534",
"M  c gray21",
"N  c #373737",
"B  c #31393D",
"V  c #32383C",
"C  c #32393D",
"Z  c #323A3D",
"A  c #343B3F",
"S  c gray22",
"D  c #3A3A3A",
"F  c #3B3A3A",
"G  c gray24",
"H  c #483C33",
"J  c #353E42",
"K  c #363E42",
"L  c #384240",
"P  c #3B444B",
"I  c #3A4951",
"U  c #3F4C52",
"Y  c #3D4D54",
"T  c gray29",
"R  c #4C4C4C",
"E  c gray31",
"W  c #404D54",
"Q  c #425157",
"!  c #455454",
"~  c #44535A",
"^  c #43555E",
"/  c #45555D",
"(  c #46565D",
")  c #46565E",
"_  c #47585F",
"`  c #4A5B58",
"'  c #4A5B5F",
"]  c gray32",
"[  c #565555",
"{  c #575858",
"}  c #5A5959",
"|  c #5B5A59",
" . c #445561",
".. c #455763",
"X. c #485C6A",
"o. c #4A5E6C",
"O. c #4E636F",
"+. c #50646E",
"@. c #526771",
"#. c #506674",
"$. c #506775",
"%. c #516777",
"&. c #516877",
"*. c #526A79",
"=. c #526A7A",
"-. c #58707B",
";. c #616060",
":. c #706F6F",
">. c #7C7C7C",
",. c #5F7B8A",
"<. c #617D8A",
"1. c #617D8B",
"2. c #627E8B",
"3. c #64818C",
"4. c #638191",
"5. c #648291",
"6. c #668595",
"7. c #678695",
"8. c #678696",
"9. c #688795",
"0. c #688796",
"q. c #698998",
"w. c #6A8998",
"e. c #6A8A99",
"r. c #6A8B9A",
"t. c #6A8B9C",
"y. c #6C8C9C",
"u. c #6C8D9D",
"i. c #6D8E9D",
"p. c #6E8F9F",
"a. c #6F919B",
"s. c #739592",
"d. c #739693",
"f. c #7BA19B",
"g. c #779BA4",
"h. c gray51",
"j. c #828384",
"k. c #898989",
"l. c #8C8B8B",
"z. c #8D8D8D",
"x. c gray60",
"c. c #AFAFAF",
"v. c #BBBBBB",
"b. c gray77",
"n. c #C8C8C8",
"m. c #CACACA",
"M. c #DADADA",
"N. c gray86",
"B. c gainsboro",
"V. c #DDDDDD",
"C. c gray87",
"Z. c gray90",
"A. c #E7E7E7",
"S. c #E9E9E9",
"D. c #EAEAEA",
"F. c gray92",
"G. c gray94",
"H. c #F6F6F6",
"J. c #F9F9F9",
"K. c gray98",
"L. c None",
/* pixels */
"L.L.L.L.L.L.L.L.L.L.L.L.L.L.L.L.L.L.L.L.L.L.L.L.L.L.L.L.L.L.L.L.",
"L.L.L.L.L.L.L.L.L.L.L.L.L.L.L.L.L.L.L.L.L.L.L.L.L.L.L.L.L.L.L.L.",
"L.L.L.L.L.L.L.L.L.L.L.L.L.L.L.L.L.L.L.L.L.L.L.L.L.L.L.L.L.L.L.L.",
"L.L.L.L.L.L.L.L.L.L.L.L.L.L.L.L.L.L.L.L.L.L.L.L.L.L.L.L.L.L.L.L.",
"L.L.L.L.L.L.L.L.L.L.L.L.L.L.L.L.L.L.L.L.L.L.L.L.L.L.L.L.L.L.L.L.",
"L.L.L.L.L.L.L.L.L.L.L.L.L.L.L.L.L.L.L.L.L.L.L.L.L.L.L.L.L.L.L.L.",
"L.L.L.L.L.L.L.L.L.L.L.L.L.L.L.L.L.L.L.L.L.L.L.L.L.L.L.L.L.L.L.L.",
"L.L.L.L.L.L.L.L.L.L.L.L.L.L.L.L.L.L.L.L.L.L.L.L.L.L.L.L.L.L.L.L.",
"L.L.L.L.L.L.L.L.L.L.L.L.L.% % % % % % % L.L.L.L.L.L.L.L.L.L.L.L.",
"L.L.L.L.L.L.L.L.L.L.L.L.x n b b b b b b v L.L.L.L.L.L.L.L.L.L.L.",
"L.L.L.L.L.L.L.L.L.L.L.i  .=.&.&.&.&.%.*.O.u L.L.L.L.L.L.L.L.L.L.",
"L.L.L.L.L.L.L.L.L.L.w ..,.0.7.7.7.7.6.a.s.k L.L.L.L.L.L.L.L.L.L.",
"L.L.L.L.L.L.L.L.L.L.r o.4.i.i.i.i.i.u.g.f.z L.L.L.L.L.L.L.L.L.L.",
"L.L.L.L.L.L.L.L.L.L.w X.5.-.Q ~ ( ) ( ' ` q L.L.L.L.L.L.L.L.L.L.",
"L.L.L.L.L.L.L.L.L.L.i #.8.+.A C > & $ q L 7 L.L.L.L.L.L.L.L.L.L.",
"L.L.L.L.L.L.L.L.L.L.h 1.y.w.e.2.V 3 3 ! d.l L.L.L.L.L.L.L.L.L.L.",
"L.L.L.L.L.L.L.L.L.L.h <.r.w.r.q.2.Z U 9.3.j L.L.L.L.L.L.L.L.L.L.",
"L.L.L.L.L.L.L.L.L.L.L.K J @.p.i.u.K ( t.$.5 . X X o , L.L.L.L.L.",
"L.L.L.L.L.L.L.L.L.L.L.L.@ Z _ ) / e c I P j.l.k.z.h.p L.L.L.L.L.",
"L.L.L.L.L.L.L.L.L.L.L.L.: = & O + R ;.| :.Z.K.J.A.c.D L.L.L.L.L.",
"L.L.L.L.L.L.L.L.L.L.L.L.h 0 y D G v.H.G.F.m.b.m.x.t L.L.L.L.L.L.",
"L.L.L.L.L.L.L.L.L.L.L.4 @.Y [ M.V.B.N.C.n.T m S M L.L.L.L.L.L.L.",
"L.L.L.L.L.L.L.L.L.L.L.4 -.^ } S.D.h.] { E 6 f a * L.L.L.L.L.L.L.",
"L.L.L.L.L.L.L.L.L.L.L.L.W B F >.>.N   - d g g s L.L.L.L.L.L.L.L.",
"L.L.L.L.L.L.L.L.L.L.L.L.L.: ; # # ; < 8 H H 9 L.L.L.L.L.L.L.L.L.",
"L.L.L.L.L.L.L.L.L.L.L.L.L.L.L.1 1 L.L.1 2 2 L.L.L.L.L.L.L.L.L.L.",
"L.L.L.L.L.L.L.L.L.L.L.L.L.L.L.L.L.L.L.L.L.L.L.L.L.L.L.L.L.L.L.L.",
"L.L.L.L.L.L.L.L.L.L.L.L.L.L.L.L.L.L.L.L.L.L.L.L.L.L.L.L.L.L.L.L.",
"L.L.L.L.L.L.L.L.L.L.L.L.L.L.L.L.L.L.L.L.L.L.L.L.L.L.L.L.L.L.L.L.",
"L.L.L.L.L.L.L.L.L.L.L.L.L.L.L.L.L.L.L.L.L.L.L.L.L.L.L.L.L.L.L.L.",
"L.L.L.L.L.L.L.L.L.L.L.L.L.L.L.L.L.L.L.L.L.L.L.L.L.L.L.L.L.L.L.L.",
"L.L.L.L.L.L.L.L.L.L.L.L.L.L.L.L.L.L.L.L.L.L.L.L.L.L.L.L.L.L.L.L."
};
