/* XPM */
static char *result[] = {
/* columns rows colors chars-per-pixel */
"32 32 7 1 ",
"  c #222222",
". c #4E6474",
"X c #6A8A99",
"o c #84ADA7",
"O c #DADADA",
"+ c gray96",
"@ c None",
/* pixels */
"@@@@@@@@@@@@@@@@@@@@@@@@@@@@@@@@",
"@@@@@@@@@@@@@@@@@@@@@@@@@@@@@@@@",
"@@@@@@@@@@@@@@@@@@@@@@@@@@@@@@@@",
"@@@@@@@@@@@@@@@@@@@@@@@@@@@@@@@@",
"@@@@@@@@@@@@@@@@@@@@@@@@@@@@@@@@",
"@@@@@@@@@@@@@@@@@@@@@@@@@@@@@@@@",
"@@@@@@@@@@@@@@@@@@@@@@@@@@@@@@@@",
"@@@@@@@@@@@@@@@@@@@@@@@@@@@@@@@@",
"@@@@@@@@@@@@@@@@@@@@@@@@@@@@@@@@",
"@@@@@@@@@@@@@       @@@@@@@@@@@@",
"@@@@@@@@@@@@ ....... @@@@@@@@@@@",
"@@@@@@@@@@@ .XXXXXXo @@@@@@@@@@@",
"@@@@@@@@@@@ .XXXXXXo @@@@@@@@@@@",
"@@@@@@@@@@@ .X       @@@@@@@@@@@",
"@@@@@@@@@@@ XXXX   o @@@@@@@@@@@",
"@@@@@@@@@@@ XXXXX XX @@@@@@@@@@@",
"@@@@@@@@@@@@  XXX X. @     @@@@@",
"@@@@@@@@@@@@@    .    ++++ @@@@@",
"@@@@@@@@@@@@@ .    +++OOO @@@@@@",
"@@@@@@@@@@@@@  X ++OOO   @@@@@@@",
"@@@@@@@@@@@@@  X OO   @@@@@@@@@@",
"@@@@@@@@@@@@@ X      @@@@@@@@@@@",
"@@@@@@@@@@@@@ X  .  @@@@@@@@@@@@",
"@@@@@@@@@@@@@  @  @@@@@@@@@@@@@@",
"@@@@@@@@@@@@@@@@@@@@@@@@@@@@@@@@",
"@@@@@@@@@@@@@@@@@@@@@@@@@@@@@@@@",
"@@@@@@@@@@@@@@@@@@@@@@@@@@@@@@@@",
"@@@@@@@@@@@@@@@@@@@@@@@@@@@@@@@@",
"@@@@@@@@@@@@@@@@@@@@@@@@@@@@@@@@",
"@@@@@@@@@@@@@@@@@@@@@@@@@@@@@@@@",
"@@@@@@@@@@@@@@@@@@@@@@@@@@@@@@@@",
"@@@@@@@@@@@@@@@@@@@@@@@@@@@@@@@@"
};
