/* XPM */
static char *result[] = {
/* columns rows colors chars-per-pixel */
"32 32 184 2 ",
"   c #181615",
".  c #1B1B1A",
"X  c #1D1B1A",
"o  c #1D1B1B",
"O  c #1E1C1B",
"+  c #1D1D1D",
"@  c #1E1C1C",
"#  c #1F1E1D",
"$  c #201F1E",
"%  c #201F1F",
"&  c #20201F",
"*  c #1E1F20",
"=  c #1F2021",
"-  c gray13",
";  c #222121",
":  c #222222",
">  c #232222",
",  c #232322",
"<  c #222323",
"1  c #232323",
"2  c #232424",
"3  c #232425",
"4  c #212527",
"5  c #222527",
"6  c #262524",
"7  c #252626",
"8  c #2D2927",
"9  c #2E2A27",
"0  c #26282A",
"q  c #27292A",
"w  c #272A2A",
"e  c #272A2B",
"r  c #272A2C",
"t  c #282A2A",
"y  c #282A2B",
"u  c #2C2B2A",
"i  c #282B2C",
"p  c #292B2D",
"a  c #292C2D",
"s  c #292C2E",
"d  c #292D2E",
"f  c #2A2D2F",
"g  c gray18",
"h  c #382F28",
"j  c #3B332C",
"k  c #3D332C",
"l  c #3D342E",
"z  c #3E352E",
"x  c #2A2E30",
"c  c #2B2E30",
"v  c #2A2E31",
"b  c #282E32",
"n  c #2C2F31",
"m  c #2C3032",
"M  c #2D3133",
"N  c #2E3232",
"B  c #2E3234",
"V  c #2F3334",
"C  c #2F3534",
"Z  c #2E3635",
"A  c #2F3538",
"S  c #2F3539",
"D  c #313131",
"F  c #353535",
"G  c #373635",
"H  c #313639",
"J  c #333A3D",
"K  c #333B3E",
"L  c #323A3F",
"P  c #333B3F",
"I  c #343E3C",
"U  c gray23",
"Y  c #3C3C3C",
"T  c #453A31",
"R  c #463B34",
"E  c #493D33",
"W  c #4A3D33",
"Q  c #323A41",
"!  c #353D41",
"~  c #353E42",
"^  c #343E46",
"/  c #374044",
"(  c #374045",
")  c #384240",
"_  c #394345",
"`  c #384246",
"'  c #364148",
"]  c #364149",
"[  c #374149",
"{  c #3D4A51",
"}  c #3E4B51",
"|  c #3F4C52",
" . c #434C4F",
".. c #524C47",
"X. c #404E54",
"o. c #435259",
"O. c #42515C",
"+. c #4C5E5C",
"@. c #435460",
"#. c #475862",
"$. c #4C5E67",
"%. c #485C6A",
"&. c #495C6A",
"*. c #495D6B",
"=. c #4B5F6B",
"-. c #585F62",
";. c #50656E",
":. c #526772",
">. c #576E77",
",. c #566D78",
"<. c #556D7B",
"1. c #576F7A",
"2. c #5A7170",
"3. c #5D7773",
"4. c #577079",
"5. c #59717D",
"6. c #5A727D",
"7. c #6D6D6D",
"8. c #6F7574",
"9. c #777676",
"0. c #7A7A79",
"q. c gray49",
"w. c #577181",
"e. c #5B7480",
"r. c #597384",
"t. c #5B7684",
"y. c #5F7B88",
"u. c #5E798A",
"i. c #5F7B8A",
"p. c #617C89",
"a. c #607C8A",
"s. c #617E8B",
"d. c #627F8D",
"f. c #668380",
"g. c #63808E",
"h. c #62808F",
"j. c #638090",
"k. c #648292",
"l. c #648293",
"z. c #668593",
"x. c #678695",
"c. c #688796",
"v. c #698996",
"b. c #688897",
"n. c #698997",
"m. c #688898",
"M. c #698998",
"N. c #6A8A99",
"B. c #6B8B9A",
"V. c #6B8B9B",
"C. c #6B8C9B",
"Z. c #6C8C9C",
"A. c #6D8E9E",
"S. c #6E8F9F",
"D. c #779B96",
"F. c #789B97",
"G. c #72959E",
"H. c #73979F",
"J. c #808080",
"K. c #8B8B8A",
"L. c #8B8C8C",
"P. c #949493",
"I. c #999A9B",
"U. c #A2A2A1",
"Y. c #A4A3A3",
"T. c #A6A5A4",
"R. c #A9A8A8",
"E. c gray71",
"W. c #B7B7B7",
"Q. c #B8B7B7",
"!. c #D0CFCF",
"~. c #D2D2D2",
"^. c gainsboro",
"/. c #DFDEDE",
"(. c #DFDFDF",
"). c #E1E1E1",
"_. c #EAEAEA",
"`. c #ECECEC",
"'. c gray93",
"]. c #F4F4F4",
"[. c #F6F6F6",
"{. c #F9F9F9",
"}. c white",
"|. c None",
/* pixels */
"|.|.|.|.|.|.|.|.|.|.|.|.|.|.|.|.|.|.|.|.|.|.|.|.|.|.|.|.|.|.|.|.",
"|.|.|.|.|.|.|.|.|.|.|.|.|.|.|.|.|.|.|.|.|.|.|.|.|.|.|.|.|.|.|.|.",
"|.|.|.|.|.|.|.|.|.|.|.|.|.|.|.|.|.|.|.|.|.|.|.|.|.|.|.|.|.|.|.|.",
"|.|.|.|.|.|.|.|.|.|.|.|.|.|.|.|.|.|.|.|.|.|.|.|.|.|.|.|.|.|.|.|.",
"|.|.|.|.|.|.|.|.|.|.|.|.|.|.|.|.|.|.|.|.|.|.|.|.|.|.|.|.|.|.|.|.",
"|.|.|.|.|.|.|.|.|.|.|.|.|.|.|.|.|.|.|.|.|.|.|.|.|.|.|.|.|.|.|.|.",
"|.|.|.|.|.|.|.|.|.|.|.|.|.|.|.|.|.|.|.|.|.|.|.|.|.|.|.|.|.|.|.|.",
"|.|.|.|.|.|.|.|.|.|.|.|.|.% % % % % % % % |.|.|.|.|.|.|.|.|.|.|.",
"|.|.|.|.|.|.|.|.|.|.|.|.Q [ ' ' ' ' ' ] ^ 0 |.|.|.|.|.|.|.|.|.|.",
"|.|.|.|.|.|.|.|.|.|.|.S =.r.w.w.w.w.w.t.4.a |.|.|.|.|.|.|.|.|.|.",
"|.|.|.|.|.|.|.|.|.|.r &.h.B.N.N.N.N.M.H.F.N |.|.|.|.|.|.|.|.|.|.",
"|.|.|.|.|.|.|.|.|.|.r *.j.B.n.M.M.M.b.G.D.N |.|.|.|.|.|.|.|.|.|.",
"|.|.|.|.|.|.|.|.|.|.e %.k.;.K ! / ( / _ ) 7 |.|.|.|.|.|.|.|.|.|.",
"|.|.|.|.|.|.|.|.|.|.s <.m.1.o.| ; O @ C +.t |.|.|.|.|.|.|.|.|.|.",
"|.|.|.|.|.|.|.|.|.|.c g.A.Z.S.x.} y o I 3.w |.|.|.|.|.|.|.|.|.|.",
"|.|.|.|.|.|.|.|.|.|.x e.d.z.c.s.y.P u Y Y U Y g - |.|.|.|.|.|.|.",
"|.|.|.|.|.|.|.|.|.|.|.x p $.6.B M < J.).^.^.(.q.+ : |.|.|.|.|.|.",
"|.|.|.|.|.|.|.|.|.|.# & . 4 -.E.Q.W.~.'.`._.L...j > |.|.|.|.|.|.",
"|.|.|.|.|.|.|.|.|.J X.t 7.K.R.].[.{.W.9.q.0.F h W , |.|.|.|.|.|.",
"|.|.|.|.|.|.|.|.X ` g.B Q.}./.Y.U.T.8.Z * b 5 z E , |.|.|.|.|.|.",
"|.|.|.|.|.|.|.|.|./ 5.n P.!.I.V m f 2.f.i @.H k T , |.|.|.|.|.|.",
"|.|.|.|.|.|.|.|.|.|.d 2 D G  .p.s.a.v.>.3 q R l 6 |.|.|.|.|.|.|.",
"|.|.|.|.|.|.|.|.|.|.|.|.|.  ~ C.C.u.#.A : - 8 9 |.|.|.|.|.|.|.|.",
"|.|.|.|.|.|.|.|.|.|.|.|.|.|.L i.V.l.{ O : |.= |.|.|.|.|.|.|.|.|.",
"|.|.|.|.|.|.|.|.|.|.|.|.|.$ v O.:.,.| |.|.|.|.|.|.|.|.|.|.|.|.|.",
"|.|.|.|.|.|.|.|.|.|.|.|.|.|.: 1 2 2 |.|.|.|.|.|.|.|.|.|.|.|.|.|.",
"|.|.|.|.|.|.|.|.|.|.|.|.|.|.|.|.|.|.|.|.|.|.|.|.|.|.|.|.|.|.|.|.",
"|.|.|.|.|.|.|.|.|.|.|.|.|.|.|.|.|.|.|.|.|.|.|.|.|.|.|.|.|.|.|.|.",
"|.|.|.|.|.|.|.|.|.|.|.|.|.|.|.|.|.|.|.|.|.|.|.|.|.|.|.|.|.|.|.|.",
"|.|.|.|.|.|.|.|.|.|.|.|.|.|.|.|.|.|.|.|.|.|.|.|.|.|.|.|.|.|.|.|.",
"|.|.|.|.|.|.|.|.|.|.|.|.|.|.|.|.|.|.|.|.|.|.|.|.|.|.|.|.|.|.|.|.",
"|.|.|.|.|.|.|.|.|.|.|.|.|.|.|.|.|.|.|.|.|.|.|.|.|.|.|.|.|.|.|.|."
};
