/* XPM */
static char *result[] = {
/* columns rows colors chars-per-pixel */
"32 32 163 2 ",
"   c #191919",
".  c gray10",
"X  c #1B1A1A",
"o  c #1B1B1B",
"O  c #1C1A19",
"+  c #1E1C1B",
"@  c gray11",
"#  c #1D1C1C",
"$  c #1E1C1C",
"%  c #1F1D1C",
"&  c #1F1D1D",
"*  c #1F1E1D",
"=  c #1F1E1E",
"-  c gray12",
";  c #201F1F",
":  c #1F2021",
">  c #212120",
",  c gray13",
"<  c #222121",
"1  c #222222",
"2  c #222323",
"3  c #232323",
"4  c #232324",
"5  c #252525",
"6  c #252626",
"7  c #262829",
"8  c #272A29",
"9  c #272A2B",
"0  c #272A2C",
"q  c #282A2C",
"w  c #282B2C",
"e  c #282B2D",
"r  c #2D2D2D",
"t  c gray18",
"y  c #2A2E30",
"u  c #2B2F30",
"i  c #2D3131",
"p  c #2D3232",
"a  c #2E3332",
"s  c #2C3135",
"d  c #2D3337",
"f  c #2A3339",
"g  c #2E3438",
"h  c #2E3439",
"j  c #2D373E",
"k  c #323232",
"l  c #363737",
"z  c #373737",
"x  c #32383C",
"c  c #32393D",
"v  c #323A3D",
"b  c #30393F",
"n  c #343B3F",
"m  c gray22",
"M  c #393939",
"N  c #3A3A3A",
"B  c #3A3B3B",
"V  c #343C40",
"C  c #353E42",
"Z  c #363E42",
"A  c #384240",
"S  c #39454A",
"D  c #3A454E",
"F  c #3D484E",
"G  c #3A4951",
"H  c #3F4C52",
"J  c gray25",
"K  c #425056",
"L  c #425157",
"P  c #455454",
"I  c #435158",
"U  c #44535A",
"Y  c #45545B",
"T  c #43545C",
"R  c #44555D",
"E  c #46565D",
"W  c #46565E",
"Q  c #47585F",
"!  c #4A5B58",
"~  c #4A5B5F",
"^  c #515150",
"/  c #565656",
"(  c gray34",
")  c #585858",
"_  c #5E5C5C",
"`  c #5E5D5D",
"'  c #445561",
"]  c #455763",
"[  c #485860",
"{  c #485961",
"}  c #495B63",
"|  c #485C6A",
" . c #4A5E6C",
".. c #595F64",
"X. c #4D626C",
"o. c #4E636F",
"O. c #50646E",
"+. c #5A666C",
"@. c #526771",
"#. c #506674",
"$. c #516777",
"%. c #516876",
"&. c #516877",
"*. c #526A79",
"=. c #526A7A",
"-. c #566F7B",
";. c #58707B",
":. c #626161",
">. c #676767",
",. c DimGray",
"<. c gray44",
"1. c #5F7B8A",
"2. c #617D8A",
"3. c #617D8B",
"4. c #627E8B",
"5. c #64818C",
"6. c #638191",
"7. c #648291",
"8. c #668595",
"9. c #678695",
"0. c #678696",
"q. c #688795",
"w. c #688796",
"e. c #698998",
"r. c #6A8998",
"t. c #6A8A99",
"y. c #6A8B9A",
"u. c #6A8B9C",
"i. c #6C8C9C",
"p. c #6C8D9D",
"a. c #6D8E9D",
"s. c #6E8F9F",
"d. c #6F919B",
"f. c #739592",
"g. c #739693",
"h. c #7BA19B",
"j. c #779BA4",
"k. c #808080",
"l. c #898989",
"z. c gray54",
"x. c #8D8D8D",
"c. c gray59",
"v. c #A0A0A0",
"b. c #B4B4B4",
"n. c #C1C1C1",
"m. c #C3C3C3",
"M. c #C6C6C6",
"N. c gray78",
"B. c #CBCBCB",
"V. c gray82",
"C. c gray83",
"Z. c gray85",
"A. c gray86",
"S. c #DCDCDB",
"D. c gainsboro",
"F. c #E0DFDF",
"G. c #EFEFEF",
"H. c gray94",
"J. c #F4F4F4",
"K. c gray96",
"L. c #F8F8F8",
"P. c gray99",
"I. c None",
/* pixels */
"I.I.I.I.I.I.I.I.I.I.I.I.I.I.I.I.I.I.I.I.I.I.I.I.I.I.I.I.I.I.I.I.",
"I.I.I.I.I.I.I.I.I.I.I.I.I.I.I.I.I.I.I.I.I.I.I.I.I.I.I.I.I.I.I.I.",
"I.I.I.I.I.I.I.I.I.I.I.I.I.I.I.I.I.I.I.I.I.I.I.I.I.I.I.I.I.I.I.I.",
"I.I.I.I.I.I.I.I.I.I.I.I.I.I.I.I.I.I.I.I.I.I.I.I.I.I.I.I.I.I.I.I.",
"I.I.I.I.I.I.I.I.I.I.I.I.I.I.I.I.I.I.I.I.I.I.I.I.I.I.I.I.I.I.I.I.",
"I.I.I.I.I.I.I.I.I.I.I.I.I.I.I.I.I.I.I.I.I.I.I.I.I.I.I.I.I.I.I.I.",
"I.I.I.I.I.I.I.I.I.I.I.I.I.I.I.I.I.I.I.I.I.I.I.I.I.I.I.I.I.I.I.I.",
"I.I.I.I.I.I.I.I.I.I.I.I.I.I.I.I.I.I.I.I.I.I.I.I.I.I.I.I.I.I.I.I.",
"I.I.I.I.I.I.I.I.I.I.I.I.I.% % % % % % % I.I.I.I.I.I.I.I.I.I.I.I.",
"I.I.I.I.I.I.I.I.I.I.I.I.s h g g g g g g d I.I.I.I.I.I.I.I.I.I.I.",
"I.I.I.I.I.I.I.I.I.I.I.e ' =.&.&.&.&.$.*.o.w I.I.I.I.I.I.I.I.I.I.",
"I.I.I.I.I.I.I.I.I.I.9 ] 1.w.9.9.9.9.8.d.f.i I.I.I.I.I.I.I.I.I.I.",
"I.I.I.I.I.I.I.I.I.I.0  .6.a.a.a.a.a.p.j.h.a I.I.I.I.I.I.I.I.I.I.",
"I.I.I.I.I.I.I.I.I.I.9 | 7.;.L U E W E ~ ! 8 I.I.I.I.I.I.I.I.I.I.",
"I.I.I.I.I.I.I.I.I.I.e #.0.O.n c > * $ 8 A 6 I.I.I.I.I.I.I.I.I.I.",
"I.I.I.I.I.I.I.I.I.I.y 3.i.r.t.4.x 4 4 P g.p I.I.I.I.I.I.I.I.I.I.",
"I.I.I.I.I.I.I.I.I.I.y 2.y.r.y.e.4.v H q.5.u I.I.I.I.I.I.I.I.I.I.",
"I.I.I.I.I.I.I.I.I.I.I.Z C @.s.a.p.V Y u.%.e X         - I.I.I.I.",
"I.I.I.I.I.I.I.I.I.I.I.I.+ v Q E W { R G j : ,.x.l.z.x.J o I.I.I.",
"I.I.I.I.I.I.I.I.I.I.I.I.1 ; & = # T +._ ` :.B.P.L.H.n.) I.I.I.I.",
"I.I.I.I.I.I.I.I.I.I.I.I.< 7 q 5 m l c.K.H.G.V.m.N.b.N I.I.I.I.I.",
"I.I.I.I.I.I.I.I.I.I.I.I.= I X.M M.F.S.A.D.Z.>.k m z I.I.I.I.I.I.",
"I.I.I.I.I.I.I.I.I.I.I.I.O { -.B C.J.v.^ ( / t . I.I.I.I.I.I.I.I.",
"I.I.I.I.I.I.I.I.I.I.I.I.K } S r <.k...f @ @ - I.I.I.I.I.I.I.I.I.",
"I.I.I.I.I.I.I.I.I.I.I.3 [ F % , o X b D 2 1 I.I.I.I.I.I.I.I.I.I.",
"I.I.I.I.I.I.I.I.I.I.I.1 3 3 1 I.I.1 2 2 1 I.I.I.I.I.I.I.I.I.I.I.",
"I.I.I.I.I.I.I.I.I.I.I.I.I.I.I.I.I.I.I.I.I.I.I.I.I.I.I.I.I.I.I.I.",
"I.I.I.I.I.I.I.I.I.I.I.I.I.I.I.I.I.I.I.I.I.I.I.I.I.I.I.I.I.I.I.I.",
"I.I.I.I.I.I.I.I.I.I.I.I.I.I.I.I.I.I.I.I.I.I.I.I.I.I.I.I.I.I.I.I.",
"I.I.I.I.I.I.I.I.I.I.I.I.I.I.I.I.I.I.I.I.I.I.I.I.I.I.I.I.I.I.I.I.",
"I.I.I.I.I.I.I.I.I.I.I.I.I.I.I.I.I.I.I.I.I.I.I.I.I.I.I.I.I.I.I.I.",
"I.I.I.I.I.I.I.I.I.I.I.I.I.I.I.I.I.I.I.I.I.I.I.I.I.I.I.I.I.I.I.I."
};
