/* XPM */
static char *result[] = {
/* columns rows colors chars-per-pixel */
"32 32 174 2 ",
"   c #161514",
".  c #1D1A19",
"X  c #1D1B1A",
"o  c #1C1B1B",
"O  c #1D1D1D",
"+  c #1E1C1C",
"@  c #1F1E1E",
"#  c #201F1F",
"$  c #25211E",
"%  c #212020",
"&  c #202021",
"*  c #202121",
"=  c gray13",
"-  c #222121",
";  c #222222",
":  c #232222",
">  c #232322",
",  c #212325",
"<  c #232424",
"1  c gray14",
"2  c #252424",
"3  c #252525",
"4  c #262524",
"5  c #272625",
"6  c #252626",
"7  c gray15",
"8  c #272727",
"9  c #282726",
"0  c #2E2A27",
"q  c #212528",
"w  c #262829",
"e  c #26282A",
"r  c #26292B",
"t  c #27292B",
"y  c #272A2B",
"u  c #262A2C",
"i  c #272A2C",
"p  c #282A2A",
"a  c #292C2D",
"s  c #292C2E",
"d  c #292C2F",
"f  c #322D29",
"g  c #2D312F",
"h  c #3A322C",
"j  c #3D342E",
"k  c #2A2E30",
"l  c #2B2E30",
"z  c #2B2F30",
"x  c #2B3032",
"c  c #2D3132",
"v  c #2D3232",
"b  c #2E3232",
"n  c #2F3539",
"m  c #313232",
"M  c #353535",
"N  c #313A3E",
"B  c #333B3E",
"V  c #393939",
"C  c gray23",
"Z  c #433830",
"A  c #433931",
"S  c #453A31",
"D  c #473B32",
"F  c #483C32",
"G  c #574639",
"H  c #323A40",
"J  c #323A41",
"K  c #323C40",
"L  c #323C41",
"P  c #343D41",
"I  c #353D41",
"U  c #353E42",
"Y  c #363F44",
"T  c #343E46",
"R  c #374044",
"E  c #374045",
"W  c #384240",
"Q  c #394345",
"!  c #384146",
"~  c #364148",
"^  c #364149",
"/  c #374149",
"(  c #36424A",
")  c #38434B",
"_  c #3D494E",
"`  c #3F4C52",
"'  c #3F505C",
"]  c gray25",
"[  c #4B4C4C",
"{  c #435259",
"}  c #45555C",
"|  c #4A5B58",
" . c #545657",
".. c #585757",
"X. c #5F5F5F",
"o. c #445763",
"O. c #475A63",
"+. c #4A5B64",
"@. c #495B66",
"#. c #485C6A",
"$. c #495C6A",
"%. c #495D6B",
"&. c #4B5F6B",
"*. c #585F62",
"=. c #4F6265",
"-. c #50656E",
";. c #52666F",
":. c #546A75",
">. c #566D77",
",. c #556D7B",
"<. c #576F7A",
"1. c #577079",
"2. c #5A737E",
"3. c #676563",
"4. c #6C6D6D",
"5. c #717171",
"6. c #7C7B7B",
"7. c #7D7C7B",
"8. c #577181",
"9. c #5B7480",
"0. c #597384",
"q. c #5B7684",
"w. c #607B88",
"e. c #627F8C",
"r. c #63808E",
"t. c #62808F",
"y. c #638090",
"u. c #648292",
"i. c #668492",
"p. c #688796",
"a. c #688896",
"s. c #688897",
"d. c #698997",
"f. c #688898",
"g. c #698998",
"h. c #6A8A99",
"j. c #6A8A9A",
"k. c #6A8B9A",
"l. c #6B8B9A",
"z. c #6C8D9C",
"x. c #6D8E9E",
"c. c #6D8F9E",
"v. c #779B96",
"b. c #789B97",
"n. c #72959E",
"m. c #73979F",
"M. c #759898",
"N. c #868585",
"B. c #888787",
"V. c #8D8D8D",
"C. c #8E8E8E",
"Z. c gray59",
"A. c #A4A4A4",
"S. c #A5A5A5",
"D. c #A7A7A7",
"F. c #A9A8A8",
"G. c #B6B5B5",
"H. c #B7B7B7",
"J. c #B9B9B9",
"K. c gray",
"L. c gray77",
"P. c #C7C7C8",
"I. c #C8C8C8",
"U. c #CACACA",
"Y. c #DFDFDF",
"T. c #E4E4E4",
"R. c gray90",
"E. c gray92",
"W. c #F4F4F4",
"Q. c #F6F6F6",
"!. c gray97",
"~. c #F8F8F8",
"^. c gray98",
"/. c None",
/* pixels */
"/./././././././././././././././././././././././././././././././.",
"/./././././././././././././././././././././././././././././././.",
"/./././././././././././././././././././././././././././././././.",
"/./././././././././././././././././././././././././././././././.",
"/./././././././././././././././././././././././././././././././.",
"/./././././././././././././././././././././././././././././././.",
"/./././././././././././././././././././././././././././././././.",
"/././././././././././././.# # # # # # # # /././././././././././.",
"/./././././././././././.J / ~ ~ ~ ~ ~ ^ T e /./././././././././.",
"/././././././././././.n &.0.8.8.8.8.8.q.1.a /./././././././././.",
"/./././././././././.i $.t.l.h.h.h.h.g.m.b.b /./././././././././.",
"/./././././././././.i %.y.l.d.g.g.g.s.n.v.b /./././././././././.",
"/./././././././././.y #.u.-.B I R E R Q W 6 /./././././././././.",
"/./././././././././.s ,.f.<.{ ` - + . g | p /./././././././././.",
"/./././././././././.l r.x.z.c.i._ w d =.M.v /./././././././././.",
"/./././././././././.k 9.e.i.k.j.a.P { k.2.s /./././././././././.",
"/././././././././././.k a +.l.g.p.P } 2.c 7 3 3 1 ; /./././././.",
"/./././././././././././.@ x ! Y N , q *.G.J.H.K.V.1 /./././././.",
"/./././././././././././.= O   2 7.C.B.F.W.Q.~.P.4.1 /./././././.",
"/././././././././././.U r ] X.5.R.^.^.Y.S.A.D.3.$ ; /./././././.",
"/./././././././././.z w.K N.!.E.U.L.U.Z.8 1 9 A F > /./././././.",
"/./././././././././.z w.L 6.T.I.[ M V m ; : Z G D > /./././././.",
"/././././././././././.U t C .. .;.o.' ( 5 S G S 0 /././././././.",
"/././././././././././././.o u O.g.@.) H 4 h j f /./././././././.",
"/./././././././././././././.I >.:.B X % ; * & /././././././././.",
"/././././././././././././././.< < /././././././././././././././.",
"/./././././././././././././././././././././././././././././././.",
"/./././././././././././././././././././././././././././././././.",
"/./././././././././././././././././././././././././././././././.",
"/./././././././././././././././././././././././././././././././.",
"/./././././././././././././././././././././././././././././././.",
"/./././././././././././././././././././././././././././././././."
};
