/* XPM */
static char *result[] = {
/* columns rows colors chars-per-pixel */
"32 32 185 2 ",
"   c gray10",
".  c #1D1A19",
"X  c #1D1B1A",
"o  c #1D1D1D",
"O  c #1E1C1C",
"+  c #1F1E1D",
"@  c #1E1E1E",
"#  c gray12",
"$  c #201F1F",
"%  c #23201E",
"&  c #202021",
"*  c gray13",
"=  c #232120",
"-  c #222121",
";  c #212222",
":  c #222222",
">  c #232322",
",  c #222323",
"<  c #232323",
"1  c #242423",
"2  c #252423",
"3  c #232424",
"4  c #242425",
"5  c #252525",
"6  c #272624",
"7  c #242526",
"8  c #252626",
"9  c #282624",
"0  c #2A2725",
"q  c #2C2724",
"w  c #2F2A26",
"e  c #262829",
"r  c #26282A",
"t  c #27292A",
"y  c #272A2B",
"u  c #272A2C",
"i  c #282A2A",
"p  c #292C2D",
"a  c #292C2E",
"s  c #292C2F",
"d  c #292D2F",
"f  c #2A2D2E",
"g  c #2A2D2F",
"h  c #2D2D2D",
"j  c #312C29",
"k  c #2D312F",
"l  c #3A332D",
"z  c #292E30",
"x  c #2A2E30",
"c  c #2B2E30",
"v  c #2D3232",
"b  c #2E3232",
"n  c #2C3135",
"m  c #2C3439",
"M  c #2F3539",
"N  c #2F363B",
"B  c #343434",
"V  c #373737",
"C  c #31373A",
"Z  c #31393D",
"A  c #32393C",
"S  c #31393E",
"D  c #333B3E",
"F  c #383939",
"G  c #3A3A3A",
"H  c gray23",
"J  c #3C3C3C",
"K  c #44382F",
"L  c #4A3D33",
"P  c #323A41",
"I  c #333D42",
"U  c #343D41",
"Y  c #353D41",
"T  c #363F43",
"R  c #353E44",
"E  c #343E46",
"W  c #393E42",
"Q  c #374044",
"!  c #374045",
"~  c #384240",
"^  c #394345",
"/  c #354048",
"(  c #364148",
")  c #364149",
"_  c #374149",
"`  c #36414A",
"'  c #37424A",
"]  c #3B454A",
"[  c #39454D",
"{  c #3A464F",
"}  c #3C484E",
"|  c #3D494E",
" . c #3B4750",
".. c #3F4C52",
"X. c #425056",
"o. c #435259",
"O. c #43525A",
"+. c #44535A",
"@. c #42525D",
"#. c #4A5B58",
"$. c #555453",
"%. c #555555",
"&. c gray34",
"*. c #5F5F5F",
"=. c #425460",
"-. c #445561",
";. c #475A67",
":. c #485860",
">. c #4A5B64",
",. c #485C6A",
"<. c #495C6A",
"1. c #495D6B",
"2. c #4B5F6B",
"3. c #4E6265",
"4. c #4C606E",
"5. c #50656E",
"6. c #556D7B",
"7. c #576F7A",
"8. c #566F7F",
"9. c #577079",
"0. c #5A737F",
"q. c #717070",
"w. c gray48",
"e. c #7B7B7B",
"r. c #7C7C7C",
"t. c #577181",
"y. c #5A7380",
"u. c #5B7480",
"i. c #597384",
"p. c #5B7684",
"a. c #5F7A87",
"s. c #627F8C",
"d. c #63808E",
"f. c #63818E",
"g. c #62808F",
"h. c #638090",
"j. c #648292",
"k. c #658493",
"l. c #668492",
"z. c #688796",
"x. c #688896",
"c. c #688897",
"v. c #698997",
"b. c #688898",
"n. c #698998",
"m. c #6A8A99",
"M. c #6A8A9A",
"N. c #6A8B9A",
"B. c #6B8B9A",
"V. c #6C8D9C",
"C. c #6C8D9D",
"Z. c #6D8E9E",
"A. c #6D8F9E",
"S. c #749696",
"D. c #779B96",
"F. c #789B97",
"G. c #72959E",
"H. c #73979F",
"J. c #848484",
"K. c #8A8988",
"L. c #8B8A8A",
"P. c #979796",
"I. c #A0A0A0",
"U. c #A2A2A2",
"Y. c #A4A4A4",
"T. c #A5A5A5",
"R. c #A8A8A9",
"E. c gray67",
"W. c #B4B4B4",
"Q. c #B9B9B9",
"!. c #C5C5C5",
"~. c gray80",
"^. c gray82",
"/. c gray85",
"(. c gainsboro",
"). c #E1E1E1",
"_. c #E9E9E9",
"`. c gray92",
"'. c #ECECEC",
"]. c gray93",
"[. c gray94",
"{. c gray97",
"}. c gray98",
"|. c white",
" X c None",
/* pixels */
" X X X X X X X X X X X X X X X X X X X X X X X X X X X X X X X X",
" X X X X X X X X X X X X X X X X X X X X X X X X X X X X X X X X",
" X X X X X X X X X X X X X X X X X X X X X X X X X X X X X X X X",
" X X X X X X X X X X X X X X X X X X X X X X X X X X X X X X X X",
" X X X X X X X X X X X X X X X X X X X X X X X X X X X X X X X X",
" X X X X X X X X X X X X X X X X X X X X X X X X X X X X X X X X",
" X X X X X X X X X X X X X X X X X X X X X X X X X X X X X X X X",
" X X X X X X X X X X X X X$ $ $ $ $ $ $ $  X X X X X X X X X X X",
" X X X X X X X X X X X XP _ ( ( ( ( ( ) E r  X X X X X X X X X X",
" X X X X X X X X X X XM 2.i.t.t.t.t.t.p.9.p  X X X X X X X X X X",
" X X X X X X X X X Xu <.g.B.m.m.m.m.n.H.F.b  X X X X X X X X X X",
" X X X X X X X X X Xu 1.h.B.v.n.n.n.c.G.D.b  X X X X X X X X X X",
" X X X X X X X X X Xy ,.j.5.D Y Q ! Q ^ ~ 8  X X X X X X X X X X",
" X X X X X X X X X Xa 6.b.7.o...- O . k #.i  X X X X X X X X X X",
" X X X X X X X X X Xc d.Z.V.A.l.| e s 3.S.v  X X X X X X X X X X",
" X X X X X X X X X Xx u.s.l.N.M.x.U o.C.a.g  X X XH H H J B :  X",
" X X X X X X X X X X Xc p >.B.n.z.U +.k.4.f 1 @ *./.(.(.).U.5  X",
" X X X X X X X X X X9 K q x Q Q Y t d m W R.Q.W.!.`.'.[.Y.%. X X",
" X X X X X X X X X X2 l 0 n N 7 ..z $.L.P._.{.}.^.r.w.e.&. X X X",
" X X X X X X X X X X: & $ { @.x f.I K.|.].E.I.T.J.o      X X X X",
" X X X X X X X X X X> 6 = [ -.A 0.Z q.~.W.G * 5 5  X X X X X X X",
" X X X X X X X X X X9 L w ` 8.0.C 3 h F V  X X X X X X X X X X X",
" X X X X X X X X X X Xj % O.y.T 4 ' =./ #  X X X X X X X X X X X",
" X X X X X X X X X X X; } >.] $ : -.;.R  X X X X X X X X X X X X",
" X X X X X X X X X X X< :.X.X : <  .S +  X X X X X X X X X X X X",
" X X X X X X X X X X X: <  X X X X< , :  X X X X X X X X X X X X",
" X X X X X X X X X X X X X X X X X X X X X X X X X X X X X X X X",
" X X X X X X X X X X X X X X X X X X X X X X X X X X X X X X X X",
" X X X X X X X X X X X X X X X X X X X X X X X X X X X X X X X X",
" X X X X X X X X X X X X X X X X X X X X X X X X X X X X X X X X",
" X X X X X X X X X X X X X X X X X X X X X X X X X X X X X X X X",
" X X X X X X X X X X X X X X X X X X X X X X X X X X X X X X X X"
};
