/* XPM */
static char *result[] = {
/* columns rows colors chars-per-pixel */
"32 32 168 2 ",
"   c #141413",
".  c #1B1B1B",
"X  c #1D1A19",
"o  c #1E1C1B",
"O  c gray11",
"+  c #1D1D1C",
"@  c #1E1C1C",
"#  c #1F1D1D",
"$  c #1D1E1E",
"%  c #1E1E1E",
"&  c #1F1E1E",
"*  c gray12",
"=  c #201F1E",
"-  c #201F1F",
";  c #21201F",
":  c #212020",
">  c #212120",
",  c #222121",
"<  c #222222",
"1  c #222223",
"2  c #222323",
"3  c #232323",
"4  c #232424",
"5  c gray14",
"6  c #252525",
"7  c #252626",
"8  c #252627",
"9  c #262829",
"0  c #26282A",
"q  c #272A2B",
"w  c #22282C",
"e  c #272A2C",
"r  c #282A2A",
"t  c #292C2D",
"y  c #292C2E",
"u  c #292C2F",
"i  c #2D312F",
"p  c #272C30",
"a  c #2A2E30",
"s  c #2B2E30",
"d  c #2B2F30",
"f  c #282E32",
"g  c #2D3133",
"h  c #2D3232",
"j  c #2E3232",
"k  c #2D3337",
"l  c #2F3539",
"z  c #2E363C",
"x  c #2F383E",
"c  c #353535",
"v  c #373737",
"b  c #393736",
"n  c #30373D",
"m  c #333B3E",
"M  c #323B3F",
"N  c gray22",
"B  c #3A3A3A",
"V  c #323A40",
"C  c #323A41",
"Z  c #343D40",
"A  c #343D41",
"S  c #353D41",
"D  c #343E46",
"F  c #374044",
"G  c #374045",
"H  c #384240",
"J  c #394345",
"K  c #384247",
"L  c #394347",
"P  c #364048",
"I  c #364148",
"U  c #364149",
"Y  c #374149",
"T  c #39454D",
"R  c #3C474C",
"E  c #3C474D",
"W  c #3D494E",
"Q  c #3E4B53",
"!  c #3F4C52",
"~  c #464545",
"^  c #464747",
"/  c gray29",
"(  c #4C4C4B",
")  c #404E58",
"_  c #414F5A",
"`  c #435259",
"'  c #44545B",
"]  c #4A5B58",
"[  c #5A5959",
"{  c #5C5B5B",
"}  c #4A5B64",
"|  c #4A5C64",
" . c #4B5D66",
".. c #485C6A",
"X. c #495C6A",
"o. c #495D6B",
"O. c #4B5F6B",
"+. c #4E6265",
"@. c #4E626B",
"#. c #4B606D",
"$. c #50656E",
"%. c #556D7B",
"&. c #576F7A",
"*. c #577079",
"=. c #5A727E",
"-. c #656565",
";. c gray42",
":. c #767676",
">. c gray48",
",. c #577181",
"<. c #5B7480",
"1. c #597384",
"2. c #5B7684",
"3. c #5F7A87",
"4. c #5F7B88",
"5. c #627F8C",
"6. c #63808E",
"7. c #62808F",
"8. c #638090",
"9. c #648292",
"0. c #658493",
"q. c #668492",
"w. c #688796",
"e. c #688896",
"r. c #688897",
"t. c #698997",
"y. c #688898",
"u. c #698998",
"i. c #6A8A99",
"p. c #6A8A9A",
"a. c #6A8B9A",
"s. c #6B8B9A",
"d. c #6C8D9C",
"f. c #6C8D9D",
"g. c #6D8E9E",
"h. c #6D8F9E",
"j. c #749696",
"k. c #779B96",
"l. c #789B97",
"z. c #72959E",
"x. c #73979F",
"c. c gray53",
"v. c #8A8988",
"b. c gray55",
"n. c #8D8C8C",
"m. c #9F9F9F",
"M. c #A0A0A0",
"N. c #A2A2A2",
"B. c #A4A4A3",
"V. c #ACACAC",
"C. c gray68",
"Z. c #B3B2B2",
"A. c #B6B6B6",
"S. c #B9B9B9",
"D. c gray",
"F. c #C5C5C5",
"G. c #C6C6C6",
"H. c gray79",
"J. c gray80",
"K. c gray89",
"L. c #E7E7E7",
"P. c #F4F4F4",
"I. c gray96",
"U. c #F6F6F6",
"Y. c #F8F8F8",
"T. c #F9F9F9",
"R. c gray98",
"E. c None",
/* pixels */
"E.E.E.E.E.E.E.E.E.E.E.E.E.E.E.E.E.E.E.E.E.E.E.E.E.E.E.E.E.E.E.E.",
"E.E.E.E.E.E.E.E.E.E.E.E.E.E.E.E.E.E.E.E.E.E.E.E.E.E.E.E.E.E.E.E.",
"E.E.E.E.E.E.E.E.E.E.E.E.E.E.E.E.E.E.E.E.E.E.E.E.E.E.E.E.E.E.E.E.",
"E.E.E.E.E.E.E.E.E.E.E.E.E.E.E.E.E.E.E.E.E.E.E.E.E.E.E.E.E.E.E.E.",
"E.E.E.E.E.E.E.E.E.E.E.E.E.E.E.E.E.E.E.E.E.E.E.E.E.E.E.E.E.E.E.E.",
"E.E.E.E.E.E.E.E.E.E.E.E.E.E.E.E.E.E.E.E.E.E.E.E.E.E.E.E.E.E.E.E.",
"E.E.E.E.E.E.E.E.E.E.E.E.E.E.E.E.E.E.E.E.E.E.E.E.E.E.E.E.E.E.E.E.",
"E.E.E.E.E.E.E.E.E.E.E.E.E.- - - - - - - - E.E.E.E.E.E.E.E.E.E.E.",
"E.E.E.E.E.E.E.E.E.E.E.E.C Y I I I I I U D 0 E.E.E.E.E.E.E.E.E.E.",
"E.E.E.E.E.E.E.E.E.E.E.l O.1.,.,.,.,.,.2.*.t E.E.E.E.E.E.E.E.E.E.",
"E.E.E.E.E.E.E.E.E.E.e X.7.s.i.i.i.i.u.x.l.j E.E.E.E.E.E.E.E.E.E.",
"E.E.E.E.E.E.E.E.E.E.e o.8.s.t.u.u.u.r.z.k.j E.E.E.E.E.E.E.E.E.E.",
"E.E.E.E.E.E.E.E.E.E.q ..9.$.m S F G F J H 7 E.E.E.E.E.E.E.E.E.E.",
"E.E.E.E.E.E.E.E.E.E.y %.y.&.` ! , @ X i ] r E.E.E.E.E.E.E.E.E.E.",
"E.E.E.E.E.E.E.E.E.E.s 6.g.d.h.q.W 9 u +.j.h E.E.E.E.E.E.E.E.E.E.",
"E.E.E.E.E.E.E.E.E.E.a <.5.q.a.p.e.Z ` f.3.a E.E.E.E.E.E.E.E.E.E.",
"E.E.E.E.E.E.E.E.E.E.E.a t } s.u.w.S ' 0.#.e E.E.6 6 6 6 5 < E.E.",
"E.E.E.E.E.E.E.E.E.E.E.E.& d F F G ) Q M p $   :.S.A.A.D.;.O E.E.",
"E.E.E.E.E.E.E.E.E.E.E.E.> k n o & z w b v.n.c.D.T.U.P.C.-.E.E.E.",
"E.E.E.E.E.E.E.E.E.E.E.E.; V _ A 8 ( { b.I.Y.R.J.m.N.M./ E.E.E.E.",
"E.E.E.E.E.E.E.E.E.E.E.E.< = K 4.g Z.Y.K.G.F.H.>.* 6 6 E.E.E.E.E.",
"E.E.E.E.E.E.E.E.E.E.E.E.< - L 4.g B.L.V.B v N c E.E.E.E.E.E.E.E.",
"E.E.E.E.E.E.E.E.E.E.E.E.= E @.S 8 ~ [ ^ * % . E.E.E.E.E.E.E.E.E.",
"E.E.E.E.E.E.E.E.E.E.E.E.# | =.: < x f + < < E.E.E.E.E.E.E.E.E.E.",
"E.E.E.E.E.E.E.E.E.E.E.E.- R  .3 1 T P ; < E.E.E.E.E.E.E.E.E.E.E.",
"E.E.E.E.E.E.E.E.E.E.E.E.< 3 4 E.< 2 E.E.E.E.E.E.E.E.E.E.E.E.E.E.",
"E.E.E.E.E.E.E.E.E.E.E.E.E.E.E.E.E.E.E.E.E.E.E.E.E.E.E.E.E.E.E.E.",
"E.E.E.E.E.E.E.E.E.E.E.E.E.E.E.E.E.E.E.E.E.E.E.E.E.E.E.E.E.E.E.E.",
"E.E.E.E.E.E.E.E.E.E.E.E.E.E.E.E.E.E.E.E.E.E.E.E.E.E.E.E.E.E.E.E.",
"E.E.E.E.E.E.E.E.E.E.E.E.E.E.E.E.E.E.E.E.E.E.E.E.E.E.E.E.E.E.E.E.",
"E.E.E.E.E.E.E.E.E.E.E.E.E.E.E.E.E.E.E.E.E.E.E.E.E.E.E.E.E.E.E.E.",
"E.E.E.E.E.E.E.E.E.E.E.E.E.E.E.E.E.E.E.E.E.E.E.E.E.E.E.E.E.E.E.E."
};
