/* XPM */
static char *result[] = {
/* columns rows colors chars-per-pixel */
"32 32 82 1 ",
"  c #59341D",
". c #59351D",
"X c #59361D",
"o c #5A361D",
"O c #5B361D",
"+ c #5B371E",
"@ c #5B371F",
"# c #5B3820",
"$ c #5B3821",
"% c #5C3821",
"& c #5C3922",
"* c #5E3B24",
"= c #5E3E27",
"- c #5F3E27",
"; c #5F3F28",
": c #5E4029",
"> c #604029",
", c #60402A",
"< c #60412B",
"1 c #61412B",
"2 c #644631",
"3 c #654A35",
"4 c #6F685A",
"5 c #6F695A",
"6 c #716A5C",
"7 c #726A5D",
"8 c #726B5D",
"9 c #736B5D",
"0 c #736B5E",
"q c #736C5F",
"w c #746C5E",
"e c #746C5F",
"r c #746D5F",
"t c #756D5F",
"y c #776E62",
"u c #777165",
"i c #777166",
"p c #787165",
"a c #787265",
"s c #787166",
"d c #797266",
"f c #797366",
"g c #797267",
"h c #7A7367",
"j c #797368",
"k c #7A7368",
"l c #7A7468",
"z c #7A7469",
"x c #837D72",
"c c #837E72",
"v c #837F72",
"b c #837F73",
"n c #848074",
"m c #858074",
"M c #858174",
"N c #868074",
"B c #878174",
"V c #868175",
"C c #878175",
"Z c #878275",
"A c #878176",
"S c #878276",
"D c #878376",
"F c #878377",
"G c #888374",
"H c #888377",
"J c #888477",
"K c #898477",
"L c #888378",
"P c #888478",
"I c #888479",
"U c #898479",
"Y c #898579",
"T c #8A8579",
"R c #8A8679",
"E c #8A867A",
"W c #8B867A",
"Q c #99958C",
"! c #99958D",
"~ c #99968D",
"^ c #9C998E",
"/ c None",
/* pixels */
"////////////////////////////////",
"////////////////////////////////",
"////////////////////////////////",
"////////////////////////////////",
"////////////////////////////////",
"////////////////////////////////",
"////////////////////////////////",
"////////////////////////////////",
"////////////////////////////////",
"////////////////////////////////",
"////////////////////////////////",
"////////////////////////////////",
"////////////////////////////////",
"////////////////////////////////",
"////////////////////////////////",
"////////////////////////////////",
"////////////////////////////////",
"////////////////////////////////",
"////////////////////////////////",
"////////////////////////////////",
"////////////////////////////////",
"////////////////////////////////",
"////////////////////////////////",
"////////////;1,,>-</////////////",
"///////////+hhfddapOOO//////////",
"//////////@hhhkgggABNGXoo///////",
"//////:=*&kkllkjSSZCCVV!Qo//////",
"/////#469qwlzzlDSSSCCV!ssi./////",
"////$570eeelzDDDSSSSSS!ssiu ////",
"///2En8rttyRKDFJJHDDD!xxsiiu%///",
"///3EnmmmM^RKLPPIIJFD~cxsiiu&///",
"///3EmmMMM^WTTPYYUUU~bvcciiu&///"
};
