/* XPM */
static char *result[] = {
/* columns rows colors chars-per-pixel */
"32 32 157 2 ",
"   c #512B14",
".  c #522B14",
"X  c #522C14",
"o  c #522C15",
"O  c #532C15",
"+  c #532D15",
"@  c #593722",
"#  c #5B3924",
"$  c #5A3925",
"%  c #5A3A25",
"&  c #5B3A26",
"*  c #5C3A24",
"=  c #5C3A26",
"-  c #5D3B26",
";  c #5C3A27",
":  c #5C3C27",
">  c #5B3B28",
",  c #5C3C28",
"<  c #5C3D29",
"1  c #5E3D28",
"2  c #5E3E29",
"3  c #5C3E2B",
"4  c #5D3E2B",
"5  c #5F3F2A",
"6  c #5E3F2B",
"7  c #5F3F2B",
"8  c #5D3F2D",
"9  c #5E3F2C",
"0  c #5E412D",
"q  c #5E412E",
"w  c #5F412E",
"e  c #5F422F",
"r  c #60402C",
"t  c #60412C",
"y  c #60402D",
"u  c #60412E",
"i  c #61422E",
"p  c #60422F",
"a  c #574A40",
"s  c #5B4E44",
"d  c #5B4F44",
"f  c #5F5549",
"g  c #665D53",
"h  c #675E53",
"j  c #686055",
"k  c #696055",
"l  c #696056",
"z  c #696157",
"x  c #6C655D",
"c  c #6C665D",
"v  c #6D665D",
"b  c #6C675D",
"n  c #6E675D",
"m  c #6D665E",
"M  c #6C675E",
"N  c #6D675E",
"B  c #6D675F",
"V  c #6E675F",
"C  c #6E685F",
"Z  c #70685E",
"A  c #70685F",
"S  c #726A61",
"D  c #736F65",
"F  c #736F67",
"G  c #746D64",
"H  c #756E65",
"J  c #766E65",
"K  c #746F67",
"L  c #747067",
"P  c #757168",
"I  c #767168",
"U  c #777269",
"Y  c #77726A",
"T  c #77736A",
"R  c #78726A",
"E  c #78726B",
"W  c #79756C",
"Q  c #7A756D",
"!  c #7D7B74",
"~  c #7E7B74",
"^  c #7E7C74",
"/  c #7F7C75",
"(  c #828079",
")  c #868378",
"_  c #868478",
"`  c #878478",
"'  c #878578",
"]  c #878579",
"[  c #87857A",
"{  c #87847D",
"}  c #87857D",
"|  c #888579",
" . c #888678",
".. c #888679",
"X. c #898679",
"o. c #88857A",
"O. c #88867A",
"+. c #89867A",
"@. c #89877A",
"#. c #88867B",
"$. c #89867B",
"%. c #89877B",
"&. c #89877C",
"*. c #8A877D",
"=. c #88857E",
"-. c #8B897C",
";. c #8B897D",
":. c #8B897E",
">. c #8C8A7D",
",. c #8C8A7E",
"<. c #8C8A7F",
"1. c #8D8B7F",
"2. c #8A8880",
"3. c #8B8881",
"4. c #8B8981",
"5. c #8C8A80",
"6. c #8C8A81",
"7. c #8D8A81",
"8. c #8E8C82",
"9. c #8F8D83",
"0. c #908E83",
"q. c #908E84",
"w. c #908E85",
"e. c #918F85",
"r. c #918E86",
"t. c #918F86",
"y. c #918F87",
"u. c #929086",
"i. c #929087",
"p. c #939088",
"a. c #949288",
"s. c #959288",
"d. c #959388",
"f. c #959289",
"g. c #94918A",
"h. c #94928A",
"j. c #96938B",
"k. c #96948B",
"l. c #95938C",
"z. c #97948D",
"x. c #97958D",
"c. c #98958E",
"v. c #98968E",
"b. c #99968F",
"n. c #99978F",
"m. c #9A9890",
"M. c #9C9891",
"N. c #9C9991",
"B. c #9C9A92",
"V. c #9D9A92",
"C. c #9D9A93",
"Z. c #9D9B93",
"A. c #9E9B94",
"S. c #9F9C95",
"D. c #A09C96",
"F. c #A19D97",
"G. c None",
/* pixels */
"G.G.G.G.G.G.G.G.G.G.G.G.G.G.G.G.G.G.G.G.G.G.G.G.G.G.G.G.G.G.G.G.",
"G.G.G.G.G.G.G.G.G.G.G.G.G.G.G.G.G.G.G.G.G.G.G.G.G.G.G.G.G.G.G.G.",
"G.G.G.G.G.G.G.G.G.G.G.G.G.G.G.G.G.G.G.G.G.G.G.G.G.G.G.G.G.G.G.G.",
"G.G.G.G.G.G.G.G.G.G.G.G.G.G.G.G.G.G.G.G.G.G.G.G.G.G.G.G.G.G.G.G.",
"G.G.G.G.G.G.G.G.G.G.G.G.G.G.G.G.G.G.G.G.G.G.G.G.G.G.G.G.G.G.G.G.",
"G.G.G.G.G.G.G.G.G.G.G.G.G.G.G.G.G.G.G.G.G.G.G.G.G.G.G.G.G.G.G.G.",
"G.G.G.G.G.G.G.G.G.G.G.G.G.G.G.G.G.G.G.G.G.G.G.G.G.G.G.G.G.G.G.G.",
"G.G.G.G.G.G.G.G.G.G.G.G.G.G.G.G.G.G.G.G.G.G.G.G.G.G.G.G.G.G.G.G.",
"G.G.G.G.G.G.G.G.G.G.G.G.G.G.G.G.G.G.G.G.G.G.G.G.G.G.G.G.G.G.G.G.",
"G.G.G.G.G., 6 6 p p p p e e w w w 0 q 8 4 4 3 < > $ @ G.G.G.G.G.",
"G.G.G.G.9 *.7.7.[ [ [ [ [ [ [ [ 8.9.[ [ [ [ [ [ [ ] ] @ G.G.G.G.",
"G.G.G.4 y.6.5.[ [ [ [ [ [ [ [ [ [ [ [ [ [ [ [ [ [ [ [ r.& G.G.G.",
"G.G.G.# y.:.o.o.o.o.O.O.O.O.O.O.O.O.o.o.[ [ [ [ [ [ [ r.& G.G.G.",
"G.G.G.% i.' #.O.#.#.#.#.#.#.#.O.#.#.O.O.O.O.O.o.o.[ [ p.$ G.G.G.",
"G.G.G.; h._ #.#.#.#.#.#.$.#.#.$.#.#.#.#.#.#.0.0.O.O.) g.2 G.G.G.",
"G.G.G.: l.` | ..%.%.$.$.$.$.$.$.$.$.$.$.$.q.e.w.#.#.#.k.t G.G.G.",
"G.G.G.= z.] X. .%.%.....%.%.%.%.%.%.%.%.%.t.e.e.$.#.#.j.u G.G.G.",
"G.G.G.* n.] O...O.@.@.@.@.%.%.%.%.%.%.%.%.%.%.%.%.$.$.c.r G.G.G.",
"G.G.G.* m.;.;.%.%.%.&.%.%.&.] %.%.%.%.%.%.%.+.%.%.%.%.b.5 G.G.G.",
"G.G.G.1 m.;.;.;.&.&.&.&.&.;.;.&.&.%.;.;.;.,.,.;.%.%.%.M.2 G.G.G.",
"G.G.G.7 m.;.;.-.&.&.&.&.;.;.;.;.;.;.<.<.<.<.<.<.&.%.%.V.5 G.G.G.",
"G.G.G.r m.;.-.;.d.a.&.;.;.;.;.;.;.;.;.;.;.<.<.t.t.t.u.N.y G.G.G.",
"G.G.G.i n.-.-.;.s.f.,.;.;.;.;.;.;.;.;.;.,.,.,.t.t.A.D.G - G.G.G.",
"G.G.G.+ Z v.;.>.,.,.1.;.;.;.;.;.;.;.;.,.e.e.e.e.S.H J J O G.G.G.",
"G.G.G.+ S A C.Z.Z.B.n.n.v.x.x.x.x.x.n.n.n.n.D.D.F.J J g O G.G.G.",
"G.G.G.O n { } Q E E U R U I I I V B B N C N C C C 2.j l X G.G.G.",
"G.G.G.O 4.m v W T Y U R U I V N N N N N C C C C C 3.k z X G.G.G.",
"G.G.G.o 4.v v N N N U U U N V N N N C C C C C C C C 3.h X G.G.G.",
"G.G.G.X 3.c c N V V V N V V V N N N C C C C C C C C C =.. G.G.G.",
"G.G.G.X / c c b M N N N N N s d d C C C C C C C C C D ( . G.G.G.",
"G.G.G.. ~ c c b N N N N N N a L L f f C C C C C C V K (   G.G.G.",
"G.G.G.  ! x x c M N N N N N a N C K P C C C C C V B F ^   G.G.G."
};
