/* XPM */
static char *result[] = {
/* columns rows colors chars-per-pixel */
"32 32 161 2 ",
"   c #4F2913",
".  c #502913",
"X  c #502A13",
"o  c #502A14",
"O  c #512A14",
"+  c #512B14",
"@  c #522B14",
"#  c #522C14",
"$  c #532C14",
"%  c #502C17",
"&  c #58331D",
"*  c #5B3823",
"=  c #5B3923",
"-  c #5C3922",
";  c #5D3922",
":  c #5C3923",
">  c #5C3A23",
",  c #5C3A24",
"<  c #5C3B24",
"1  c #55473E",
"2  c #55483E",
"3  c #55483F",
"4  c #56493F",
"5  c #554A3E",
"6  c #574A3F",
"7  c #574B3F",
"8  c #604029",
"9  c #61412A",
"0  c #61412B",
"q  c #62432D",
"w  c #654934",
"e  c #574A40",
"r  c #584B40",
"t  c #594E43",
"y  c #5A4E43",
"u  c #5B4F43",
"i  c #5B4F44",
"p  c #5B4F45",
"a  c #5C5044",
"s  c #5C5146",
"d  c #5D5147",
"f  c #5C5247",
"g  c #5C5348",
"h  c #5C5349",
"j  c #5D5349",
"k  c #5E5348",
"l  c #5E554B",
"z  c #61584B",
"x  c #62594B",
"c  c #676159",
"v  c #686259",
"b  c #68625A",
"n  c #69625A",
"m  c #69635A",
"M  c #69635B",
"N  c #6A635B",
"B  c #6A645B",
"V  c #6B645B",
"C  c #6B655B",
"Z  c #6E6659",
"A  c #6C655B",
"S  c #6D655B",
"D  c #6D665B",
"F  c #6F665A",
"G  c #6F675B",
"H  c #6C655C",
"J  c #6D665C",
"K  c #70675B",
"L  c #6D6860",
"P  c #6E6860",
"I  c #6E6960",
"U  c #6E6961",
"Y  c #6F6A62",
"T  c #706A62",
"R  c #706B62",
"E  c #716B62",
"W  c #726B62",
"Q  c #726C62",
"!  c #736C62",
"~  c #736D62",
"^  c #726C63",
"/  c #736C63",
"(  c #706C64",
")  c #716C64",
"_  c #716D65",
"`  c #726E66",
"'  c #726E67",
"]  c #736F67",
"[  c #756F66",
"{  c #736F68",
"}  c #777165",
"|  c #777166",
" . c #777266",
".. c #7A7367",
"X. c #767168",
"o. c #7A746A",
"O. c #7A756B",
"+. c #79756C",
"@. c #7A756C",
"#. c #78766F",
"$. c #79766F",
"%. c #7D786D",
"&. c #7D796D",
"*. c #7E796D",
"=. c #7E7A6D",
"-. c #7E796E",
";. c #797770",
":. c #7A7770",
">. c #7A7870",
",. c #7B7870",
"<. c #7B7871",
"1. c #807B6E",
"2. c #807B6F",
"3. c #827E71",
"4. c #827E72",
"5. c #837E72",
"6. c #837F72",
"7. c #837E73",
"8. c #837F73",
"9. c #847F74",
"0. c #838073",
"q. c #848073",
"w. c #848074",
"e. c #858174",
"r. c #858175",
"t. c #85837A",
"y. c #87837D",
"u. c #898579",
"i. c #8A8579",
"p. c #89847B",
"a. c #8A857A",
"s. c #8A867A",
"d. c #8B867A",
"f. c #8A867B",
"g. c #8B877B",
"h. c #8B877D",
"j. c #8C877E",
"k. c #8D887F",
"l. c #908C81",
"z. c #908D81",
"x. c #908C82",
"c. c #908D82",
"v. c #918D82",
"b. c #918D83",
"n. c #939086",
"m. c #949187",
"M. c #959289",
"N. c #999689",
"B. c #98958C",
"V. c #98958D",
"C. c #98968D",
"Z. c #99968D",
"A. c #99968E",
"S. c #99968F",
"D. c #9C988D",
"F. c #9C998D",
"G. c #9C998E",
"H. c #9B9890",
"J. c #9C9891",
"K. c #9C9991",
"L. c None",
/* pixels */
"L.L.L.w s.w.e.e.e.r.G.s.s.s.i.a.u.u.u.u.Z.8.8.5.5. .| } - L.L.L.",
"L.L.L.q s.e.e.e.q.Z.s.s.s.g.f.d.s.s.s.g.Z.8.9.5.5.8. .} ; L.L.L.",
"L.L.L.0 s.0.q.q.m.........Z.Z.Z.Z.Z.Z.Z.4.8.9.3.5.8.} } ; L.L.L.",
"L.L.L.0 g.0.q.q.m.2.2.2.b.v.v.v.v.v.b.b.4.5.6.5.=.=.7.| - L.L.L.",
"L.L.L.9 g.0.e.Z.1.1.2.b.b.b.b.b.b.b.b.b.5.6.5.5.=.-.7.| : L.L.L.",
"L.L.L.8 g.0.D.v.v.v.v.b.b.b.b.b.b.b.b.v.6.5.5.=.*.-.*.7.> L.L.L.",
"L.L.L.8 s.F.c.c.v.v.v.v.v.v.F K K Z.Z.B.Z.4.4.*.*.-.*.&.: L.L.L.",
"L.L.L.< N.z.c.c.c.v.v.v.n.G G G x D D ~ ~ M.C.C.*.*.&.&.* L.L.L.",
"L.L.L.< l.c.c.c.c.c.Z.Z.Z.G Z x x D D ! ! ! Q Q V.A.&.%.= L.L.L.",
"L.L.L., x.x.x.H.H.H.D D D O.o.x x S S ! Q Q Q Q Q W S.S.& L.L.L.",
"L.L.L., K.J.H.^ ^ / J J S S S @.z z A Q ^ Q Q W E E E t.$ L.L.L.",
"L.L.L.$ k.Q Q ^ ^ Q A A A A r H +.z A A Q W E E E E E y.# L.L.L.",
"L.L.L.$ j.E E Q A A A A A A Q A a z 6 C C E E V V R R ,.@ L.L.L.",
"L.L.L.# h.E E E C C C C C C p C f [ e V V E E B B B T <.@ L.L.L.",
"L.L.L.# p.E E E V V C C C C i k s V X.V B B B B B N M >.+ L.L.L.",
"L.L.L.@ ,.B R R V V V V V V R R d B u B B B B B B M M >.+ L.L.L.",
"L.L.L.@ >.N N B B B B B B B B B R B R B B B M N M M M :.O L.L.L.",
"L.L.L.+ >.m M B B B B B B B B B B B B B N N N M M M m ;.o L.L.L.",
"L.L.L.O :.m m M N N M N N B B B 4 4 y N M M M M m n b ;.o L.L.L.",
"L.L.L.o ;.m m m m M M M M M M M ) ` t M M M m m n b U ;.o L.L.L.",
"L.L.L.o ;.b n m m m M M M M 3 M 3 ( t M M m n n b b U ;.X L.L.L.",
"L.L.L.X ;.b b b n n n m m M 3 M ) M Y M n b b b b U U ;.X L.L.L.",
"L.L.L.X ;.b b b b b b b b n 2 2 1 n b b b b b b U U U ;.. L.L.L.",
"L.L.L.. $.U b b b b b b b b _ ` Y b b b b b b b U U ] 7   L.L.L.",
"L.L.L.  #.P v b b b b b b b b b b b b b b b b b U ' 5 h % L.L.L.",
"L.L.L.  #.L L c b b b b b b b b b b b U U U b c L { 7 j   L.L.L.",
"L.L.L.  #.L L L L L I b b b b b b b U U I L c c ( 5 j g   L.L.L.",
"L.L.L.  #.L L L L L L c c c c c c c L L L L L ( 5 j l   L.L.L.L.",
"L.L.L.L.                                              L.L.L.L.L.",
"L.L.L.L.L.L.L.L.L.L.L.L.L.L.L.L.L.L.L.L.L.L.L.L.L.L.L.L.L.L.L.L.",
"L.L.L.L.L.L.L.L.L.L.L.L.L.L.L.L.L.L.L.L.L.L.L.L.L.L.L.L.L.L.L.L.",
"L.L.L.L.L.L.L.L.L.L.L.L.L.L.L.L.L.L.L.L.L.L.L.L.L.L.L.L.L.L.L.L."
};
