/* XPM */
static char *result[] = {
/* columns rows colors chars-per-pixel */
"32 32 184 2 ",
"   c #4D2711",
".  c #4D2812",
"X  c #4E2812",
"o  c #4E2913",
"O  c #4F2913",
"+  c #4E2A15",
"@  c #502913",
"#  c #502A13",
"$  c #502A14",
"%  c #512A14",
"&  c #512B14",
"*  c #514438",
"=  c #504439",
"-  c #514439",
";  c #524539",
":  c #524639",
">  c #51453A",
",  c #52453A",
"<  c #52453B",
"1  c #52463B",
"2  c #53463B",
"3  c #53463C",
"4  c #53473C",
"5  c #54473C",
"6  c #54473D",
"7  c #54483B",
"8  c #54483C",
"9  c #54483D",
"0  c #54493D",
"q  c #55483E",
"w  c #55493E",
"e  c #554A3E",
"r  c #564B3F",
"t  c #574A40",
"y  c #564B40",
"u  c #574C41",
"i  c #584B41",
"p  c #584D42",
"a  c #594F42",
"s  c #594F43",
"d  c #594E44",
"f  c #594F44",
"g  c #5A4F45",
"h  c #5A5044",
"j  c #5B5145",
"k  c #5B5245",
"l  c #5C5245",
"z  c #5C5246",
"x  c #5C5346",
"c  c #5D5347",
"v  c #5D5447",
"b  c #5D5348",
"n  c #5F5449",
"m  c #5F564A",
"M  c #625B52",
"N  c #635B52",
"B  c #635C52",
"V  c #645D53",
"C  c #655D53",
"Z  c #635D54",
"A  c #645D54",
"S  c #655D54",
"D  c #645E54",
"F  c #655E54",
"G  c #645E55",
"H  c #655E55",
"J  c #655F55",
"K  c #665E54",
"L  c #665F55",
"P  c #655E56",
"I  c #655F56",
"U  c #665F56",
"Y  c #665F57",
"T  c #666055",
"R  c #676055",
"E  c #666056",
"W  c #676056",
"Q  c #676156",
"!  c #666057",
"~  c #666157",
"^  c #676157",
"/  c #676257",
"(  c #686156",
")  c #686157",
"_  c #686257",
"`  c #696257",
"'  c #696357",
"]  c #666058",
"[  c #676058",
"{  c #676158",
"}  c #676159",
"|  c #686158",
" . c #686258",
".. c #696258",
"X. c #696358",
"o. c #686259",
"O. c #696259",
"+. c #696359",
"@. c #69635A",
"#. c #6A625A",
"$. c #6A635A",
"%. c #6A635B",
"&. c #6A6459",
"*. c #69645A",
"=. c #69645B",
"-. c #6A645A",
";. c #6A645B",
":. c #6B645B",
">. c #6A655B",
",. c #6B645C",
"<. c #6A655C",
"1. c #6B655C",
"2. c #6B655D",
"3. c #6B665C",
"4. c #6B665D",
"5. c #6C645C",
"6. c #6C655C",
"7. c #6C655D",
"8. c #6C665D",
"9. c #6C675D",
"0. c #6C665E",
"q. c #6D665E",
"w. c #6C675E",
"e. c #6D675E",
"r. c #6C675F",
"t. c #6D675F",
"y. c #6E675F",
"u. c #6D685D",
"i. c #6D695D",
"p. c #6C685E",
"a. c #6D695E",
"s. c #6E685E",
"d. c #6E695E",
"f. c #6E685F",
"g. c #6E6A5F",
"h. c #6F6A5F",
"j. c #6D6860",
"k. c #6F6960",
"l. c #6E6961",
"z. c #6F6A60",
"x. c #6F6B60",
"c. c #6F6A62",
"v. c #706961",
"b. c #706B60",
"n. c #706A61",
"m. c #706A62",
"M. c #706A63",
"N. c #716D64",
"B. c #716D65",
"V. c #726E65",
"C. c #716E66",
"Z. c #726E66",
"A. c #736E66",
"S. c #736F66",
"D. c #726F67",
"F. c #736F67",
"G. c #746F66",
"H. c #737066",
"J. c #737067",
"K. c #747067",
"L. c #747068",
"P. c #757068",
"I. c #747168",
"U. c #757168",
"Y. c #75736B",
"T. c #76736A",
"R. c #76736B",
"E. c #76746B",
"W. c #77736C",
"Q. c #76746C",
"!. c #77746C",
"~. c #77756D",
"^. c #77756E",
"/. c #78746C",
"(. c #78756E",
"). c #78766E",
"_. c #78766F",
"`. c #79766F",
"'. c #797770",
"]. c #7A7770",
"[. c #7A7870",
"{. c #7B7971",
"}. c #7D7A73",
"|. c None",
/* pixels */
"|.|.|.& }.2.1.6.7.8.q.q.e.q.t s h y.y.y.y.y.y.y.t.w.S.[.& |.|.|.",
"|.|.|.% {.1.1.1.1.3.3.8.8.8.i A.A.n n e.e.t.t.r.8.8.S.].% |.|.|.",
"|.|.|.# [.,.%.1.,.1.1.1.8.4.A.8.e.S.G.w.9.9.8.8.S.A.Z.'.$ |.|.|.",
"|.|.|.# [.;.;.;.;.:.;.;.:.:.:.:.6.7.7.8.6.6.5.5.Z.Z.Z.'.# |.|.|.",
"|.|.|.@ `.{ { ;.;.;.;.;.;.;.;.h p 1.:.;.@.*.@.@.V.V.Z.'.# |.|.|.",
"|.|.|.O ).! ! ! $.@.@.%.%.$.q m.M.#.u @.@.@.@.@.V.V.B.`.@ |.|.|.",
"|.|.|.O ~.! ! ! ! @.@.@.@.@.3 c.r w 3 | | } } } } B.B._.O |.|.|.",
"|.|.|.O W.Y Y ! U U @.O.+.O.9 l.l.l.6 { { { { { } B.B._.O |.|.|.",
"|.|.|.O Y.I U I I I o.o.o.o.5 4 r A f.H P { { { { p.B._.O |.|.|.",
"|.|.|.X Y.I I I I I o.o.o.M r.r.j.G Z G I ! [ [ { { N.).O |.|.|.",
"|.|.|.X J.I I I I J y y A D D A A D G G I G ! ] ] Y { (.O |.|.|.",
"|.|.|.X D.I J J H y P.K.1.1.A A , < 1 A J G ! ! ! ] [ ^.O |.|.|.",
"|.|.|.X Z.J H H g v.:.-.<.>.=.; r.r.e.A H J E ! ! ! ! ^.o |.|.|.",
"|.|.|.X Z.H H H f K.;.>.>.>.; N D 8 2 G H H U E ! ! ! ~.o |.|.|.",
"|.|.|.X C.H H d d K.-.>.D D w.- D w.w.D G Z U U E I I ~.o |.|.|.",
"|.|.|.|.X < < u U.-.>.>.D D J 8.- = , D D D D U U H J ~.X |.|.|.",
"|.|.|.|.. < H.F.>.>.>.;.S C F F 8.0.w.D D D D D U o.O.!.X |.|.|.",
"|.|.|.|.. < F.D >.;.-.V C F F F F F F V A D D D D o.o.!.X |.|.|.",
"|.|.|.|.. /.D A V -.-.C L F 8 : L ; 2 V V V D D  . . .Q.X |.|.|.",
"|.|.|.. L.F S C K F L L L L f.* L 7 s.B V V V |  . . .E.X |.|.|.",
"|.|.|.. N.H L L L W L L L L L f.L f.L W V V V )  . .^ E.X |.|.|.",
"|.|.|.. S.L L W W W L L T R R 9 ) 0 ( Q W W ) ) ) ^ ^ E.. |.|.|.",
"|.|.|.. S.W W W W W T ) W W , > ) , 5 ) ) Q ) ) W W ~ R.. |.|.|.",
"|.|.|.. S.a.W W W Q ) ) Q ' k.z._ n.n._ ) ) ( W W W W T.. |.|.|.",
"|.|.|.. I.h.W W Q ) ) _ _ ` ` .........._ _ e e W W / T.. |.|.|.",
"|.|.|.. I.z.g.Q ) ) _ ` ` X.X.X.X.X.X.....e j x  . .+.T.. |.|.|.",
"|.|.|.. I.z.z.g.h.z.u.i.X.X.X.X.X.X.X.X.e k l c a s W T.. |.|.|.",
"|.|.|.. T.z.z.g.z.z.x.b.d.&.&.X.X.X.X.e k z x v b c m T.. |.|.|.",
"|.|.|.|.. .                                       +     |.|.|.|.",
"|.|.|.|.|.|.|.|.|.|.|.|.|.|.|.|.|.|.|.|.|.|.|.|.|.|.|.|.|.|.|.|.",
"|.|.|.|.|.|.|.|.|.|.|.|.|.|.|.|.|.|.|.|.|.|.|.|.|.|.|.|.|.|.|.|.",
"|.|.|.|.|.|.|.|.|.|.|.|.|.|.|.|.|.|.|.|.|.|.|.|.|.|.|.|.|.|.|.|."
};
