/* XPM */
static char *result[] = {
/* columns rows colors chars-per-pixel */
"32 32 182 2 ",
"   c #151515",
".  c #1D1A19",
"X  c #1C1C1B",
"o  c #1E1C1B",
"O  c #1B1C1E",
"+  c gray11",
"@  c #1C1C1D",
"#  c #1E1D1C",
"$  c #1F1E1D",
"%  c #1F1E1E",
"&  c gray12",
"*  c #201F1F",
"=  c #212020",
"-  c #202121",
";  c #222121",
":  c #222222",
">  c #232322",
",  c #222323",
"<  c #232323",
"1  c #232425",
"2  c gray14",
"3  c #252525",
"4  c #242526",
"5  c #252626",
"6  c #252627",
"7  c gray15",
"8  c #2E2A27",
"9  c #262728",
"0  c #26282A",
"q  c #26292A",
"w  c #272A2B",
"e  c #272A2C",
"r  c #282A2A",
"t  c #292B2D",
"y  c #292C2D",
"u  c #292C2E",
"i  c #322C27",
"p  c #372E27",
"a  c #342E2A",
"s  c #362F2A",
"d  c #2D312F",
"f  c #3D332C",
"g  c #3E342D",
"h  c #3E352E",
"j  c #2A2E30",
"k  c #2B2E30",
"l  c #282E32",
"z  c #2C2F31",
"x  c #2C3032",
"c  c #2D3133",
"v  c #2D3232",
"b  c #2E3232",
"n  c #293034",
"m  c #2E3234",
"M  c #2C3136",
"N  c #2D3337",
"B  c #2F3437",
"V  c #2E3438",
"C  c #2F3539",
"Z  c #2F373E",
"A  c #373636",
"S  c #373737",
"D  c #393837",
"F  c #30373C",
"G  c #30393D",
"H  c #333B3E",
"J  c #343C3F",
"K  c #3A3A3A",
"L  c #433C36",
"P  c #483C33",
"I  c #493C33",
"U  c #4A3D33",
"Y  c #323A41",
"T  c #353D41",
"R  c #353E44",
"E  c #363F44",
"W  c #363F45",
"Q  c #343E46",
"!  c #343F47",
"~  c #363F46",
"^  c #374044",
"/  c #374045",
"(  c #384240",
")  c #394345",
"_  c #384146",
"`  c #364148",
"'  c #364149",
"]  c #374149",
"[  c #38434B",
"{  c #39444D",
"}  c #3F4C52",
"|  c #3F4D53",
" . c #414142",
".. c #464545",
"X. c #464646",
"o. c gray30",
"O. c #435259",
"+. c #43535F",
"@. c #4A5B58",
"#. c #5A5A59",
"$. c #5D5D5D",
"%. c #65615D",
"&. c #445561",
"*. c #465865",
"=. c #4A5B64",
"-. c #4F5E65",
";. c #4A5C68",
":. c #485C6A",
">. c #495C6A",
",. c #495D6B",
"<. c #4B5F6B",
"1. c #4F636D",
"2. c #506467",
"3. c #50656E",
"4. c #4E6573",
"5. c #506776",
"6. c #556D7B",
"7. c #576F7A",
"8. c #577079",
"9. c #5A737E",
"0. c #696968",
"q. c #6D6D6E",
"w. c #797B7C",
"e. c #577181",
"r. c #5B7480",
"t. c #597384",
"y. c #5B7684",
"u. c #5F7B88",
"i. c #627F8C",
"p. c #63808E",
"a. c #62808F",
"s. c #64818F",
"d. c #638090",
"f. c #658391",
"g. c #648292",
"h. c #668492",
"j. c #668493",
"k. c #678695",
"l. c #688897",
"z. c #698997",
"x. c #688898",
"c. c #698998",
"v. c #6A8A99",
"b. c #6B8B9A",
"n. c #6B8B9B",
"m. c #6B8C9B",
"M. c #6C8D9C",
"N. c #6D8E9E",
"B. c #6D8F9F",
"V. c #779B96",
"C. c #789B97",
"Z. c #72959E",
"A. c #73979F",
"S. c #759898",
"D. c #898787",
"F. c #898989",
"G. c #8B8A8A",
"H. c #8B8B8B",
"J. c #A0A0A0",
"K. c gray63",
"L. c #A4A4A3",
"P. c #A4A4A4",
"I. c #ACACAC",
"U. c #B2B2B2",
"Y. c #B3B2B2",
"T. c #B7B7B7",
"R. c #B9B9B8",
"E. c #BCBBBB",
"W. c gray75",
"Q. c #C1C1C1",
"!. c #C5C5C5",
"~. c #C6C6C6",
"^. c gray79",
"/. c #CDCCCC",
"(. c gray89",
"). c #E7E7E7",
"_. c #F4F4F4",
"`. c gray96",
"'. c #F6F6F6",
"]. c #F8F8F8",
"[. c gray98",
"{. c None",
/* pixels */
"{.{.{.{.{.{.{.{.{.{.{.{.{.{.{.{.{.{.{.{.{.{.{.{.{.{.{.{.{.{.{.{.",
"{.{.{.{.{.{.{.{.{.{.{.{.{.{.{.{.{.{.{.{.{.{.{.{.{.{.{.{.{.{.{.{.",
"{.{.{.{.{.{.{.{.{.{.{.{.{.{.{.{.{.{.{.{.{.{.{.{.{.{.{.{.{.{.{.{.",
"{.{.{.{.{.{.{.{.{.{.{.{.{.{.{.{.{.{.{.{.{.{.{.{.{.{.{.{.{.{.{.{.",
"{.{.{.{.{.{.{.{.{.{.{.{.{.{.{.{.{.{.{.{.{.{.{.{.{.{.{.{.{.{.{.{.",
"{.{.{.{.{.{.{.{.{.{.{.{.{.{.{.{.{.{.{.{.{.{.{.{.{.{.{.{.{.{.{.{.",
"{.{.{.{.{.{.{.{.{.{.{.{.{.{.{.{.{.{.{.{.{.{.{.{.{.{.{.{.{.{.{.{.",
"{.{.{.{.{.{.{.{.{.{.{.{.{.* * * * * * * * {.{.{.{.{.{.{.{.{.{.{.",
"{.{.{.{.{.{.{.{.{.{.{.{.Y ] ` ` ` ` ` ' Q 0 {.{.{.{.{.{.{.{.{.{.",
"{.{.{.{.{.{.{.{.{.{.{.C <.t.e.e.e.e.e.y.8.y {.{.{.{.{.{.{.{.{.{.",
"{.{.{.{.{.{.{.{.{.{.e >.a.b.v.v.v.v.c.A.C.b {.{.{.{.{.{.{.{.{.{.",
"{.{.{.{.{.{.{.{.{.{.e ,.d.b.z.c.c.c.l.Z.V.b {.{.{.{.{.{.{.{.{.{.",
"{.{.{.{.{.{.{.{.{.{.w :.g.3.H T ^ / ^ ) ( 5 {.{.{.{.{.{.{.{.{.{.",
"{.{.{.{.{.{.{.{.{.{.u 6.x.7.O.} : # . d @.r {.{.{.{.{.{.{.{.{.{.",
"{.{.{.{.{.{.{.{.{.{.k p.N.M.B.f.W 4 j 2.S.v {.{.{.{.{.{.{.{.{.{.",
"{.{.{.{.{.{.{.{.{.{.j r.i.h.n.k.5.M | s.9.u {.{.{.{.{.{.{.{.{.{.",
"{.{.{.{.{.{.{.{.{.{.{.j y =.m.j.5.V 9 m z 7 3 2 : {.{.{.{.{.{.{.",
"{.{.{.{.{.{.{.{.{.{.{.{.% x E G n O 0.E.T.R.W.q.@ : {.{.{.{.{.{.",
"{.{.{.{.{.{.{.{.{.{.{.{.+   D D.G.F.Q.].'._.U.%.i : {.{.{.{.{.{.",
"{.{.{.{.{.{.{.{.{.B J 6 o.$.H.`.].[./.J.P.K. .p U > {.{.{.{.{.{.",
"{.{.{.{.{.{.{.{.{._ u.c Y.].(.~.!.^.w.q 5 t 1 h I > {.{.{.{.{.{.",
"{.{.{.{.{.{.{.{.{._ u.c L.).I.K S A -.1.w +.N f P > {.{.{.{.{.{.",
"{.{.{.{.{.{.{.{.{.B J 6 ..#.X.& & ! 4.;.4 V L g 8 {.{.{.{.{.{.{.",
"{.{.{.{.{.{.{.{.{.{.o : Z l X ; < &.*.F : = s a {.{.{.{.{.{.{.{.",
"{.{.{.{.{.{.{.{.{.{.{., { ~ {.{., [ R $ : : - {.{.{.{.{.{.{.{.{.",
"{.{.{.{.{.{.{.{.{.{.{.: , {.{.{.: , {.{.{.{.{.{.{.{.{.{.{.{.{.{.",
"{.{.{.{.{.{.{.{.{.{.{.{.{.{.{.{.{.{.{.{.{.{.{.{.{.{.{.{.{.{.{.{.",
"{.{.{.{.{.{.{.{.{.{.{.{.{.{.{.{.{.{.{.{.{.{.{.{.{.{.{.{.{.{.{.{.",
"{.{.{.{.{.{.{.{.{.{.{.{.{.{.{.{.{.{.{.{.{.{.{.{.{.{.{.{.{.{.{.{.",
"{.{.{.{.{.{.{.{.{.{.{.{.{.{.{.{.{.{.{.{.{.{.{.{.{.{.{.{.{.{.{.{.",
"{.{.{.{.{.{.{.{.{.{.{.{.{.{.{.{.{.{.{.{.{.{.{.{.{.{.{.{.{.{.{.{.",
"{.{.{.{.{.{.{.{.{.{.{.{.{.{.{.{.{.{.{.{.{.{.{.{.{.{.{.{.{.{.{.{."
};
