/* XPM */
static char *result[] = {
/* columns rows colors chars-per-pixel */
"32 32 189 2 ",
"   c #191817",
".  c #191918",
"X  c #191919",
"o  c #1B1B1B",
"O  c #1D1A19",
"+  c #1D1B1A",
"@  c #1B1B1C",
"#  c #1D1D1C",
"$  c #1E1D1C",
"%  c #1D1D1E",
"&  c #1E1E1E",
"*  c #1F1E1E",
"=  c #201E1D",
"-  c #201F1F",
";  c #1E1F20",
":  c #212120",
">  c #222221",
",  c #222222",
"<  c #232222",
"1  c #232322",
"2  c #222323",
"3  c #232323",
"4  c #232424",
"5  c #232526",
"6  c #242526",
"7  c #252626",
"8  c #262727",
"9  c #282522",
"0  c #252728",
"q  c #26282A",
"w  c #27292A",
"e  c #272A2B",
"r  c #272A2C",
"t  c #282A2A",
"y  c #292C2D",
"u  c #292C2E",
"i  c #292D2E",
"p  c #292D2F",
"a  c #2D312F",
"s  c #37302B",
"d  c #3A312A",
"f  c #39312C",
"g  c #3D342C",
"h  c #3D342D",
"j  c #3E342D",
"k  c #3E352E",
"l  c #2A2E30",
"z  c #2B2E30",
"x  c #2B2F30",
"c  c #282E33",
"v  c #2C2F31",
"b  c #2D3232",
"n  c #2E3232",
"m  c #283137",
"M  c #2C3135",
"N  c #2E3234",
"B  c #2C3236",
"V  c #2D3337",
"C  c #2F3539",
"Z  c #2C343A",
"A  c #2D353B",
"S  c #2E363A",
"D  c #2F363C",
"F  c gray20",
"G  c gray21",
"H  c #30373B",
"J  c #373838",
"K  c #333A3D",
"L  c #303A3E",
"P  c #333B3E",
"I  c gray22",
"U  c #3D3B38",
"Y  c #483C32",
"T  c #493C33",
"R  c #493D33",
"E  c #323A40",
"W  c #323A41",
"Q  c #353D41",
"!  c #363F43",
"~  c #363F45",
"^  c #343E46",
"/  c #363F46",
"(  c #374044",
")  c #374045",
"_  c #384240",
"`  c #394345",
"'  c #384246",
"]  c #344049",
"[  c #364148",
"{  c #374148",
"}  c #364149",
"|  c #374149",
" . c #38444D",
".. c #39454D",
"X. c #3A4750",
"o. c #3B4953",
"O. c #3F4C52",
"+. c #3D4B55",
"@. c #404E54",
"#. c #435259",
"$. c #44535A",
"%. c #44545B",
"&. c #4B545A",
"*. c #49555E",
"=. c #4A5B58",
"-. c #525253",
";. c #575655",
":. c #565656",
">. c gray34",
",. c #5A5A59",
"<. c #4A5B64",
"1. c #485C6A",
"2. c #495C6A",
"3. c #495D6B",
"4. c #4B5F6B",
"5. c #5F5F60",
"6. c #4E6165",
"7. c #50656E",
"8. c #5F6569",
"9. c #506776",
"0. c #556D7B",
"q. c #576F7A",
"w. c #577079",
"e. c #59717D",
"r. c #606060",
"t. c #626262",
"y. c #6A6A6A",
"u. c #6F7070",
"i. c #767472",
"p. c #577181",
"a. c #5B7480",
"s. c #597384",
"d. c #5B7684",
"f. c #617C89",
"g. c #627E8B",
"h. c #627F8C",
"j. c #63808E",
"k. c #62808F",
"l. c #638090",
"z. c #658391",
"x. c #648292",
"c. c #668492",
"v. c #668493",
"b. c #678695",
"n. c #688897",
"m. c #698997",
"M. c #688898",
"N. c #698998",
"B. c #6A8A99",
"V. c #6B8B9A",
"C. c #6B8B9B",
"Z. c #6B8C9B",
"A. c #6C8D9C",
"S. c #6D8E9D",
"D. c #6D8E9E",
"F. c #6D8F9E",
"G. c #6D8F9F",
"H. c #739696",
"J. c #779B96",
"K. c #789B97",
"L. c #72959E",
"P. c #73979F",
"I. c #808080",
"U. c #8A8989",
"Y. c gray54",
"T. c #8D8B8A",
"R. c gray55",
"E. c #929292",
"W. c #A5A4A4",
"Q. c #ABAAAA",
"!. c #B0AFAF",
"~. c gray75",
"^. c #C3C3C3",
"/. c #C4C4C3",
"(. c #C5C5C5",
"). c LightGray",
"_. c #DADADA",
"`. c gray86",
"'. c gainsboro",
"]. c gray88",
"[. c #E3E2E2",
"{. c gray93",
"}. c gray94",
"|. c #F1F1F1",
" X c #F6F6F6",
".X c gray97",
"XX c #F8F8F8",
"oX c gray99",
"OX c None",
/* pixels */
"OXOXOXOXOXOXOXOXOXOXOXOXOXOXOXOXOXOXOXOXOXOXOXOXOXOXOXOXOXOXOXOX",
"OXOXOXOXOXOXOXOXOXOXOXOXOXOXOXOXOXOXOXOXOXOXOXOXOXOXOXOXOXOXOXOX",
"OXOXOXOXOXOXOXOXOXOXOXOXOXOXOXOXOXOXOXOXOXOXOXOXOXOXOXOXOXOXOXOX",
"OXOXOXOXOXOXOXOXOXOXOXOXOXOXOXOXOXOXOXOXOXOXOXOXOXOXOXOXOXOXOXOX",
"OXOXOXOXOXOXOXOXOXOXOXOXOXOXOXOXOXOXOXOXOXOXOXOXOXOXOXOXOXOXOXOX",
"OXOXOXOXOXOXOXOXOXOXOXOXOXOXOXOXOXOXOXOXOXOXOXOXOXOXOXOXOXOXOXOX",
"OXOXOXOXOXOXOXOXOXOXOXOXOXOXOXOXOXOXOXOXOXOXOXOXOXOXOXOXOXOXOXOX",
"OXOXOXOXOXOXOXOXOXOXOXOXOX- - - - - - - - OXOXOXOXOXOXOXOXOXOXOX",
"OXOXOXOXOXOXOXOXOXOXOXOXW | [ [ [ [ [ } ^ q OXOXOXOXOXOXOXOXOXOX",
"OXOXOXOXOXOXOXOXOXOXOXC 4.s.p.p.p.p.p.d.w.y OXOXOXOXOXOXOXOXOXOX",
"OXOXOXOXOXOXOXOXOXOXr 2.k.V.B.B.B.B.N.P.K.n OXOXOXOXOXOXOXOXOXOX",
"OXOXOXOXOXOXOXOXOXOXr 3.l.V.m.N.N.N.n.L.J.n OXOXOXOXOXOXOXOXOXOX",
"OXOXOXOXOXOXOXOXOXOXe 1.x.7.P Q ( ) ( ` _ 7 OXOXOXOXOXOXOXOXOXOX",
"OXOXOXOXOXOXOXOXOXOXu 0.M.q.#.O., $ O a =.t OXOXOXOXOXOXOXOXOXOX",
"OXOXOXOXOXOXOXOXOXOXz j.D.A.G.z.~ 6 p 6.H.b OXOXOXOXOXOXOXOXOXOX",
"OXOXOXOXOXOXOXOXOXOXl a.h.c.C.b.9.M $.F.g.z OXOXOXOXOXOXOXOXOXOX",
"OXOXOXOXOXOXOXOXOXOXOXl y <.Z.v.9.B %.S.f.l OXOXOXOXOXOXOXOXOXOX",
"OXOXOXOXOXOXOXOXOXOXOXOX* x ( ! H +.X.L S ; X & OXOXOXOXOXOXOXOX",
"OXOXOXOXOXOXOXOXOXOXOXOX: V D   . m 8.T.U.R.E.>.% OXOXOXOXOXOXOX",
"OXOXOXOXOXOXOXOXOXOXOXOX# A *.5.r.,.Q.oX.X X).i.9 , OXOXOXOXOXOX",
"OXOXOXOXOXOXOXOXOXOXi 4 F G u.{.}.|._./.(.^.-.d Y 1 OXOXOXOXOXOX",
"OXOXOXOXOXOXOXOXOX( e.v W.[.'.`.`.].Y.F J I 8 h T 1 OXOXOXOXOXOX",
"OXOXOXOXOXOXOXOX+ ' j.N !.XX~.>.:.;.&.] 5 o.c g R 1 OXOXOXOXOXOX",
"OXOXOXOXOXOXOXOXOXK @.w t.I.y.X @ Z  .E 0 { U j s OXOXOXOXOXOXOX",
"OXOXOXOXOXOXOXOXOXOX* > & o OXOX3 ../ = , : k f OXOXOXOXOXOXOXOX",
"OXOXOXOXOXOXOXOXOXOXOX, , OXOXOX, 2 OXOX, , < OXOXOXOXOXOXOXOXOX",
"OXOXOXOXOXOXOXOXOXOXOXOXOXOXOXOXOXOXOXOXOXOXOXOXOXOXOXOXOXOXOXOX",
"OXOXOXOXOXOXOXOXOXOXOXOXOXOXOXOXOXOXOXOXOXOXOXOXOXOXOXOXOXOXOXOX",
"OXOXOXOXOXOXOXOXOXOXOXOXOXOXOXOXOXOXOXOXOXOXOXOXOXOXOXOXOXOXOXOX",
"OXOXOXOXOXOXOXOXOXOXOXOXOXOXOXOXOXOXOXOXOXOXOXOXOXOXOXOXOXOXOXOX",
"OXOXOXOXOXOXOXOXOXOXOXOXOXOXOXOXOXOXOXOXOXOXOXOXOXOXOXOXOXOXOXOX",
"OXOXOXOXOXOXOXOXOXOXOXOXOXOXOXOXOXOXOXOXOXOXOXOXOXOXOXOXOXOXOXOX"
};
