/* XPM */
static char *result[] = {
/* columns rows colors chars-per-pixel */
"32 32 8 1 ",
"  c #222222",
". c #574639",
"X c #4E6474",
"o c #6A8A99",
"O c #84ADA7",
"+ c #DADADA",
"@ c gray96",
"# c None",
/* pixels */
"################################",
"################################",
"################################",
"################################",
"################################",
"################################",
"################################",
"################################",
"################################",
"#############       ############",
"############ XXXXXXX ###########",
"########### XooooooO ###########",
"########### XooooooO ###########",
"########### Xo       ###########",
"########### oooo   O ###########",
"########### ooooX oo ###########",
"############  ooX      #########",
"#############     @@@@  ########",
"###########    @@@+++ . ########",
"########## o @@+++    . ########",
"########## o ++   o X . ########",
"###########      XX  . #########",
"############ X # X    ##########",
"############  ##  ##############",
"################################",
"################################",
"################################",
"################################",
"################################",
"################################",
"################################",
"################################"
};
