/* XPM */
static char *result[] = {
/* columns rows colors chars-per-pixel */
"32 32 161 2 ",
"   c black",
".  c #000200",
"X  c #020303",
"o  c #000503",
"O  c #030907",
"+  c #060806",
"@  c #060D0B",
"#  c #080908",
"$  c #0B0B0B",
"%  c #080F0D",
"&  c #0B0F0E",
"*  c #0C0D0D",
"=  c gray5",
"-  c #0C0F0E",
";  c #0E0E0E",
":  c #0E100F",
">  c #0F1614",
",  c #101211",
"<  c gray7",
"1  c #111614",
"2  c #121715",
"3  c #131715",
"4  c #151716",
"5  c #151817",
"6  c #161817",
"7  c #181B1B",
"8  c gray11",
"9  c #1D1D1D",
"0  c #1C1F1E",
"q  c gray12",
"w  c #1F2221",
"e  c #1E2321",
"r  c #1F2322",
"t  c #202020",
"y  c #232323",
"u  c #222424",
"i  c #222524",
"p  c #252525",
"a  c #252726",
"s  c #272727",
"d  c #242927",
"f  c #252A28",
"g  c #262B29",
"h  c #252C2A",
"j  c #2A2B2B",
"k  c #292D2B",
"l  c #2B2E2D",
"z  c #2B2E2E",
"x  c #2C2C2C",
"c  c gray18",
"v  c #2F2F2F",
"b  c #2A302E",
"n  c #2D3331",
"m  c #2F3533",
"M  c #333936",
"N  c #333937",
"B  c #373D3B",
"V  c #3F3F3F",
"C  c #3A403E",
"Z  c #38433F",
"A  c #394340",
"S  c #3D4341",
"D  c #3D4844",
"F  c #3E4945",
"G  c #414644",
"H  c #414C48",
"J  c #434D4A",
"K  c gray29",
"L  c #494E4C",
"P  c #4B5451",
"I  c #505352",
"U  c #555857",
"Y  c #626564",
"T  c #666A69",
"R  c DimGray",
"E  c #6A716F",
"W  c #69726F",
"Q  c #6E706F",
"!  c #6F7875",
"~  c #717775",
"^  c #7F8382",
"/  c #7F8583",
"(  c #7D8683",
")  c #818584",
"_  c #808684",
"`  c #838B88",
"'  c #899390",
"]  c #889490",
"[  c #899490",
"{  c #8B9491",
"}  c #8A9692",
"|  c #8C9592",
" . c #8E9492",
".. c #8D9894",
"X. c #8E9995",
"o. c #8E9A96",
"O. c #8F9A96",
"+. c #909795",
"@. c #909996",
"#. c #919996",
"$. c #929896",
"%. c #929997",
"&. c #939B97",
"*. c #919B98",
"=. c #939B98",
"-. c #949B99",
";. c #969A99",
":. c #919C98",
">. c #919D99",
",. c #929C99",
"<. c #949C99",
"1. c #949D9A",
"2. c #959D9A",
"3. c #969E9B",
"4. c #969F9C",
"5. c #979F9C",
"6. c #989898",
"7. c #989F9D",
"8. c #99A19E",
"9. c #9AA09E",
"0. c #9CA2A0",
"q. c #9BA8A4",
"w. c #A1A7A5",
"e. c #A4AEAB",
"r. c #A4AFAB",
"t. c #A5AFAC",
"y. c #A2B0AB",
"u. c #A5B0AC",
"i. c #A7B0AD",
"p. c #A7B3AF",
"a. c #A8B3AF",
"s. c #AFB0B0",
"d. c #ACB3B1",
"f. c #A9B4B0",
"g. c #A9B5B1",
"h. c #ADB4B3",
"j. c #ACB7B3",
"k. c #B4BDBA",
"l. c #B6BDBB",
"z. c #B6BEBB",
"x. c #B6C0BD",
"c. c #BEC4C2",
"v. c #C6C6C6",
"b. c #C0CAC7",
"n. c #C9D1CE",
"m. c #C8D3CF",
"M. c #D4DAD8",
"N. c #D7DAD9",
"B. c #D6DFDC",
"V. c #DAE3E0",
"C. c #DCE3E1",
"Z. c #E3E6E5",
"A. c #E2E8E6",
"S. c #EAEDEC",
"D. c #EEF1F0",
"F. c gray97",
"G. c #F2F8F6",
"H. c #F7FDFB",
"J. c #FAFCFB",
"K. c #FEFFFF",
"L. c None",
/* pixels */
"L.L.L.L.L.L.L.L.L.L.L.L.L.L.L.L.L.L.L.L.L.L.L.L.L.L.L.L.L.L.L.L.",
"L.L.L.L.L.L.L.L.L.L.L.L.L.L.L.L.L.L.L.L.L.L.L.L.L.L.L.L.L.L.L.L.",
"L.L.L.L.L.L.L.L.L.L.L.L.L.L.L.L.L.L.L.L.L.L.L.L.L.L.L.L.L.L.L.L.",
"L.L.L.L.L.L.L.L.L.L.L.L.L.L.L.L.L.L.L.L.L.L.L.L.L.L.L.L.L.L.L.L.",
"L.L.L.L.L.L.L.L.L.L.L.L.L.L.L.L.L.L.L.L.L.L.L.L.L.L.L.L.L.L.L.L.",
"L.L.L.L.L.L.L.L.L.L.L.L.L.L.L.L.L.L.L.L.L.L.L.L.L.L.L.L.L.L.L.L.",
"L.L.L.L.L.L.L.L.L.L.L.L.L.L.L.L.L.L.L.L.L.L.L.L.L.L.L.L.L.L.L.L.",
"L.L.L.L.L.L.L.L.L.L.L.L.L.L.L.L.L.L.L.L.L.L.L.L.L.L.L.L.L.L.L.L.",
"L.L.L.L.L.L.L.L.L.L.L.L.L.L.L.L.L.L.L.L.L.L.L.L.L.L.L.L.L.L.L.L.",
"L.L.L.L.L.L.L.L.L.L.L.L.L.L.L.L.L.L.L.L.L.L.L.L.L.L.L.L.L.L.L.L.",
"L.L.L.L.L.L.L.L.L.L.L.L.L.L.L.L.L.L.L.L.L.L.L.L.L.L.L.L.L.L.L.L.",
"L.L.L.L.L.L.L.L.L.L.L.L.L.L.L.c L.L.L.L.L.L.L.L.L.L.L.L.L.L.L.L.",
"L.L.L.L.L.L.L.L.L.L.L.L.L.L.V $ 8 L.L.L.L.L.L.L.L.L.L.L.L.L.L.L.",
"L.L.L.L.L.L.L.L.L.L.L.L.L.L.< v t q L.L.L.L.L.L.L.L.L.L.L.L.L.L.",
"L.L.L.L.L.L.L.L.L.L.L.L.L.x 9 6.R ; L.L.L.L.L.L.L.L.L.L.L.L.L.L.",
"L.L.L.L.L.L.L.L.L.L.L.L.L.= K F.v.t y L.L.L.L.L.L.L.L.L.L.L.L.L.",
"L.L.L.L.L.L.L.L.L.L.L.L.j 6 s.J.K.Q : L.L.L.L.L.L.L.L.L.L.L.L.L.",
"L.L.L.L.L.L.L.L.L.L.L.L.- U S.D.Z.N.l 7 L.L.L.L.L.L.L.L.L.L.L.L.",
"L.L.L.L.L.L.L.L.L.u 3 1 g c.H.M.A.G.$.2 L.L.L.L.L.L.L.L.L.L.L.L.",
"L.L.L.L.L.L.L.z G M o % h &.3.8.<.` E > @ . S L L.L.L.L.L.L.L.L.",
"L.L.L.L.L.L.e N h.z.| ! P J H F Z D A P W ( z.d.b L.L.L.L.L.L.L.",
"L.L.L.L.L.L.@ / n.V.b.m.x.f.g.q.y.p.j.a.r.e.@.5.~ O L.L.L.L.L.L.",
"L.L.L.L.L.L.r w.C.B.t.u.O.:.] >.o.} ..[ ..' { 7. .& k L.L.L.L.L.",
"L.L.L.L.L.+ i ;.c.l.k.i.@.*...O.X.:.,.@.1.4.-.0.^ w # L.L.L.L.L.",
"L.L.L.L.L.L.  a Y ) 9.9.%.=.3.2.5.<.#.+. ._ T I 6 X L.L.L.L.L.L.",
"L.L.L.L.L.L.L.p * 4 0 w d n B C C B m f 0 5 , * s L.L.L.L.L.L.L.",
"L.L.L.L.L.L.L.L.L.L.L.L.L.L.L.L.L.L.L.L.L.L.L.L.L.L.L.L.L.L.L.L.",
"L.L.L.L.L.L.L.L.L.L.L.L.L.L.L.L.L.L.L.L.L.L.L.L.L.L.L.L.L.L.L.L.",
"L.L.L.L.L.L.L.L.L.L.L.L.L.L.L.L.L.L.L.L.L.L.L.L.L.L.L.L.L.L.L.L.",
"L.L.L.L.L.L.L.L.L.L.L.L.L.L.L.L.L.L.L.L.L.L.L.L.L.L.L.L.L.L.L.L.",
"L.L.L.L.L.L.L.L.L.L.L.L.L.L.L.L.L.L.L.L.L.L.L.L.L.L.L.L.L.L.L.L.",
"L.L.L.L.L.L.L.L.L.L.L.L.L.L.L.L.L.L.L.L.L.L.L.L.L.L.L.L.L.L.L.L."
};
