/* XPM */
static char *result[] = {
/* columns rows colors chars-per-pixel */
"32 32 239 2 ",
"   c #000100",
".  c #010403",
"X  c #020403",
"o  c #030705",
"O  c #060908",
"+  c #070A09",
"@  c #080D0D",
"#  c gray5",
"$  c #0C100F",
"%  c #0D100F",
"&  c #0C1210",
"*  c #0F1311",
"=  c #0B1411",
"-  c #0E1915",
";  c #111413",
":  c #101513",
">  c #111614",
",  c #101717",
"<  c #141616",
"1  c #131816",
"2  c #171817",
"3  c #131919",
"4  c #131A18",
"5  c #121A1A",
"6  c #161918",
"7  c #141A19",
"8  c #161B19",
"9  c #171A1A",
"0  c #131C1B",
"q  c #141D1A",
"w  c #191B1A",
"e  c #1A1C1A",
"r  c #181F1D",
"t  c #1A1F1D",
"y  c #1B201E",
"u  c #1B2320",
"i  c #1B2222",
"p  c #1B2723",
"a  c #1D2424",
"s  c #212322",
"d  c #202725",
"f  c #252827",
"g  c #232A2A",
"h  c #242A28",
"j  c #242B29",
"k  c #242C2A",
"l  c #252D2A",
"z  c #272C2A",
"x  c #262C2C",
"c  c #2B2D2D",
"v  c #282E2C",
"b  c #292F2D",
"n  c #2B2E2C",
"m  c #2A2F2D",
"M  c #282E2E",
"N  c #2C2C2C",
"B  c #2C302F",
"V  c #293030",
"C  c #2A3131",
"Z  c #2B3333",
"A  c #2E3030",
"S  c #2C3230",
"D  c #2E3230",
"F  c #2B3433",
"G  c #2A3632",
"H  c #2C3431",
"J  c #2F3432",
"K  c #2E3434",
"L  c #2E3535",
"P  c #2F3634",
"I  c #2E3A37",
"U  c #303432",
"Y  c #323534",
"T  c #353737",
"R  c #323836",
"E  c #333836",
"W  c #323A3A",
"Q  c #343A38",
"!  c #363A39",
"~  c #343A3A",
"^  c #303C38",
"/  c #333C39",
"(  c #333F3B",
")  c #343D3A",
"_  c #353E3D",
"`  c #363F3D",
"'  c #393E3D",
"]  c #3B3E3D",
"[  c #3F3F3F",
"{  c #34403D",
"}  c #35413F",
"|  c #37433F",
" . c #374241",
".. c #3A4040",
"X. c #3C4340",
"o. c #384442",
"O. c #3D4947",
"+. c #454B49",
"@. c #424E4A",
"#. c #454C4A",
"$. c #484E4D",
"%. c #4B4F4D",
"&. c #4F5654",
"*. c #4C5856",
"=. c #525656",
"-. c #565A5A",
";. c #545D5A",
":. c #555C5B",
">. c #565F5C",
",. c #5A5F5D",
"<. c #5B5F5D",
"1. c #586460",
"2. c #5E6563",
"3. c #666E6B",
"4. c #636D6C",
"5. c #676D6C",
"6. c #6A706E",
"7. c #6C7773",
"8. c #6E7673",
"9. c #707573",
"0. c #727675",
"q. c #717876",
"w. c #727977",
"e. c #7A8380",
"r. c #7D8683",
"t. c #7C8584",
"y. c #7D8985",
"u. c #858C8C",
"i. c #858D8D",
"p. c #888D8B",
"a. c #83908C",
"s. c #87908D",
"d. c #87908F",
"f. c #85928E",
"g. c #87928E",
"h. c #869391",
"j. c #8A9390",
"k. c #8A9392",
"l. c #8B9795",
"z. c #8E9794",
"x. c #8C9894",
"c. c #8C9895",
"v. c #8F9895",
"b. c #8D9897",
"n. c #8F9897",
"m. c #8E9A96",
"M. c #8F9B97",
"N. c #8F9998",
"B. c #8F9B98",
"V. c #919896",
"C. c #909A97",
"Z. c #909B97",
"A. c #939A98",
"S. c #919B9A",
"D. c #969B99",
"F. c #929D99",
"G. c #909C9A",
"H. c #939E9A",
"J. c #949C99",
"K. c #969C9A",
"L. c #949F9B",
"P. c #929E9C",
"I. c #939F9C",
"U. c #949E9C",
"Y. c #979E9C",
"T. c #999F9D",
"R. c #95A19F",
"E. c #96A09F",
"W. c #97A09F",
"Q. c #96A29E",
"!. c #98A19E",
"~. c #9AA3A0",
"^. c #9BA3A3",
"/. c #9EA7A6",
"(. c #9EA8A5",
"). c #9EA9A5",
"_. c #9FA8A7",
"`. c #9FA9A8",
"'. c #A1A5A4",
"]. c #A0A6A4",
"[. c #A0A9A6",
"{. c #A0AAA8",
"}. c #A2ADA9",
"|. c #A0ADAB",
" X c #A2AFAD",
".X c #A4ADAC",
"XX c #A6AFAC",
"oX c #A8ACAB",
"OX c #A6B0AF",
"+X c #A5B2AE",
"@X c #A7B3AF",
"#X c #A7B4B0",
"$X c #ABB2B0",
"%X c #A8B5B2",
"&X c #AAB6B2",
"*X c #AFB6B6",
"=X c #AFB8B7",
"-X c #B2BDB9",
";X c #B0BCBA",
":X c #B3BDBB",
">X c #B5BCBA",
",X c #B7BDBB",
"<X c #B6BDBD",
"1X c #B5BFBD",
"2X c #B6BFBC",
"3X c #B6BFBD",
"4X c #B5C0BC",
"5X c #B7C0BD",
"6X c #B9C0BE",
"7X c #BDC0BF",
"8X c #BAC1C0",
"9X c #B9C5C1",
"0X c #BBC7C3",
"qX c #BEC4C3",
"wX c #BCC7C3",
"eX c #BFC7C4",
"rX c #BDC9C5",
"tX c #BFC8C5",
"yX c #BEC9C5",
"uX c #C1CAC7",
"iX c #C1CAC9",
"pX c #C5D0CC",
"aX c #C6D1CD",
"sX c #C6D0CF",
"dX c #C9D0CE",
"fX c #CBD2D0",
"gX c #CDD6D3",
"hX c #CED8D5",
"jX c #CFD9D6",
"kX c #D1DAD7",
"lX c #D5DCDC",
"zX c #D6DDDD",
"xX c #DDE6E3",
"cX c #E6EDEB",
"vX c #E9EFEE",
"bX c #E8F1EE",
"nX c #EBF2F0",
"mX c #FBFFFF",
"MX c None",
/* pixels */
"MXMXMXMXMXMXMXMXMXMXMXMXMXMXMXMXMXMXMXMXMXMXMXMXMXMXMXMXMXMXMXMX",
"MXMXMXMXMXMXMXMXMXMXMXMXMXMXMXMXMXMXMXMXMXMXMXMXMXMXMXMXMXMXMXMX",
"MXMXMXMXMXMXMXMXMXMXMXMXMXMXMXMXMXMXMXMXMXMXMXMXMXMXMXMXMXMXMXMX",
"MXMXMXMXMXMXMXMXMXMXMXMXMXMXMXMXMXMXMXMXMXMXMXMXMXMXMXMXMXMXMXMX",
"MXMXMXMXMXMXMXMXMXMXMXMXMXMXMXMXMXMXMXMXMXMXMXMXMXMXMXMXMXMXMXMX",
"MXMXMXMXMXMXMXMXMXMXMXMXMXMXMXMXMXMXMXMXMXMXMXMXMXMXMXMXMXMXMXMX",
"MXMXMXMXMXMXMXMXMXMXMXMXMXMXMXMXMXMXMXMXMXMXMXMXMXMXMXMXMXMXMXMX",
"MXMXMXMXMXMXMXMXMXMXMXMXMXMXMX# N MXMXMXMXMXMXMXMXMXMXMXMXMXMXMX",
"MXMXMXMXMXMXMXMXMXMXMXMXMXMX2 [ s MXMXMXMXMXMXMXMXMXMXMXMXMXMXMX",
"MXMXMXMXMXMXMXMXMXMXMXMXMXMXf 7X<.6 MXMXMXMXMXMXMXMXMXMXMXMXMXMX",
"MXMXMXMXMXMXMXMXMXMXMXMXMX* 9.mX,Xy ! MXMXMXMXMXMXMXMXMXMXMXMXMX",
"MXMXMXMXMXMXMXMXMXMXMXMXU h fXcXnX6.& MXMXMXMXMXMXMXMXMXMXMXMXMX",
"MXMXMXMXMXMXMXMXMXMXMXMX: w.bXgXxX5Xv E MXMXMXMXMXMXMXMXMXMXMXMX",
"MXMXMXMXMXMXMXMXMXMXMXc b eXjXaXpXhX8.& =.MXMXMXMXMXMXMXMXMXMXMX",
"MXMXMXMXMXMXMXMXMXMXMX1 q.kXwXrXrXpXXXj J MXMXMXMXMXMXMXMXMXMXMX",
"MXMXMXMXMXMXMXMXMXMXB P $XtXwX0X9XyXuX3.8 -.MXMXMXMXMXMXMXMXMXMX",
"MXMXMXMXMXMXMXMXMXMX7 :.8X3X:X1X4X-X2XJ.l R MXMXMXMXMXMXMXMXMXMX",
"MXMXMXMXMXMXMXMXMXW C i./._.OX{.}.(.!.[.>.u &.MXMXMXMXMXMXMXMXMX",
"MXMXMXMXMXMXMXMX' , Z t.d.N.P.I.m.y.g.r.;.r d MXMXMXMXMXMXMXMXMX",
"MXMXMXMXMXMXMXz $.V 5 0 F  .} { ( G p - = q #.X.m MXMXMXMXMXMXMX",
"MXMXMXMXMXMX9 %.6X*Xk.4.*.O.o.I ^ | @.1.7.v.>X].t n MXMXMXMXMXMX",
"MXMXMXMXMXMX; D.dXlXiXsX;X X|.%X#X+X&X@X).[.A.T.,.O MXMXMXMXMXMX",
"MXMXMXMXMX% ] oXvXzX.X`.R.G.h.B.a.Q.f.M.Z.s.V.K.p.o T MXMXMXMXMX",
"MXMXMXMXMX  ] '.qX<X=X`.b.l.P.c.M.x.m.x.F.~.Y.T.0.+ e MXMXMXMXMX",
"MXMXMXMXMX< X Y 5.u.^.W.n.S.E.U.L.H.C.z.j.e.2.+.% . MXMXMXMXMXMX",
"MXMXMXMXMXMXD w @ 3 i a g L _ ` ) / H d r 4 > $ A MXMXMXMXMXMXMX",
"MXMXMXMXMXMXMXMXMXMXMX..~ K M x k S Q Q MXMXMXMXMXMXMXMXMXMXMXMX",
"MXMXMXMXMXMXMXMXMXMXMXMXMXMXMXMXMXMXMXMXMXMXMXMXMXMXMXMXMXMXMXMX",
"MXMXMXMXMXMXMXMXMXMXMXMXMXMXMXMXMXMXMXMXMXMXMXMXMXMXMXMXMXMXMXMX",
"MXMXMXMXMXMXMXMXMXMXMXMXMXMXMXMXMXMXMXMXMXMXMXMXMXMXMXMXMXMXMXMX",
"MXMXMXMXMXMXMXMXMXMXMXMXMXMXMXMXMXMXMXMXMXMXMXMXMXMXMXMXMXMXMXMX",
"MXMXMXMXMXMXMXMXMXMXMXMXMXMXMXMXMXMXMXMXMXMXMXMXMXMXMXMXMXMXMXMX"
};
