/* XPM */
static char *result[] = {
/* columns rows colors chars-per-pixel */
"32 32 159 2 ",
"   c #000200",
".  c #000300",
"X  c #000201",
"o  c #000301",
"O  c #000403",
"+  c #000603",
"@  c #000604",
"#  c #000704",
"$  c #060A09",
"%  c #070A09",
"&  c #070B0A",
"*  c #090C0B",
"=  c #0A0D0C",
"-  c #080E0D",
";  c #0A100E",
":  c #0D100F",
">  c #0E1110",
",  c #131615",
"<  c #141716",
"1  c #131917",
"2  c #141917",
"3  c #181D1B",
"4  c #191F1D",
"5  c #1B1E1D",
"6  c #1A1F1D",
"7  c #1B201E",
"8  c #1B211E",
"9  c #1D2220",
"0  c #1D2321",
"q  c #1F2422",
"w  c #202322",
"e  c #212624",
"r  c #212725",
"t  c #242726",
"y  c #252727",
"u  c #232927",
"i  c #252827",
"p  c #262928",
"a  c #272928",
"s  c #272A29",
"d  c #282E2C",
"f  c #2C2E2E",
"g  c #2C2F2E",
"h  c #2D302F",
"j  c #2C3331",
"k  c #2D3331",
"l  c #2C3432",
"z  c #2E3432",
"x  c #2F3533",
"c  c #2D3834",
"v  c #323534",
"b  c #333736",
"n  c #373A39",
"m  c #323D39",
"M  c #353C3A",
"N  c #353C3B",
"B  c #373E3C",
"V  c #393C3B",
"C  c #393D3C",
"Z  c #383F3D",
"A  c #3C3F3E",
"S  c #38433F",
"D  c #3E4140",
"F  c #414141",
"G  c #404342",
"H  c #474947",
"J  c #484A4A",
"K  c #4B4D4B",
"L  c #4A4C4C",
"P  c #4A4D4C",
"I  c gray30",
"U  c #4C4E4E",
"Y  c #4D4F4F",
"T  c #45504C",
"R  c #4B504E",
"E  c #535353",
"W  c #525755",
"Q  c #555656",
"!  c #505B57",
"~  c #545957",
"^  c #5E6361",
"/  c #606060",
"(  c #656565",
")  c #666C6A",
"_  c #656E6B",
"`  c DimGray",
"'  c #737C79",
"]  c #757C7A",
"[  c #7E8583",
"{  c #7F8684",
"}  c #808684",
"|  c #878D8B",
" . c #88928F",
".. c #879490",
"X. c #8B9290",
"o. c #8A9390",
"O. c #889591",
"+. c #8B9692",
"@. c #8A9793",
"#. c #8C9491",
"$. c #8C9592",
"%. c #8F9593",
"&. c #8A9893",
"*. c #8B9894",
"=. c #8B9994",
"-. c #8D9894",
";. c #8C9995",
":. c #8D9995",
">. c #8F9895",
",. c #8C9B96",
"<. c #8E9B97",
"1. c #909996",
"2. c #919A97",
"3. c #909B97",
"4. c #939B98",
"5. c #909C98",
"6. c #919D99",
"7. c #929C99",
"8. c #939C99",
"9. c #939D9A",
"0. c #909F9A",
"q. c #949D9A",
"w. c #949E9B",
"e. c #969E9B",
"r. c #959F9C",
"t. c #979E9C",
"y. c #979F9C",
"u. c #96A09D",
"i. c #99A09E",
"p. c #98A19E",
"a. c #99A19E",
"s. c #9BA2A0",
"d. c #9BA5A2",
"f. c #9EABA7",
"g. c #A0A7A5",
"h. c #A0ABA7",
"j. c #A4B1AD",
"k. c #A7B3AF",
"l. c #A8B0AD",
"z. c #A8B3AF",
"x. c #A7B4B0",
"c. c #AAB4B1",
"v. c #AAB7B3",
"b. c #ACB9B5",
"n. c #AEB8B5",
"m. c #AFB8B5",
"M. c #ADBAB6",
"N. c #B1B9B6",
"B. c #B7C3BF",
"V. c #B9C1BE",
"C. c #BCC3C1",
"Z. c #BDC5C2",
"A. c #BDC7C4",
"S. c #BEC9C5",
"D. c #C3CBC8",
"F. c #D6DFDC",
"G. c #DBE3E0",
"H. c #E2EBE8",
"J. c None",
/* pixels */
"J.J.J.J.J.J.J.J.J.J.J.J.J.J.J.J.J.J.J.J.J.J.J.J.J.J.J.J.J.J.J.J.",
"J.J.J.J.J.J.J.J.J.J.J.J.J.J.J.J.J.J.J.J.J.J.J.J.J.J.J.J.J.J.J.J.",
"J.J.J.J.J.J.J.J.J.J.J.J.J.J.J.J.J.J.J.J.J.J.J.J.J.J.J.J.J.J.J.J.",
"J.J.J.J.J.J.J.J.J.J.J.J.J.J.J.J.J.J.J.J.J.J.J.J.J.J.J.J.J.J.J.J.",
"J.J.J.J.J.J.J.J.J.J.J.J.J.J.J.J.J.J.J.J.J.J.J.J.J.J.J.J.J.J.J.J.",
"J.J.J.J.J.J.J.J.J.J.J.J.J.J.J.J.J.J.J.J.J.J.J.J.J.J.J.J.J.J.J.J.",
"J.J.J.J.J.J.J.J.J.J.J.J.J.J.J.J.J.J.J.J.J.J.J.J.J.J.J.J.J.J.J.J.",
"J.J.J.J.J.J.J.J.J.J.J.J.J.J.J.J.J.J.J.J.J.J.J.J.J.J.J.J.J.J.J.J.",
"J.J.J.J.J.J.J.J.J.J.J.J.J.J.J.J.J.J.J.J.J.J.J.J.J.J.J.J.J.J.J.J.",
"J.J.J.J.J.J.J.J.J.J.J.J.J.J.J.J.J.J.J.J.J.J.J.J.J.J.J.J.J.J.J.J.",
"J.J.J.J.J.J.J.J.J.J.J.J.J.J.J.J.J.J.J.J.J.J.J.J.J.J.J.J.J.J.J.J.",
"J.J.J.J.J.J.J.J.J.J.J.J.J.J.J.J.J.J.J.J.J.J.J.J.J.J.J.J.J.J.J.J.",
"J.J.J.J.J.J.J.J.J.J.J.J.J.J.J.J.J.J.J.J.J.J.J.J.J.J.J.J.J.J.J.J.",
"J.J.J.J.J.J.J.J.J.J.J.J.J.J.J.J.J.J.J.J.J.J.J.J.J.J.J.J.J.J.J.J.",
"J.J.J.J.J.J.J.J.J.J.J.J.J.J.J.J.J.J.J.J.J.J.J.J.J.J.J.J.J.J.J.J.",
"J.J.J.J.J.J.J.J.J.J.J.J.J.J.J.J.J.J.J.J.J.J.J.J.J.J.J.J.J.J.J.J.",
"J.J.J.J.J.J.J.J.J.J.J.J.J.J.J.J.J.J.J.J.J.J.J.J.J.J.J.J.J.J.J.J.",
"J.J.J.J.J.J.J.J.J.` ( Q I Y K H F J U Y E / ` J.J.J.J.J.J.J.J.J.",
"J.J.J.J.J.J.J.J.A i , = O       o   o $ : < p V J.J.J.J.J.J.J.J.",
"J.J.J.J.J.J.J.h R k     @ # + . . . .     @ d ~ t J.J.J.J.J.J.J.",
"J.J.J.J.J.J.q z g.Z.>.' ! m m c c m S T _ $.l.N.x 7 J.J.J.J.J.J.",
"J.J.J.J.J.J.; ] D.H.A.S.B.v.M.j.f.x.b.k.h.d.p.e.{ - J.J.J.J.J.J.",
"J.J.J.J.J.3 0 t.G.F.n.z.5...=.,.0.&.O.:.-. .o.4.X.1 7 J.J.J.J.J.",
"J.J.J.J.J.& 9 %.C.V.m.c.+.6.<.@.;.*.:.3.7.q.y.i.| e % J.J.J.J.J.",
"J.J.J.J.J.J.X w ^ } s.a.1.8.u.w.r.9.2.>.#.[ ) W 5 X J.J.J.J.J.J.",
"J.J.J.J.J.J.J.J.* , 6 8 r j M B Z N l u 4 2 > = y J.J.J.J.J.J.J.",
"J.J.J.J.J.J.J.J.J.J.L G C b g s a f v n D P J.J.J.J.J.J.J.J.J.J.",
"J.J.J.J.J.J.J.J.J.J.J.J.J.J.J.J.J.J.J.J.J.J.J.J.J.J.J.J.J.J.J.J.",
"J.J.J.J.J.J.J.J.J.J.J.J.J.J.J.J.J.J.J.J.J.J.J.J.J.J.J.J.J.J.J.J.",
"J.J.J.J.J.J.J.J.J.J.J.J.J.J.J.J.J.J.J.J.J.J.J.J.J.J.J.J.J.J.J.J.",
"J.J.J.J.J.J.J.J.J.J.J.J.J.J.J.J.J.J.J.J.J.J.J.J.J.J.J.J.J.J.J.J.",
"J.J.J.J.J.J.J.J.J.J.J.J.J.J.J.J.J.J.J.J.J.J.J.J.J.J.J.J.J.J.J.J."
};
