/* XPM */
static char *result[] = {
/* columns rows colors chars-per-pixel */
"35 32 141 2 ",
"   c #181818",
".  c #1B1819",
"X  c #1C1919",
"o  c #1C1C1B",
"O  c #1E1C1B",
"+  c #1E1D1C",
"@  c #1F1D1C",
"#  c #1F1E1E",
"$  c #212120",
"%  c gray13",
"&  c #222222",
"*  c #222323",
"=  c #232323",
"-  c #232424",
";  c gray14",
":  c #252525",
">  c #242626",
",  c #252626",
"<  c #242627",
"1  c #252627",
"2  c #252728",
"3  c #262829",
"4  c #26282A",
"5  c #282A2B",
"6  c #282A2C",
"7  c #282B2D",
"8  c #292C2D",
"9  c #2A2D2C",
"0  c #292C2E",
"q  c #292D2E",
"w  c #292D2F",
"e  c #2A2C2E",
"r  c #2B2D2F",
"t  c #2F2F2F",
"y  c #2A2E30",
"u  c #2C3032",
"i  c #2E3233",
"p  c #2D3337",
"a  c #313131",
"s  c #343434",
"d  c #30373A",
"f  c #31373A",
"g  c #30363B",
"h  c #30373C",
"j  c #31393F",
"k  c #323A3E",
"l  c #363E3D",
"z  c #343C3F",
"x  c gray23",
"c  c #333C41",
"v  c #343C40",
"b  c #353D41",
"n  c #343D42",
"m  c #353E45",
"M  c #3C4746",
"N  c #364149",
"B  c #374149",
"V  c #39454D",
"C  c #3F4B48",
"Z  c #3E4A50",
"A  c #3C4A53",
"S  c #3D4B55",
"D  c #3D4B57",
"F  c #3E4C56",
"G  c #4C4C4C",
"H  c #44535A",
"J  c #42525E",
"K  c #43535F",
"L  c #505050",
"P  c #445561",
"I  c #485A65",
"U  c #4A5C64",
"Y  c #485C6A",
"T  c #495C6A",
"R  c #4C5F6A",
"E  c #4B5F6C",
"W  c #4C6066",
"Q  c #4C616D",
"!  c #4F636C",
"~  c #4F636D",
"^  c #4F636E",
"/  c #50646D",
"(  c #566C69",
")  c #516670",
"_  c #506777",
"`  c #536872",
"'  c #536973",
"]  c #546A74",
"[  c #556C76",
"{  c #576F7A",
"}  c #57707D",
"|  c #5A737E",
" . c #5A737F",
".. c #607A76",
"X. c #587280",
"o. c #597281",
"O. c #5B7480",
"+. c #5A7482",
"@. c #587284",
"#. c #5C7788",
"$. c #5F7B8B",
"%. c #617D8A",
"&. c #607D8D",
"*. c #63808E",
"=. c #64818F",
"-. c #638190",
";. c #648292",
":. c #678593",
">. c #678693",
",. c #678694",
"<. c #688795",
"1. c #698998",
"2. c #6A8A9B",
"3. c #6B8B9B",
"4. c #6C8D9A",
"5. c #6D8E9B",
"6. c #6D8E9E",
"7. c #75999C",
"8. c #7AA09E",
"9. c #6E90A0",
"0. c #6F91A1",
"q. c #959595",
"w. c #989898",
"e. c #9A9A9A",
"r. c #83ACA8",
"t. c #A4A4A4",
"y. c gray65",
"u. c #A7A7A7",
"i. c #B6B6B6",
"p. c #B7B7B6",
"a. c #B7B7B7",
"s. c #B8B8B7",
"d. c gray72",
"f. c #B9B9B8",
"g. c #BBBABA",
"h. c #DDDDDD",
"j. c #E9E9E9",
"k. c gray96",
"l. c gray97",
"z. c #F9F9F9",
"x. c None",
/* pixels */
"x.x.x.x.x.x.x.x.x.x.x.x.x.x.x.x.x.x.x.x.x.x.x.x.x.x.x.x.x.x.x.x.x.x.x.",
"x.x.x.x.x.x.x.x.x.x.x.x.x.x.x.x.x.x.x.x.x.x.x.x.x.x.x.x.x.x.x.x.x.x.x.",
"x.x.x.x.x.x.x.x.x.x.x.x.x.x.x.x.x.x.x.x.x.x.x.x.x.x.x.x.x.x.x.x.x.x.x.",
"x.x.x.x.x.x.x.x.x.x.x.x.x.x.x.x.x.x.x.x.x.x.x.x.x.x.x.x.x.x.x.x.x.x.x.",
"x.x.x.x.x.x.x.x.x.x.x.x.x.x.x.x.x.x.x.x.x.x.x.x.x.x.x.x.x.x.x.x.x.x.x.",
"x.x.x.x.x.x.x.x.x.x.x.x.x.x.x.x.x.x.x.x.x.x.x.x.x.x.x.x.x.x.x.x.x.x.x.",
"x.x.x.x.x.x.x.x.x.x.x.x.x.x.x.x.x.x.x.x.x.x.x.x.x.x.x.x.x.x.x.x.x.x.x.",
"x.x.x.x.x.x.x.x.x.x.x.x.x.x.x.x.x.x.x.x.x.x.x.x.x.x.x.x.x.x.x.x.x.x.x.",
"x.x.x.x.x.x.x.x.x.x.x.x.x.x.x.x.x.x.x.x.x.x.x.x.x.x.x.x.x.x.x.x.x.x.x.",
"x.x.x.x.x.x.x.x.x.x.x.x.x.x.x.x.x.x.x.x.x.x.x.x.x.x.x.x.x.x.x.x.x.x.x.",
"x.x.x.x.x.x.x.x.x.x.x.x.x.x.x.x.x.x.x.x.x.x.x.x.x.x.x.x.x.x.x.x.x.x.x.",
"x.x.x.x.x.x.x.x.x.x.x.x.x.x.x.x.x.x.x.x.x.x.x.x.x.x.x.x.x.x.x.x.x.x.x.",
"x.x.x.x.x.x.x.x.x.x.x.x.x.x.x.x.x.x.x.x.x.x.x.x.x.x.x.x.x.x.x.x.x.x.x.",
"x.x.x.x.x.x.x.x.x.x.x.x.x.x.x.x.x.x.x.O + X . x.x.x.x.x.x.x.x.x.x.x.x.",
"x.x.x.x.x.x.x.x.x.x.x.x.x.x.x.x.x.x.f v d M C l x.x.x.x.x.x.x.x.x.x.x.",
"x.x.x.x.x.x.x.x.x.x.x.x.x.x.x.x.x.5 U -.} 8.r.( 9 x.x.x.x.x.x.x.x.x.x.",
"x.x.x.x.x.x.x.x.x.x.x.x.x.x.x.x.- / <.1.,.4.5.7...- x.x.x.x.x.x.x.x.x.",
"x.x.x.x.x.x.x.x.x.x.x.x.x.x.x.% % [ 0. .Z =.3.>.W = x.x.x.x.x.x.x.x.x.",
"x.x.x.x.x.x.x.x.x.x.x.x.x.O @ 1 H %.9.] q *.6.#.D $ x.x.x.x.x.x.x.x.x.",
"x.x.x.x.x.x.x.x.x.x.x.x.z k p c ' :.2.^ 8 ~ :.;.E g x.x.x.x.x.x.x.x.x.",
"x.x.x.x.x.x.x.x.x.x.x.u { $._ Y 0 ! o.S * - ~ =.+.P 4 x.x.x.x.x.x.x.x.",
"x.x.x.x.x.x.x.x.x.x.y | <.1.&.T 7 6 w 2 & ; r i u e , : : : : : = x.x.",
"x.x.x.x.x.x.x.x.x.x.> v b ` O.n ) I h + s u.g.p.a.s.f.a.i.i.a.d.G   x.",
"x.x.x.x.x.x.x.x.x.x.< m N Q R 8 X.@.V o x h.z.k.k.k.k.k.k.l.j.e.L x.x.",
"x.x.x.x.x.x.x.x.x.x.3 F K J B 3 A J j # a q.y.t.t.t.t.t.t.y.w.t x.x.x.",
"x.x.x.x.x.x.x.x.x.x.& = = = * & = = * & & ; : ; ; ; ; ; ; ; ; x.x.x.x.",
"x.x.x.x.x.x.x.x.x.x.x.x.x.x.x.x.x.x.x.x.x.% % % % % % % % % % x.x.x.x.",
"x.x.x.x.x.x.x.x.x.x.x.x.x.x.x.x.x.x.x.x.x.x.x.x.x.x.x.x.x.x.x.x.x.x.x.",
"x.x.x.x.x.x.x.x.x.x.x.x.x.x.x.x.x.x.x.x.x.x.x.x.x.x.x.x.x.x.x.x.x.x.x.",
"x.x.x.x.x.x.x.x.x.x.x.x.x.x.x.x.x.x.x.x.x.x.x.x.x.x.x.x.x.x.x.x.x.x.x.",
"x.x.x.x.x.x.x.x.x.x.x.x.x.x.x.x.x.x.x.x.x.x.x.x.x.x.x.x.x.x.x.x.x.x.x.",
"x.x.x.x.x.x.x.x.x.x.x.x.x.x.x.x.x.x.x.x.x.x.x.x.x.x.x.x.x.x.x.x.x.x.x."
};
