/* XPM */
static char *result[] = {
/* columns rows colors chars-per-pixel */
"32 32 184 2 ",
"   c #151515",
".  c #1B1B1B",
"X  c #1D1A19",
"o  c #1C1D1D",
"O  c #1E1D1C",
"+  c #1F1D1C",
"@  c #1F1E1D",
"#  c gray12",
"$  c #201E1E",
"%  c #201F1F",
"&  c #202020",
"*  c #202021",
"=  c #202121",
"-  c #212122",
";  c #222222",
":  c #232322",
">  c #222323",
",  c #232323",
"<  c gray14",
"1  c #262524",
"2  c #272625",
"3  c #242526",
"4  c #252626",
"5  c gray15",
"6  c #2C2724",
"7  c #2C2926",
"8  c #2D2927",
"9  c #26282A",
"0  c #272A2B",
"q  c #272A2C",
"w  c #282828",
"e  c #282929",
"r  c gray16",
"t  c #282A2A",
"y  c #292C2D",
"u  c #282C2E",
"i  c #292C2E",
"p  c #282D2F",
"a  c #2B2D2E",
"s  c #2C2C2C",
"d  c #2D312F",
"f  c #39312C",
"g  c #3A322C",
"h  c #3D342E",
"j  c #3D352E",
"k  c #3E352E",
"l  c #2A2E30",
"z  c #2B2E30",
"x  c #2C2F31",
"c  c #2D3232",
"v  c #2E3232",
"b  c #2B3236",
"n  c #2C3135",
"m  c #2E3234",
"M  c #2B343A",
"N  c #2F3539",
"B  c #2F363C",
"V  c #2F383C",
"C  c #333334",
"Z  c #373737",
"A  c #303639",
"S  c #30363A",
"D  c #313B3F",
"F  c #333A3E",
"G  c #333B3E",
"H  c gray22",
"J  c #393939",
"K  c #3B3B3C",
"L  c #46392F",
"P  c #443931",
"I  c #493C33",
"U  c #493D33",
"Y  c #323A41",
"T  c #353D41",
"R  c #343D44",
"E  c #353E44",
"W  c #363F45",
"Q  c #343E46",
"!  c #374044",
"~  c #374045",
"^  c #384240",
"/  c #394345",
"(  c #364148",
")  c #364149",
"_  c #374149",
"`  c #38434B",
"'  c #39454D",
"]  c #3F4C52",
"[  c #3F4E56",
"{  c #4D4E4E",
"}  c #544E49",
"|  c #425057",
" . c #435259",
".. c #42525E",
"X. c #44555D",
"o. c #47575F",
"O. c #4A5B58",
"+. c #505050",
"@. c #515151",
"#. c #575655",
"$. c gray34",
"%. c #595C5D",
"&. c gray36",
"*. c #445663",
"=. c #475964",
"-. c #4A5B64",
";. c #485B67",
":. c #485C6A",
">. c #495C6A",
",. c #495D6B",
"<. c #4B5F6B",
"1. c #4E626C",
"2. c #506467",
"3. c #566368",
"4. c #50656E",
"5. c #506776",
"6. c #556972",
"7. c #536A75",
"8. c #536B76",
"9. c #556D7B",
"0. c #576F7A",
"q. c #577079",
"w. c #5A737E",
"e. c #577181",
"r. c #5B7480",
"t. c #597384",
"y. c #5B7684",
"u. c #5C7889",
"i. c #627F8C",
"p. c #63808E",
"a. c #62808F",
"s. c #64818F",
"d. c #638090",
"f. c #648291",
"g. c #658391",
"h. c #648292",
"j. c #668492",
"k. c #668493",
"l. c #678695",
"z. c #688897",
"x. c #698997",
"c. c #688898",
"v. c #698998",
"b. c #6A8A99",
"n. c #6B8B9A",
"m. c #6B8B9B",
"M. c #6B8C9B",
"N. c #6C8D9C",
"B. c #6D8E9E",
"V. c #6D8F9F",
"C. c #779B96",
"Z. c #789B97",
"A. c #72959E",
"S. c #73979F",
"D. c #759898",
"F. c #8A8988",
"G. c gray54",
"H. c #8C8B8B",
"J. c #8D8C8C",
"K. c #8F9192",
"L. c gray58",
"P. c #9D9D9D",
"I. c #A09F9F",
"U. c #A6A5A5",
"Y. c gray67",
"T. c #B7B6B6",
"R. c #B9B8B8",
"E. c #BBBBBA",
"W. c #BBBBBB",
"Q. c #BDBCBC",
"!. c #C3C3C3",
"~. c #C4C3C3",
"^. c #C5C5C5",
"/. c gray84",
"(. c #D7D7D7",
"). c #DADADA",
"_. c #E4E4E4",
"`. c #EAEAEA",
"'. c gray96",
"]. c #F6F6F6",
"[. c gray97",
"{. c #F9F9F9",
"}. c gray99",
"|. c None",
/* pixels */
"|.|.|.|.|.|.|.|.|.|.|.|.|.|.|.|.|.|.|.|.|.|.|.|.|.|.|.|.|.|.|.|.",
"|.|.|.|.|.|.|.|.|.|.|.|.|.|.|.|.|.|.|.|.|.|.|.|.|.|.|.|.|.|.|.|.",
"|.|.|.|.|.|.|.|.|.|.|.|.|.|.|.|.|.|.|.|.|.|.|.|.|.|.|.|.|.|.|.|.",
"|.|.|.|.|.|.|.|.|.|.|.|.|.|.|.|.|.|.|.|.|.|.|.|.|.|.|.|.|.|.|.|.",
"|.|.|.|.|.|.|.|.|.|.|.|.|.|.|.|.|.|.|.|.|.|.|.|.|.|.|.|.|.|.|.|.",
"|.|.|.|.|.|.|.|.|.|.|.|.|.|.|.|.|.|.|.|.|.|.|.|.|.|.|.|.|.|.|.|.",
"|.|.|.|.|.|.|.|.|.|.|.|.|.|.|.|.|.|.|.|.|.|.|.|.|.|.|.|.|.|.|.|.",
"|.|.|.|.|.|.|.|.|.|.|.|.|.% % % % % % % % |.|.|.|.|.|.|.|.|.|.|.",
"|.|.|.|.|.|.|.|.|.|.|.|.Y _ ( ( ( ( ( ) Q 9 |.|.|.|.|.|.|.|.|.|.",
"|.|.|.|.|.|.|.|.|.|.|.N <.t.e.e.e.e.e.y.q.y |.|.|.|.|.|.|.|.|.|.",
"|.|.|.|.|.|.|.|.|.|.q >.a.n.b.b.b.b.v.S.Z.v |.|.|.|.|.|.|.|.|.|.",
"|.|.|.|.|.|.|.|.|.|.q ,.d.n.x.v.v.v.z.A.C.v |.|.|.|.|.|.|.|.|.|.",
"|.|.|.|.|.|.|.|.|.|.0 :.h.4.G T ! ~ ! / ^ 4 |.|.|.|.|.|.|.|.|.|.",
"|.|.|.|.|.|.|.|.|.|.i 9.c.0. .] ; O X d O.t |.|.|.|.|.|.|.|.|.|.",
"|.|.|.|.|.|.|.|.|.|.z p.B.N.V.g.W 3 l 2.D.c |.|.|.|.|.|.|.|.|.|.",
"|.|.|.|.|.|.|.|.|.|.l r.i.j.m.l.5.n ] s.w.i |.|.|.|.|.|.|.|.|.|.",
"|.|.|.|.|.|.|.|.|.|.|.l y -.M.k.5.S e m x 5 , |.|.|.|.|.|.|.|.|.",
"|.|.|.|.|.|.|.|.|.|.|.|.$ p D V b K.Q.T.R.W.{ . |.|.|.|.|.|.|.|.",
"|.|.|.|.|.|.|.|.|.+ |.|.  @.J.F.H./.{.[.`.P.} 6 - |.|.|.|.|.|.|.",
"|.|.|.|.|.|.|.|.F A r $.&.Y.}.[.].E.I.U.L.s L k * |.|.|.|.|.|.|.",
"|.|.|.|.|.|.|.@ o.7.K (.'.).~.^.!.%.u a < , U j * |.|.|.|.|.|.|.",
"|.|.|.|.|.|.|.@ o.8.J ^._.G.C Z H 6.f.1.> : I h * |.|.|.|.|.|.|.",
"|.|.|.|.|.|.|.|.F A w +.#.3.X.# # =.u.;.2 P f 7 |.|.|.|.|.|.|.|.",
"|.|.|.|.|.|.|.|.|.+ & o M [ | , , ..*.B 1 g 8 |.|.|.|.|.|.|.|.|.",
"|.|.|.|.|.|.|.|.|.|.|.> ' R |.|.> ` E @ ; = |.|.|.|.|.|.|.|.|.|.",
"|.|.|.|.|.|.|.|.|.|.|.; > |.|.|.; > |.|.|.|.|.|.|.|.|.|.|.|.|.|.",
"|.|.|.|.|.|.|.|.|.|.|.|.|.|.|.|.|.|.|.|.|.|.|.|.|.|.|.|.|.|.|.|.",
"|.|.|.|.|.|.|.|.|.|.|.|.|.|.|.|.|.|.|.|.|.|.|.|.|.|.|.|.|.|.|.|.",
"|.|.|.|.|.|.|.|.|.|.|.|.|.|.|.|.|.|.|.|.|.|.|.|.|.|.|.|.|.|.|.|.",
"|.|.|.|.|.|.|.|.|.|.|.|.|.|.|.|.|.|.|.|.|.|.|.|.|.|.|.|.|.|.|.|.",
"|.|.|.|.|.|.|.|.|.|.|.|.|.|.|.|.|.|.|.|.|.|.|.|.|.|.|.|.|.|.|.|.",
"|.|.|.|.|.|.|.|.|.|.|.|.|.|.|.|.|.|.|.|.|.|.|.|.|.|.|.|.|.|.|.|."
};
