/* XPM */
static char *result[] = {
/* columns rows colors chars-per-pixel */
"32 32 173 2 ",
"   c #141312",
".  c #1B1A1A",
"X  c #1C1A19",
"o  c #1D1B1A",
"O  c #1C1C1B",
"+  c #1E1C1B",
"@  c #1C1C1D",
"#  c #1F1D1C",
"$  c #1F1E1D",
"%  c #1D1E1F",
"&  c gray12",
"*  c #201F1F",
"=  c #212020",
"-  c #202121",
";  c #222121",
":  c #222222",
">  c #232322",
",  c #222323",
"<  c #232323",
"1  c #232424",
"2  c #232425",
"3  c gray14",
"4  c #242425",
"5  c #252525",
"6  c #242526",
"7  c #252626",
"8  c #252627",
"9  c #2E2A27",
"0  c #26292A",
"q  c #272A2B",
"w  c #292B2C",
"e  c #282B2D",
"r  c #292B2D",
"t  c #322C27",
"y  c #372E27",
"u  c #342E2A",
"i  c #362F2A",
"p  c #3D332C",
"a  c #3E342D",
"s  c #3E352E",
"d  c #262D30",
"f  c #272D31",
"g  c #2A2E30",
"h  c #2B2F31",
"j  c #282E32",
"k  c #2D3133",
"l  c #2D3337",
"z  c #2E3437",
"x  c #2F3437",
"c  c #2E3338",
"v  c #2E3438",
"b  c #2F373E",
"n  c #373636",
"m  c #373737",
"M  c #303739",
"N  c #30373C",
"B  c #343B3A",
"V  c #323A3E",
"C  c #333A3E",
"Z  c #343C3F",
"A  c #393838",
"S  c #3A3A3A",
"D  c #433C36",
"F  c #483C33",
"G  c #493C33",
"H  c #4A3D33",
"J  c #38413F",
"K  c #333B40",
"L  c #323A41",
"P  c #333B41",
"I  c #353E42",
"U  c #353E44",
"Y  c #353E46",
"T  c #343F47",
"R  c #363F46",
"E  c #374044",
"W  c #384146",
"Q  c #384246",
"!  c #394347",
"~  c #3A4446",
"^  c #364148",
"/  c #364149",
"(  c #374149",
")  c #38434B",
"_  c #39444D",
"`  c #414142",
"'  c #464545",
"]  c #464646",
"[  c gray30",
"{  c #445250",
"}  c #435259",
"|  c #45545B",
" . c #43535F",
".. c #5A5A59",
"X. c #5D5D5D",
"o. c #65615D",
"O. c #445561",
"+. c #465865",
"@. c #4F5E65",
"#. c #4A5C68",
"$. c #495C6A",
"%. c #4C6067",
"&. c #4E616A",
"*. c #4E626B",
"=. c #4F636C",
"-. c #4F636D",
";. c #4E6573",
":. c #506776",
">. c #516877",
",. c #546A74",
"<. c #566C77",
"1. c #526A78",
"2. c #576E79",
"3. c #6D6D6E",
"4. c #607A7D",
"5. c #75797B",
"6. c #797B7C",
"7. c #66837E",
"8. c #67837F",
"9. c #577181",
"0. c #587283",
"q. c #5B7480",
"w. c #5D7887",
"e. c #5D7987",
"r. c #5F7B88",
"t. c #617D8A",
"y. c #627E8C",
"u. c #627F8E",
"i. c #668383",
"p. c #638090",
"a. c #668594",
"s. c #678695",
"d. c #688795",
"f. c #688796",
"g. c #688897",
"h. c #698997",
"j. c #698998",
"k. c #6A8A99",
"l. c #6B8C9B",
"z. c #6C8C9B",
"x. c #6C8C9C",
"c. c #6C8D9C",
"v. c #6E90A0",
"b. c #799FA3",
"n. c #7AA0A4",
"m. c #878786",
"M. c #8A8988",
"N. c #8B8B8B",
"B. c #8D8C8C",
"V. c #A0A0A0",
"C. c gray63",
"Z. c #A4A4A3",
"A. c #A4A4A4",
"S. c #ACACAC",
"D. c #B2B2B2",
"F. c #B3B2B2",
"G. c #B6B6B6",
"H. c gray72",
"J. c #BCBBBB",
"K. c gray",
"L. c gray75",
"P. c #C5C5C5",
"I. c #C6C6C6",
"U. c gray79",
"Y. c #CDCCCC",
"T. c gray89",
"R. c #E7E7E7",
"E. c #F4F4F4",
"W. c gray96",
"Q. c #F6F6F6",
"!. c #F8F8F8",
"~. c gray98",
"^. c None",
/* pixels */
"^.^.^.^.^.^.^.^.^.^.^.^.^.^.^.^.^.^.^.^.^.^.^.^.^.^.^.^.^.^.^.^.",
"^.^.^.^.^.^.^.^.^.^.^.^.^.^.^.^.^.^.^.^.^.^.^.^.^.^.^.^.^.^.^.^.",
"^.^.^.^.^.^.^.^.^.^.^.^.^.^.^.^.^.^.^.^.^.^.^.^.^.^.^.^.^.^.^.^.",
"^.^.^.^.^.^.^.^.^.^.^.^.^.^.^.^.^.^.^.^.^.^.^.^.^.^.^.^.^.^.^.^.",
"^.^.^.^.^.^.^.^.^.^.^.^.^.^.^.^.^.^.^.^.^.^.^.^.^.^.^.^.^.^.^.^.",
"^.^.^.^.^.^.^.^.^.^.^.^.^.^.^.^.^.^.^.^.^.^.^.^.^.^.^.^.^.^.^.^.",
"^.^.^.^.^.^.^.^.^.^.^.^.^.^.^.^.^.^.^.^.^.^.^.^.^.^.^.^.^.^.^.^.",
"^.^.^.^.^.^.^.^.^.^.^.* * * * * * * * ^.^.^.^.^.^.^.^.^.^.^.^.^.",
"^.^.^.^.^.^.^.^.^.^.6 Y ( ^ ^ ^ ^ ^ / L ^.^.^.^.^.^.^.^.^.^.^.^.",
"^.^.^.^.^.^.^.^.^.e P 1.0.9.9.9.9.9.e.%.< ^.^.^.^.^.^.^.^.^.^.^.",
"^.^.^.^.^.^.^.^.^.v :.a.k.k.k.k.k.j.n.8.1 ^.^.^.^.^.^.^.^.^.^.^.",
"^.^.^.^.^.^.^.^.# v >.s.k.h.j.j.j.g.b.7.1 ^.^.^.^.^.^.^.^.^.^.^.",
"^.^.^.^.^.^.^.^.# c :.a.| C I E E E ~ B , ^.^.^.^.^.^.^.^.^.^.^.",
"^.^.^.^.^.^.^.^.+ V w.f.=.} ! # $ X J { < ^.^.^.^.^.^.^.^.^.^.^.",
"^.^.^.^.^.^.^.^.o E l.x.c.v.q.v 4 z 4.i.1 ^.^.^.^.^.^.^.^.^.^.^.",
"^.^.^.^.^.^.^.^.^.I t.y.d.z.p.$.e ,.k.*., ^.^.^.^.^.^.^.^.^.^.^.",
"^.^.^.^.^.^.^.^.^.^.g h 2.c.u.$.e <.&.w 5 5 5 3 : ^.^.^.^.^.^.^.",
"^.^.^.^.^.^.^.^.^.^.^.= M Q K f % d 5.J.H.G.K.3.@ : ^.^.^.^.^.^.",
"^.^.^.^.^.^.^.^.^.^.+ ; .   A M.B.m.L.!.Q.E.D.o.t : ^.^.^.^.^.^.",
"^.^.^.^.^.^.^.^.^.x Z 8 [ X.N.W.!.~.Y.V.A.C.` y H > ^.^.^.^.^.^.",
"^.^.^.^.^.^.^.^.^.W r.k F.!.T.I.P.U.6.0 7 r 2 s G > ^.^.^.^.^.^.",
"^.^.^.^.^.^.^.^.^.W r.k Z.R.S.S m n @.-.q  .l p F > ^.^.^.^.^.^.",
"^.^.^.^.^.^.^.^.^.x Z 8 ' ..] & & T ;.#.6 v D a 9 ^.^.^.^.^.^.^.",
"^.^.^.^.^.^.^.^.^.^.+ : b j O ; < O.+.N : = i u ^.^.^.^.^.^.^.^.",
"^.^.^.^.^.^.^.^.^.^.^., _ R ^.^., ) U $ : : - ^.^.^.^.^.^.^.^.^.",
"^.^.^.^.^.^.^.^.^.^.^.: , ^.^.^.: , ^.^.^.^.^.^.^.^.^.^.^.^.^.^.",
"^.^.^.^.^.^.^.^.^.^.^.^.^.^.^.^.^.^.^.^.^.^.^.^.^.^.^.^.^.^.^.^.",
"^.^.^.^.^.^.^.^.^.^.^.^.^.^.^.^.^.^.^.^.^.^.^.^.^.^.^.^.^.^.^.^.",
"^.^.^.^.^.^.^.^.^.^.^.^.^.^.^.^.^.^.^.^.^.^.^.^.^.^.^.^.^.^.^.^.",
"^.^.^.^.^.^.^.^.^.^.^.^.^.^.^.^.^.^.^.^.^.^.^.^.^.^.^.^.^.^.^.^.",
"^.^.^.^.^.^.^.^.^.^.^.^.^.^.^.^.^.^.^.^.^.^.^.^.^.^.^.^.^.^.^.^.",
"^.^.^.^.^.^.^.^.^.^.^.^.^.^.^.^.^.^.^.^.^.^.^.^.^.^.^.^.^.^.^.^."
};
