/* XPM */
static char *result[] = {
/* columns rows colors chars-per-pixel */
"32 32 180 2 ",
"   c #181818",
".  c #191919",
"X  c #1C1A19",
"o  c #1D1B1A",
"O  c #1E1C1B",
"+  c #1E1C1C",
"@  c #1E1D1C",
"#  c #1F1D1D",
"$  c #1F1E1D",
"%  c #1F1E1E",
"&  c #201E1E",
"*  c #201F1F",
"=  c #21201F",
"-  c #1E2224",
";  c #212020",
":  c #212021",
">  c gray13",
",  c #222222",
"<  c #222323",
"1  c #252423",
"2  c #232324",
"3  c #232424",
"4  c #212527",
"5  c gray14",
"6  c #252525",
"7  c #242526",
"8  c #252626",
"9  c #2A2521",
"0  c #282625",
"q  c #292725",
"w  c #2F2A26",
"e  c #272828",
"r  c #262829",
"t  c #26282A",
"y  c #27292B",
"u  c #292B2D",
"i  c #292D2E",
"p  c #292C2F",
"a  c #2A2D2E",
"s  c #312B26",
"d  c #312C28",
"f  c #322D29",
"g  c #39322C",
"h  c #3A332D",
"j  c #292D30",
"k  c #2B2F30",
"l  c #2B2F31",
"z  c #2B3032",
"x  c #2D3032",
"c  c #2E3433",
"v  c #2B3136",
"b  c #2E3438",
"n  c #2F353B",
"m  c #313130",
"M  c #353535",
"N  c #31373A",
"B  c #32393C",
"V  c #313A3F",
"C  c #323A3E",
"Z  c #343B3F",
"A  c #393939",
"S  c #3B3A3A",
"D  c #42372F",
"F  c #4F4136",
"G  c #42403E",
"H  c #504136",
"J  c #514236",
"K  c #333B41",
"L  c #323C40",
"P  c #323C41",
"I  c #333D42",
"U  c #343C40",
"Y  c #353E42",
"T  c #363F43",
"R  c #333F47",
"E  c #343D44",
"W  c #343E44",
"Q  c #353E45",
"!  c #363F45",
"~  c #363F46",
"^  c #374044",
"/  c #374045",
"(  c #3A4443",
")  c #384146",
"_  c #3B4546",
"`  c #364048",
"'  c #364148",
"]  c #364049",
"[  c #36424A",
"{  c #38434B",
"}  c #3B464B",
"|  c #39454D",
" . c #3A454D",
".. c #3C464E",
"X. c #3E4A52",
"o. c #3F4D51",
"O. c #3F4D58",
"+. c #3F4E59",
"@. c gray25",
"#. c #484848",
"$. c gray29",
"%. c gray31",
"&. c #43514E",
"*. c #404F56",
"=. c #435158",
"-. c #40505A",
";. c #44535A",
":. c #40525E",
">. c #45555C",
",. c #46555D",
"<. c gray35",
"1. c #5D5D5E",
"2. c gray37",
"3. c #445561",
"4. c #465966",
"5. c #485961",
"6. c #4E626C",
"7. c #526662",
"8. c #526663",
"9. c #526665",
"0. c #70706F",
"q. c #777573",
"w. c #7C7B7B",
"e. c #577080",
"r. c #577181",
"t. c #587181",
"y. c #587282",
"u. c #5C7684",
"i. c #5F7B87",
"p. c #5D7888",
"a. c #5D7989",
"s. c #607B88",
"d. c #617D8A",
"f. c #627E8B",
"g. c #637F8D",
"h. c #63808D",
"j. c #63818E",
"k. c #6E8E8F",
"l. c #638090",
"z. c #658391",
"x. c #698997",
"c. c #698998",
"v. c #6A8998",
"b. c #6A8A99",
"n. c #6B8B9A",
"m. c #6B8C9B",
"M. c #6C8C9B",
"N. c #6C8D9C",
"B. c #6D8E9D",
"V. c #6E8F9F",
"C. c #6E90A0",
"Z. c #7EA5A5",
"A. c #7FA7A7",
"S. c #808081",
"D. c #868585",
"F. c #888787",
"G. c #8C8A89",
"H. c #8E8E8E",
"J. c gray59",
"K. c #A3A3A2",
"L. c #A5A5A5",
"P. c #A7A6A6",
"I. c gray67",
"U. c #B4B4B4",
"Y. c #B6B6B6",
"T. c gray",
"R. c gray77",
"E. c #C7C7C8",
"W. c #C8C8C8",
"Q. c #CACACA",
"!. c #DFDFDF",
"~. c #E4E4E4",
"^. c gray90",
"/. c gray92",
"(. c #F4F4F4",
"). c #F6F6F6",
"_. c gray97",
"`. c #F8F8F8",
"'. c gray98",
"]. c None",
/* pixels */
"].].].].].].].].].].].].].].].].].].].].].].].].].].].].].].].].",
"].].].].].].].].].].].].].].].].].].].].].].].].].].].].].].].].",
"].].].].].].].].].].].].].].].].].].].].].].].].].].].].].].].].",
"].].].].].].].].].].].].].].].].].].].].].].].].].].].].].].].].",
"].].].].].].].].].].].].].].].].].].].].].].].].].].].].].].].].",
"].].].].].].].].].].].].].].].].].].].].].].].].].].].].].].].].",
"].].].].].].].].].].].].].].].].].].].].].].].].].].].].].].].].",
"].].].].].].].].].].* * * * * * * * ].].].].].].].].].].].].].].",
"].].].].].].].].].j ` ' ' ' ' ' ' ] n ].].].].].].].].].].].].].",
"].].].].].].].].j  .e.t.r.r.r.r.t.i.o.& ].].].].].].].].].].].].",
"].].].].].].].* ` e.c.b.b.b.b.b.b.A.8.+ ].].].].].].].].].].].].",
"].].].].].].].* ' t.v.c.x.c.c.x.c.Z.7.+ ].].].].].].].].].].].].",
"].].].].].].].* ` y.j.} Z T / ^ ^ _ c : ].].].].].].].].].].].].",
"].].].].].].].& X.l.z.5.;.N o $ O &.( * ].].].].].].].].].].].].",
"].].].].].].].$ ,.C.M.N.C.6.p 7 Y k.9.+ ].].].].].].].].].].].].",
"].].].].].].].$ =.h.g.c.m.a.O.l d.V.>.$ ].].].].].].].].].].].].",
"].].].].].].].].a i B f.n.p.+.z d.B.>.= 6 6 6 6 5 , ].].].].].].",
"].].].].].].].].].@ 3 U ) C Q -.I V 4 #.U.Y.Y.T.H.2 > ].].].].].",
"].].].].].].].].].].; o # X - ..S.G.F.I.(.).`.E.q.h 1 ].].].].].",
"].].].].].].].].].].].T y @.2.0.^.'.'.!.L.K.P.1.9 J q ].].].].].",
"].].].].].].].].].].k s.L D._./.Q.R.Q.J.e u x t f H 0 ].].].].].",
"].].].].].].].].].].k s.P w.~.W.$.M A m t 3.u.*.s F 0 ].].].].].",
"].].].].].].].].].].].T r S <.%.8 R :.[ 7 b ! G D d ].].].].].].",
"].].].].].].].].].].].* K v .   , 3.4.W , = % w g ].].].].].].].",
"].].].].].].].].].].].< | ~ ].].< { E ].]., , > ].].].].].].].].",
"].].].].].].].].].].]., < ].].]., < ].].].].].].].].].].].].].].",
"].].].].].].].].].].].].].].].].].].].].].].].].].].].].].].].].",
"].].].].].].].].].].].].].].].].].].].].].].].].].].].].].].].].",
"].].].].].].].].].].].].].].].].].].].].].].].].].].].].].].].].",
"].].].].].].].].].].].].].].].].].].].].].].].].].].].].].].].].",
"].].].].].].].].].].].].].].].].].].].].].].].].].].].].].].].].",
"].].].].].].].].].].].].].].].].].].].].].].].].].].].].].].].]."
};
