/* XPM */
static char *result[] = {
/* columns rows colors chars-per-pixel */
"32 32 170 2 ",
"   c #181817",
".  c #191919",
"X  c #1A1919",
"o  c #1A1A19",
"O  c gray10",
"+  c #1B1A1A",
"@  c #1C1B1A",
"#  c #1D1C1B",
"$  c #1E1C1C",
"%  c #1E1D1D",
"&  c #1F1E1D",
"*  c #1D1D1E",
"=  c #201F1E",
"-  c #201F1F",
";  c #20201F",
":  c #1F2122",
">  c #202020",
",  c #212020",
"<  c #212120",
"1  c gray13",
"2  c #222222",
"3  c #232222",
"4  c #222323",
"5  c #232323",
"6  c #232424",
"7  c #242526",
"8  c #272727",
"9  c #262728",
"0  c #262729",
"q  c #272A2C",
"w  c #242A2E",
"e  c #252B2F",
"r  c #282828",
"t  c gray16",
"y  c #282B2D",
"u  c #292D2E",
"i  c #2F2F2F",
"p  c #312A25",
"a  c #39312C",
"s  c #3C332C",
"d  c #3E352D",
"f  c #3E352E",
"g  c #2A2E30",
"h  c #2C3030",
"j  c #2D3130",
"k  c #2E3438",
"l  c #2F3538",
"z  c #2C343A",
"x  c #313131",
"c  c #343434",
"v  c #323A3E",
"b  c gray22",
"n  c #3A3A3A",
"m  c gray23",
"M  c #3E3B38",
"N  c gray24",
"B  c #333B41",
"V  c #333C42",
"C  c #353D41",
"Z  c #313D46",
"A  c #353E46",
"S  c #364047",
"D  c #364048",
"F  c #374149",
"G  c #37434B",
"H  c #38434C",
"J  c #3B474C",
"K  c #3B464E",
"L  c #3A464F",
"P  c #3C484D",
"I  c #3E4A4F",
"U  c #3D4A52",
"Y  c #3D4C53",
"T  c #4B4A4A",
"R  c #4B4B4B",
"E  c #504F4F",
"W  c #414E55",
"Q  c #474F55",
"!  c #414F5A",
"~  c #435258",
"^  c #45545B",
"/  c #41515D",
"(  c #42525E",
")  c #43555E",
"_  c #46555D",
"`  c #46565D",
"'  c #46565E",
"]  c #565555",
"[  c #545657",
"{  c #5A5959",
"}  c #5D5D5D",
"|  c #495A62",
" . c #4A5B64",
".. c #485B69",
"X. c #495C6B",
"o. c #495D6B",
"O. c #4A5E6B",
"+. c #4F6161",
"@. c #4B606F",
"#. c #506360",
"$. c #536763",
"%. c #536764",
"&. c #526771",
"*. c #506776",
"=. c #526977",
"-. c #556B76",
";. c #526A78",
":. c #59717C",
">. c gray38",
",. c #717171",
"<. c #797979",
"1. c #7C7C7C",
"2. c gray50",
"3. c #577181",
"4. c #587283",
"5. c #5C7581",
"6. c #5E7B8B",
"7. c #617C89",
"8. c #617D8A",
"9. c #627E8B",
"0. c #607D8E",
"q. c #63818E",
"w. c #62808F",
"e. c #64818E",
"r. c #6D8D8D",
"t. c #638090",
"y. c #638190",
"u. c #658391",
"i. c #668492",
"p. c #668494",
"a. c #678594",
"s. c #688896",
"d. c #6A8A99",
"f. c #6A8B9A",
"g. c #6B8B9A",
"h. c #6B8C9A",
"j. c #6B8C9B",
"k. c #6C8C9C",
"l. c #6C8D9C",
"z. c #6C8D9D",
"x. c #6D8E9D",
"c. c #6F91A1",
"v. c #7BA2A6",
"b. c #7FA6A6",
"n. c #818080",
"m. c gray51",
"M. c gray54",
"N. c #8D8D8D",
"B. c gray56",
"V. c gray58",
"C. c #80A8A8",
"Z. c #B1B1B1",
"A. c #BBBBBB",
"S. c gray77",
"D. c #C8C8C8",
"F. c #CACACA",
"G. c #DADADA",
"H. c gray86",
"J. c gainsboro",
"K. c #DDDDDD",
"L. c gray87",
"P. c gray90",
"I. c #E9E9E9",
"U. c #EAEAEA",
"Y. c gray92",
"T. c gray94",
"R. c #F6F6F6",
"E. c #F9F9F9",
"W. c gray98",
"Q. c None",
/* pixels */
"Q.Q.Q.Q.Q.Q.Q.Q.Q.Q.Q.Q.Q.Q.Q.Q.Q.Q.Q.Q.Q.Q.Q.Q.Q.Q.Q.Q.Q.Q.Q.Q.",
"Q.Q.Q.Q.Q.Q.Q.Q.Q.Q.Q.Q.Q.Q.Q.Q.Q.Q.Q.Q.Q.Q.Q.Q.Q.Q.Q.Q.Q.Q.Q.Q.",
"Q.Q.Q.Q.Q.Q.Q.Q.Q.Q.Q.Q.Q.Q.Q.Q.Q.Q.Q.Q.Q.Q.Q.Q.Q.Q.Q.Q.Q.Q.Q.Q.",
"Q.Q.Q.Q.Q.Q.Q.Q.Q.Q.Q.Q.Q.Q.Q.Q.Q.Q.Q.Q.Q.Q.Q.Q.Q.Q.Q.Q.Q.Q.Q.Q.",
"Q.Q.Q.Q.Q.Q.Q.Q.Q.Q.Q.Q.Q.Q.Q.Q.Q.Q.Q.Q.Q.Q.Q.Q.Q.Q.Q.Q.Q.Q.Q.Q.",
"Q.Q.Q.Q.Q.Q.Q.Q.Q.Q.Q.Q.Q.Q.Q.Q.Q.Q.Q.Q.Q.Q.Q.Q.Q.Q.Q.Q.Q.Q.Q.Q.",
"Q.Q.Q.Q.Q.Q.Q.Q.Q.Q.Q.Q.Q.Q.Q.Q.Q.Q.Q.Q.Q.Q.Q.Q.Q.Q.Q.Q.Q.Q.Q.Q.",
"Q.Q.Q.Q.Q.Q.Q.Q.Q.Q.Q.Q.Q.Q.Q.Q.Q.Q.Q.Q.Q.Q.Q.Q.Q.Q.Q.Q.Q.Q.Q.Q.",
"Q.Q.Q.Q.Q.Q.Q.Q.Q.Q.Q.Q.Q.Q.Q.Q.Q.Q.Q.Q.Q.Q.Q.Q.Q.Q.Q.Q.Q.Q.Q.Q.",
"Q.Q.Q.Q.Q.Q.Q.Q.Q.Q.Q.Q.Q.Q.y k k y Q.Q.Q.Q.Q.Q.Q.Q.Q.Q.Q.Q.Q.Q.",
"Q.Q.Q.Q.Q.Q.Q.Q.Q.Q.Q.Q.Q.7 B *.*.V 0 q q q h j Q.Q.Q.Q.Q.Q.Q.Q.",
"Q.Q.Q.Q.Q.Q.Q.Q.Q.Q.Q.Q.- A ;.a.a.=...o.X.O.r.#.$ Q.Q.Q.Q.Q.Q.Q.",
"Q.Q.Q.Q.Q.Q.Q.Q.Q.Q.Q.Q.- F 4.f.z.p.w.t.t.y.b.%.$ Q.Q.Q.Q.Q.Q.Q.",
"Q.Q.Q.Q.Q.Q.Q.Q.Q.Q.Q.Q.- D 3.u.| 7.c.x.g.h.C.$.$ Q.Q.Q.Q.Q.Q.Q.",
"Q.Q.Q.Q.Q.Q.Q.Q.Q.Q.Q.Q.= K 6.q.J  .-.5.j.k.v.+.% Q.Q.Q.Q.Q.Q.Q.",
"Q.Q.Q.Q.Q.Q.Q.Q.Q.Q.Q.Q.& ^ l.d.s.I 5 C 8.9.e.~ & Q.Q.Q.Q.Q.Q.Q.",
"Q.Q.Q.Q.Q.Q.Q.Q.Q.Q.Q.Q.& ^ j.d.d.i.W 4 g g g u Q.Q.Q.Q.Q.Q.Q.Q.",
"Q.Q.Q.Q.Q.Q.Q.Q.Q.Q.Q.Q.Q.l ' j.l.0.U - - + o X . O 1 Q.Q.Q.Q.Q.",
"Q.Q.Q.Q.Q.Q.Q.Q.Q.Q.Q.Q.Q.Q.g _ ` G w   r 2.B.M.N.m.i Q.Q.Q.Q.Q.",
"Q.Q.Q.Q.Q.Q.Q.Q.Q.Q.Q.Q.Q.1 > @ # T >.} ,.P.W.E.I.Z.m Q.Q.Q.Q.Q.",
"Q.Q.Q.Q.Q.Q.Q.Q.Q.Q.Q.Q.g 9 t n N A.R.T.Y.F.S.F.V.8 Q.Q.Q.Q.Q.Q.",
"Q.Q.Q.Q.Q.Q.Q.Q.Q.Q.Q.6 &.Y ] G.K.J.H.L.D.R c b x 2 Q.Q.Q.Q.Q.Q.",
"Q.Q.Q.Q.Q.Q.Q.Q.Q.Q.Q.6 :.) { I.U.n.E ] [ ! e p s 3 Q.Q.Q.Q.Q.Q.",
"Q.Q.Q.Q.Q.Q.Q.Q.Q.Q.Q.5 P v n <.1.Q Z z : S M d a Q.Q.Q.Q.Q.Q.Q.",
"Q.Q.Q.Q.Q.Q.Q.Q.Q.Q.Q.2 ; , > + * / @.H 2 < f a Q.Q.Q.Q.Q.Q.Q.Q.",
"Q.Q.Q.Q.Q.Q.Q.Q.Q.Q.Q.2 2 Q.Q.Q.5 ( L < 2 2 3 Q.Q.Q.Q.Q.Q.Q.Q.Q.",
"Q.Q.Q.Q.Q.Q.Q.Q.Q.Q.Q.Q.Q.Q.Q.Q.Q.Q.Q.Q.Q.Q.Q.Q.Q.Q.Q.Q.Q.Q.Q.Q.",
"Q.Q.Q.Q.Q.Q.Q.Q.Q.Q.Q.Q.Q.Q.Q.Q.Q.Q.Q.Q.Q.Q.Q.Q.Q.Q.Q.Q.Q.Q.Q.Q.",
"Q.Q.Q.Q.Q.Q.Q.Q.Q.Q.Q.Q.Q.Q.Q.Q.Q.Q.Q.Q.Q.Q.Q.Q.Q.Q.Q.Q.Q.Q.Q.Q.",
"Q.Q.Q.Q.Q.Q.Q.Q.Q.Q.Q.Q.Q.Q.Q.Q.Q.Q.Q.Q.Q.Q.Q.Q.Q.Q.Q.Q.Q.Q.Q.Q.",
"Q.Q.Q.Q.Q.Q.Q.Q.Q.Q.Q.Q.Q.Q.Q.Q.Q.Q.Q.Q.Q.Q.Q.Q.Q.Q.Q.Q.Q.Q.Q.Q.",
"Q.Q.Q.Q.Q.Q.Q.Q.Q.Q.Q.Q.Q.Q.Q.Q.Q.Q.Q.Q.Q.Q.Q.Q.Q.Q.Q.Q.Q.Q.Q.Q."
};
