/* XPM */
static char *result[] = {
/* columns rows colors chars-per-pixel */
"32 32 169 2 ",
"   c #1C1A19",
".  c #1D1B1B",
"X  c gray11",
"o  c #1F1D1C",
"O  c #1F1E1C",
"+  c #1F1E1D",
"@  c #1D1D1E",
"#  c #201F1E",
"$  c #201F1F",
"%  c #20201F",
"&  c gray13",
"*  c #222121",
"=  c #222222",
"-  c #232222",
";  c #232322",
":  c #222323",
">  c #232323",
",  c #242322",
"<  c #222324",
"1  c #232324",
"2  c #232424",
"3  c gray14",
"4  c #242525",
"5  c #252525",
"6  c #242526",
"7  c #252627",
"8  c #232628",
"9  c #262728",
"0  c #262829",
"q  c #27292A",
"w  c #272A2B",
"e  c #282A2B",
"r  c #282B2D",
"t  c #2B2E2D",
"y  c #2A2D2F",
"u  c #37302B",
"i  c #3C322B",
"p  c #39312C",
"a  c #3D342C",
"s  c #3E342D",
"d  c #262C30",
"f  c #2A2E30",
"g  c #2B2F31",
"h  c #2A2F32",
"j  c #2D3133",
"k  c #283034",
"l  c #2C3135",
"z  c #2E3438",
"x  c #2D373B",
"c  c #2E363A",
"v  c #2F363A",
"b  c #3D3A37",
"n  c #373738",
"m  c #373838",
"M  c #31383D",
"N  c #32393C",
"B  c #3A3A3A",
"V  c #3B3A3A",
"C  c #433830",
"Z  c #453D37",
"A  c #4A3D33",
"S  c #343C40",
"D  c #343D44",
"F  c #353F46",
"G  c #374044",
"H  c #364047",
"J  c #384246",
"K  c #374148",
"L  c #38444C",
"P  c #39454D",
"I  c #3A454E",
"U  c #3C474C",
"Y  c #3C474D",
"T  c #3C484E",
"R  c #3A4953",
"E  c #3E4B55",
"W  c #3E4D57",
"Q  c #3F4E59",
"!  c #454443",
"~  c gray27",
"^  c #4B4A49",
"/  c gray29",
"(  c #404E59",
")  c #404F5A",
"_  c #425057",
"`  c #445254",
"'  c #435259",
"]  c #41505A",
"[  c #41525A",
"{  c #42525A",
"}  c #44545B",
"|  c #46555D",
" . c #46565D",
".. c #4A5B58",
"X. c gray35",
"o. c #5B5B5B",
"O. c #455662",
"+. c #475860",
"@. c #485961",
"#. c #4D5F66",
"$. c #4E6474",
"%. c #516875",
"&. c #536974",
"*. c #516879",
"=. c #526A78",
"-. c #5E7873",
";. c #5A737E",
":. c #5A747F",
">. c #656565",
",. c gray42",
"<. c #787776",
"1. c #74787A",
"2. c #587181",
"3. c #5C7787",
"4. c #5F7A87",
"5. c #5D7988",
"6. c #5D7989",
"7. c #5F7B88",
"8. c #5E798A",
"9. c #627E8B",
"0. c #637F8D",
"q. c #6A8984",
"w. c #63808E",
"e. c #658391",
"r. c #668492",
"t. c #668494",
"y. c #668594",
"u. c #678695",
"i. c #678696",
"p. c #688796",
"a. c #698997",
"s. c #698998",
"d. c #6A8A99",
"f. c #6B8B9A",
"g. c #6B8C9B",
"h. c #6C8D9C",
"j. c #6C8D9D",
"k. c #6D8E9E",
"l. c #6D8F9E",
"z. c #73979B",
"x. c #74979C",
"c. c #6F92A2",
"v. c #878685",
"b. c #8B8A89",
"n. c #8B8A8A",
"m. c gray55",
"M. c #A0A0A0",
"N. c gray63",
"B. c #A4A4A3",
"V. c #A4A4A4",
"C. c #ACACAC",
"Z. c gray68",
"A. c #B3B2B2",
"S. c #B6B6B6",
"D. c gray72",
"F. c #BBBBBB",
"G. c gray",
"H. c #C0BFBF",
"J. c #C5C5C5",
"K. c #CACACA",
"L. c #CDCDCD",
"P. c gray89",
"I. c #E7E7E7",
"U. c #F4F4F4",
"Y. c gray96",
"T. c #F6F6F6",
"R. c #F8F8F8",
"E. c gray98",
"W. c None",
/* pixels */
"W.W.W.W.W.W.W.W.W.W.W.W.W.W.W.W.W.W.W.W.W.W.W.W.W.W.W.W.W.W.W.W.",
"W.W.W.W.W.W.W.W.W.W.W.W.W.W.W.W.W.W.W.W.W.W.W.W.W.W.W.W.W.W.W.W.",
"W.W.W.W.W.W.W.W.W.W.W.W.W.W.W.W.W.W.W.W.W.W.W.W.W.W.W.W.W.W.W.W.",
"W.W.W.W.W.W.W.W.W.W.W.W.W.W.W.W.W.W.W.W.W.W.W.W.W.W.W.W.W.W.W.W.",
"W.W.W.W.W.W.W.W.W.W.W.W.W.W.W.W.W.W.W.W.W.W.W.W.W.W.W.W.W.W.W.W.",
"W.W.W.W.W.W.W.W.W.W.W.W.W.W.W.W.W.W.W.W.W.W.W.W.W.W.W.W.W.W.W.W.",
"W.W.W.W.W.W.W.W.W.W.W.W.W.W.W.W.W.W.W.W.W.W.W.W.W.W.W.W.W.W.W.W.",
"W.W.W.W.W.W.W.W.W.W.W.W.W.W.W.W.W.W.W.W.W.W.W.W.W.W.W.W.W.W.W.W.",
"W.W.W.W.W.W.W.W.W.W.W.W.W.W.W.W.W.W.W.W.W.W.W.W.W.W.W.W.W.W.W.W.",
"W.W.W.W.W.W.W.W.W.W.W.W.W.W.W.W.W.W.W.W.W.W.W.W.W.W.W.W.W.W.W.W.",
"W.W.W.W.W.W.W.W.W.W.W.W.W.W.W.W.f r 6 * W.W.W.W.W.W.W.W.W.W.W.W.",
"W.W.W.W.W.W.W.W.W.W.W.W.W.W.W.g :.=.F & > > W.W.W.W.W.W.W.W.W.W.",
"W.W.W.W.W.W.W.W.W.W.W.W.W.W.l O.y.i.%.Q ) ( l . W.W.W.W.W.W.W.W.",
"W.W.W.W.W.W.W.W.W.W.W.W.W.O z *.u.l.t.6.8.5.] ` ..W.W.W.W.W.W.W.",
"W.W.W.W.W.W.W.W.W.W.W.W.W.W.v 2.p.;.4.k.h.f.3.z.q.3 W.W.W.W.W.W.",
"W.W.W.W.W.W.W.W.W.W.W.W.W.9 T a.s.Y } w.0.s.d.x.-.> W.W.W.W.W.W.",
"W.W.W.W.W.W.W.W.W.W.W.W.+ _ e.d.d.r.| e N 9.h.#.t 5 5 5 3 = W.W.",
"W.W.W.W.W.W.W.W.W.W.W.W.& g @.g.j.c.+.  @ c x 1.F.D.S.G.,.X W.W.",
"W.W.W.W.W.W.W.W.W.W.W.W.W.o y '  .{ k V n.b.v.H.R.T.U.Z.>.W.W.W.",
"W.W.W.W.W.W.W.W.W.W.W.W.W.$ e N > ^ o.m.Y.R.E.L.N.V.M./ W.W.W.W.",
"W.W.W.W.W.W.W.W.W.W.W.W.w : J 7.j A.R.P.J.J.K.<., 5 5 W.W.W.W.W.",
"W.W.W.W.W.W.W.W.W.W.W.2 Q D G 7.j B.I.C.B m n Z C = W.W.W.W.W.W.",
"W.W.W.W.W.W.W.W.W.W.w Q $.L q S 4 ! X.~ < R d i A ; W.W.W.W.W.W.",
"W.W.W.W.W.W.W.W.W.W.7 H L M + > K [ c 8 P I b s u W.W.W.W.W.W.W.",
"W.W.W.W.W.W.W.W.W.W.= % # W.W.0 W &.U h E 7 a p W.W.W.W.W.W.W.W.",
"W.W.W.W.W.W.W.W.W.W.W.W.W.W.W.= > 1 > = > = - W.W.W.W.W.W.W.W.W.",
"W.W.W.W.W.W.W.W.W.W.W.W.W.W.W.W.W.W.W.W.W.W.W.W.W.W.W.W.W.W.W.W.",
"W.W.W.W.W.W.W.W.W.W.W.W.W.W.W.W.W.W.W.W.W.W.W.W.W.W.W.W.W.W.W.W.",
"W.W.W.W.W.W.W.W.W.W.W.W.W.W.W.W.W.W.W.W.W.W.W.W.W.W.W.W.W.W.W.W.",
"W.W.W.W.W.W.W.W.W.W.W.W.W.W.W.W.W.W.W.W.W.W.W.W.W.W.W.W.W.W.W.W.",
"W.W.W.W.W.W.W.W.W.W.W.W.W.W.W.W.W.W.W.W.W.W.W.W.W.W.W.W.W.W.W.W.",
"W.W.W.W.W.W.W.W.W.W.W.W.W.W.W.W.W.W.W.W.W.W.W.W.W.W.W.W.W.W.W.W."
};
