/* XPM */
static char *result[] = {
/* columns rows colors chars-per-pixel */
"35 32 169 2 ",
"   c #151515",
".  c gray9",
"X  c #191919",
"o  c #1A1919",
"O  c #1B1B1B",
"+  c #1D1A19",
"@  c #1D1B1A",
"#  c #1D1C1B",
"$  c gray11",
"%  c #1D1D1D",
"&  c #1E1D1C",
"*  c #1F1E1D",
"=  c gray12",
"-  c #201E1E",
";  c #201F1E",
":  c #20201F",
">  c #212020",
",  c gray13",
"<  c #222222",
"1  c #222223",
"2  c #232323",
"3  c #232324",
"4  c #222524",
"5  c #232426",
"6  c #252525",
"7  c #252626",
"8  c #252728",
"9  c #26282A",
"0  c #27292A",
"q  c #272A2B",
"w  c #282B2D",
"e  c #2A2D2C",
"r  c #292C2E",
"t  c #2A2D2F",
"y  c #2D2D2D",
"u  c #2B2E30",
"i  c #2D3231",
"p  c #2C3133",
"a  c #2C3135",
"s  c #2F3639",
"d  c #2F353A",
"f  c #323232",
"g  c #373737",
"h  c #30373C",
"j  c #333A38",
"k  c #333B39",
"l  c #32393C",
"z  c gray22",
"x  c #383939",
"c  c #393939",
"v  c #3A3A3A",
"b  c gray23",
"n  c #343D40",
"m  c #353E42",
"M  c #343E44",
"N  c #363F44",
"B  c #353F47",
"V  c #374045",
"C  c #3A454A",
"Z  c #39444D",
"A  c #3B474C",
"S  c #3A464F",
"D  c #3D494F",
"F  c #3B4850",
"G  c #3E4A50",
"H  c #3C4953",
"J  c #3D4A53",
"K  c #3D4B55",
"L  c #3F4E59",
"P  c gray25",
"I  c #4B4B4B",
"U  c #404F5A",
"Y  c #43525A",
"T  c #425458",
"R  c #42525E",
"E  c #44545C",
"W  c #45545C",
"Q  c #45555D",
"!  c #47575E",
"~  c #485B59",
"^  c gray32",
"/  c #555555",
"(  c #585858",
")  c #5E5C5B",
"_  c #5D5C5C",
"`  c #445662",
"'  c #485860",
"]  c #495A62",
"[  c #4B5E66",
"{  c #485B6A",
"}  c #4C5F6A",
"|  c #4C6069",
" . c #4D616B",
".. c #4B606E",
"X. c #4C606D",
"o. c #4F646F",
"O. c #516563",
"+. c #576267",
"@. c #536867",
"#. c #566C6A",
"$. c #516772",
"%. c #526975",
"&. c #526876",
"*. c #536B7B",
"=. c #556D79",
"-. c #556E7F",
";. c gray38",
":. c #676767",
">. c #686868",
",. c #617B77",
"<. c #637F7B",
"1. c #727272",
"2. c #587282",
"3. c #597382",
"4. c #5C7682",
"5. c #5C7785",
"6. c #5F7A87",
"7. c #617D8A",
"8. c #627E8B",
"9. c #607D8D",
"0. c #627F8F",
"q. c #63808E",
"w. c #64818F",
"e. c #658391",
"r. c #688896",
"t. c #698898",
"y. c #698998",
"u. c #698999",
"i. c #6A8A99",
"p. c #6B8B99",
"a. c #6A8A9A",
"s. c #6B8B9B",
"d. c #6B8C9B",
"f. c #6C8D9B",
"g. c #6B8C9C",
"h. c #6C8D9D",
"j. c #6D8F9C",
"k. c #6D8E9D",
"l. c #73969B",
"z. c #70929F",
"x. c #75999D",
"c. c #6F92A2",
"v. c #7CA2A4",
"b. c gray51",
"n. c #898989",
"m. c gray54",
"M. c #8D8D8D",
"N. c gray59",
"B. c gray63",
"V. c #B4B4B4",
"C. c #C1C1C1",
"Z. c #C3C3C3",
"A. c #C6C6C6",
"S. c gray78",
"D. c #CBCBCB",
"F. c gray82",
"G. c gray83",
"H. c gray85",
"J. c gray86",
"K. c #DCDCDB",
"L. c gainsboro",
"P. c #DFDFDF",
"I. c #EFEFEF",
"U. c gray94",
"Y. c #F4F4F4",
"T. c gray96",
"R. c #F8F8F8",
"E. c gray99",
"W. c None",
/* pixels */
"W.W.W.W.W.W.W.W.W.W.W.W.W.W.W.W.W.W.W.W.W.W.W.W.W.W.W.W.W.W.W.W.W.W.W.",
"W.W.W.W.W.W.W.W.W.W.W.W.W.W.W.W.W.W.W.W.W.W.W.W.W.W.W.W.W.W.W.W.W.W.W.",
"W.W.W.W.W.W.W.W.W.W.W.W.W.W.W.W.W.W.W.W.W.W.W.W.W.W.W.W.W.W.W.W.W.W.W.",
"W.W.W.W.W.W.W.W.W.W.W.W.W.W.W.W.W.W.W.W.W.W.W.W.W.W.W.W.W.W.W.W.W.W.W.",
"W.W.W.W.W.W.W.W.W.W.W.W.W.W.W.W.W.W.W.W.W.W.W.W.W.W.W.W.W.W.W.W.W.W.W.",
"W.W.W.W.W.W.W.W.W.W.W.W.W.W.W.W.W.W.W.W.W.W.W.W.W.W.W.W.W.W.W.W.W.W.W.",
"W.W.W.W.W.W.W.W.W.W.W.W.W.W.W.W.W.W.W.W.W.W.W.W.W.W.W.W.W.W.W.W.W.W.W.",
"W.W.W.W.W.W.W.W.W.W.W.W.W.W.W.W.W.W.W.W.W.W.W.W.W.W.W.W.W.W.W.W.W.W.W.",
"W.W.W.W.W.W.W.W.W.W.W.W.W.W.W.W.W.W.W.W.W.W.W.W.W.W.W.W.W.W.W.W.W.W.W.",
"W.W.W.W.W.W.W.W.W.W.W.W.W.W.W.W.W.W.W.W.W.W.W.W.W.W.W.W.W.W.W.W.W.W.W.",
"W.W.W.W.W.W.W.W.W.W.W.W.W.W.W.W.W.W.W.W.W.W.W.W.W.W.W.W.W.W.W.W.W.W.W.",
"W.W.W.W.W.W.W.W.W.W.W.W.W.W.W.W.W.2 3 3 2 W.W.W.W.W.W.W.W.W.W.W.W.W.W.",
"W.W.W.W.W.W.W.W.W.W.W.W.W.W.W.W.2 Z } o.K 5 W.W.W.W.W.W.W.W.W.W.W.W.W.",
"W.W.W.W.W.W.W.W.W.W.W.W.W.W.W.W.: L 9.u.5.@.k W.W.W.W.W.W.W.W.W.W.W.W.",
"W.W.W.W.W.W.W.W.W.W.W.W.W.W.W.W.N X.0.g.j.v.O.j W.W.W.W.W.W.W.W.W.W.W.",
"W.W.W.W.W.W.W.W.W.W.W.W.W.W.W.l 8.s.e.w.i.p.v.#.e W.W.W.W.W.W.W.W.W.W.",
"W.W.W.W.W.W.W.W.W.W.W.W.W.W.m 8.y.h.] A r.i.f.x.,.7 W.W.W.W.W.W.W.W.W.",
"W.W.W.W.W.W.W.W.W.W.W.W.W.@ V h.k.d.7.[ D w.a.z.l.<.i o X X X X = W.W.",
"W.W.W.W.W.W.W.W.W.W.W.W.W.- p Q ! 7.4.C r q.c.=.T ~ 4 >.M.n.m.M.P O W.",
"W.W.W.W.W.W.W.W.W.W.W.W.W.W.: & ; $.Y + q | %.+.) _ ;.D.E.R.U.C.( W.W.",
"W.W.W.W.W.W.W.W.W.W.W.W.W.9 w t w U F 0 6 c g N.T.U.I.F.Z.S.V.v W.W.W.",
"W.W.W.W.W.W.W.W.W.W.W.W.> B &.6...d W  .x A.P.K.J.L.H.:.f z g W.W.W.W.",
"W.W.W.W.W.W.W.W.W.W.W.2 S { 2.t.*.a u s v G.Y.B.^ / / b W.W.W.W.W.W.W.",
"W.W.W.W.W.W.W.W.W.W.W.W.M ` -.3.J E n # y 1.b.I .   W.W.W.W.W.W.W.W.W.",
"W.W.W.W.W.W.W.W.W.W.W.W.* h R H 8 ' G > , % $ = W.W.W.W.W.W.W.W.W.W.W.",
"W.W.W.W.W.W.W.W.W.W.W.W.< 1 2 2 < 2 2 < < < < W.W.W.W.W.W.W.W.W.W.W.W.",
"W.W.W.W.W.W.W.W.W.W.W.W.W.W.W.W.W.W.W.W.W.W.W.W.W.W.W.W.W.W.W.W.W.W.W.",
"W.W.W.W.W.W.W.W.W.W.W.W.W.W.W.W.W.W.W.W.W.W.W.W.W.W.W.W.W.W.W.W.W.W.W.",
"W.W.W.W.W.W.W.W.W.W.W.W.W.W.W.W.W.W.W.W.W.W.W.W.W.W.W.W.W.W.W.W.W.W.W.",
"W.W.W.W.W.W.W.W.W.W.W.W.W.W.W.W.W.W.W.W.W.W.W.W.W.W.W.W.W.W.W.W.W.W.W.",
"W.W.W.W.W.W.W.W.W.W.W.W.W.W.W.W.W.W.W.W.W.W.W.W.W.W.W.W.W.W.W.W.W.W.W.",
"W.W.W.W.W.W.W.W.W.W.W.W.W.W.W.W.W.W.W.W.W.W.W.W.W.W.W.W.W.W.W.W.W.W.W."
};
