/* XPM */
static char *result[] = {
/* columns rows colors chars-per-pixel */
"32 32 171 2 ",
"   c #181818",
".  c #191919",
"X  c #1B1818",
"o  c #1B1918",
"O  c #1C1919",
"+  c #1C191A",
"@  c #1F1D1C",
"#  c #1F1E1D",
"$  c #1F1E1E",
"%  c #201F1F",
"&  c #25211E",
"*  c #1D2023",
"=  c #212020",
"-  c #212120",
";  c #202121",
":  c #222222",
">  c #232322",
",  c #222323",
"<  c #232323",
"1  c #232423",
"2  c #232424",
"3  c gray14",
"4  c #252525",
"5  c #242526",
"6  c #252626",
"7  c #242627",
"8  c #252727",
"9  c #262727",
"0  c #2E2A27",
"q  c #222628",
"w  c #252728",
"e  c #272828",
"r  c #262829",
"t  c #26292A",
"y  c #26292B",
"u  c #282A2A",
"i  c #292B2D",
"p  c #2A2E2D",
"a  c #292C2F",
"s  c #342E2A",
"d  c #362F2A",
"f  c #2C302F",
"g  c #3D332C",
"h  c #3E342D",
"j  c #3F362F",
"k  c #2B2F30",
"l  c #2A2F32",
"z  c #2F3333",
"x  c #2F3433",
"c  c #2B3136",
"v  c #2B3237",
"b  c #2C3237",
"n  c #2D3338",
"m  c #2E3438",
"M  c #2E3439",
"N  c #313130",
"B  c #353535",
"V  c #30373B",
"C  c #31393F",
"Z  c #393939",
"A  c #3B3A3A",
"S  c #433C36",
"D  c #483C32",
"F  c #483C33",
"G  c #333B41",
"H  c #323C40",
"J  c #323C41",
"K  c #343C40",
"L  c #353D41",
"P  c #353E42",
"I  c #363F43",
"U  c #333F47",
"Y  c #343D44",
"T  c #353E44",
"R  c #363F46",
"E  c #3A4342",
"W  c #3B4644",
"Q  c #3C4746",
"!  c #36424A",
"~  c #38434B",
"^  c #384449",
"/  c #3B464B",
"(  c #39454D",
")  c #3F4B49",
"_  c #3B4851",
"`  c #3D4B55",
"'  c #3F4E59",
"]  c gray25",
"[  c #494948",
"{  c gray29",
"}  c gray31",
"|  c #435259",
" . c #40505B",
".. c #44535A",
"X. c #47555B",
"o. c #40515E",
"O. c #43535F",
"+. c #45555C",
"@. c #46565D",
"#. c #46565E",
"$. c #47585E",
"%. c gray35",
"&. c #5E5E5D",
"*. c #4E605F",
"=. c #445561",
"-. c #465762",
";. c #475860",
":. c #475A67",
">. c #516777",
",. c #516877",
"<. c #536A77",
"1. c #546A74",
"2. c #546A75",
"3. c #516878",
"4. c #526979",
"5. c #536A79",
"6. c #686563",
"7. c #6C6D6D",
"8. c #6F6F6E",
"9. c #7C7B7B",
"0. c #597382",
"q. c #5B7580",
"w. c #5E7A8B",
"e. c #5E7B8B",
"r. c #607B88",
"t. c #6C8B86",
"y. c #658290",
"u. c #648292",
"i. c #668595",
"p. c #678695",
"a. c #688796",
"s. c #688896",
"d. c #698897",
"f. c #6A8A97",
"g. c #698998",
"h. c #6A8A99",
"j. c #6B8C9B",
"k. c #6C8D9C",
"l. c #6C8D9D",
"z. c #6D8E9D",
"x. c #70939F",
"c. c #7A9F9E",
"v. c #818283",
"b. c #868585",
"n. c #888887",
"m. c #8C8B8A",
"M. c #8D8D8D",
"N. c gray59",
"B. c #83ACA8",
"V. c #A3A3A2",
"C. c #A5A5A5",
"Z. c #A7A7A7",
"A. c gray67",
"S. c #B6B6B6",
"D. c #B8B7B7",
"F. c gray72",
"G. c gray75",
"H. c gray77",
"J. c #C7C7C8",
"K. c #C8C8C8",
"L. c #CACACA",
"P. c #DFDFDF",
"I. c #E4E4E4",
"U. c gray90",
"Y. c gray92",
"T. c #F4F4F4",
"R. c #F6F6F6",
"E. c gray97",
"W. c #F8F8F8",
"Q. c gray98",
"!. c None",
/* pixels */
"!.!.!.!.!.!.!.!.!.!.!.!.!.!.!.!.!.!.!.!.!.!.!.!.!.!.!.!.!.!.!.!.",
"!.!.!.!.!.!.!.!.!.!.!.!.!.!.!.!.!.!.!.!.!.!.!.!.!.!.!.!.!.!.!.!.",
"!.!.!.!.!.!.!.!.!.!.!.!.!.!.!.!.!.!.!.!.!.!.!.!.!.!.!.!.!.!.!.!.",
"!.!.!.!.!.!.!.!.!.!.!.!.!.!.!.!.!.!.!.!.!.!.!.!.!.!.!.!.!.!.!.!.",
"!.!.!.!.!.!.!.!.!.!.!.!.!.!.!.!.!.!.!.!.!.!.!.!.!.!.!.!.!.!.!.!.",
"!.!.!.!.!.!.!.!.!.!.!.!.!.!.!.!.!.!.!.!.!.!.!.!.!.!.!.!.!.!.!.!.",
"!.!.!.!.!.!.!.!.!.!.!.!.!.!.!.!.!.!.!.!.!.!.!.!.!.!.!.!.!.!.!.!.",
"!.!.!.!.!.!.!.!.!.!.!.!.!.!.!.!.!.!.!.!.!.!.!.!.!.!.!.!.!.!.!.!.",
"!.!.!.!.!.!.!.!.!.!.!.!.!.!.@ @ @ @ @ @ @ !.!.!.!.!.!.!.!.!.!.!.",
"!.!.!.!.!.!.!.!.!.!.!.!.!.l M m m m m m m n a !.!.!.!.!.!.!.!.!.",
"!.!.!.!.!.!.!.!.!.!.!.!.w _ 4.,.,.,.,.>.3.<.V !.!.!.!.!.!.!.!.!.",
"!.!.!.!.!.!.!.!.!.!.!.< ` 0.a.p.p.p.p.i.f.c.Q O !.!.!.!.!.!.!.!.",
"!.!.!.!.!.!.!.!.!.!.!.<  .w.k.z.z.z.z.l.x.B.) X !.!.!.!.!.!.!.!.",
"!.!.!.!.!.!.!.!.!.!.!.< ' e.r...| +.#.@.$.*.x $ !.!.!.!.!.!.!.!.",
"!.!.!.!.!.!.!.!.!.!.!.< -.u.q.P K 8 @ $ 1 E p !.!.!.!.!.!.!.!.!.",
"!.!.!.!.!.!.!.!.!.!.!.2 2.z.h.g.s./ , % f t.W + !.!.!.!.!.!.!.!.",
"!.!.!.!.!.!.!.!.!.!.!.2 1.j.g.h.d.5.Y - 9 z u 4 3 : !.!.!.!.!.!.",
"!.!.!.!.!.!.!.!.!.!.!.!.L P ;.y.^ v * [ S.D.F.G.M.3 !.!.!.!.!.!.",
"!.!.!.!.!.!.!.!.!.!.!.!.# o q X.v.m.n.A.T.R.W.J.7.3 !.!.!.!.!.!.",
"!.!.!.!.!.!.!.!.!.!.!.P y ] &.8.U.Q.Q.P.C.V.Z.6.& : !.!.!.!.!.!.",
"!.!.!.!.!.!.!.!.!.!.k r.H b.E.Y.L.H.L.N.e i 7 j D > !.!.!.!.!.!.",
"!.!.!.!.!.!.!.!.!.!.k r.J 9.I.K.{ B Z N t O.b g F > !.!.!.!.!.!.",
"!.!.!.!.!.!.!.!.!.!.!.I r A %.} 6 U o.! 5 m S h 0 !.!.!.!.!.!.!.",
"!.!.!.!.!.!.!.!.!.!.!.% G c .   : =.:.C : = d s !.!.!.!.!.!.!.!.",
"!.!.!.!.!.!.!.!.!.!.!., ( R !.!., ~ T # : : ; !.!.!.!.!.!.!.!.!.",
"!.!.!.!.!.!.!.!.!.!.!.: , !.!.!.: , !.!.!.!.!.!.!.!.!.!.!.!.!.!.",
"!.!.!.!.!.!.!.!.!.!.!.!.!.!.!.!.!.!.!.!.!.!.!.!.!.!.!.!.!.!.!.!.",
"!.!.!.!.!.!.!.!.!.!.!.!.!.!.!.!.!.!.!.!.!.!.!.!.!.!.!.!.!.!.!.!.",
"!.!.!.!.!.!.!.!.!.!.!.!.!.!.!.!.!.!.!.!.!.!.!.!.!.!.!.!.!.!.!.!.",
"!.!.!.!.!.!.!.!.!.!.!.!.!.!.!.!.!.!.!.!.!.!.!.!.!.!.!.!.!.!.!.!.",
"!.!.!.!.!.!.!.!.!.!.!.!.!.!.!.!.!.!.!.!.!.!.!.!.!.!.!.!.!.!.!.!.",
"!.!.!.!.!.!.!.!.!.!.!.!.!.!.!.!.!.!.!.!.!.!.!.!.!.!.!.!.!.!.!.!."
};
